<svg xmlns="http://www.w3.org/2000/svg" viewBox="0 0 201.063 19">
          <path d="M2.818 2.861h-.043v9.308a3.332 3.332 0 00.352 1.911q.352.417 1.655.416v.32H.004v-.32a2.21 2.21 0 001.644-.427 3.255 3.255 0 00.363-1.9v-8.86a3.222 3.222 0 00-.363-1.836q-.363-.47-1.644-.47v-.32h3.651l5.252 11.571L14.223.683h3.715v.32a2.176 2.176 0 00-1.633.438 3.184 3.184 0 00-.374 1.89v8.838a3.112 3.112 0 00.384 1.889 2.179 2.179 0 001.622.438v.32h-5.683v-.32a2.21 2.21 0 001.644-.427 3.253 3.253 0 00.363-1.9V2.476h-.043L8.539 14.815h-.235z"></path>
          <path d="M25.789 12.596a2.048 2.048 0 00.16.982.661.661 0 00.608.256 2 2 0 00.747-.128l.107.3-2.733 1.11h-.342v-2.007q-1.793 2.007-3.373 2.007a2.036 2.036 0 01-1.708-.769 3.439 3.439 0 01-.6-2.156V7.259a2.166 2.166 0 00-.277-1.324 1.851 1.851 0 00-1.3-.341v-.32h3.032v6.853q0 1.964 1.6 1.964a2.555 2.555 0 001.334-.491 7.248 7.248 0 001.292-1.046V7.26a2.163 2.163 0 00-.278-1.324 1.85 1.85 0 00-1.3-.341v-.32h3.032z"></path>
          <path d="M33.454 8.24h-.32a3.384 3.384 0 00-.768-1.932 2.255 2.255 0 00-1.815-.779 1.859 1.859 0 00-1.185.395 1.276 1.276 0 00-.5 1.057 1.529 1.529 0 00.544 1.174 4.932 4.932 0 001.313.833q.769.342 1.537.726a3.931 3.931 0 011.313 1.057 2.481 2.481 0 01.544 1.612 2.424 2.424 0 01-.918 2 3.5 3.5 0 01-2.263.737 5.607 5.607 0 01-1.526-.214 5.323 5.323 0 00-.929-.214.346.346 0 00-.384.278h-.32v-3.416h.32a3.687 3.687 0 00.9 2.145 2.582 2.582 0 002.028.865 1.819 1.819 0 001.238-.427 1.449 1.449 0 00.491-1.153 1.747 1.747 0 00-.512-1.27 4.2 4.2 0 00-1.249-.865q-.736-.342-1.473-.7a3.817 3.817 0 01-1.249-.971 2.226 2.226 0 01-.512-1.484 2.544 2.544 0 01.807-1.97 2.967 2.967 0 012.092-.747 3.817 3.817 0 011.1.2 3.657 3.657 0 00.929.2q.3 0 .448-.406h.32z"></path>
          <path d="M35.908 8.881a6.072 6.072 0 00.907 3.587 2.842 2.842 0 002.423 1.259q2.241 0 3.074-2.583l.278.149a5.387 5.387 0 01-1.3 2.722 3.22 3.22 0 01-2.477 1.1 3.744 3.744 0 01-2.994-1.391 5.265 5.265 0 01-1.174-3.522 5.775 5.775 0 011.185-3.789 3.849 3.849 0 013.128-1.441 3.455 3.455 0 012.668 1.089 4 4 0 011 2.818zm4.932-.576a2.966 2.966 0 00-.662-2 2.131 2.131 0 00-1.665-.715 2.412 2.412 0 00-1.751.768 2.866 2.866 0 00-.833 1.943z"></path>
          <path d="M50.832 12.596a2.047 2.047 0 00.16.982.661.661 0 00.609.256 2 2 0 00.747-.128l.107.3-2.732 1.11h-.342v-2.007q-1.793 2.007-3.373 2.007a2.036 2.036 0 01-1.708-.769 3.439 3.439 0 01-.6-2.156V7.259a2.166 2.166 0 00-.277-1.324 1.851 1.851 0 00-1.3-.341v-.32h3.032v6.853q0 1.964 1.6 1.964a2.556 2.556 0 001.334-.491 7.251 7.251 0 001.292-1.046V7.26a2.163 2.163 0 00-.278-1.324 1.85 1.85 0 00-1.3-.341v-.32h3.029z"></path>
          <path d="M54.952 7.002q.6-.619 1.014-.993a4.741 4.741 0 011.1-.7 3.068 3.068 0 011.345-.331 1.945 1.945 0 011.42.555 2.707 2.707 0 01.715 1.6q.6-.726.971-1.1a4.271 4.271 0 011.014-.715 2.819 2.819 0 011.345-.341q2.455 0 2.455 3.159v4.931a1.456 1.456 0 00.331 1.142 1.939 1.939 0 001.142.288v.32h-4.376v-.32a1.885 1.885 0 001.131-.288 1.486 1.486 0 00.32-1.142V8.712a4.371 4.371 0 00-.342-2.124 1.367 1.367 0 00-1.238-.523 4.548 4.548 0 00-2.669 1.473v5.529a1.455 1.455 0 00.331 1.142 1.938 1.938 0 001.142.288v.32h-4.4v-.32a1.938 1.938 0 001.142-.288 1.454 1.454 0 00.331-1.142V8.413a3.286 3.286 0 00-.374-1.814 1.368 1.368 0 00-1.206-.534 4.4 4.4 0 00-2.647 1.473v5.529a1.645 1.645 0 00.278 1.142 1.851 1.851 0 001.174.288v.32h-4.376v-.32a1.92 1.92 0 001.164-.288 1.522 1.522 0 00.31-1.142v-5.4a2.4 2.4 0 00-.182-1.142.685.685 0 00-.63-.288 2.187 2.187 0 00-.747.171l-.13-.284 2.8-1.153h.341z"></path>
          <path d="M79.695 6.383a4.792 4.792 0 011.345 3.441 6.83 6.83 0 01-.427 2.391 4.715 4.715 0 01-1.505 2.028 4.125 4.125 0 01-5.711-.608 5.074 5.074 0 01-1.323-3.49 5.4 5.4 0 011.3-3.661 4.053 4.053 0 013.181-1.5 4.21 4.21 0 013.14 1.399zm-5.22.2a4.31 4.31 0 00-.758 2.679 7.2 7.2 0 00.886 3.757 2.639 2.639 0 002.316 1.473 1.979 1.979 0 001.889-1.131 5.624 5.624 0 00.587-2.626 7 7 0 00-.865-3.821 2.551 2.551 0 00-2.188-1.324 2.274 2.274 0 00-1.866.996z"></path>
          <path d="M84.606 12.105a3.832 3.832 0 00.309 1.975q.31.4 1.462.416v.32h-5.038v-.32q1.217-.021 1.516-.405a3.945 3.945 0 00.3-1.985V5.851h-1.857v-.579h1.854V4.226a4.535 4.535 0 011-3.053 3.287 3.287 0 012.626-1.174 3.674 3.674 0 011.868.512 1.474 1.474 0 01.886 1.26.673.673 0 01-.2.512.759.759 0 01-.544.192.9.9 0 01-.651-.288 2.349 2.349 0 01-.459-.64 1.823 1.823 0 00-.545-.64 1.407 1.407 0 00-.886-.288q-1.644 0-1.644 2.754v1.9h2.455v.576h-2.455z"></path>
          <path d="M94.96 12.318a2.948 2.948 0 00.352 1.793 2.381 2.381 0 001.654.384v.32h-5.679v-.32a2.221 2.221 0 001.612-.427 2.711 2.711 0 00.4-1.751V3.176a2.759 2.759 0 00-.384-1.772 2.3 2.3 0 00-1.622-.406v-.32h5.593a5.33 5.33 0 013.533 1.067 3.57 3.57 0 011.27 2.882 3.635 3.635 0 01-1.164 2.775 4.274 4.274 0 01-3.042 1.089 13.247 13.247 0 01-2.519-.363zm0-4.761a11.751 11.751 0 002.2.32 2.233 2.233 0 001.793-.886 3.438 3.438 0 00.726-2.252 3.487 3.487 0 00-.822-2.466 2.9 2.9 0 00-2.231-.886 6.383 6.383 0 00-1.665.192z"></path>
          <path d="M102.731 8.881a6.069 6.069 0 00.907 3.587 2.841 2.841 0 002.423 1.259q2.242 0 3.074-2.583l.278.149a5.389 5.389 0 01-1.3 2.722 3.219 3.219 0 01-2.476 1.1 3.744 3.744 0 01-2.989-1.388 5.264 5.264 0 01-1.174-3.522 5.776 5.776 0 011.185-3.789 3.85 3.85 0 013.128-1.441 3.455 3.455 0 012.669 1.089 4 4 0 011 2.818zm4.931-.576a2.965 2.965 0 00-.662-2 2.131 2.131 0 00-1.665-.715 2.411 2.411 0 00-1.75.768 2.865 2.865 0 00-.832 1.943z"></path>
          <path d="M116.822 12.617a3.065 3.065 0 00.117 1.067.4.4 0 00.4.256q.448 0 1.174-.811v.512a4.563 4.563 0 01-1 1.025 1.844 1.844 0 01-1.046.448.928.928 0 01-.79-.416 1.968 1.968 0 01-.3-1.163 11.309 11.309 0 01-1.7 1.238 2.842 2.842 0 01-1.377.342 2.12 2.12 0 01-1.612-.641 2.438 2.438 0 01-.608-1.751 2.623 2.623 0 011.217-2.156 17.84 17.84 0 014.078-1.964q0-.747-.043-1.185a4.559 4.559 0 00-.2-.939 1.277 1.277 0 00-.544-.737 1.9 1.9 0 00-1-.235 1.69 1.69 0 00-1.153.374 1.253 1.253 0 00-.427.993q0 1.452-.854 1.452a.693.693 0 01-.566-.245.956.956 0 01-.2-.63 2.175 2.175 0 01.961-1.719 3.987 3.987 0 012.54-.758 3.107 3.107 0 012.177.7 2.558 2.558 0 01.769 1.985zm-1.452-3.458a10.093 10.093 0 00-2.882 1.452 2.156 2.156 0 00-.918 1.687 1.774 1.774 0 00.438 1.26 1.393 1.393 0 001.057.47 2.142 2.142 0 00.95-.224 9.322 9.322 0 001.356-.907z"></path>
          <path d="M126.15 11.144a5.288 5.288 0 01-1.281 2.839 3.359 3.359 0 01-2.6 1.131 3.469 3.469 0 01-2.829-1.409 5.794 5.794 0 01-1.12-3.715 5.218 5.218 0 011.249-3.629 4.056 4.056 0 013.149-1.388 3.678 3.678 0 012.2.672 1.906 1.906 0 01.939 1.548.828.828 0 01-.9.875q-.9 0-1.025-1.131a1.331 1.331 0 00-1.516-1.345 2.451 2.451 0 00-2.049 1 4.162 4.162 0 00-.769 2.6 5.448 5.448 0 00.939 3.32 2.788 2.788 0 002.306 1.27 2.593 2.593 0 001.879-.747 4.455 4.455 0 001.131-2.028z"></path>
          <path d="M127.709 8.881a6.071 6.071 0 00.907 3.587 2.842 2.842 0 002.423 1.259q2.241 0 3.074-2.583l.277.149a5.386 5.386 0 01-1.3 2.722 3.22 3.22 0 01-2.477 1.1 3.744 3.744 0 01-2.989-1.388 5.265 5.265 0 01-1.174-3.522 5.776 5.776 0 011.185-3.789 3.849 3.849 0 013.128-1.441 3.455 3.455 0 012.669 1.089 4 4 0 011 2.818zm4.931-.576a2.965 2.965 0 00-.662-2 2.131 2.131 0 00-1.665-.715 2.412 2.412 0 00-1.751.768 2.867 2.867 0 00-.833 1.943z"></path>
          <path d="M154.394 12.275a3.772 3.772 0 01-1.142 2.081 3.088 3.088 0 01-2.146.779q-1.409 0-3.458-2.242a7.367 7.367 0 01-4.718 2.242 3.866 3.866 0 01-2.54-.843 2.814 2.814 0 01-1.025-2.295q0-2.882 4.376-5.145a8.268 8.268 0 01-.875-3.1 3.251 3.251 0 01.982-2.444 3.363 3.363 0 012.434-.95 2.889 2.889 0 012 .694 2.376 2.376 0 01.779 1.868 2.746 2.746 0 01-.31 1.281 3.384 3.384 0 01-.907 1.078 9.261 9.261 0 01-1.089.769q-.491.288-1.217.651a25.276 25.276 0 002.861 4.462q1.965-2.413 1.964-3.907a1.248 1.248 0 00-.267-.843.96.96 0 00-.715-.331v-.337h4.291v.342a2.322 2.322 0 00-1.281.406 4.391 4.391 0 00-1.046 1.324q-1.238 2.007-2.562 3.843a9.6 9.6 0 001.558 1.516 2.7 2.7 0 001.644.555 1.974 1.974 0 001.356-.5 2.312 2.312 0 00.737-1.206zm-10.375-4.846a6.521 6.521 0 00-2.007 1.6 3.211 3.211 0 00-.875 2.092 2.971 2.971 0 00.758 2.06 2.506 2.506 0 001.953.843 5.67 5.67 0 003.373-1.58 28.2 28.2 0 01-3.202-5.015zm3.2-2.647a2.8 2.8 0 00.769-1.921 2.033 2.033 0 00-.437-1.366 1.5 1.5 0 00-1.206-.512 1.9 1.9 0 00-1.409.587 2 2 0 00-.576 1.463 7.071 7.071 0 00.918 3.117 5.561 5.561 0 001.943-1.368z"></path>
          <path d="M172.818 19a12.244 12.244 0 01-8.326-3.971 7.044 7.044 0 01-3.885-2.679 8.1 8.1 0 01.469-9.81 6.611 6.611 0 019.8-.011 7.646 7.646 0 011.9 5.22 7.793 7.793 0 01-1.494 4.675 6.291 6.291 0 01-3.885 2.583 7.283 7.283 0 002.274 2.572 5.876 5.876 0 003.149 1.121zm-3.416-6.191a8.426 8.426 0 001.281-5.06 8.735 8.735 0 00-1.228-4.953 4.248 4.248 0 00-6.949-.021 8.653 8.653 0 00-1.239 4.974 8.565 8.565 0 001.26 5.017 4.25 4.25 0 006.874.043z"></path>
          <path d="M181.354 12.596a2.049 2.049 0 00.16.982.661.661 0 00.608.256 2 2 0 00.747-.128l.107.3-2.733 1.11h-.342v-2.007q-1.793 2.007-3.373 2.007a2.037 2.037 0 01-1.708-.769 3.439 3.439 0 01-.6-2.156V7.259a2.163 2.163 0 00-.277-1.324 1.85 1.85 0 00-1.3-.341v-.32h3.031v6.853q0 1.964 1.6 1.964a2.554 2.554 0 001.334-.491 7.261 7.261 0 001.291-1.046V7.26a2.165 2.165 0 00-.277-1.324 1.851 1.851 0 00-1.3-.341v-.32h3.032z"></path>
          <path d="M185.969 13.065a1.5 1.5 0 00.32 1.121 1.9 1.9 0 001.2.31v.32h-4.483v-.32a1.894 1.894 0 001.206-.31 1.53 1.53 0 00.31-1.121V7.472a2.039 2.039 0 00-.16-.993.647.647 0 00-.587-.245 1.978 1.978 0 00-.811.192l-.107-.3 2.754-1.153h.363zM184.443.491a.975.975 0 01.693-.3.985.985 0 01.982.982.981.981 0 01-.288.7.929.929 0 01-.694.3 1.021 1.021 0 01-1-1 .925.925 0 01.307-.681z"></path>
          <path d="M188.915 8.881a6.072 6.072 0 00.907 3.587 2.842 2.842 0 002.423 1.259q2.241 0 3.074-2.583l.278.149a5.387 5.387 0 01-1.3 2.722 3.22 3.22 0 01-2.477 1.1 3.743 3.743 0 01-2.989-1.388 5.263 5.263 0 01-1.174-3.522 5.776 5.776 0 011.185-3.789 3.849 3.849 0 013.127-1.441 3.455 3.455 0 012.669 1.089 4 4 0 011 2.818zm4.931-.576a2.966 2.966 0 00-.662-2 2.132 2.132 0 00-1.665-.715 2.412 2.412 0 00-1.751.768 2.867 2.867 0 00-.833 1.943z"></path>
          <path d="M200.785 5.273v.576h-2.243v6.3a3 3 0 00.224 1.388.826.826 0 00.779.384 1.092 1.092 0 00.694-.267 1.5 1.5 0 00.48-.737h.342a3.342 3.342 0 01-.854 1.473 1.878 1.878 0 01-1.345.555q-1.772 0-1.772-2.284V5.85h-1.58v-.32a3.86 3.86 0 001.729-1.078 5.41 5.41 0 00.982-2.1h.32v2.925z"></path>
        </svg>
