<?xml version="1.0" encoding="utf-8"?>
<!-- Generator: Adobe Illustrator 24.0.0, SVG Export Plug-In . SVG Version: 6.00 Build 0)  -->
<svg version="1.1" id="Layer_1" xmlns="http://www.w3.org/2000/svg" xmlns:xlink="http://www.w3.org/1999/xlink" x="0px" y="0px"
	 viewBox="0 0 269.6 2461.28" style="enable-background:new 0 0 269.6 2461.28;" xml:space="preserve">
<g id="Group_44" transform="translate(32.802 0) rotate(90)">
	<polygon points="87.91,-236.8 106.99,-236.8 19.08,32.8 0,32.8 	"/>
	<polygon points="212.88,-236.8 232.09,-236.8 138.31,32.8 119.11,32.8 	"/>
	<polygon points="325.58,-236.8 344.79,-236.8 251.01,32.8 231.81,32.8 	"/>
	<polygon points="444.82,-236.8 463.9,-236.8 375.98,32.8 356.9,32.8 	"/>
	<polygon points="557.52,-236.8 576.6,-236.8 488.68,32.8 469.6,32.8 	"/>
	<polygon points="682.49,-236.8 701.69,-236.8 607.92,32.8 588.71,32.8 	"/>
	<polygon points="795.18,-236.8 814.39,-236.8 720.62,32.8 701.41,32.8 	"/>
	<polygon points="826.5,32.8 914.41,-236.8 933.5,-236.8 845.59,32.8 	"/>
	<polygon points="1033.12,-236.8 1052.32,-236.8 958.55,32.8 939.35,32.8 	"/>
	<polygon points="1152.08,-236.8 1171.29,-236.8 1077.52,32.8 1058.31,32.8 	"/>
	<polygon points="1271.06,-236.8 1290.26,-236.8 1196.49,32.8 1177.28,32.8 	"/>
	<polygon points="1383.76,-236.8 1402.96,-236.8 1309.19,32.8 1289.98,32.8 	"/>
	<polygon points="1502.99,-236.8 1522.07,-236.8 1434.16,32.8 1415.07,32.8 	"/>
	<polygon points="1615.69,-236.8 1634.77,-236.8 1546.86,32.8 1527.77,32.8 	"/>
	<polygon points="1740.65,-236.8 1759.86,-236.8 1666.09,32.8 1646.88,32.8 	"/>
	<polygon points="1853.35,-236.8 1872.56,-236.8 1778.79,32.8 1759.58,32.8 	"/>
	<polygon points="1972.58,-236.8 1991.67,-236.8 1903.76,32.8 1884.68,32.8 	"/>
	<polygon points="2097.28,-236.8 2116.63,-236.8 2017.01,32.8 1997.65,32.8 	"/>
	<polygon points="2210.26,-236.8 2229.47,-236.8 2135.68,32.8 2116.48,32.8 	"/>
	<polygon points="2329.22,-236.8 2348.43,-236.8 2254.66,32.8 2235.45,32.8 	"/>
	<polygon points="2442.19,-236.8 2461.28,-236.8 2373.37,32.8 2354.28,32.8 	"/>
</g>
</svg>
