<svg id="e8i1xj0ng4841" xmlns="http://www.w3.org/2000/svg" xmlns:xlink="http://www.w3.org/1999/xlink" viewBox="0 0 1432.060000 111.440000" shape-rendering="geometricPrecision" text-rendering="geometricPrecision" width="1432.060000" height="111.440000"><style><![CDATA[#e8i1xj0ng48414 {animation: e8i1xj0ng48414_c_o 2000ms linear infinite normal forwards}@keyframes e8i1xj0ng48414_c_o { 0% {opacity: 0} 15% {opacity: 0} 20% {opacity: 1} 25% {opacity: 1} 30% {opacity: 0.020000} 100% {opacity: 0.020000} }#e8i1xj0ng48415 {animation: e8i1xj0ng48415_c_o 2000ms linear infinite normal forwards}@keyframes e8i1xj0ng48415_c_o { 0% {opacity: 0} 5% {opacity: 0} 10% {opacity: 1} 15% {opacity: 1} 20% {opacity: 0.020000} 100% {opacity: 0.020000} }#e8i1xj0ng48416 {animation: e8i1xj0ng48416_c_o 2000ms linear infinite normal forwards}@keyframes e8i1xj0ng48416_c_o { 0% {opacity: 1} 5% {opacity: 1} 10% {opacity: 0.020000} 100% {opacity: 0.020000} }#e8i1xj0ng48417 {animation: e8i1xj0ng48417_c_o 2000ms linear infinite normal forwards}@keyframes e8i1xj0ng48417_c_o { 0% {opacity: 0} 25% {opacity: 0} 30% {opacity: 1} 35% {opacity: 1} 40% {opacity: 0.020000} 100% {opacity: 0.020000} }#e8i1xj0ng48418 {animation: e8i1xj0ng48418_c_o 2000ms linear infinite normal forwards}@keyframes e8i1xj0ng48418_c_o { 0% {opacity: 0} 35% {opacity: 0} 40% {opacity: 1} 45% {opacity: 1} 50% {opacity: 0.020000} 100% {opacity: 0.020000} }#e8i1xj0ng48419 {animation: e8i1xj0ng48419_c_o 2000ms linear infinite normal forwards}@keyframes e8i1xj0ng48419_c_o { 0% {opacity: 0} 45% {opacity: 0} 50% {opacity: 1} 55% {opacity: 1} 60% {opacity: 0.020000} 100% {opacity: 0.020000} }#e8i1xj0ng48420 {animation: e8i1xj0ng48420_c_o 2000ms linear infinite normal forwards}@keyframes e8i1xj0ng48420_c_o { 0% {opacity: 0} 55% {opacity: 0} 60% {opacity: 1} 65% {opacity: 1} 70% {opacity: 0.020000} 100% {opacity: 0.020000} }#e8i1xj0ng48421 {animation: e8i1xj0ng48421_c_o 2000ms linear infinite normal forwards}@keyframes e8i1xj0ng48421_c_o { 0% {opacity: 0} 65% {opacity: 0} 70% {opacity: 1} 75% {opacity: 1} 80% {opacity: 0.020000} 100% {opacity: 0.020000} }#e8i1xj0ng48422 {animation: e8i1xj0ng48422_c_o 2000ms linear infinite normal forwards}@keyframes e8i1xj0ng48422_c_o { 0% {opacity: 0} 75% {opacity: 0} 80% {opacity: 1} 85% {opacity: 1} 90% {opacity: 0.020000} 100% {opacity: 0.020000} }#e8i1xj0ng48423 {animation: e8i1xj0ng48423_c_o 2000ms linear infinite normal forwards}@keyframes e8i1xj0ng48423_c_o { 0% {opacity: 0} 85% {opacity: 0} 90% {opacity: 1} 95% {opacity: 1} 100% {opacity: 1} }]]></style><g id="e8i1xj0ng4842"><path id="e8i1xj0ng4843" d="M328.080000,61L328.080000,111.440000L368.980000,111.440000L368.980000,61L403.060000,61L348.530000,0L294,61L328.080000,61Z" fill="none" stroke="rgb(0,0,0)" stroke-width="2"/><path id="e8i1xj0ng4844" d="M181.080000,61L181.080000,111.440000L221.980000,111.440000L221.980000,61L256.060000,61L201.530000,0L147,61L181.080000,61Z" fill="none" stroke="rgb(0,0,0)" stroke-width="2"/><path id="e8i1xj0ng4845" d="M34.080000,61L34.080000,111.440000L74.980000,111.440000L74.980000,61L109.060000,61L54.530000,0L0,61L34.080000,61Z" fill="none" stroke="rgb(0,0,0)" stroke-width="2"/><path id="e8i1xj0ng4846" d="M475.080000,61L475.080000,111.440000L515.980000,111.440000L515.980000,61L550.060000,61L495.530000,0L441,61L475.080000,61Z" fill="none" stroke="rgb(0,0,0)" stroke-width="2"/><path id="e8i1xj0ng4847" d="M622.080000,61L622.080000,111.440000L662.980000,111.440000L662.980000,61L697.060000,61L642.530000,0L588,61L622.080000,61Z" fill="none" stroke="rgb(0,0,0)" stroke-width="2"/><path id="e8i1xj0ng4848" d="M769.080000,61L769.080000,111.440000L809.980000,111.440000L809.980000,61L844.060000,61L789.530000,0L735,61L769.080000,61Z" fill="none" stroke="rgb(0,0,0)" stroke-width="2"/><path id="e8i1xj0ng4849" d="M916.080000,61L916.080000,111.440000L956.980000,111.440000L956.980000,61L991.060000,61L936.530000,0L882,61L916.080000,61Z" fill="none" stroke="rgb(0,0,0)" stroke-width="2"/><path id="e8i1xj0ng48410" d="M1063.080000,61L1063.080000,111.440000L1103.980000,111.440000L1103.980000,61L1138.060000,61L1083.530000,0L1029,61L1063.080000,61Z" fill="none" stroke="rgb(0,0,0)" stroke-width="2"/><path id="e8i1xj0ng48411" d="M1210.080000,61L1210.080000,111.440000L1250.980000,111.440000L1250.980000,61L1285.060000,61L1230.530000,0L1176,61L1210.080000,61Z" fill="none" stroke="rgb(0,0,0)" stroke-width="2"/><path id="e8i1xj0ng48412" d="M1357.080000,61L1357.080000,111.440000L1397.980000,111.440000L1397.980000,61L1432.060000,61L1377.530000,0L1323,61L1357.080000,61Z" fill="none" stroke="rgb(0,0,0)" stroke-width="2"/></g><g id="e8i1xj0ng48413"><path id="e8i1xj0ng48414" d="M328.080000,61L328.080000,111.440000L368.980000,111.440000L368.980000,61L403.060000,61L348.530000,0L294,61L328.080000,61Z" opacity="0" fill="rgb(0,0,0)" stroke="none" stroke-width="1"/><path id="e8i1xj0ng48415" d="M181.080000,61L181.080000,111.440000L221.980000,111.440000L221.980000,61L256.060000,61L201.530000,0L147,61L181.080000,61Z" opacity="0" fill="rgb(0,0,0)" stroke="none" stroke-width="1"/><path id="e8i1xj0ng48416" d="M34.080000,61L34.080000,111.440000L74.980000,111.440000L74.980000,61L109.060000,61L54.530000,0L0,61L34.080000,61Z" fill="rgb(0,0,0)" stroke="none" stroke-width="1"/><path id="e8i1xj0ng48417" d="M475.080000,61L475.080000,111.440000L515.980000,111.440000L515.980000,61L550.060000,61L495.530000,0L441,61L475.080000,61Z" opacity="0" fill="rgb(0,0,0)" stroke="none" stroke-width="1"/><path id="e8i1xj0ng48418" d="M622.080000,61L622.080000,111.440000L662.980000,111.440000L662.980000,61L697.060000,61L642.530000,0L588,61L622.080000,61Z" opacity="0" fill="rgb(0,0,0)" stroke="none" stroke-width="1"/><path id="e8i1xj0ng48419" d="M769.080000,61L769.080000,111.440000L809.980000,111.440000L809.980000,61L844.060000,61L789.530000,0L735,61L769.080000,61Z" opacity="0" fill="rgb(0,0,0)" stroke="none" stroke-width="1"/><path id="e8i1xj0ng48420" d="M916.080000,61L916.080000,111.440000L956.980000,111.440000L956.980000,61L991.060000,61L936.530000,0L882,61L916.080000,61Z" opacity="0" fill="rgb(0,0,0)" stroke="none" stroke-width="1"/><path id="e8i1xj0ng48421" d="M1063.080000,61L1063.080000,111.440000L1103.980000,111.440000L1103.980000,61L1138.060000,61L1083.530000,0L1029,61L1063.080000,61Z" opacity="0" fill="rgb(0,0,0)" stroke="none" stroke-width="1"/><path id="e8i1xj0ng48422" d="M1210.080000,61L1210.080000,111.440000L1250.980000,111.440000L1250.980000,61L1285.060000,61L1230.530000,0L1176,61L1210.080000,61Z" opacity="0" fill="rgb(0,0,0)" stroke="none" stroke-width="1"/><path id="e8i1xj0ng48423" d="M1357.080000,61L1357.080000,111.440000L1397.980000,111.440000L1397.980000,61L1432.060000,61L1377.530000,0L1323,61L1357.080000,61Z" opacity="0" fill="rgb(0,0,0)" stroke="none" stroke-width="1"/></g></svg>