<?xml version="1.0" encoding="utf-8"?>
<!-- Generator: Adobe Illustrator 24.0.0, SVG Export Plug-In . SVG Version: 6.00 Build 0)  -->
<svg version="1.1" id="Layer_1" xmlns="http://www.w3.org/2000/svg" xmlns:xlink="http://www.w3.org/1999/xlink" x="0px" y="0px"
	 viewBox="0 0 500 500" style="enable-background:new 0 0 500 500;" xml:space="preserve">
<g id="Group_52" transform="translate(1 1)">
	<path id="Path_81" d="M248.97,421.34l-39.31-99.66l-102.42,31.4l53.37-92.87l-88.39-60.54l105.91-16.16l-7.76-106.84l78.67,72.75
		l78.68-72.75l-7.78,106.86l105.91,16.16l-88.35,60.53l53.36,92.86l-102.44-31.39L248.97,421.34z M228.39,282.78l20.58,52.12
		l20.58-52.12l53.53,16.41l-27.9-48.61l46.23-31.66l-55.4-8.44l4.09-55.86l-41.16,38.06l-41.16-38.06l4.09,55.86l-55.37,8.45
		l46.25,31.66l-27.9,48.61L228.39,282.78z"/>
</g>
</svg>
