<?xml version="1.0" encoding="utf-8"?>
<!-- Generator: Adobe Illustrator 24.0.0, SVG Export Plug-In . SVG Version: 6.00 Build 0)  -->
<svg version="1.1" id="Layer_1" xmlns="http://www.w3.org/2000/svg" xmlns:xlink="http://www.w3.org/1999/xlink" x="0px" y="0px"
	 viewBox="0 0 500 500" style="enable-background:new 0 0 500 500;" xml:space="preserve">
<g id="Group_55" transform="translate(1 1)">
	<g id="Group_54" transform="translate(18.447 18.447)">
		<path id="Path_85" d="M359.53,254.96l-109.24-4.62l4.62,109.24l25.46-25.46l43.2,43.2l53.68-53.68l-43.2-43.2L359.53,254.96z"/>
		<path id="Path_86" d="M101.51,206.15l109.24,4.62l-4.62-109.24L180.66,127l-43.2-43.2l-53.69,53.68l43.2,43.2L101.51,206.15z"/>
		<path id="Path_87" d="M254.93,101.55l-4.62,109.24l109.24-4.62l-25.46-25.46l43.2-43.2l-53.71-53.71l-43.2,43.2L254.93,101.55z"/>
		<path id="Path_88" d="M206.12,359.56l4.62-109.24l-109.24,4.62l25.47,25.48l-43.2,43.2l53.68,53.68l43.2-43.2L206.12,359.56z"/>
	</g>
</g>
</svg>
