<svg id="e3lotpifn4o21" xmlns="http://www.w3.org/2000/svg" xmlns:xlink="http://www.w3.org/1999/xlink" viewBox="0 0 3000 507.980000" shape-rendering="geometricPrecision" text-rendering="geometricPrecision"><style><![CDATA[#e3lotpifn4o28 {animation: e3lotpifn4o28_c_o 1000ms linear infinite normal forwards}@keyframes e3lotpifn4o28_c_o { 0% {opacity: 1} 10% {opacity: 1} 20% {opacity: 0} 100% {opacity: 0} }#e3lotpifn4o29 {animation: e3lotpifn4o29_c_o 1000ms linear infinite normal forwards}@keyframes e3lotpifn4o29_c_o { 0% {opacity: 0} 10% {opacity: 0} 20% {opacity: 1} 30% {opacity: 1} 40% {opacity: 0} 100% {opacity: 0} }#e3lotpifn4o210 {animation: e3lotpifn4o210_c_o 1000ms linear infinite normal forwards}@keyframes e3lotpifn4o210_c_o { 0% {opacity: 0} 30% {opacity: 0} 40% {opacity: 1} 50% {opacity: 1} 60% {opacity: 0} 100% {opacity: 0} }#e3lotpifn4o211 {animation: e3lotpifn4o211_c_o 1000ms linear infinite normal forwards}@keyframes e3lotpifn4o211_c_o { 0% {opacity: 0} 50% {opacity: 0} 60% {opacity: 1} 70% {opacity: 1} 80% {opacity: 0} 100% {opacity: 0} }#e3lotpifn4o212 {animation: e3lotpifn4o212_c_o 1000ms linear infinite normal forwards}@keyframes e3lotpifn4o212_c_o { 0% {opacity: 0} 70% {opacity: 0} 80% {opacity: 1} 90% {opacity: 1} 100% {opacity: 0} }]]></style><g id="e3lotpifn4o22" transform="matrix(1 0 0 1 -991 -626.70200000000000)"><path id="e3lotpifn4o23" d="M1216.690000,1134.680000L1216.690000,976.660000L991,976.660000L991,784.720000L1216.690000,784.720000L1216.690000,626.700000L1500.810000,880.690000L1216.690000,1134.680000ZM999.950000,967.720000L1225.640000,967.720000L1225.640000,1114.680000L1487.380000,880.690000L1225.640000,646.710000L1225.640000,793.670000L999.950000,793.670000L999.950000,967.720000Z" fill="rgb(0,0,0)" stroke="none" stroke-width="1"/><path id="e3lotpifn4o24" d="M1841.190000,1134.680000L1841.190000,976.660000L1615.500000,976.660000L1615.500000,784.720000L1841.190000,784.720000L1841.190000,626.700000L2125.310000,880.690000L1841.190000,1134.680000ZM1624.450000,967.720000L1850.140000,967.720000L1850.140000,1114.680000L2111.880000,880.690000L1850.140000,646.710000L1850.140000,793.670000L1624.450000,793.670000L1624.450000,967.720000Z" fill="rgb(0,0,0)" stroke="none" stroke-width="1"/><path id="e3lotpifn4o25" d="M2463.540000,1134.680000L2463.540000,976.660000L2237.850000,976.660000L2237.850000,784.720000L2463.540000,784.720000L2463.540000,626.700000L2747.660000,880.690000L2463.540000,1134.680000ZM2246.800000,967.720000L2472.490000,967.720000L2472.490000,1114.680000L2734.240000,880.690000L2472.490000,646.710000L2472.490000,793.670000L2246.800000,793.670000L2246.800000,967.720000Z" fill="rgb(0,0,0)" stroke="none" stroke-width="1"/><path id="e3lotpifn4o26" d="M3085.220000,1134.680000L3085.220000,976.660000L2859.530000,976.660000L2859.530000,784.720000L3085.220000,784.720000L3085.220000,626.700000L3369.340000,880.690000L3085.220000,1134.680000ZM2868.470000,967.720000L3094.160000,967.720000L3094.160000,1114.680000L3355.910000,880.690000L3094.160000,646.710000L3094.160000,793.670000L2868.470000,793.670000L2868.470000,967.720000Z" fill="rgb(0,0,0)" stroke="none" stroke-width="1"/><path id="e3lotpifn4o27" d="M3706.880000,1134.680000L3706.880000,976.660000L3481.190000,976.660000L3481.190000,784.720000L3706.880000,784.720000L3706.880000,626.700000L3991,880.690000L3706.880000,1134.680000ZM3490.140000,967.720000L3715.830000,967.720000L3715.830000,1114.680000L3977.580000,880.690000L3715.830000,646.710000L3715.830000,793.670000L3490.140000,793.670000L3490.140000,967.720000Z" fill="rgb(0,0,0)" stroke="none" stroke-width="1"/></g><polygon id="e3lotpifn4o28" points="225.690000,507.980000 225.690000,349.960000 0,349.960000 0,158.020000 225.690000,158.020000 225.690000,0 509.810000,253.990000" fill="rgb(0,0,0)" stroke="none" stroke-width="1"/><polygon id="e3lotpifn4o29" points="850.190000,507.980000 850.190000,349.960000 624.500000,349.960000 624.500000,158.020000 850.190000,158.020000 850.190000,0 1134.310000,253.990000" opacity="0" fill="rgb(0,0,0)" stroke="none" stroke-width="1"/><polygon id="e3lotpifn4o210" points="1472.540000,507.980000 1472.540000,349.960000 1246.850000,349.960000 1246.850000,158.020000 1472.540000,158.020000 1472.540000,0 1756.660000,253.990000" opacity="0" fill="rgb(0,0,0)" stroke="none" stroke-width="1"/><polygon id="e3lotpifn4o211" points="2094.220000,507.980000 2094.220000,349.960000 1868.520000,349.960000 1868.520000,158.020000 2094.220000,158.020000 2094.220000,0 2378.330000,253.990000" opacity="0" fill="rgb(0,0,0)" stroke="none" stroke-width="1"/><polygon id="e3lotpifn4o212" points="2715.880000,507.980000 2715.880000,349.960000 2490.190000,349.960000 2490.190000,158.020000 2715.880000,158.020000 2715.880000,0 3000,253.990000" opacity="0" fill="rgb(0,0,0)" stroke="none" stroke-width="1"/></svg>