<?xml version="1.0" encoding="utf-8"?>
<!-- Generator: Adobe Illustrator 24.0.0, SVG Export Plug-In . SVG Version: 6.00 Build 0)  -->
<svg version="1.1" id="Layer_1" xmlns="http://www.w3.org/2000/svg" xmlns:xlink="http://www.w3.org/1999/xlink" x="0px" y="0px"
	 viewBox="0 0 500 500" style="enable-background:new 0 0 500 500;" xml:space="preserve">
<g id="Group_53" transform="translate(1 1)">
	<path id="Path_83" d="M248.96,79.24c-93.76,0-169.76,76.01-169.76,169.77c0,93.76,76.01,169.76,169.77,169.76
		c93.75,0,169.76-76.01,169.76-169.76C418.61,155.29,342.67,79.36,248.96,79.24z M361.94,156.6c18.84,22.87,30.2,50.98,32.52,80.53
		h-47.82c-0.74-23.55-4.56-46.89-11.36-69.45C344.36,164.46,353.26,160.76,361.94,156.6z M335.36,330.32
		c6.79-22.56,10.61-45.9,11.35-69.45h47.82c-2.32,29.55-13.67,57.66-32.52,80.54C353.33,337.26,344.43,333.55,335.36,330.32z
		 M303.91,345.76c-11.48,25.13-26.64,41.75-43.07,47.22v-53.29C275.35,340.39,289.76,342.42,303.91,345.76z M322.9,237.13h-62.06
		v-55.01c17.4-0.81,34.67-3.35,51.57-7.59C318.52,194.88,322.05,215.91,322.9,237.13z M327.05,145.32
		c-4.32-9.97-9.64-19.47-15.89-28.36c11.98,5.69,23.14,12.96,33.18,21.63C339.12,140.9,333.38,143.08,327.05,145.32L327.05,145.32z
		 M260.84,158.32v-53.29c16.36,5.47,31.61,22.18,43.07,47.22C289.77,155.58,275.35,157.62,260.84,158.32z M344.4,359.41
		c-10.04,8.66-21.2,15.94-33.18,21.63c6.24-8.89,11.56-18.4,15.89-28.36C333.45,354.92,339.12,357.1,344.4,359.41z M260.84,315.88
		v-55.01h62.06c-0.83,21.23-4.37,42.26-10.54,62.59C295.48,319.22,278.22,316.68,260.84,315.88L260.84,315.88z M162.64,330.3
		c-9.06,3.21-17.93,6.91-26.58,11.09c-18.84-22.87-30.2-50.98-32.52-80.53h47.82c0.68,23.55,4.47,46.91,11.28,69.46L162.64,330.3z
		 M237.1,182.12v55h-62.07c0.83-21.23,4.37-42.26,10.54-62.59C202.44,178.8,219.71,181.35,237.1,182.12z M153.54,138.59
		c10.04-8.66,21.2-15.94,33.18-21.63c-6.24,8.89-11.56,18.4-15.89,28.36C164.54,143.08,158.88,140.9,153.54,138.59L153.54,138.59z
		 M103.49,237.13c2.31-29.54,13.66-57.66,32.49-80.53c8.65,4.19,17.52,7.89,26.58,11.09c-6.79,22.56-10.61,45.9-11.35,69.45
		L103.49,237.13z M175.02,260.88h62.07v55c-17.4,0.81-34.67,3.35-51.57,7.59C179.41,303.12,175.88,282.09,175.02,260.88
		L175.02,260.88z M170.87,352.68c4.32,9.97,9.64,19.47,15.89,28.36c-11.98-5.69-23.14-12.96-33.18-21.63
		C158.81,357.1,164.54,354.92,170.87,352.68L170.87,352.68z M237.09,339.69v53.29c-16.36-5.47-31.61-22.09-43.07-47.22
		c14.14-3.34,28.56-5.37,43.08-6.08L237.09,339.69z M237.09,105.03v53.29c-14.51-0.7-28.93-2.73-43.07-6.07
		c11.55-25.13,26.72-41.75,43.08-47.23L237.09,105.03z"/>
</g>
</svg>
