<svg xmlns="http://www.w3.org/2000/svg" width="241.283" height="241.275" viewBox="0 0 241.283 241.275"><path d="M1171.741,1877.221l5.716-5.716a128.606,128.606,0,0,1,10.919,16.964h4.516v-56.956h-56.955v4.466a128.753,128.753,0,0,1,16.86,10.87l-5.711,5.711a120.658,120.658,0,1,0,24.655,24.66Zm-8.537,93.911a90.869,90.869,0,0,1-176.41,0Zm-176.41-43.653a90.869,90.869,0,0,1,176.41,0Zm152.867,21.736c.073-4.344,2.157-8.132,5.735-8.074s5.467,3.924,5.389,8.269c-.073,4.1-1.767,8.363-5.7,8.293-3.822-.073-5.5-4.29-5.428-8.488Zm-100.179,0c.073-4.344,2.153-8.132,5.73-8.074s5.468,3.924,5.395,8.269c-.073,4.1-1.767,8.363-5.7,8.293-3.818-.073-5.5-4.29-5.423-8.488Zm5.541-11.627c10.465,0,16.079,5.219,16.079,11.768,0,6.639-5.291,11.931-16.021,11.931s-16.074-5.292-16.074-11.931c0-6.55,5.55-11.768,16.016-11.768Zm-32.543,17.841,7.516-13.906h-4.5v-3.463h15.572v3.463H1025.9l-10.328,19.1-12.17-.01-10.5-19.091h-5.17v-3.463h22.6v3.463h-5.467l7.625,13.906Zm132.727-17.841c10.46,0,16.075,5.219,16.075,11.768,0,6.639-5.293,11.931-16.021,11.931s-16.074-5.292-16.074-11.931c0-6.55,5.555-11.768,16.021-11.768Zm-52.093,3.935h-5.175l.005-3.463h22.591l0,3.463h-5.467l7.62,13.906,7.521-13.906h-4.495v-3.463h15.571v3.463h-5.178l-10.325,19.1-12.168-.01-10.505-19.091Zm-25.462-.005h-5.246v-3.458l20.833.006v3.451h-5.189V1957.1h4.808c4.457,0,7.385-2.943,7.385-6.935h3.438V1960.6h-31.275v-3.5h5.252l-.006-15.585Z" transform="translate(-954.358 -1828.667)" fill="#1a1818"/></svg>