<svg xmlns="http://www.w3.org/2000/svg" width="333.981" height="111.733" viewBox="0 0 333.981 111.733"><path d="M1009.419,1657.5h-1.9v1.885c0,12.166-8.792,23.205-28.07,23.205H967.2V1578.433h6.123v-1.9H944.978v1.9H951.1V1682.59h-6.118v1.9h64.441V1657.5m116.6,27h21.027c20.8,0,35.338-14.409,35.338-32.172a31.929,31.929,0,0,0-12.494-25.136,31.148,31.148,0,0,0,8.7-21.246c0-16.242-13.243-29.412-32.4-29.412h-40.49v1.9h6.128V1682.58h-6.128v1.905h20.32Zm1.916-106.071h13.1c13.1,0,23.358,13.087,23.358,29.221a35.9,35.9,0,0,1-3.018,14.5,38.092,38.092,0,0,0-14.8-2.992c-7.847,0-12.5,4.241-12.5,9.462,0,5.206,4.589,9.291,11.421,9.291a33.1,33.1,0,0,0,16.75-4.623,36.722,36.722,0,0,1,4.036,17.236c0,17.7-10.947,32.051-25.248,32.051h-13.1Zm30.278,49.209c-3.5,4.76-8.184,7.748-13.175,7.748-5.529,0-9.065-2.954-9.065-6.764,0-4.04,3.693-6.956,9.417-6.956A17.661,17.661,0,0,1,1158.208,1627.642Zm79.658-53c-24.185,0-41.092,22.97-41.092,55.874,0,33.938,16.128,55.86,41.092,55.86s41.093-21.922,41.093-55.86C1278.959,1597.608,1262.056,1574.638,1237.866,1574.638Zm0,109.848c-19.067,0-24.039-28.344-24.039-54.023s5.98-53.934,24.039-53.934,24.038,28.246,24.038,53.934S1256.937,1684.486,1237.866,1684.486Zm-145.43-33.4-1.885-.357c-4.031,20.742-14.214,31.855-26.678,31.855-16.2,0-29.318-23.739-29.318-53.022s10.667-52.687,26.114-52.687c14.213,0,23.422,16.345,26.061,40.148h1.9v-40.491h-1.9v1.9a4.355,4.355,0,0,1-4.359,4.2c-1.808,0-3.728-.779-7.112-2.83a32.5,32.5,0,0,0-17.363-5.148c-22.844,0-40.4,24.994-40.4,55.825s17.559,55.811,40.4,55.811C1079.521,1686.283,1088.924,1669.562,1092.436,1651.087Z" transform="translate(-944.978 -1574.638)" fill="#161614"/></svg>