<svg xmlns="http://www.w3.org/2000/svg" width="424.035" height="159.046" viewBox="0 0 424.035 159.046"><g transform="translate(0)"><path d="M604.153,1569.808c24.542-.025,43.825,1.136,64.71,4.688,22.8,3.878,44.066,9.108,61.193,18.925,1.264.724,2.234,1.2,3.874,2.252,6.675,4.289,14.987,11.156,16.584,20.37,1.293,7.45-2.189,13.518-5.951,17.843a51.843,51.843,0,0,1-13.787,10.815c-20.826,11.867-48.282,18.181-76.783,21.447a370.835,370.835,0,0,1-43.438,2.615,432.924,432.924,0,0,1-43.35-1.984c-27.457-2.728-56.222-8.483-77.865-19.463a69.018,69.018,0,0,1-14.958-9.738c-4.3-3.811-8.4-8.538-9.556-15.046-1.939-10.941,5.77-18.9,12.166-23.792,6.857-5.247,15.683-9.635,24.156-12.8,17.608-6.583,38.9-10.954,60.018-13.519A338.1,338.1,0,0,1,604.153,1569.808Zm.632,9.825a154.471,154.471,0,0,0-52.989,9.281c-7.763,2.855-14.659,6.357-20.727,11.446-5.3,4.442-11.558,11.569-10.094,21.359,1.264,8.448,7.979,14.473,13.7,18.474a82.715,82.715,0,0,0,21.81,10.365c16.77,5.431,35.563,7.771,54.973,7.571,18.44-.2,37.835-3.394,53.083-9.374,7.518-2.949,14.733-6.558,20.634-11.534,5.442-4.58,11.211-11.98,9.737-21.178-1.327-8.243-7.611-14.269-13.7-18.475-6.7-4.633-13.8-7.68-21.81-10.363A150.769,150.769,0,0,0,619.836,1580c-4.193-.212-9.707-.608-14.87-.363C604.907,1579.639,604.849,1579.634,604.785,1579.634Z" transform="translate(-395.963 -1569.808)" fill="#161614" fill-rule="evenodd"/><path d="M526.725,1588.451a28.911,28.911,0,0,1,6.666.363c1.68.323,4.672,1.1,4.687,2.885.015,1.6-2.317,2.424-3.786,2.791a24.794,24.794,0,0,1-11.441,0c-1.69-.4-3.923-1.155-3.968-2.7-.049-1.7,1.959-2.263,3.154-2.616A18.983,18.983,0,0,1,526.725,1588.451Zm-3.247,1.082c-1.131.352-2.694.936-2.7,2.165,0,.959,1.21,1.733,2.077,2.072,2.88,1.128,8.277,1.279,11.441-.093.788-.337,1.871-1.191,1.9-1.891.044-1.224-2.145-2.169-3.155-2.434a18.763,18.763,0,0,0-5.138-.45A16.44,16.44,0,0,0,523.478,1589.533Z" transform="translate(-184.071 -1497.337)" fill="#161614" fill-rule="evenodd"/><path d="M520.134,1588.721c1.778.191,7.568-.607,7.391,1.17-.093.922-1.513.76-2.341.9.735.616,1.837.867,2.434,1.62-2.576.593-3.546-1.6-5.5-1.62-.191.351-.043,1.032-.088,1.532a9.126,9.126,0,0,1-1.9.088Zm1.984,1.527c.828-.106,2.836.286,3.336-.45C525,1589.265,521.369,1588.73,522.118,1590.248Z" transform="translate(-179.194 -1496.161)" fill="#161614" fill-rule="evenodd"/><path d="M469.732,1593.808c8.13-.018,15.369-.092,21.986,1.26,2.219.455,4.717,1.313,5.5,2.973.735,1.563.451,4.149.451,7.935v20.814a14.441,14.441,0,0,1-.181,3.968c-1.083,2.953-6.984,3.654-10,3.962a139.98,139.98,0,0,1-26.14,0c-3.262-.309-9.1-1.01-10.364-3.786-.749-1.65-.358-5.55-.358-8.018v-16.584c0-2.924-.441-6.787.72-8.561,1.175-1.8,5.03-2.792,8.2-3.242A66.138,66.138,0,0,1,469.732,1593.808Zm-.72,5.133c-.328.667-.181,2.558-.181,3.7v19.645c0,2.327-.461,6.363.269,7.66.754,1.342,2.841,1.328,4.957,1.352,1.675.02,4.227.121,5.045-1.263.745-1.25.274-4.986.274-7.479v-15.678c0-1.69.421-6.456-.093-7.753-.652-1.655-4.986-1.547-6.49-1.44C471.716,1597.757,469.57,1597.805,469.012,1598.941Z" transform="translate(-450.523 -1476.286)" fill="#161614" fill-rule="evenodd"/><path d="M480.431,1593.9c7.307,0,15.379,0,22.985,0,5.275,13.406,10.569,26.8,15.771,40.285H498.454c-1.136-3.311-2.18-6.715-3.331-10.006-3.884-.143-8.375-.152-12.259,0-1.107,3.188-1.954,6.636-2.885,10.006H465.835c3.507-10.021,7.219-20.051,10.814-30.1C477.854,1600.705,479.245,1596.875,480.431,1593.9Zm3.335,25.592c3.159-.147,6.94-.147,10.095,0-1.8-5.295-3.527-10.654-5.5-15.771C486.915,1609.059,485.22,1614.154,483.766,1619.488Z" transform="translate(-390.84 -1475.923)" fill="#161614" fill-rule="evenodd"/><path d="M502.685,1610.221c4.285-4.432,8.772-9.418,13.249-14.331.539-.6,1.5-1.763,1.979-1.889,1.078-.3,2.988,0,4.237,0,4.119,0,8.478.073,12.529-.094.171.485-.495.74-.72.994-4.673,5.143-9.7,10.6-14.512,15.679,4.77,7.88,9.874,15.9,14.419,23.705H513.049c-3.678-5.638-6.793-11.837-10.364-17.574v17.574h-19.65c-.058-13.009.123-27.036-.088-40.2,6.25-.21,13.366-.029,19.464-.087.495-.055.274,1.087.274,1.709Z" transform="translate(-324.141 -1476.027)" fill="#161614" fill-rule="evenodd"/><path d="M499.8,1593.954h19.557c-.005,11.563,0,23.606,0,34.873,6.485.063,13.215-.119,19.552.093v5.319h-39.29c.205-12.356.029-26.977.088-40.108C499.525,1594.052,499.746,1593.738,499.8,1593.954Z" transform="translate(-259.161 -1475.981)" fill="#161614" fill-rule="evenodd"/><path d="M513.7,1593.942h38.487v5.133H533.436c-.211,3.937-.03,8.262-.088,12.347,4.8.059,9.854-.118,14.507.092.034,1.735-.064,3.4.093,4.688H533.436V1629c6.039.211,12.469.03,18.655.093v5.138H513.609V1594.12C513.57,1593.947,513.673,1593.795,513.7,1593.942Z" transform="translate(-204.661 -1475.968)" fill="#161614" fill-rule="evenodd"/><path d="M579.683,1593.878c.079-.014.083.034.093.093-5.314,8.414-11.29,16.95-16.853,25.414.059,4.839-.118,10.389.089,14.776-6.431.211-13.25.03-19.827.093-.005-3.525,0-7.248,0-11.087a19.771,19.771,0,0,0,0-3.693c-.2-.94-1.46-2.22-2.165-3.242-5.054-7.41-10.09-14.968-14.869-22.26h20.82c3.072,4.829,5.859,9.942,8.743,14.958,3.022-4.908,5.829-10.031,8.831-14.958C569.56,1593.907,574.815,1594.089,579.683,1593.878Z" transform="translate(-155.741 -1475.997)" fill="#161614" fill-rule="evenodd"/></g></svg>