<svg xmlns="http://www.w3.org/2000/svg" width="562.556" height="99.333" viewBox="0 0 562.556 99.333"><path d="M847.881,1871.107H806.632c.5-5.171,4.154-10.338,10.746-10.338h48.645v-9.933H815.145c-20.272,0-28.584,15.408-28.584,30.2h56.761c1.924,0,6.485.4,6.485,5.065s-3.953,5.068-10.741,5.27h-59.19v-40.539H762.444v40.539H729.2c-10.03,0-11.147-7.4-11.147-11.347v-29.192H686.328l-25.845,17.23-23.314-17.23h-68c-20.272,0-32.433,14.091-34.157,26.35h14.018a31.912,31.912,0,0,0-11.73,14.174h0l-39.584.015h0c-10.036,0-11.147-7.4-11.147-11.347v-29.192H469.13v27.672h0c0,19.052,13.381,22.8,19.866,22.8H628.357l26.047-17.431,23.612,17.431h27.467L668.9,1874.349l30.1-20.17v26.654h0c0,17.231,16.828,20.473,21.486,20.473h127.2c6.283,0,23.617-.807,23.617-14.595s-12.769-15.605-23.412-15.605Zm-222.365,20.268H559.945c.5-5.167,6.181-10.335,12.769-10.335H611.43v-9.933H558.524c.51-5.171,6.182-10.338,12.769-10.338h44.188v-5.775l30.611,22.7-20.576,13.679Z" transform="translate(-308.737 -1824.171)" fill="#161614" fill-rule="evenodd"/><path d="M505.514,1944.724c22.888,0,43.189-7.993,55.771-20.3h0l-11.338.048h0c-10.721,9.018-26.389,14.689-44.154,14.689-33.134,0-59-19.743-59-44.1,0-28.089,25.865-44.1,59-44.1,2.106.005,3.8.981,2.532,2.806-6.887,8.287-26.488,34.956-30.063,40.735-7.053,11.4-6.886,25.426,10.393,26.409H561.32c3.718,0,4.658-1.743,6-3.56a37.112,37.112,0,0,0,7.327-22.29c-.015-20.933-14.743-36.62-36.42-44.34h0l-3.355,5.016h0c18.009,6.641,29.921,20.071,29.921,39.324a34.083,34.083,0,0,1-1.415,9.738c-.8,2.718-2.376,5.014-5.358,5.014h-58c-7.425,0-4.555-7.66-1.807-11.378,3.992-7.149,25.851-36.943,31.111-42.493,1.342-2.037,5.1-6.249-.083-7.865a102.806,102.806,0,0,0-23.72-2.68c-38.183,0-69.113,19.607-69.132,49.664-.024,30.347,30.949,49.669,69.132,49.669Z" transform="translate(-436.382 -1845.391)" fill="#161614" fill-rule="evenodd"/></svg>