<svg xmlns="http://www.w3.org/2000/svg" width="421.243" height="87.889" viewBox="0 0 421.243 87.889"><path d="M220.562,1846.063V1930.5H203.595v-84.436Zm17.07,33.517v-33.517h17.118V1930.5H237.632v-36.786H223.68v-14.134Z" transform="translate(-203.595 -1844.23)"/><path d="M216.253,1869.214q-.107-22.575,24.893-23.5v13.729q-7.3.821-7.3,9.02V1910.7q0,8.318,7.3,9.072v13.5q-24.791-.812-24.893-25.54Zm35.451-.756q0-8.381-7.557-9.078v-13.729q25.3.173,25.355,23.911v38.518q-.054,24.545-25.355,25.187v-13.5q7.552-.641,7.557-9.072Z" transform="translate(-159.957 -1845.651)"/><path d="M229.023,1846.068h51.431v14.125H229.023Zm17.261,84.414v-66.843h16.758v66.843Z" transform="translate(-115.931 -1844.213)"/><path d="M243.624,1846.068h51.431v14.125H243.624Zm17.261,84.414v-66.843h16.763v66.843Z" transform="translate(-65.594 -1844.213)"/><path d="M256.054,1869.281q-.1-22.61,24.448-23.542v13.753q-7.165.813-7.165,9.028v42.305q0,8.337,7.165,9.091v13.516q-24.344-.814-24.448-25.578Zm34.82-.761q0-8.387-7.423-9.086v-13.753q24.857.174,24.9,23.946v38.578q-.04,24.584-24.9,25.227v-13.516q7.419-.648,7.423-9.091Z" transform="translate(-22.742 -1845.543)"/><path d="M269.1,1846.1H285.77v84.289H269.1Zm25.476,34.157q7.952-.112,7.747-10.082.053-10.028-7.85-9.972h-5.59v-14.1h5.19q25.518,0,25.417,22.5.047,25.876-24.968,25.763h-5.639v-14.108Z" transform="translate(22.253 -1844.117)"/><path d="M281.408,1930.6v-84.569h16.62V1930.6Z" transform="translate(64.667 -1844.334)"/><path d="M286.473,1868.552q-.053-21.6,24.061-22.821v13.73q-6.692.983-6.689,8.333v43.547q0,7.062,6.689,8.05v13.489q-24.164-1.042-24.061-24.491Zm27.539-22.874q25.177.173,25.031,23.221l.071,6.164H321.507l-.04-7.269q0-7.817-7.454-8.454Zm0,73.771q7.459-.64,7.454-8.107l.053-6.192,17.524-.044v3.625q-.047,23.522-25.031,24.15Z" transform="translate(82.129 -1845.555)"/></svg>