<svg width="133" height="41" viewBox="0 0 133 41" fill="none" xmlns="http://www.w3.org/2000/svg">
<path d="M12.7148 19.2422C12.1875 19.8281 11.416 20.3001 10.4004 20.6582C9.38477 21.0163 8.27148 21.1953 7.06055 21.1953C5.19857 21.1953 3.71094 20.6257 2.59766 19.4863C1.48438 18.347 0.888672 16.7617 0.810547 14.7305L0.800781 13.5C0.800781 12.1003 1.04818 10.8796 1.54297 9.83789C2.03776 8.78971 2.74414 7.98568 3.66211 7.42578C4.58659 6.85938 5.6543 6.57617 6.86523 6.57617C8.63607 6.57617 10.0098 6.98307 10.9863 7.79688C11.9694 8.60417 12.5423 9.81185 12.7051 11.4199H9.4043C9.28711 10.6257 9.0332 10.0592 8.64258 9.7207C8.25195 9.38216 7.69857 9.21289 6.98242 9.21289C6.12305 9.21289 5.45898 9.57747 4.99023 10.3066C4.52148 11.0358 4.28385 12.0775 4.27734 13.4316V14.291C4.27734 15.7103 4.51823 16.778 5 17.4941C5.48828 18.2038 6.25326 18.5586 7.29492 18.5586C8.18685 18.5586 8.85091 18.36 9.28711 17.9629V15.7559H6.9043V13.4023H12.7148V19.2422ZM20.3473 13.4121L19.2633 13.334C18.2281 13.334 17.5641 13.6595 17.2711 14.3105V21H13.9801V10.4336H17.066L17.1734 11.791C17.7268 10.7559 18.4983 10.2383 19.4879 10.2383C19.8395 10.2383 20.1454 10.2773 20.4059 10.3555L20.3473 13.4121ZM25.8508 21.1953C24.2297 21.1953 22.9178 20.7135 21.9152 19.75C20.9126 18.7799 20.4113 17.5202 20.4113 15.9707V15.6973C20.4113 14.6165 20.6099 13.6628 21.007 12.8359C21.4107 12.0091 21.9966 11.3711 22.7648 10.9219C23.5331 10.4661 24.4445 10.2383 25.4992 10.2383C26.9836 10.2383 28.1555 10.7005 29.0148 11.625C29.8742 12.543 30.3039 13.8255 30.3039 15.4727V16.752H23.7609C23.8781 17.3444 24.1353 17.8099 24.5324 18.1484C24.9296 18.487 25.4439 18.6562 26.0754 18.6562C27.1171 18.6562 27.9309 18.2917 28.5168 17.5625L30.0207 19.3398C29.6105 19.9062 29.0279 20.3587 28.2727 20.6973C27.524 21.0293 26.7167 21.1953 25.8508 21.1953ZM25.4797 12.7773C24.5161 12.7773 23.9432 13.4154 23.7609 14.6914H27.0812V14.4375C27.0943 13.9102 26.9608 13.5033 26.6809 13.2168C26.4009 12.9238 26.0005 12.7773 25.4797 12.7773ZM36.1492 21.1953C34.5281 21.1953 33.2163 20.7135 32.2137 19.75C31.2111 18.7799 30.7098 17.5202 30.7098 15.9707V15.6973C30.7098 14.6165 30.9083 13.6628 31.3055 12.8359C31.7091 12.0091 32.2951 11.3711 33.0633 10.9219C33.8315 10.4661 34.743 10.2383 35.7977 10.2383C37.282 10.2383 38.4539 10.7005 39.3133 11.625C40.1727 12.543 40.6023 13.8255 40.6023 15.4727V16.752H34.0594C34.1766 17.3444 34.4337 17.8099 34.8309 18.1484C35.228 18.487 35.7423 18.6562 36.3738 18.6562C37.4155 18.6562 38.2293 18.2917 38.8152 17.5625L40.3191 19.3398C39.909 19.9062 39.3263 20.3587 38.5711 20.6973C37.8224 21.0293 37.0151 21.1953 36.1492 21.1953ZM35.7781 12.7773C34.8146 12.7773 34.2417 13.4154 34.0594 14.6914H37.3797V14.4375C37.3927 13.9102 37.2592 13.5033 36.9793 13.2168C36.6993 12.9238 36.299 12.7773 35.7781 12.7773ZM44.3578 10.4336L44.4652 11.6738C45.1944 10.7168 46.2003 10.2383 47.4828 10.2383C48.5831 10.2383 49.4034 10.5671 49.9437 11.2246C50.4906 11.8822 50.7738 12.8717 50.7934 14.1934V21H47.4926V14.3301C47.4926 13.7962 47.3852 13.4056 47.1703 13.1582C46.9555 12.9043 46.5648 12.7773 45.9984 12.7773C45.3539 12.7773 44.8754 13.0312 44.5629 13.5391V21H41.2719V10.4336H44.3578ZM61.0582 6.78125L64.232 16.6738L67.3961 6.78125H71.9078V21H68.4703V17.6797L68.8023 10.8828L65.3648 21H63.0992L59.652 10.873L59.984 17.6797V21H56.5563V6.78125H61.0582ZM79.2961 21C79.1789 20.7852 79.0747 20.4694 78.9836 20.0527C78.3781 20.8145 77.5318 21.1953 76.4445 21.1953C75.4484 21.1953 74.6021 20.8958 73.9055 20.2969C73.2089 19.6914 72.8605 18.9329 72.8605 18.0215C72.8605 16.8757 73.2837 16.0098 74.1301 15.4238C74.9764 14.8379 76.2069 14.5449 77.8215 14.5449H78.8371V13.9883C78.8371 13.0182 78.4172 12.5332 77.5773 12.5332C76.7961 12.5332 76.4055 12.9173 76.4055 13.6855H73.1145C73.1145 12.6634 73.5474 11.8333 74.4133 11.1953C75.2857 10.5573 76.3957 10.2383 77.7434 10.2383C79.091 10.2383 80.1555 10.5671 80.9367 11.2246C81.718 11.8822 82.1184 12.7839 82.1379 13.9297V18.6074C82.1509 19.5775 82.3007 20.3197 82.5871 20.834V21H79.2961ZM77.2355 18.8516C77.6457 18.8516 77.9842 18.7637 78.2512 18.5879C78.5246 18.4121 78.7199 18.2135 78.8371 17.9922V16.3027H77.8801C76.7342 16.3027 76.1613 16.8171 76.1613 17.8457C76.1613 18.1452 76.2622 18.3893 76.4641 18.5781C76.6659 18.7604 76.923 18.8516 77.2355 18.8516ZM89.7605 13.4121L88.6766 13.334C87.6414 13.334 86.9773 13.6595 86.6844 14.3105V21H83.3934V10.4336H86.4793L86.5867 11.791C87.1401 10.7559 87.9116 10.2383 88.9012 10.2383C89.2527 10.2383 89.5587 10.2773 89.8191 10.3555L89.7605 13.4121ZM93.4574 10.4336L93.5648 11.6738C94.3135 10.7168 95.3194 10.2383 96.5824 10.2383C97.9171 10.2383 98.8187 10.7689 99.2875 11.8301C100.004 10.7689 101.039 10.2383 102.393 10.2383C104.535 10.2383 105.635 11.5339 105.694 14.125V21H102.393V14.3301C102.393 13.7897 102.302 13.3958 102.12 13.1484C101.937 12.901 101.605 12.7773 101.123 12.7773C100.472 12.7773 99.9874 13.0671 99.6684 13.6465L99.6781 13.7832V21H96.3773V14.3496C96.3773 13.7962 96.2895 13.3958 96.1137 13.1484C95.9379 12.901 95.6026 12.7773 95.1078 12.7773C94.4763 12.7773 93.9945 13.0671 93.6625 13.6465V21H90.3715V10.4336H93.4574ZM106.559 15.6191C106.559 14.5645 106.764 13.627 107.174 12.8066C107.584 11.9798 108.173 11.3451 108.941 10.9023C109.71 10.4596 110.611 10.2383 111.646 10.2383C113.229 10.2383 114.475 10.7298 115.387 11.7129C116.298 12.6895 116.754 14.0208 116.754 15.707V15.8242C116.754 17.4714 116.295 18.7799 115.377 19.75C114.465 20.7135 113.229 21.1953 111.666 21.1953C110.162 21.1953 108.954 20.7461 108.043 19.8477C107.132 18.9427 106.64 17.7188 106.568 16.1758L106.559 15.6191ZM109.85 15.8242C109.85 16.8008 110.003 17.5169 110.309 17.9727C110.615 18.4284 111.067 18.6562 111.666 18.6562C112.838 18.6562 113.437 17.7546 113.463 15.9512V15.6191C113.463 13.7246 112.857 12.7773 111.646 12.7773C110.546 12.7773 109.951 13.5944 109.859 15.2285L109.85 15.8242ZM121.437 7.80664V10.4336H123.175V12.7188H121.437V17.5527C121.437 17.9499 121.509 18.2266 121.652 18.3828C121.795 18.5391 122.078 18.6172 122.502 18.6172C122.827 18.6172 123.101 18.5977 123.322 18.5586V20.9121C122.729 21.1009 122.111 21.1953 121.466 21.1953C120.334 21.1953 119.497 20.9284 118.957 20.3945C118.416 19.8607 118.146 19.0501 118.146 17.9629V12.7188H116.798V10.4336H118.146V7.80664H121.437Z" fill="black"/>
<path d="M4.75098 35.1445H1.77246L1.10352 37H0.136719L2.85156 29.8906H3.67188L6.3916 37H5.42969L4.75098 35.1445ZM2.05566 34.373H4.47266L3.26172 31.0479L2.05566 34.373ZM15.6586 34.7441C15.5707 35.4961 15.2924 36.0771 14.8236 36.4873C14.3581 36.8942 13.738 37.0977 12.9633 37.0977C12.1234 37.0977 11.4496 36.7965 10.9418 36.1943C10.4372 35.5921 10.185 34.7865 10.185 33.7773V33.0938C10.185 32.4329 10.3021 31.8519 10.5365 31.3506C10.7742 30.8493 11.1094 30.4652 11.5424 30.1982C11.9753 29.9281 12.4766 29.793 13.0463 29.793C13.8015 29.793 14.407 30.0046 14.8627 30.4277C15.3184 30.8477 15.5837 31.4303 15.6586 32.1758H14.7162C14.6348 31.6094 14.4574 31.1992 14.184 30.9453C13.9138 30.6914 13.5346 30.5645 13.0463 30.5645C12.4473 30.5645 11.977 30.7858 11.6352 31.2285C11.2966 31.6712 11.1273 32.3011 11.1273 33.1182V33.8066C11.1273 34.5781 11.2885 35.1917 11.6107 35.6475C11.933 36.1032 12.3839 36.3311 12.9633 36.3311C13.4841 36.3311 13.8829 36.2139 14.1596 35.9795C14.4395 35.7419 14.6251 35.3301 14.7162 34.7441H15.6586ZM21.1686 35.1445H18.19L17.5211 37H16.5543L19.2691 29.8906H20.0895L22.8092 37H21.8473L21.1686 35.1445ZM18.4732 34.373H20.8902L19.6793 31.0479L18.4732 34.373ZM25.0037 34.2168V37H24.0662V29.8906H26.6883C27.4663 29.8906 28.075 30.0892 28.5145 30.4863C28.9572 30.8835 29.1785 31.4092 29.1785 32.0635C29.1785 32.7536 28.962 33.2858 28.5291 33.6602C28.0994 34.0312 27.4826 34.2168 26.6785 34.2168H25.0037ZM25.0037 33.4502H26.6883C27.1896 33.4502 27.5737 33.333 27.8406 33.0986C28.1076 32.861 28.241 32.5192 28.241 32.0732C28.241 31.6501 28.1076 31.3115 27.8406 31.0576C27.5737 30.8037 27.2075 30.6719 26.742 30.6621H25.0037V33.4502ZM32.7695 33.8311C31.9655 33.5999 31.3796 33.3167 31.0117 32.9814C30.6471 32.6429 30.4648 32.2262 30.4648 31.7314C30.4648 31.1715 30.6878 30.7093 31.1338 30.3447C31.583 29.9769 32.1657 29.793 32.8818 29.793C33.3701 29.793 33.8047 29.8874 34.1855 30.0762C34.5697 30.265 34.8659 30.5254 35.0742 30.8574C35.2858 31.1895 35.3916 31.5524 35.3916 31.9463H34.4492C34.4492 31.5166 34.3125 31.1797 34.0391 30.9355C33.7656 30.6882 33.3799 30.5645 32.8818 30.5645C32.4196 30.5645 32.0583 30.667 31.7979 30.8721C31.5407 31.0739 31.4121 31.3555 31.4121 31.7168C31.4121 32.0065 31.5342 32.2523 31.7783 32.4541C32.0257 32.6527 32.444 32.835 33.0332 33.001C33.6257 33.167 34.0879 33.3509 34.4199 33.5527C34.7552 33.7513 35.0026 33.984 35.1621 34.251C35.3249 34.5179 35.4062 34.832 35.4062 35.1934C35.4062 35.7695 35.1816 36.2318 34.7324 36.5801C34.2832 36.9251 33.6826 37.0977 32.9307 37.0977C32.4424 37.0977 31.9867 37.0049 31.5635 36.8193C31.1403 36.6305 30.8132 36.3734 30.582 36.0479C30.3542 35.7223 30.2402 35.3529 30.2402 34.9395H31.1826C31.1826 35.3691 31.3405 35.7093 31.6562 35.96C31.9753 36.2074 32.4001 36.3311 32.9307 36.3311C33.4255 36.3311 33.8047 36.2301 34.0684 36.0283C34.332 35.8265 34.4639 35.5514 34.4639 35.2031C34.4639 34.8548 34.3418 34.5863 34.0977 34.3975C33.8535 34.2054 33.4108 34.0166 32.7695 33.8311ZM41.9172 29.8906V34.7246C41.9139 35.3952 41.7023 35.9437 41.2824 36.3701C40.8658 36.7965 40.2993 37.0358 39.5832 37.0879L39.3342 37.0977C38.5562 37.0977 37.9361 36.8877 37.4738 36.4678C37.0116 36.0479 36.7772 35.4701 36.7707 34.7344V29.8906H37.6984V34.7051C37.6984 35.2194 37.84 35.6198 38.1232 35.9062C38.4064 36.1895 38.8101 36.3311 39.3342 36.3311C39.8648 36.3311 40.2701 36.1895 40.55 35.9062C40.8332 35.623 40.9748 35.2243 40.9748 34.71V29.8906H41.9172ZM44.6391 36.2334H48.0082V37H43.6967V29.8906H44.6391V36.2334ZM53.3961 33.7139H50.315V36.2334H53.8941V37H49.3775V29.8906H53.8453V30.6621H50.315V32.9473H53.3961V33.7139ZM63.6055 37H62.6631V33.7139H59.0791V37H58.1416V29.8906H59.0791V32.9473H62.6631V29.8906H63.6055V37ZM71.0393 33.6748C71.0393 34.3714 70.9221 34.9801 70.6877 35.501C70.4533 36.0186 70.1213 36.4141 69.6916 36.6875C69.2619 36.9609 68.7606 37.0977 68.1877 37.0977C67.6278 37.0977 67.1314 36.9609 66.6984 36.6875C66.2655 36.4108 65.9286 36.0186 65.6877 35.5107C65.4501 34.9997 65.328 34.4089 65.3215 33.7383V33.2256C65.3215 32.542 65.4403 31.9382 65.6779 31.4141C65.9156 30.89 66.2508 30.4896 66.6838 30.2129C67.12 29.9329 67.618 29.793 68.1779 29.793C68.7476 29.793 69.2489 29.9313 69.6818 30.208C70.118 30.4814 70.4533 30.8802 70.6877 31.4043C70.9221 31.9251 71.0393 32.5322 71.0393 33.2256V33.6748ZM70.1066 33.2158C70.1066 32.3727 69.9374 31.7266 69.5988 31.2773C69.2603 30.8249 68.7867 30.5986 68.1779 30.5986C67.5855 30.5986 67.1184 30.8249 66.7766 31.2773C66.438 31.7266 66.2639 32.3516 66.2541 33.1523V33.6748C66.2541 34.4919 66.425 35.1348 66.7668 35.6035C67.1119 36.069 67.5855 36.3018 68.1877 36.3018C68.7932 36.3018 69.2619 36.082 69.5939 35.6426C69.926 35.1999 70.0969 34.5667 70.1066 33.7432V33.2158ZM77.5209 30.6621H75.2357V37H74.3031V30.6621H72.0229V29.8906H77.5209V30.6621ZM82.8941 33.7139H79.8131V36.2334H83.3922V37H78.8756V29.8906H83.3434V30.6621H79.8131V32.9473H82.8941V33.7139ZM85.8016 36.2334H89.1707V37H84.8592V29.8906H85.8016V36.2334Z" fill="black"/>
<path d="M125.505 5.79639C125.505 5.20459 125.642 4.65527 125.914 4.14844C126.189 3.6416 126.569 3.24316 127.052 2.95312C127.539 2.66016 128.063 2.51367 128.625 2.51367C129.188 2.51367 129.711 2.66016 130.194 2.95312C130.681 3.24316 131.06 3.6416 131.333 4.14844C131.608 4.65527 131.746 5.20459 131.746 5.79639C131.746 6.37939 131.612 6.92285 131.346 7.42676C131.079 7.93066 130.703 8.33496 130.216 8.63965C129.733 8.94141 129.203 9.09229 128.625 9.09229C128.048 9.09229 127.517 8.94141 127.03 8.63965C126.547 8.33496 126.172 7.93066 125.905 7.42676C125.639 6.92285 125.505 6.37939 125.505 5.79639ZM125.747 5.79639C125.747 6.34131 125.875 6.84961 126.129 7.32129C126.384 7.79004 126.734 8.16211 127.18 8.4375C127.625 8.71289 128.107 8.85059 128.625 8.85059C129.141 8.85059 129.622 8.71289 130.067 8.4375C130.512 8.16211 130.862 7.79004 131.117 7.32129C131.372 6.84961 131.5 6.34131 131.5 5.79639C131.5 5.24854 131.372 4.7417 131.117 4.27588C130.862 3.80713 130.511 3.43652 130.062 3.16406C129.617 2.8916 129.138 2.75537 128.625 2.75537C128.11 2.75537 127.628 2.8916 127.18 3.16406C126.734 3.43652 126.384 3.80713 126.129 4.27588C125.875 4.7417 125.747 5.24854 125.747 5.79639ZM127.848 6.02051V7.56738H127.606V3.91992H128.656C129.503 3.91992 129.926 4.27148 129.926 4.97461C129.926 5.39648 129.702 5.69824 129.254 5.87988C129.641 5.99414 129.834 6.29883 129.834 6.79395C129.834 7.11914 129.859 7.35352 129.909 7.49707V7.56738H129.649C129.608 7.46191 129.588 7.2041 129.588 6.79395C129.588 6.52441 129.531 6.32959 129.417 6.20947C129.305 6.08936 129.112 6.02637 128.836 6.02051H127.848ZM127.848 5.77441H128.749C129.03 5.77441 129.255 5.70117 129.425 5.55469C129.598 5.40527 129.685 5.21045 129.685 4.97021C129.685 4.68311 129.608 4.47803 129.456 4.35498C129.307 4.23193 129.061 4.16748 128.718 4.16162H127.848V5.77441Z" fill="black"/>
</svg>
