<svg xmlns="http://www.w3.org/2000/svg" width="298.352" height="208.536" viewBox="0 0 298.352 208.536"><path d="M724.266,1799.313c0-44.962,56.135-81.412,125.4-81.412,69.248,0,125.391,36.45,125.391,81.412s-56.143,81.416-125.391,81.416c-69.264,0-125.4-36.451-125.4-81.416Zm125.516,103.961c82.4,0,149.182-46.682,149.182-104.264s-66.784-104.271-149.182-104.271-149.17,46.685-149.17,104.271,66.784,104.264,149.17,104.264Z" transform="translate(-700.613 -1694.739)" fill="#161614" fill-rule="evenodd"/><path d="M759.7,1711.527l-1.091,14.527c-5.959-1.591-12.706-5.161-19.189-1.851-4.771,2.249-4.624,7.838-3.185,11.509,3.848,6.622,12.512,5.695,19.654,5.695v12.559c-4.221,0-8.946.127-13.2,1.373-2.085.607-4.8,1.783-5.765,2.748a9.777,9.777,0,0,0-2.442,5.863,8.113,8.113,0,0,0,1.091,4.988c5.161,6.882,15.354,3.173,21.841,1.851l1.851,14.829c-8.384,3.533-19.466,4.988-28.894,2.362a24.852,24.852,0,0,1-8.166-3.684,24.444,24.444,0,0,1-7.561-9.638,21.313,21.313,0,0,1-.772-14.058c1.452-6.087,6.747-10.724,12.172-13.368-5.4-3.109-9-6.88-10.851-12.173a21,21,0,0,1,.243-11.3,19.516,19.516,0,0,1,2.975-6.526c2.518-3.834,7.742-6.923,12.5-8.346,6.76-2.022,14.351-1.669,21.341-.037a37.154,37.154,0,0,1,7.448,2.681Zm136.426,14.527c-9.395-1.062-22.5-2.12-28.059,8.337-6.752,12.311-6.483,30.578-1.322,43.547,2.774,5.56,8.472,9.265,14.027,10.854,10.587,1.855,22.1.659,28.2-9,6.617-12.576,7.008-31.369.655-44.076a18.192,18.192,0,0,0-13.5-9.658Zm-.029,19.83c2.232,6.449,2.085,17.313-.231,23.694-2.144,4.9-6.181,5.506-9.9,4.567a9.108,9.108,0,0,1-4.917-5.506c-1.813-6.588-1.905-17.183.462-23.431,1.951-5.3,6.55-4.771,9.848-4.229,2.136.394,3.852,2.283,4.738,4.9Zm-119.491-18.509c-7.411,3.709-10.852,10.99-10.318,19.193,0,12.94,16.012,13.767,23.691,21.706a4.446,4.446,0,0,1-2.153,6.286c-6.781,3.146-14.791-1.649-20.884-4.96l.659,16.017c9.143,3.97,22.906,6.214,32.036.525a20.09,20.09,0,0,0,9.533-16.542c0-14.728-16-16.167-25.227-22.159-1.2-.633-1.137-2.6-.822-3.773a3.778,3.778,0,0,1,2.454-2.953c7.944-2.379,14.855,1.224,21.073,4.535l-.659-15.357c-8.6-3.709-19.986-6.487-29.385-2.518Zm48.842,0c-7.419,3.709-10.86,10.99-10.331,19.193,0,12.94,16.02,13.767,23.694,21.706a4.447,4.447,0,0,1-2.148,6.286c-6.785,3.146-14.8-1.649-20.884-4.96l.654,16.017c9.143,3.97,22.907,6.214,32.041.525a20.1,20.1,0,0,0,9.529-16.542c0-14.728-15.907-16.229-25.2-22.147-1.129-.814-1.179-2.72-.755-3.923a4.831,4.831,0,0,1,2.514-2.863c7.822-2.252,14.7,1.272,20.93,4.583l-.667-15.357c-8.6-3.709-19.982-6.487-29.377-2.518Z" transform="translate(-660.877 -1653.983)" fill="#161614" fill-rule="evenodd"/></svg>