<svg xmlns="http://www.w3.org/2000/svg" width="616.999" height="108.033" viewBox="0 0 616.999 108.033"><path d="M1039.6,1727.062h4.759v.833h-1.676v3.376h-1.39v-3.376H1039.6v-.833Z" transform="translate(-434.654 -1636.438)" fill="#161614" fill-rule="evenodd"/><path d="M1046.929,1727.062v4.206H1045.6l.088-3,.015-.425-.044.156c-.073.234-.078.263-.137.445l-1.053,2.82h-1.2l-1.01-2.7-.233-.754c.023.333.023.4.043.8l.079,2.648h-1.338v-4.206h2.013l.852,2.355.191.677c.084-.29.084-.324.153-.52l.891-2.513Z" transform="translate(-429.93 -1636.437)" fill="#161614" fill-rule="evenodd"/><path d="M1044.229,1799.987a4.849,4.849,0,0,1,1.739-5.384l14.722-10.715a4.813,4.813,0,0,1,5.673,7.778s-1.93,1.4-2.782,2.022h26.629l-42.635-32.726a4.815,4.815,0,0,1,2.719-8.631h53.954a4.8,4.8,0,0,1,2.952,8.514l-14.129,11.76a4.809,4.809,0,0,1-6.783-.627,4.732,4.732,0,0,1-1.113-3.062,4.821,4.821,0,0,1,1.739-3.707s2.346-1.955,3.909-3.252h-26.154c12.744,9.776,37.785,28.859,42.385,32.389,23.172-23.769,27.658-57.114,9.875-74.886-17.957-17.966-51.833-13.23-75.647,10.589s-28.55,57.69-10.585,75.65c15.663,15.669,43.4,14.057,66.038-2.385h-47.926A4.815,4.815,0,0,1,1044.229,1799.987Zm44.737-73.217,8.223-5.4a4.858,4.858,0,0,1,5.328,8.124l-8.228,5.382a4.85,4.85,0,1,1-5.323-8.11Zm-38.463,11.661h53.651a4.807,4.807,0,1,1,0,9.613H1050.5a4.807,4.807,0,1,1,0-9.613Z" transform="translate(-511.839 -1708.559)" fill="#161614"/><path d="M955.8,1722.636h10.853c4.143.03,10.418.1,14.757,3.032a11.23,11.23,0,0,1,4.873,9.634,13.433,13.433,0,0,1-.872,4.966c-3.139,7.969-12.636,8.11-16.206,8.151H955.8v-25.783Zm8.581,5.436v15.158H967c4.526-.073,10.8-.254,10.8-7.673a6.877,6.877,0,0,0-1.783-5.183c-2.321-2.34-5.6-2.3-8.2-2.3Z" transform="translate(-761.285 -1653.688)" fill="#161614" fill-rule="evenodd"/><path d="M963.005,1722.638h16.79c8.884,0,12.381,3.87,12.381,8.239,0,5.187-4.677,6.593-6.989,7.253l7.861,10.295h-9.409l-6.749-9.192h-5.353v9.192h-8.532v-25.787Zm8.532,4.82v6.984h7.038c1.21-.05,5.118-.112,5.118-3.546,0-3.292-3.139-3.4-4.917-3.439Z" transform="translate(-733.205 -1653.681)" fill="#161614" fill-rule="evenodd"/><path d="M1002.39,1722.638h16.79c8.885,0,12.387,3.87,12.387,8.239,0,5.187-4.673,6.593-6.995,7.253l7.856,10.295h-9.4l-6.749-9.192h-5.354v9.192h-8.532v-25.787Zm8.532,4.82v6.984h7.048c1.2-.05,5.109-.112,5.109-3.546,0-3.292-3.135-3.4-4.912-3.439Z" transform="translate(-579.691 -1653.681)" fill="#161614" fill-rule="evenodd"/><path d="M998.948,1722.636v14.39c-.05,2.484-.1,4.966-1.984,7.308-3.664,4.452-11.236,4.673-12.681,4.673a22.834,22.834,0,0,1-7.91-1.4c-6.553-2.552-6.553-7.078-6.514-10.584v-14.39h8.586V1738.7a5.477,5.477,0,0,0,.626,3.219c1.068,1.346,3.375,1.748,5.505,1.748,5.779,0,5.779-2.993,5.833-5.006v-16.025Z" transform="translate(-706.506 -1653.688)" fill="#161614" fill-rule="evenodd"/><path d="M1002.08,1746.723c-1.391.984-4.28,2.993-10.011,2.993-9.491,0-15.335-5.847-15.335-13.449,0-8.282,7.1-13.812,16.775-13.812,9.007,0,13.391,4.4,14.983,5.965l-6.451,2.959a9.364,9.364,0,0,0-7.9-3.658c-6.465,0-8.924,4.056-8.924,8.366a8.183,8.183,0,0,0,2.708,6.583,10.273,10.273,0,0,0,6.215,1.855,10.819,10.819,0,0,0,4.668-.984,4.458,4.458,0,0,0,2.737-3.84H993.94v-4.888h14.8v14.315h-6.662v-2.4Z" transform="translate(-679.692 -1654.398)" fill="#161614" fill-rule="evenodd"/><path d="M1024.067,1722.636v25.783h-8.15l.529-18.377.093-2.591-.284.911c-.441,1.464-.485,1.65-.877,2.742l-6.411,17.314h-7.326l-6.167-16.585-1.494-4.595c.147,2.043.147,2.474.279,4.923l.436,16.256h-8.14v-25.783H998.9l5.206,14.453,1.21,4.133c.47-1.792.524-1.973.906-3.183l5.456-15.4Z" transform="translate(-641.413 -1653.688)" fill="#161614" fill-rule="evenodd"/><path d="M1016.311,1722.636l12.543,25.783h-9.071l-1.695-4.125h-12.528l-1.695,4.125H994.81l12.631-25.783Zm-4.59,6.127c-.43,1.317-.915,2.669-1.4,3.982-.72,1.939-2.023,4.966-2.792,6.906h8.635l-4.448-10.888Z" transform="translate(-609.236 -1653.688)" fill="#161614" fill-rule="evenodd"/><path d="M1008.569,1722.636h29.16v5.112h-10.3v20.706h-8.545v-20.706h-10.319v-5.112Z" transform="translate(-555.607 -1653.691)" fill="#161614" fill-rule="evenodd"/><path d="M929.121,1711.026h18.617v16.51h17.783v-16.51h18.792v45.35H965.521v-17.467H947.738v17.467H929.121v-45.35Z" transform="translate(-865.279 -1698.938)" fill="#161614" fill-rule="evenodd"/><path d="M1004.925,1734.595c0,11.486-8.768,24.593-31.895,24.593-24.131,0-31.4-13.744-31.4-24.088,0-12.974,10.432-24.415,31.723-24.415,23.3,0,31.567,13.111,31.567,23.91Zm-44.59.437c0,7.9,4.173,12.65,13.023,12.65,7.518,0,12.773-4.556,12.773-13.087a13.982,13.982,0,0,0-1.073-5.99c-2.845-6.294-10.02-6.479-11.7-6.479-6.676,0-13.023,3.531-13.023,12.906Z" transform="translate(-816.501 -1700.272)" fill="#161614" fill-rule="evenodd"/><path d="M955.8,1711.027H989.53c6.431.186,12.029.383,16.785,4.169a12.855,12.855,0,0,1,4.932,10.6,13.781,13.781,0,0,1-5.6,11.563c-4.922,3.918-10.359,4.119-16.78,4.241H974.5v14.771H955.8v-45.349Zm18.7,9.507v11.559h10.7a16.805,16.805,0,0,0,3.086-.319,5.5,5.5,0,0,0,4.506-5.519c0-5.329-5.422-5.592-7.763-5.721Z" transform="translate(-761.293 -1698.938)" fill="#161614" fill-rule="evenodd"/><path d="M968.183,1711.027h33.731c6.44.186,12.033.383,16.784,4.169a12.832,12.832,0,0,1,4.937,10.6,13.772,13.772,0,0,1-5.6,11.563c-4.922,3.918-10.354,4.119-16.785,4.241H986.892v14.771H968.183v-45.349Zm18.709,9.507v11.559H997.58a16.992,16.992,0,0,0,3.1-.319,5.49,5.49,0,0,0,4.5-5.519c0-5.329-5.431-5.592-7.767-5.721Z" transform="translate(-713.023 -1698.938)" fill="#161614" fill-rule="evenodd"/><path d="M980.564,1711.026h46.645v9.951H999.26v6.75h26.108v9.831H999.26v8.991h30.456v9.827H980.564v-45.35Z" transform="translate(-664.764 -1698.938)" fill="#161614" fill-rule="evenodd"/><path d="M991.8,1711.027h29.387c5.6,0,10.937.2,14.531,1.354,7.851,2.571,10.178,8.741,10.178,13.091,0,6.671-4.423,10.516-12.1,12.6l14.37,18.3h-20.718l-11.441-15.991h-5.51v15.991H991.8v-45.349Zm18.7,9.439v10.6h7.773c3.086,0,9.012-.138,9.012-5.27,0-5.2-5.858-5.334-9.1-5.334Z" transform="translate(-620.957 -1698.938)" fill="#161614" fill-rule="evenodd"/><path d="M1017.332,1741.879c3.477,5.078,11.475,5.976,16.848,5.976,3.164,0,8.454-.712,8.454-3.4,0-1.415-1.063-2.424-3.659-2.846-1.959-.313-12.063-2-14.958-2.483-10.3-1.724-16.05-6.383-16.05-13.234,0-9.487,10.717-15.164,26.061-15.164,11.02,0,20.825,2.724,26.478,8.038l-11.7,7.513c-2.855-3.312-9.276-4.629-15.443-4.629-3.178,0-6.69.657-6.69,2.95,0,2.194,3.037,2.649,8.111,3.477,13.067,2.165,26.139,3.532,26.139,14.776,0,9.223-9.8,16.065-27.814,16.065-12.176,0-22.5-2.41-30.062-9.962l14.282-7.073Z" transform="translate(-577.119 -1700.12)" fill="#161614" fill-rule="evenodd"/><path d="M930.368,1741.879c3.477,5.078,11.47,5.976,16.843,5.976,3.164,0,8.454-.712,8.454-3.4,0-1.415-1.062-2.424-3.654-2.846-1.96-.313-12.058-2-14.958-2.483-10.3-1.724-16.055-6.383-16.055-13.234,0-9.487,10.717-15.164,26.066-15.164,11.015,0,20.82,2.724,26.473,8.038l-11.691,7.513c-2.861-3.312-9.286-4.629-15.443-4.629-3.179,0-6.685.657-6.685,2.95,0,2.194,3.031,2.649,8.106,3.477,13.072,2.165,26.134,3.532,26.134,14.776,0,9.223-9.795,16.065-27.814,16.065-12.171,0-22.491-2.41-30.058-9.962l14.282-7.073Z" transform="translate(-916.086 -1700.12)" fill="#161614" fill-rule="evenodd"/></svg>