<svg xmlns="http://www.w3.org/2000/svg" width="208.225" height="255.313" viewBox="0 0 208.225 255.313"><path d="M817.339,2071.582c2.116-1.053,57.079-24.836,74.52-39.109,17.97-14.795,27.482-35.935,27.482-61.305V1852.259l-1.587-.53c-43.865-23.783-98.3-22.2-100.944-22.2-2.111,0-56.55-1.588-100.414,22.2l-1.058.53V1971.7c0,25.371,9.516,46.509,27.481,61.305,17.441,14.273,72.409,38.052,74.52,38.58" transform="translate(-713.227 -1825.785)" fill="#161614"/><path d="M819.02,2077.19s-58.132-25.37-76.1-39.637c-19.028-15.854-28.011-37.522-28.011-62.364V1851.521c45.981-24.837,104.113-22.725,104.113-22.725s58.136-2.112,104.112,22.725v123.141c0,24.84-8.982,46.508-28.005,62.362-17.971,14.8-76.107,40.166-76.107,40.166m-95.658-102c0,23.254,8.458,42.282,24.842,55.492,14.8,12.157,58.661,31.713,70.817,37,12.157-5.285,56.55-25.37,70.817-37,16.388-13.21,24.842-32.767,24.842-55.492V1853.636c-61.306-5.813-134.239-2.645-191.317,50.208v71.346Z" transform="translate(-714.907 -1828.751)" fill="#d9d9d8"/><path d="M863.805,1894.665c7.925,4.755,11.1,7.928,11.628,13.744,0,6.341-4.232,10.04-11.1,10.04-5.814,0-12.686-3.169-17.441-7.4v16.911c5.814,3.174,12.681,5.814,20.081,5.814,17.97,0,26.424-12.681,26.424-24.309.529-10.574-2.639-19.028-17.965-28.01-6.872-4.232-12.157-6.871-12.157-13.214s5.814-8.982,10.57-8.982c6.342,0,12.685,3.7,16.383,7.4V1850.8c-3.174-2.64-10.041-6.343-20.086-5.814-12.151.528-24.837,8.989-24.837,23.784.529,10.04,3.7,17.439,18.5,25.894m-62.363,38.051a27.118,27.118,0,0,0,8.454,1.058c20.615,0,32.242-18.494,32.242-44.922,0-26.953-12.156-43.337-33.824-43.337-10.045,0-17.97,2.117-24.842,6.343V1971.3h17.97v-38.584Zm0-71.875c1.587-.529,4.226-1.583,6.342-1.583,10.57,0,14.8,8.455,14.8,29.064,0,20.087-5.285,29.6-15.854,29.6a14.127,14.127,0,0,1-5.813-1.06v-56.02Zm-55.492,72.933c11.1,0,20.61-2.64,27.482-7.4v-79.8h-18.5V1915.8c-2.111,1.587-4.756,2.118-8.454,2.118-8.459,0-9.517-7.931-9.517-12.687v-58.66H718.468v57.606c0,19.553,9.512,29.594,27.482,29.594" transform="translate(-701.027 -1765.665)" fill="#d9d9d8"/><path d="M753.977,1884.51a3.344,3.344,0,0,0,2.639-3.17c0-1.588-1.053-3.7-4.227-3.7h-3.169v12.152h2.111v-4.756h.529l3.174,4.756h2.64S754.506,1885.038,753.977,1884.51Zm-2.645-1.583v-3.7h1.058c1.587,0,2.116,1.058,2.116,1.587,0,1.059-.528,2.117-2.645,2.117Z" transform="translate(-581.158 -1638.183)" fill="#161614"/><path d="M765.9,1886.819a7.929,7.929,0,1,1-7.929-7.925,7.783,7.783,0,0,1,7.929,7.925m-7.929-10.042a10.043,10.043,0,1,0,10.041,10.042,10.4,10.4,0,0,0-10.041-10.042" transform="translate(-586.206 -1641.551)" fill="#161614"/></svg>