<svg xmlns="http://www.w3.org/2000/svg" width="244.413" height="244.402" viewBox="0 0 244.413 244.402"><g transform="translate(0.668 0.668)"><path d="M954.426,1682.048A121.539,121.539,0,1,0,832.893,1803.58a121.533,121.533,0,0,0,121.534-121.532Z" transform="translate(-711.349 -1560.514)" fill="#fff" stroke="#191717" stroke-linecap="round" stroke-linejoin="round" stroke-width="1.335" fill-rule="evenodd"/><path d="M949.158,1679.717a118.605,118.605,0,1,0-118.6,118.6,118.6,118.6,0,0,0,118.6-118.6Z" transform="translate(-709.014 -1558.183)" fill="#040505" fill-rule="evenodd"/><path d="M762.055,1584.649a9.163,9.163,0,0,0-5.29-7.166,9.067,9.067,0,0,0-8.944,1c-.21.152-.4.328-.6.49a8.46,8.46,0,0,0,.191-4.443,8.038,8.038,0,0,0-14.077-3.135q-.77.964-1.542,1.931-4.033,5.032-8.056,10.071-3.468,4.318-6.922,8.638c-.156.191-.3.382-.46.573l.318.26q1.344,1.08,2.684,2.15,5.084,4.069,10.158,8.135,5.025,4.025,10.056,8.053c.857.68,1.709,1.366,2.566,2.051.035.03.236.23.269.186.172-.215.338-.425.509-.636q3.446-4.313,6.9-8.621l8.272-10.329c1.425-1.778,3-3.459,3.674-5.686a9.237,9.237,0,0,0,.294-3.527Zm-29.69,9.712c-1.4-1.116-2.792-2.238-4.183-3.349-.534-.427-1.062-.852-1.6-1.279-.014-.015.544-.7.588-.744q3.894-4.872,7.792-9.738a6.264,6.264,0,0,1,2.351-2.2,3.742,3.742,0,0,1,4.168.931,3.807,3.807,0,0,1,.847,3.4,8.139,8.139,0,0,1-1.753,2.718q-2.051,2.565-4.1,5.123t-4.109,5.138Zm20.61-4c-.887,1.1-1.764,2.2-2.645,3.3q-3.636,4.541-7.268,9.08l-.093.1-.377-.3q-.992-.795-1.974-1.587-1.719-1.365-3.428-2.742,3.292-4.115,6.593-8.234c1.067-1.336,2.14-2.678,3.208-4.01A3.959,3.959,0,0,1,750,1584.3a3.755,3.755,0,0,1,3.507,2.195,3.8,3.8,0,0,1-.529,3.874Z" transform="translate(-691.841 -1529.78)" fill="#fff" fill-rule="evenodd"/><path d="M869.29,1644.322a74.13,74.13,0,1,0-74.128,74.127,74.13,74.13,0,0,0,74.128-74.127Z" transform="translate(-673.618 -1522.787)" fill="#fff" fill-rule="evenodd"/><path d="M792.167,1570.96a72.316,72.316,0,0,0-70.372,70.372h70.372V1570.96Z" transform="translate(-670.628 -1519.798)" fill="#969696" fill-rule="evenodd"/><path d="M736.164,1655.7a72.309,72.309,0,0,0,70.377-70.37H736.164v70.37Z" transform="translate(-614.625 -1463.795)" fill="#969696" fill-rule="evenodd"/><path d="M773.186,1573.332l-6.177-5.739-20.055,26.346,6.176,5.736,21.994-10.089-14.657,19.253,4.249,7.284,30.092-13.81-4.245-7.283L773.2,1603l12.346-16.214-5.4-6.751-18.522,8.5,11.572-15.2Z" transform="translate(-572.569 -1532.918)" fill="#fff" fill-rule="evenodd"/><path d="M741.477,1573.492l7.821,22.239h6.179l7.822-22.239.825,22.239,8.65,1.235-1.237-33.357-11.119-1.237-8.029,23.475-8.034-23.475-11.12,1.237L732,1596.966l8.652-1.235.824-22.239Z" transform="translate(-630.847 -1553.27)" fill="#fff" fill-rule="evenodd"/></g></svg>