<svg xmlns="http://www.w3.org/2000/svg" width="556.639" height="111.545" viewBox="0 0 556.639 111.545"><path d="M975.22,1802.6c.029-9.042-8.993-15.81-.882-27.506.97-1.156.784-2.889.019-4.614-1.141-2.121-4.212-8.287-5.554-9.634-15.418,10.912-37.464,52.773-42.66,52.755-5.387-.015-1.1-17.505,8.179-32.473,2.321-3.839,1.356-4.031.784-5.2-.573-.96-3.258-5.187-4.213-5.971s-2.111-2.311-4.232.177c-2.126,2.5-26.232,23.578-31.253,28.952,2.713-6.338,8.522-16.9,10.265-19.98,1.93-3.638.774-4.607-.367-5.96-1.151-1.156-4.4-5.387-5.75-6.353-1.156-.975-2.116-1.165-4.242.94-9.257,9.007-16.383,13.411-21.967,15.518,2.748-18.843-31.223-39.525-49.664,14.653-11.382,13.043-24.288,18.789-19.438,5.525,2.865-7.551,12.959-30.058,21.148-46.917,15.972-.651,35.274-1.18,46.676-.831,1.528.127,2.4-.06,2.855-.622a1.628,1.628,0,0,0,.147-1.573l.01.078a26.519,26.519,0,0,0-1.161-4.9l.02.054c-.392-1.587-1.763-2.5-3.757-2.507-4.7-.015-23.294,1.027-40.794,2.214,1.827-3.6,3.434-6.632,4.663-8.749a4.994,4.994,0,0,0-.554-5.382c-1.342-1.739-5.177-6.176-6.9-7.136-1.547-.969-2.693-.592-4.056,2.292-1.909,4.221-5.211,11.612-9.114,20.139-4.682.367-8.816.716-11.961,1.034-2.527.188-4.089,2.869-4.833,4.162-.064.114-.128.212-.177.294l-.01.025-.015.038a2.031,2.031,0,0,0,.1,2.1,2.207,2.207,0,0,0,2.145.71c.955-.132,5.163-.411,11.221-.719-6.044,12.964-12.915,27.05-18.318,36.16-14.493,22.275-25.061,19.351-20.992,8.022,3.884-11.136,13.934-27.848,15.673-30.722,1.357-2.3,1.748-5-2.679-5.01-3.85,0-7.3-3.488-6.118-10.781.588-4.041-2.287-5.785-4.036-2.523-4.834,9.223-18.141,22.643-24.494,24.734.98-6.724-4.956-15.594-23.416-15.643-4.281-.01-13.2.112-24.023.358,9.164-19.455,17.5-36.17,18.362-37.488a3.161,3.161,0,0,0-.372-3.467,50.013,50.013,0,0,0-6.71-5.987,2.947,2.947,0,0,0-4.226.947c-7.871,14.433-15.374,30.615-22.094,46.385-9.742.309-19.938.685-29.1,1.161,8.219-18.763,15.991-36.321,18.665-42.453.97-1.916,1.552-3.257.02-5a85.61,85.61,0,0,0-8.062-6.945c-1.533-1.347-3.649-.979-4.614,1.328-3.551,7.645-14.38,32.251-23.995,54.272-1.684.133-3.237.3-4.638.461-6.156.744-5.211,5.75-.206,5.378.764-.025,1.533-.025,2.3-.007-7.656,17.534-13.988,32.14-14.326,33.046-1.161,2.5-1.166,4.8.749,7.113,1.724,2.32,6.715,6.366,7.866,7.341,1.347.97,2.5.773,3.659-1.719,3.243-8.248,10.266-24.592,17.676-41.587,10.491,6.006,17.206,18.26,15.991,35.726-.2,1.919-.784,4.231.563,5.386a39.663,39.663,0,0,0,4.8,3.674c2.5,1.156,3.468-.76,4.237-2.684,3.487-10.938,12.215-30.734,20.81-49.209,9.487-.372,17.383-.523,19.734-.283-27.756,18.959-24.4,51.853.034,51.926,15.742.044,29.049-21.947,29.72-36.185,7.764-3.718,13.954-9.766,20.248-16.167a10.619,10.619,0,0,0,2.1,4.814c-25.1,32.614-18.974,45.334-4.741,45.373s20.988-9.938,24.846-14.923c-5.245,17.49,14.939,21.56,32.688,2.2,5.495,25.773,39.349,18,48.89-16.358a68.116,68.116,0,0,0,18.69-9.595c-6.177,8.831-14.317,26.67-15.086,28.588-.969,1.734-.392,2.7.945,4.238a66.733,66.733,0,0,0,6.147,5.6c1.146,1.161,2.87.975,4.8-1.333,13.513-15.344,27.785-28.549,30.1-30.851-9.262,10.551-12.612,35.147,4.32,35.206,13.263.039,11.377-12.093,38.212-43.737-8.914,20.944,1.269,24.626,1.244,31.742-.034,10.58-11.951,9.189-11.921-2.149,0-1.543-.564-3.478-2.5-.206-1.743,3.071-2.895,4.8-3.669,6.147-.964,1.15-.587,2.5.95,3.462C955.731,1822.933,975.17,1820.289,975.22,1802.6ZM674.857,1790.74c-2.861-8.664-9.179-18.875-15.321-20.821,5.529-.578,14.787-1.2,24.4-1.718C680.685,1775.965,677.644,1783.571,674.857,1790.74Zm47.636,17.065c-10.765-.031-13.4-17.353,4.9-30.558.377,3.448,4.971,10.388,13.807,8.312C740.673,1792.567,733.175,1807.838,722.493,1807.8Zm127.784-27.7c1.6,7.553,7.1,9.89,13.753,9.473C851.956,1827.914,822.937,1806.129,850.277,1780.1ZM494.3,1732.031c-9.183,17.954-28.426,62.833-36.263,83.736-1.034,2.617-3.34,4.271-6.9,1.489-3.639-2.787-5.613-4.78-7.356-6.288-1.572-1.426-2.052-2.459-1.014-5.158,9.668-23.514,25.155-58.023,35.828-76.782-6.416.21-30.151,2.685-35.627,3.145-1.342.157-1.817-.646-2.89-2.189-1.7-2.424-4.08-7.3-2.655-9.2,33.947-4.5,79.193-8.444,114.32-8.336,2.532,0,3,1.827,3.321,3.331.157,1.268,1.013,4.839,1.327,6.353.152,1.107-.093,2.531-2.7,2.527-2.189-.01-34.764.945-56.6,2.371Zm-2.733,82.3c-3.957.8-5.892-1.023-11.333-4.261-2.42-1.435-3.169-2.59-2.287-4.883a332.566,332.566,0,0,1,19.944-45.023c1.367-2.377,3.11-1.894,4.217-.936,2.126,2.065,5.06,5.092,6.553,6.753,2.292,2.469,1.41,4.05.465,5.7l-11.843,26.586c-5.911,13.356,9.189,4.97,22.324-12.778l14.326-22.375c.735-1.213,2.008-1.2,3.4-.4,1.3.725,7.126,4.663,7.959,5.407.661.6,1.107,1.616-.073,3.5-1.019,1.87-10.927,23.544-12.387,27.667,10.516-15.619,28.285-32.158,30.107-33.7,1.837-1.513,2.6-.676,3.581-.005s6.616,5.476,7.44,6.152c.666.68,1.513,1.911.186,3.869-2.527,3.7-7.807,20.7-8.821,24.386,7.582-10.692,24.8-28.805,26.781-30.483,1.905-1.68,3.732-1.455,5.632.039,1.832,1.656,5.128,4.2,6.142,5.495s.794,1.636-.24,3.194c-12.1,18.838-15.687,35.181-3.7,32.071-5.775,13.367-25.817,7.6-21.193-6.75,2.679-8.551,5.084-16.426,8.155-20.384-10.491,8.051-22.633,26.248-26.331,31.732a2.374,2.374,0,0,1-3.154.47c-2.714-1.42-7.6-3.707-9.247-4.819-1.8-1.269-1.019-3.125-.147-4.834.862-1.792,6.954-21.163,9.869-24.965-7.856,6.652-23.289,23.906-30.729,34.193-.892,1.307-1.989,1.528-3.84.979-1.7-.71-5.872-3.132-7.493-3.929-1.548-.793-2.391-1.7-1.3-3.819,3.218-7.386,8.042-18.06,9.443-20.356C523.971,1787.836,509.463,1810.713,491.567,1814.333Zm29.407-63.51c-2.513,5.2-8.449,7.529-13.263,5.2s-6.666-8.429-4.148-13.625,8.453-7.531,13.273-5.2S523.491,1745.632,520.973,1750.823Z" transform="translate(-436.986 -1708.2)" fill="#161614"/><g transform="translate(546.133 100.848)"><path d="M559,1733.9a5.255,5.255,0,1,1-5.241-5.114A5.137,5.137,0,0,1,559,1733.9Zm-9.2,0a3.964,3.964,0,0,0,3.987,4.084,4.088,4.088,0,0,0-.029-8.168A3.974,3.974,0,0,0,549.8,1733.9Zm3.15,2.679h-1.186v-5.113a10.716,10.716,0,0,1,1.964-.157,3.239,3.239,0,0,1,1.778.372,1.442,1.442,0,0,1,.5,1.128,1.307,1.307,0,0,1-1.063,1.18v.063a1.511,1.511,0,0,1,.935,1.249,3.816,3.816,0,0,0,.378,1.279h-1.279a4.354,4.354,0,0,1-.411-1.249c-.088-.559-.4-.808-1.058-.808h-.558Zm.03-2.9h.558c.661,0,1.19-.221,1.19-.75,0-.47-.343-.773-1.092-.773a2.788,2.788,0,0,0-.656.057Z" transform="translate(-548.492 -1728.791)" fill="#161614"/></g></svg>