<svg xmlns="http://www.w3.org/2000/svg" width="562.561" height="100.435" viewBox="0 0 562.561 100.435"><path d="M213.637,1625.7c-3.223-5.114-3.923-11.916-3.923-17.137,0-17.769,15.874-32.767,32.414-32.767h51.824l-20.11,20.292H241.775c-12.9,0-28.486,13.066-28.138,29.611Zm19.767-14.546c1.327-4.276,5.5-9.742,9.428-12.617-7.5,0-15.952,3.58-22.4,12.617Zm10.369-10.088a33.717,33.717,0,0,0-7.812,10.088h15.555a34.637,34.637,0,0,0-7.743-10.088Zm-24.636,12.719a28.516,28.516,0,0,0-3.223,11.319h14.541a32.811,32.811,0,0,1,2-11.319Zm15.839,0a44.091,44.091,0,0,0-2.243,11.319H254.74a43.879,43.879,0,0,0-2.238-11.319Zm31.787-2.63c-6.171-9.036-14.615-12.617-22.006-12.617a32.43,32.43,0,0,1,9.389,12.617Zm-11.671,2.63a31.876,31.876,0,0,1,1.925,11.319h14.547a25.9,25.9,0,0,0-3.223-11.319Zm-34.657,27.159c6.445,9.422,14.894,12.651,22.4,12.651-3.928-2.979-8.1-8.449-9.428-12.651Zm23.338,10.368a35.772,35.772,0,0,0,7.743-10.368H235.961a34.8,34.8,0,0,0,7.812,10.368Zm-11.319-12.612a36.664,36.664,0,0,1-2-11.319H215.915a29.5,29.5,0,0,0,3.223,11.319Zm20.047,0a45.656,45.656,0,0,0,2.238-11.319H232.734a45.89,45.89,0,0,0,2.243,11.319Zm1.646,2.244a33.881,33.881,0,0,1-9.389,12.651c7.391,0,15.835-3.228,22.006-12.651Zm14.194-2.244a26.7,26.7,0,0,0,3.223-11.319H257.017a35.358,35.358,0,0,1-1.925,11.319Zm5.5-12.651c.353,17.171-15.174,30.135-28.143,30.135H213.637l-20.115,20.047h51.829c16.545,0,32.414-14.9,32.414-32.659,0-5.226-.627-12.023-3.923-17.171v-.352Z" transform="translate(-193.522 -1575.792)" fill="#161614" fill-rule="evenodd"/><path d="M323.064,1639.958c-13.469,0-23.113-8.084-23.113-20.742,0-12.5,9.992-20.82,23.113-20.82s23.1,8.263,23.1,20.82c0,12.658-9.722,20.742-23.1,20.742Zm230.25-40.592v39.76H539.88l-.206-4.012h-.289c-1.489,1.342-4.594,4.889-13.254,4.889-9.6,0-18.024-8.353-18.024-20.8,0-11.544,7.464-20.761,18.91-20.761,7.783,0,10.961,3.428,12.157,4.521h.358l.132-3.595Zm-103.691.015v39.764h-13.44l-.2-4.01h-.289c-1.494,1.341-4.594,4.883-13.254,4.883-9.609,0-18.024-8.345-18.024-20.791,0-11.548,7.464-20.766,18.906-20.766,7.783,0,10.966,3.428,12.157,4.525h.357l.137-3.6Zm-65.268.029h13.861V1639.2H384.355V1599.41Zm74.187,39.7v-56.07h13.807v19.213h.147a21.663,21.663,0,0,1,12.01-3.815c10.751,0,18.651,8.64,18.651,20.076,0,14.286-8.757,21.481-18.734,21.481-7.547,0-11.378-3.513-12.328-4.536h-.221l-.2,3.65Zm-135.478-9.1c5.618,0,8.919-4.923,8.919-10.8,0-5.95-3.144-10.877-8.919-10.877-6.034,0-8.924,4.927-8.924,10.877,0,5.873,3.311,10.8,8.924,10.8Zm54.586-1.705a17.3,17.3,0,0,1-3.825.671c-2.807,0-5.868-1.313-5.868-6.176v-13.439h8.7v-10h-8.7v-12.8H354.126v12.8h-6.049v10h6.049v15.726c0,8.65,4.011,14.85,14.248,14.85a41.619,41.619,0,0,0,7.572-.754l1.7-10.878Zm-157.283,9.36a57.945,57.945,0,0,0,15.977,2.248c11.8,0,23.583-4.183,23.583-17.142,0-17.785-24.523-15.321-24.523-22.407,0-3.63,3.771-4.413,7.464-4.413,5.123,0,11.608,2.458,13.048,3.045l1.116-12.249a47.915,47.915,0,0,0-14.115-1.91c-11.652,0-23.152,4.55-23.152,16.094,0,17.47,24.46,13.825,24.46,23,0,3.526-3.526,4.869-8.018,4.869-6.171,0-11.975-3.091-14.488-4.208l-1.352,13.077Zm302.38-18.827c0,6.578,3.673,10.683,8.424,10.683,4.305,0,8.5-4.026,8.5-10.138,0-6.161-3.718-10.379-8.5-10.379-4.947,0-8.424,4.418-8.424,9.834Zm-103.687.02c0,6.574,3.668,10.682,8.419,10.682,4.3,0,8.5-4.026,8.5-10.138,0-6.162-3.717-10.373-8.5-10.373-4.947,0-8.419,4.412-8.419,9.829ZM296.425,1600a32.9,32.9,0,0,0-9.864-1.6c-12.46,0-21.8,7.8-21.8,20.786,0,11.8,8.385,20.786,21.247,20.786a32.889,32.889,0,0,0,10.418-1.739l-.671-11.594a16.3,16.3,0,0,1-7,2.062,9.255,9.255,0,0,1-9.658-9.516c0-5.843,4.364-9.6,9.82-9.6a15.674,15.674,0,0,1,6.842,1.94l.671-11.53Zm315.824,39.146h13.787v-18.4h.152l12.25,18.4h15.354l-14.786-21.074,14.409-18.63h-15.33l-11.9,16.393h-.152v-32.741H612.25v56.053Zm-49.987,0h13.454V1618.6c0-4.814,3.189-8.106,7.273-8.106,4.658,0,7.3,3.027,7.3,8.106v20.54h13.459V1615.2c0-9.007-5.8-16.721-16.452-16.721a17.125,17.125,0,0,0-12.494,5.383h-.284l-.137-4.4H562.263v39.686ZM391.29,1579.271a7.768,7.768,0,1,0,7.768,7.774,7.8,7.8,0,0,0-7.768-7.774Zm97.544,39.956c0-5.314-3.032-10.04-8.311-10.04-4.648,0-8.39,3.971-8.39,10.04,0,5.887,3.066,10.075,8.39,10.075,4.8,0,8.311-3.991,8.311-10.075Z" transform="translate(-91.232 -1562.232)" fill="#161614" fill-rule="evenodd"/></svg>