<?xml version="1.0" standalone="no"?>
<!DOCTYPE svg PUBLIC "-//W3C//DTD SVG 20010904//EN"
 "http://www.w3.org/TR/2001/REC-SVG-20010904/DTD/svg10.dtd">
<svg version="1.0" xmlns="http://www.w3.org/2000/svg"
 width="700.000000pt" height="700.000000pt" viewBox="0 0 700.000000 700.000000"
 preserveAspectRatio="xMidYMid meet">
<metadata>
Created by potrace 1.11, written by Peter Selinger 2001-2013
</metadata>
<g transform="translate(0.000000,700.000000) scale(0.100000,-0.100000)"
fill="#000000" stroke="none">
<path d="M0 3505 l0 -3495 43 0 c427 -3 6941 0 6944 4 2 2 4 105 5 228 l0 224
-55 150 c-30 82 -64 174 -75 204 -11 30 -70 192 -132 360 -61 168 -134 366
-162 440 -27 74 -73 200 -103 280 -29 80 -71 195 -93 255 l-40 110 -115 3
-114 3 -11 -28 c-12 -30 -242 -657 -398 -1087 -52 -142 -108 -293 -123 -335
-16 -42 -51 -134 -77 -206 -26 -71 -51 -134 -56 -140 -12 -13 -569 -13 -558 0
7 9 88 227 468 1265 88 239 167 452 176 474 9 21 16 42 16 47 0 5 -51 9 -114
9 l-114 0 -35 -102 c-19 -57 -53 -152 -75 -213 -21 -60 -126 -356 -232 -658
-111 -314 -198 -546 -204 -544 -6 2 -48 111 -94 243 -46 131 -88 248 -92 259
-5 11 -53 144 -106 295 -53 151 -123 352 -156 445 -33 94 -68 193 -77 220
l-18 50 -116 3 -116 3 25 -68 c14 -37 46 -124 71 -193 24 -69 48 -134 53 -145
5 -11 42 -112 84 -225 184 -502 218 -597 291 -795 42 -116 91 -248 109 -295
l32 -85 -406 0 c-311 1 -405 3 -406 13 -1 7 -2 50 -3 97 l-1 85 -442 2 -443 3
0 305 0 304 408 0 407 0 0 98 0 98 -405 0 c-223 0 -406 3 -406 8 -1 4 -2 140
-3 303 l-1 297 410 0 c225 0 422 1 436 1 l26 1 0 95 0 95 -539 2 c-330 2 -542
-1 -546 -6 -8 -14 -9 -1768 -1 -1786 6 -13 -42 -15 -402 -15 l-409 0 -126 153
c-114 138 -125 155 -112 170 61 72 114 228 124 362 3 36 7 70 9 77 7 23 -21
31 -110 29 l-90 -1 -3 -35 c-7 -97 -57 -280 -76 -280 -3 0 -340 407 -380 459
-8 10 -5 17 9 27 106 77 225 180 260 227 131 172 117 395 -31 526 -88 78 -197
112 -339 107 -217 -9 -366 -125 -404 -316 -29 -149 13 -279 144 -450 l56 -72
-21 -17 c-255 -193 -330 -304 -330 -490 0 -198 99 -352 281 -439 l77 -37 -199
0 c-109 0 -200 2 -200 5 -4 17 -3 6364 1 6375 5 13 690 -1118 698 -1152 2 -7
8 -13 13 -13 5 0 9 -5 9 -10 0 -6 12 -29 27 -52 l28 -41 1 -461 c1 -254 2
-464 3 -469 0 -4 80 -7 176 -6 l175 0 1 27 c0 15 0 225 0 466 l1 439 245 411
c136 226 326 545 425 709 98 164 178 301 178 303 0 2 -91 3 -202 2 l-203 -3
-167 -290 c-92 -159 -173 -301 -181 -315 -47 -88 -251 -437 -260 -447 -18 -18
-30 -6 -76 77 -23 41 -46 82 -51 90 -6 8 -55 94 -110 190 -55 96 -104 182
-110 190 -6 8 -13 22 -17 30 -4 8 -53 94 -108 190 -56 96 -116 201 -134 233
l-32 57 -400 0 -399 0 0 -3495z m1204 -1424 c101 -58 136 -167 88 -272 -26
-58 -57 -89 -171 -174 l-94 -69 -24 29 c-91 111 -144 224 -138 295 7 84 61
160 140 199 54 26 145 23 199 -8z m5026 -117 c0 -8 4 -22 10 -32 5 -9 60 -159
121 -332 60 -173 119 -339 130 -368 10 -29 19 -55 19 -57 0 -3 -133 -5 -296
-5 -278 0 -296 1 -289 18 3 9 34 94 67 187 33 94 70 199 83 235 13 36 46 128
74 205 27 77 52 148 56 157 8 20 25 14 25 -8z m-5182 -739 c10 -11 60 -72 112
-135 52 -63 105 -126 117 -140 54 -63 143 -176 143 -181 0 -10 -58 -52 -112
-82 -212 -118 -467 -59 -559 130 -33 67 -33 160 0 225 33 64 101 140 179 199
l65 49 19 -23 c11 -12 27 -31 36 -42z m5530 -254 c5 -3 25 -53 44 -111 20 -58
43 -123 51 -145 21 -54 74 -205 81 -230 6 -20 1 -20 -534 -20 -296 1 -541 3
-543 5 -3 3 33 111 80 240 46 129 86 242 89 251 5 15 42 16 364 16 197 0 363
-3 368 -6z m-4946 -450 c21 -24 38 -47 38 -50 0 -3 -85 -6 -189 -6 -105 0
-187 2 -183 6 4 3 34 16 67 29 59 23 118 58 164 99 l24 21 20 -28 c12 -15 38
-47 59 -71z"/>
<path d="M3184 6976 c-348 -129 -577 -429 -660 -867 -28 -142 -25 -437 4 -584
77 -391 267 -660 569 -810 286 -141 663 -140 948 2 238 119 422 337 514 610
81 241 99 565 45 833 -78 385 -314 686 -636 810 l-77 30 -323 -1 c-310 0 -325
-1 -384 -23z m559 -281 c343 -87 541 -411 537 -880 0 -96 -2 -114 -15 -208
-44 -305 -205 -530 -450 -628 -91 -37 -253 -54 -344 -37 -25 5 -59 11 -74 14
-125 22 -293 137 -377 259 -58 85 -117 227 -137 330 -4 22 -8 42 -8 45 -17 72
-22 260 -11 385 38 406 269 689 600 735 75 10 209 3 279 -15z"/>
<path d="M4985 6178 c1 -453 5 -843 9 -868 76 -442 444 -715 949 -705 146 3
195 9 307 42 285 82 479 259 572 523 44 124 46 172 47 1023 l0 807 -180 0
-179 0 -1 -772 c0 -425 -3 -793 -5 -818 -28 -294 -270 -487 -601 -479 -230 6
-415 113 -503 292 -57 116 -57 121 -58 972 -1 429 -1 786 -2 793 0 9 -42 12
-178 12 l-177 0 0 -822z"/>
</g>
</svg>
