<?xml version="1.0" encoding="utf-8"?>
<!-- Generator: Adobe Illustrator 24.1.3, SVG Export Plug-In . SVG Version: 6.00 Build 0)  -->
<svg version="1.1" id="Layer_1" xmlns="http://www.w3.org/2000/svg" xmlns:xlink="http://www.w3.org/1999/xlink" x="0px" y="0px"
	 viewBox="0 0 500 500" style="enable-background:new 0 0 500 500;" xml:space="preserve">
<style type="text/css">
	.st0{fill:#FFFFFF;}
</style>
<g>
	<path class="st0" d="M362.4,296.6L468.1,250l-105.7-46.6l41.9-107.7l-107.7,41.8L250,31.9l-46.6,105.7L95.8,95.8l41.9,107.7
		L31.9,250l105.7,46.6L95.8,404.2l107.7-41.9L250,468.1l46.6-105.7l107.7,41.9L362.4,296.6z M215.8,332.6
		c-16.1-6.6-23.3-25.1,2.7-51.1c-26,26-44.5,18.8-51.1,2.7c-6.6-16,1.3-34.2,38.1-34.2c-36.8,0-44.7-18.2-38.1-34.2
		c6.6-16,25.1-23.3,51.1,2.7c-26-26-18.8-44.5-2.7-51.1c16-6.6,34.2,1.3,34.2,38.1c0-36.8,18.2-44.7,34.2-38.1
		c16,6.6,23.3,25.1-2.7,51.1c26-26,44.5-18.8,51.1-2.7c6.6,16-1.3,34.2-38.1,34.2c36.8,0,44.7,18.2,38.1,34.2
		c-6.6,16.1-25.1,23.3-51.1-2.7c26,26,18.8,44.5,2.7,51.1c-16,6.6-34.2-1.3-34.2-38.1C250,331.3,231.8,339.3,215.8,332.6z"/>
	<path class="st0" d="M268.6,250c0-10.3-8.3-18.6-18.6-18.6c-10.3,0-18.6,8.3-18.6,18.6c0,10.3,8.3,18.6,18.6,18.6
		C260.3,268.6,268.6,260.3,268.6,250z"/>
</g>
</svg>
