<svg xmlns="http://www.w3.org/2000/svg" viewBox="0 0 24.16 24.16"><defs><style>.cls-1{fill:none;}.cls-2{fill:#afafae;}</style></defs><title>Social-Icon-IG</title><g id="Layer_2" data-name="Layer 2"><g id="Layer_1-2" data-name="Layer 1"><circle class="cls-1" cx="12.08" cy="12.08" r="12.08"/><path class="cls-2" d="M12.11,6c2,0,2.21,0,3,.06a4,4,0,0,1,1.38.26,2.42,2.42,0,0,1,.85.56,2.54,2.54,0,0,1,.55.85,4.21,4.21,0,0,1,.24,1.38c0,.78,0,1,0,3s0,2.21-.06,3a4.27,4.27,0,0,1-.26,1.38,2.42,2.42,0,0,1-.56.85,2.54,2.54,0,0,1-.85.55,4.27,4.27,0,0,1-1.38.24c-.78,0-1,0-3,0s-2.22,0-3-.06a4.26,4.26,0,0,1-1.37-.26,2.42,2.42,0,0,1-.85-.56,2.27,2.27,0,0,1-.55-.85A4.2,4.2,0,0,1,6,15c0-.78,0-1,0-3s0-2.22.06-3a4,4,0,0,1,.26-1.37,2.42,2.42,0,0,1,.56-.85,2.27,2.27,0,0,1,.85-.55A4.14,4.14,0,0,1,9.12,6c.78,0,1,0,3,0m0-1.34c-2,0-2.26,0-3,0A5.37,5.37,0,0,0,7.27,5,3.49,3.49,0,0,0,6,5.88a3.63,3.63,0,0,0-.86,1.31A5.32,5.32,0,0,0,4.73,9c0,.79-.05,1-.06,3s0,2.26,0,3.05A5.37,5.37,0,0,0,5,16.89a3.56,3.56,0,0,0,.84,1.32,3.63,3.63,0,0,0,1.31.86,5.35,5.35,0,0,0,1.8.35c.79,0,1,0,3,.06s2.26,0,3.05,0a5.37,5.37,0,0,0,1.8-.34A3.73,3.73,0,0,0,19.07,17a5.35,5.35,0,0,0,.35-1.8c0-.79,0-1,.06-3.05s0-2.26,0-3a5.37,5.37,0,0,0-.34-1.8A3.61,3.61,0,0,0,18.28,6,3.72,3.72,0,0,0,17,5.09a5.32,5.32,0,0,0-1.8-.36c-.79,0-1-.05-3.05-.06Z"/><path class="cls-2" d="M12.1,8.28a3.8,3.8,0,1,0,3.78,3.82A3.79,3.79,0,0,0,12.1,8.28Zm0,6.27a2.47,2.47,0,1,1,2.48-2.46A2.47,2.47,0,0,1,12.07,14.55Z"/><circle class="cls-2" cx="16.05" cy="8.15" r="0.89"/></g></g></svg>