<svg xmlns="http://www.w3.org/2000/svg" viewBox="0 0 236.6 27.21"><title>Loeven-Morcel-Logo-Nav</title><g id="Layer_2" data-name="Layer 2"><g id="Layer_1-2" data-name="Layer 1"><path d="M0,26.78V0H1.42V26.78Z"/><path d="M14.93,27.21a9.53,9.53,0,0,1-7.26-2.84,10,10,0,0,1-2.61-7.23,10.09,10.09,0,0,1,2.7-7.35A9.7,9.7,0,0,1,15,7a9.62,9.62,0,0,1,7.23,2.76,10.13,10.13,0,0,1,2.69,7.35,10,10,0,0,1-2.73,7.31A9.76,9.76,0,0,1,14.93,27.21ZM15,8.33a8.17,8.17,0,0,0-6.22,2.41,9,9,0,0,0-2.27,6.4A8.85,8.85,0,0,0,8.77,23.5,8.15,8.15,0,0,0,15,25.91a8.19,8.19,0,0,0,6.22-2.41,8.82,8.82,0,0,0,2.31-6.36,8.93,8.93,0,0,0-2.27-6.42A8.23,8.23,0,0,0,15,8.33Z"/><path d="M29.06,17.58q.23,8.33,8.21,8.33A9.15,9.15,0,0,0,42,24.68a6.85,6.85,0,0,0,3-3.59h1.46a8,8,0,0,1-3.63,4.78,11.22,11.22,0,0,1-5.65,1.34q-4.74,0-7.23-2.76a10.68,10.68,0,0,1-2.29-7.27A10.36,10.36,0,0,1,30.3,9.85,9.21,9.21,0,0,1,37.39,7a9.78,9.78,0,0,1,7.07,2.53,9.05,9.05,0,0,1,2.65,6.87v1.11Zm8.33-9.25a8,8,0,0,0-5.85,2.16,8.65,8.65,0,0,0-2.48,5.78H45.45a8.08,8.08,0,0,0-2.25-5.78A7.89,7.89,0,0,0,37.39,8.33Z"/><path d="M58.05,26.78H56.62L47.54,7.5h1.7l8.09,17.66L64.84,7.5h1.54Z"/><path d="M68.8,17.58Q69,25.91,77,25.91a9.15,9.15,0,0,0,4.76-1.23,6.85,6.85,0,0,0,3-3.59h1.46a8,8,0,0,1-3.63,4.78,11.22,11.22,0,0,1-5.65,1.34q-4.74,0-7.23-2.76a10.68,10.68,0,0,1-2.29-7.27A10.36,10.36,0,0,1,70,9.85,9.21,9.21,0,0,1,77.13,7,9.78,9.78,0,0,1,84.2,9.56a9.05,9.05,0,0,1,2.65,6.87v1.11Zm8.33-9.25a8,8,0,0,0-5.85,2.16,8.65,8.65,0,0,0-2.48,5.78H85.19a8.08,8.08,0,0,0-2.25-5.78A7.89,7.89,0,0,0,77.13,8.33Z"/><path d="M105.46,26.78V14.1a5.35,5.35,0,0,0-1.73-4.29,7,7,0,0,0-4.66-1.48,7.12,7.12,0,0,0-5.44,2.12,7.69,7.69,0,0,0-2,5.51V26.78H90.22V7.5h1.42V11Q93.62,7,99,7a8.63,8.63,0,0,1,5.53,1.66,6,6,0,0,1,2.33,5V26.78Z"/><path d="M151.75,26.78V14.1c0-3.84-1.81-5.77-5.45-5.77a6.57,6.57,0,0,0-4.74,1.72,6.13,6.13,0,0,0-1.78,4.6V26.78h-1.42V14.1c0-3.84-1.85-5.77-5.57-5.77a5.76,5.76,0,0,0-4.89,2.37A8.63,8.63,0,0,0,126.36,16V26.78h-1.43V7.5h1.43v3.36Q128.25,7,133.19,7q4.74,0,6.2,3.91Q141.13,7,146.22,7q7,0,6.95,6.68V26.78Z"/><path d="M165.93,27.21a9.55,9.55,0,0,1-7.27-2.84,10.06,10.06,0,0,1-2.6-7.23,10.09,10.09,0,0,1,2.7-7.35,10.88,10.88,0,0,1,14.48,0,10.12,10.12,0,0,1,2.68,7.35,10,10,0,0,1-2.72,7.31A9.76,9.76,0,0,1,165.93,27.21Zm0-18.88a8.16,8.16,0,0,0-6.22,2.41,8.93,8.93,0,0,0-2.27,6.4,8.85,8.85,0,0,0,2.29,6.36,9.21,9.21,0,0,0,12.42,0,8.82,8.82,0,0,0,2.31-6.36,9,9,0,0,0-2.27-6.42A8.23,8.23,0,0,0,166,8.33Z"/><path d="M181,11.69a7.36,7.36,0,0,1,2-2.57A9.77,9.77,0,0,1,189.37,7v1.3a7.3,7.3,0,0,0-6.68,3.44A13.83,13.83,0,0,0,181,19.08v7.7h-1.42V7.5H181Z"/><path d="M205.62,25.75a10,10,0,0,1-5.53,1.46,9.65,9.65,0,0,1-7.16-2.64,9.57,9.57,0,0,1-2.63-7.07A10.59,10.59,0,0,1,193,9.85,10,10,0,0,1,200.53,7a9.31,9.31,0,0,1,5.05,1.34,7.1,7.1,0,0,1,3.12,4.39l-1.3.67q-1.31-5.1-7-5.1a8.36,8.36,0,0,0-6.52,2.61,9.43,9.43,0,0,0-2.21,6.56,8.47,8.47,0,0,0,2.21,6.12,8.11,8.11,0,0,0,6.12,2.29,8.66,8.66,0,0,0,4.78-1.3,6.28,6.28,0,0,0,2.73-4.27l1.38.59A7.44,7.44,0,0,1,205.62,25.75Z"/><path d="M213.35,17.58q.24,8.33,8.21,8.33a9.15,9.15,0,0,0,4.76-1.23,6.85,6.85,0,0,0,3-3.59h1.47a8,8,0,0,1-3.64,4.78,11.22,11.22,0,0,1-5.65,1.34c-3.16,0-5.56-.92-7.22-2.76S212,20.29,212,17.18a10.35,10.35,0,0,1,2.62-7.33A9.23,9.23,0,0,1,221.68,7a9.78,9.78,0,0,1,7.07,2.53,9,9,0,0,1,2.65,6.87v1.11Zm8.33-9.25a8,8,0,0,0-5.84,2.16,8.61,8.61,0,0,0-2.49,5.78h16.39a8,8,0,0,0-2.25-5.78A7.89,7.89,0,0,0,221.68,8.33Z"/><path d="M235.17,26.78V0h1.43V26.78Z"/></g></g></svg>