<svg xmlns="http://www.w3.org/2000/svg" viewBox="0 0 24.16 24.16"><defs><style>.cls-1{fill:none;}.cls-2{fill:#afafae;fill-rule:evenodd;}</style></defs><title>Social-Icon-PI</title><g id="Layer_2" data-name="Layer 2"><g id="Layer_1-2" data-name="Layer 1"><circle class="cls-1" cx="12.08" cy="12.08" r="12.08"/><path id="pinterest" class="cls-2" d="M11.48,15.12c-.13.49-.26,1-.39,1.5a10.64,10.64,0,0,1-.43,1.45,7.41,7.41,0,0,1-1.21,2.06c-.34.39-.26.24-.37.21S9,20.25,9,20.14a11.69,11.69,0,0,1,0-2,10.07,10.07,0,0,1,.36-2c.29-1.21.57-2.4.86-3.62,0-.08.07-.21,0-.26a3.84,3.84,0,0,1-.24-1,3,3,0,0,1,.09-1.14,1.85,1.85,0,0,1,1.11-1.36,1.25,1.25,0,0,1,1,.08,1.08,1.08,0,0,1,.51.73,2.56,2.56,0,0,1-.06,1.11c-.16.72-.36,1.25-.56,1.94A2.11,2.11,0,0,0,12,13.69a1.27,1.27,0,0,0,.49.76,1.47,1.47,0,0,0,1,.27A2.07,2.07,0,0,0,15,13.81a5.47,5.47,0,0,0,1-2.75,7.5,7.5,0,0,0,0-1.18A3,3,0,0,0,14,7a4.85,4.85,0,0,0-2.2-.14,3.89,3.89,0,0,0-2.9,2.05,4.22,4.22,0,0,0-.5,2,2.64,2.64,0,0,0,.39,1.47c.08.12.19.22.27.35s0,.48-.08.69-.07.59-.36.59a.73.73,0,0,1-.37-.14A3,3,0,0,1,6.8,11.7a5.06,5.06,0,0,1,0-1.9,5.27,5.27,0,0,1,.55-1.51A5.46,5.46,0,0,1,9.41,6.21a6,6,0,0,1,2.29-.78,9.2,9.2,0,0,1,1-.07,5.55,5.55,0,0,1,2.53.49,5.16,5.16,0,0,1,1.75,1.27A4.74,4.74,0,0,1,18,9.06a4.7,4.7,0,0,1,.23,1.35A8.63,8.63,0,0,1,18,11.8a5.44,5.44,0,0,1-2.27,3.77,3.69,3.69,0,0,1-1,.47,3.47,3.47,0,0,1-1.31.16,2.69,2.69,0,0,1-1.17-.34A1.86,1.86,0,0,1,11.48,15.12Z"/></g></g></svg>