<svg xmlns="http://www.w3.org/2000/svg" viewBox="0 0 354.75 354.75"><defs><style>.cls-1{fill:#c6c6c6;}</style></defs><title>Slider-Wheel-2</title><g id="Layer_2" data-name="Layer 2"><g id="Layer_1-2" data-name="Layer 1"><path class="cls-1" d="M177.38,354.75l-.13-.05-32.47-13.45H109.5l-.1-.1L84.55,316.3,52,302.8l-.05-.13L38.45,270.2l-25-24.95V210L0,177.38l.05-.13L13.5,144.78V109.5l.1-.1L38.45,84.55,52,52l.13-.05L84.55,38.45l25-25h35.28L177.38,0l.12.05L210,13.5h35.28l.1.1L270.2,38.45,302.8,52l.05.13L316.3,84.55l24.95,25v35.28l13.5,32.6-.05.12L341.25,210v35.28l-.1.1L316.3,270.2l-13.5,32.6-.13.05L270.2,316.3l-24.95,24.95H210ZM109.77,340.6l35.2,0,32.41,13.43,32.53-13.45H245l24.91-24.88L302.3,302.3l13.49-32.51L340.6,245l0-35.2,13.43-32.4L340.6,144.84V109.77L315.72,84.86,302.3,52.45,269.79,39,245,14.15l-35.2,0L177.38.7,144.84,14.15H109.77L84.86,39,52.45,52.45,39,85,14.15,109.77l0,35.2L.7,177.38l13.45,32.53V245L39,269.89,52.45,302.3,85,315.79Z"/></g></g></svg>