<svg xmlns="http://www.w3.org/2000/svg" viewBox="0 0 1031.85 326.96"><defs><style>.cls-1{fill:#fff;}</style></defs><title>Voir-2</title><g id="Layer_2" data-name="Layer 2"><g id="Layer_1-2" data-name="Layer 1"><path class="cls-1" d="M152.06,322.44h-7l-.13-.31L23.58,33.29C18,19.26,12.62,11.34.43,9.6L0,9.54v-5H50.35v5l-.43.07c-5.43.8-8.89,2.65-10.58,5.67-2.13,3.8-1.51,9.57,1.91,17.63L154,300.67l101-267.75c3.24-8.65,3.73-14.42,1.54-18.13-1.63-2.77-4.82-4.46-9.75-5.19l-.43-.07v-5h38.13v5l-.41.08c-12.1,2.33-16.21,8.09-21.36,21Zm-6.35-1h5.66L261.71,30.2c5.14-12.85,9.52-19,21.7-21.51V5.53H247.28V8.67c5,.82,8.3,2.65,10,5.61,2.36,4,1.89,10-1.47,19L154,303.37,40.33,33.29c-3.55-8.37-4.16-14.42-1.86-18.51,1.8-3.22,5.36-5.22,10.88-6.11V5.53H1V8.67C13.31,10.6,19,19,24.5,32.91Z"/><path class="cls-1" d="M476.31,327c-44.77,0-86-16.33-116.13-46-30.54-30.06-47.35-71.79-47.35-117.5,0-45.88,16.81-87.67,47.35-117.67C390.24,16.27,431.49,0,476.31,0s86.07,16.27,116.14,45.81c30.53,30,47.34,71.79,47.34,117.67,0,45.71-16.81,87.44-47.34,117.5C562.33,310.63,521.09,327,476.31,327Zm0-326c-44.56,0-85.56,16.17-115.43,45.53-30.34,29.81-47.05,71.34-47.05,117,0,45.44,16.71,86.92,47.05,116.79C390.81,309.74,431.8,326,476.31,326s85.51-16.22,115.44-45.69c30.33-29.87,47-71.35,47-116.79,0-45.61-16.7-87.14-47-116.95C561.87,17.17,520.87,1,476.31,1Zm0,320.08c-38.82,0-74.86-14.2-101.47-40-29.61-28.69-45.26-69.36-45.26-117.62,0-48.46,15.65-89.27,45.25-118,26.6-25.82,62.64-40,101.48-40s74.89,14.22,101.48,40C607.39,74.21,623,115,623,163.48c0,48.26-15.65,88.93-45.25,117.62C551.18,306.88,515.14,321.08,476.31,321.08Zm0-314.65c-38.58,0-74.37,14.12-100.78,39.76-29.41,28.55-44.95,69.11-44.95,117.29,0,48,15.54,88.41,44.95,116.9,26.43,25.6,62.22,39.7,100.78,39.7s74.36-14.1,100.78-39.7C606.5,251.89,622,211.47,622,163.48c0-48.18-15.54-88.74-44.95-117.29C550.69,20.55,514.9,6.43,476.31,6.43Z"/><path class="cls-1" d="M736.22,322.44H688.59v-5l.46-.05C703.35,316,704,308.79,704,293.87V32.64c0-14.93-.64-22.15-14.93-23l-.47,0v-5h47.63v5l-.46,0c-13.93.87-15.38,7.69-15.38,23V293.87c0,15.67,1.39,22.18,15.39,23.49l.45.05Zm-46.63-1h45.63v-3.12c-14.27-1.49-15.84-9-15.84-24.45V32.64c0-15.48,1.58-23,15.84-24V5.53H689.59v3.1c14.7,1.09,15.4,9,15.4,24V293.87c0,15-.69,22.91-15.4,24.45Z"/><path class="cls-1" d="M1031.85,322.44h-27l-.15-.21L902.08,183.92c-6.26.43-12.62.43-18.77.43H825.86V293.87c0,14.92.63,22.15,14.94,23.49l.45.05v5H794.07v-5l.46-.05c14.3-1.34,14.94-8.57,14.94-23.49V33.1c0-16.38-1.29-22.65-14.93-23.5l-.47,0v-5h89.24c36.44,0,66.78,8.25,87.73,23.86,21.12,15.74,32.29,38.66,32.29,66.28,0,45.82-30.87,77.43-84.73,86.82l83.27,112.08c9.37,12.81,17.21,20.81,29.6,23.81l.38.09Zm-26.51-1h25.51v-3.19c-12.47-3.13-20.38-11.22-29.78-24.09L916.83,180.78l.8-.14c53.83-9.12,84.7-40.46,84.7-86,0-27.29-11-49.93-31.89-65.47S919.53,5.53,883.31,5.53H795.07v3.1c14.7,1.09,15.4,9.18,15.4,24.47V293.87c0,15-.69,22.91-15.4,24.45v3.12h45.18v-3.12c-14.7-1.54-15.39-9.49-15.39-24.45V183.35h58.45c6.22,0,12.66,0,19-.45l.27,0,.16.22ZM880.14,178.92H824.86V10h55.28c70.22,0,107.34,29.29,107.34,84.71C987.48,149.79,950.36,178.92,880.14,178.92Zm-54.28-1h54.28c69.57,0,106.34-28.79,106.34-83.25C986.48,39.9,949.71,11,880.14,11H825.86Z"/></g></g></svg>