<svg xmlns="http://www.w3.org/2000/svg" viewBox="0 0 702.9 77.67"><defs><style>.cls-1{fill:none;}</style></defs><title>Instagram-Handle</title><g id="Layer_2" data-name="Layer 2"><g id="Layer_1-2" data-name="Layer 1"><path d="M147,37.93c0,9.82-5,20.67-13.32,20.67-5.66,0-9.72-3.68-10.38-9.53-2.64,5.85-7.84,9.53-14.07,9.53-9.82,0-16.8-7.36-16.8-18.69s7-18.69,16.8-18.69c6.23,0,11.43,3.78,14.07,9.72l1.79-8.87h.66V46.71c0,8.12,3.69,10.95,8.5,10.95,6.8,0,11.8-10.1,11.8-19.73,0-17.47-14-34-36.16-34-21,0-35.21,15.86-35.21,34.93,0,21.15,15.2,35.69,36.82,35.69,6.23,0,11.23-1.89,14.25-4.15v1.32c-2.73,1.79-8.68,3.77-14.25,3.77-22.75,0-37.76-15.1-37.76-36.63C73.73,18.67,88.93,3,109.88,3,131,3,147,18.39,147,37.93Zm-23.79,2c0-10.86-6.33-17.75-14-17.75-7.83,0-14.06,6.61-14.06,17.75s6.23,17.75,14.06,17.75C116.87,57.66,123.2,50.86,123.2,39.91Z"/><path d="M167.1,71.73v.85h-9.73v-.85c3-.19,3.31-1.7,3.31-4.91V12.34c0-3.2-.29-4.71-3.31-5V6.49L163,4.7h.85V66.82C163.89,70,164.07,71.54,167.1,71.73Z"/><path d="M219.4,50.3c0,14.25-9.82,23.22-22.09,23.22s-22.19-9-22.19-23.22S184.94,27,197.31,27,219.4,36,219.4,50.3Zm-3.4,0c0-13.79-8.4-22.19-18.69-22.19s-18.79,8.4-18.79,22.19,8.4,22.18,18.79,22.18S216,64.08,216,50.3Z"/><path d="M231.29,47.28a24.91,24.91,0,0,0-.09,2.64c0,13.88,8.59,20.49,17.37,21.62a18.13,18.13,0,0,0,18-8.12l.85.66c-3.87,5.66-9.25,9.44-17.28,9.44-12.55,0-22.28-9.06-22.28-23.6S236.86,27,248.66,27C263.77,27,268,39.63,268,47.09v.19Zm.1-1.23H264.9c-.28-8.5-4.44-18-15.86-18C240.35,28.11,232.8,34.53,231.39,46.05Z"/><path d="M315.41,27.92v.85c-2.46.19-3.31,1.7-4.06,3.68L295.11,72.58h-.94L277.08,32.83c-.95-2.17-1.7-3.78-4.34-4.06v-.85h8.87v.85c-2,.19-2.27,1.61-1.51,3.4l15.58,36.35L310.31,32c.66-1.7.66-3-1.23-3.21v-.85Z"/><path d="M325.41,47.28a24.91,24.91,0,0,0-.09,2.64c0,13.88,8.59,20.49,17.37,21.62a18.13,18.13,0,0,0,18-8.12l.85.66c-3.87,5.66-9.25,9.44-17.28,9.44-12.55,0-22.27-9.06-22.27-23.6S331,27,342.78,27c15.11,0,19.36,12.65,19.36,20.11v.19Zm.1-1.23H359c-.28-8.5-4.43-18-15.86-18C334.48,28.11,326.92,34.53,325.51,46.05Z"/><path d="M413.68,71.73v.85H404v-.85c3-.19,3.21-1.7,3.21-4.91V46.71c0-10.1-4.06-18.6-14.92-18.6-7.08,0-15.1,6.14-15.1,13.69v25c0,3.21.19,4.72,3.21,4.91v.85h-9.72v-.85c3-.19,3.3-1.7,3.3-4.91V34.63c0-3.21-.28-4.73-3.3-5v-.85L376.3,27h.85v9.53A18.2,18.2,0,0,1,392.91,27c10.2,0,17.56,6,17.56,18.6V66.82C410.47,70,410.66,71.54,413.68,71.73Z"/><path d="M495.72,71.73v.85H486v-.85c3-.19,3.3-1.7,3.3-4.91V46.71c0-10.1-3.21-18.6-14-18.6-7.17,0-14.25,6.14-14.25,13.69v25c0,3.21.19,4.72,3.21,4.91v.85h-9.73v-.85c3-.19,3.21-1.7,3.21-4.91V46.71c0-10.1-3.11-18.6-14-18.6-7.08,0-14.26,6.14-14.26,13.69v25c0,3.21.19,4.72,3.31,4.91v.85h-9.72v-.85c3-.19,3.2-1.7,3.2-4.91V34.63c0-3.21-.18-4.73-3.2-5v-.85L428.69,27h.85v9.44A16.73,16.73,0,0,1,444.46,27c8,0,13.69,3.77,15.77,11.52A16.63,16.63,0,0,1,475.9,27c10.19,0,16.61,6,16.61,18.6V66.82C492.51,70,492.7,71.54,495.72,71.73Z"/><path d="M548,50.3c0,14.25-9.82,23.22-22.1,23.22s-22.18-9-22.18-23.22S513.57,27,525.93,27,548,36,548,50.3Zm-3.4,0c0-13.79-8.41-22.19-18.7-22.19s-18.78,8.4-18.78,22.19,8.4,22.18,18.78,22.18S544.63,64.08,544.63,50.3Z"/><path d="M585.88,35.85c-1.32.29-2.74-.28-2.74-2.64-.09-3.12-2.54-5.29-7.17-4.91-6,.47-12,6.89-12,19.35V66.82c0,3.21.19,4.72,3.21,4.91v.85h-9.72v-.85c3-.19,3.21-1.7,3.21-4.91V34.63c0-3.21-.19-4.73-3.21-5v-.85L563.13,27H564v11.7c2.17-7,6.61-11.61,13.41-11.7,4.15-.19,8.3,1.79,9.63,4.72C587.86,33.68,587.3,35.47,585.88,35.85Z"/><path d="M632.52,64c-3.87,5.66-9.06,9.53-17.09,9.53-12.46,0-22.28-9.06-22.28-23.6S603.16,27,615,27c7.36,0,13.69,2.92,15.86,7.36.85,1.7.57,3.78-.85,4.25-1.61.57-3.21-.47-3.12-2.83.19-4.44-4.34-7.84-11.51-7.74-9.63.09-18.89,8-18.89,21.9s8.6,20.49,17.38,21.62a17.79,17.79,0,0,0,17.84-8.22Z"/><path d="M643.47,47.28a22.44,22.44,0,0,0-.1,2.64c0,13.88,8.6,20.49,17.38,21.62a18.14,18.14,0,0,0,18-8.12l.85.66c-3.87,5.66-9.25,9.44-17.28,9.44-12.56,0-22.28-9.06-22.28-23.6S649,27,660.84,27c15.1,0,19.35,12.65,19.35,20.11v.19Zm.09-1.23h33.52c-.29-8.5-4.44-18-15.86-18C652.53,28.11,645,34.53,643.56,46.05Z"/><path d="M699.36,71.73v.85h-9.73v-.85c3-.19,3.31-1.7,3.31-4.91V12.34c0-3.2-.29-4.71-3.31-5V6.49L695.3,4.7h.85V66.82C696.15,70,696.34,71.54,699.36,71.73Z"/><rect class="cls-1" width="702.9" height="77.67"/></g></g></svg>