<svg xmlns="http://www.w3.org/2000/svg" viewBox="0 0 117.17 117.17"><defs><style>.cls-1{fill:none;}.cls-2{fill:#fff;}</style></defs><title>LM-Icon-11_1</title><g id="Layer_2" data-name="Layer 2"><g id="Layer_1-2" data-name="Layer 1"><rect class="cls-1" width="117.17" height="117.17"/><path class="cls-2" d="M82.22,80.88A1.25,1.25,0,0,0,81,82.13V96.06L61.06,76.14a1.27,1.27,0,0,0-1.77,0,1.25,1.25,0,0,0,0,1.77L79.21,97.82H65.28a1.25,1.25,0,0,0,0,2.5H82.22a1.28,1.28,0,0,0,.48-.09,1.26,1.26,0,0,0,.68-.68,1.28,1.28,0,0,0,.09-.48V82.13A1.25,1.25,0,0,0,82.22,80.88Z"/><path class="cls-2" d="M83.38,17.62A1.24,1.24,0,0,0,82.7,17a1.12,1.12,0,0,0-.48-.1H65.28a1.25,1.25,0,0,0,0,2.5H79.21L59.29,39.26a1.25,1.25,0,0,0,0,1.77,1.29,1.29,0,0,0,.89.37,1.25,1.25,0,0,0,.88-.37L81,21.12V35a1.25,1.25,0,0,0,2.5,0V18.1A1.36,1.36,0,0,0,83.38,17.62Z"/><path class="cls-2" d="M22.41,76.14,2.5,96.06V82.13a1.25,1.25,0,0,0-2.5,0V99.07a1.12,1.12,0,0,0,.1.48,1.24,1.24,0,0,0,.67.68,1.32,1.32,0,0,0,.48.09H18.19a1.25,1.25,0,0,0,0-2.5H4.27L24.18,77.91a1.25,1.25,0,0,0,0-1.77A1.27,1.27,0,0,0,22.41,76.14Z"/><path class="cls-2" d="M4.27,19.35H18.19a1.25,1.25,0,1,0,0-2.5H1.25a1.18,1.18,0,0,0-.48.1,1.22,1.22,0,0,0-.67.67,1.18,1.18,0,0,0-.1.48V35a1.25,1.25,0,0,0,2.5,0V21.12L22.41,41a1.29,1.29,0,0,0,.89.37,1.26,1.26,0,0,0,.88-2.14Z"/><path class="cls-2" d="M41.74,46.28A12.31,12.31,0,1,0,54,58.59,12.32,12.32,0,0,0,41.74,46.28Zm0,22.11a9.81,9.81,0,1,1,9.8-9.8A9.82,9.82,0,0,1,41.74,68.39Z"/></g></g></svg>