<svg xmlns="http://www.w3.org/2000/svg" viewBox="0 0 117.17 117.17"><defs><style>.cls-1{fill:none;}.cls-2{fill:#fff;}</style></defs><title>LM-Icon-33</title><g id="Layer_2" data-name="Layer 2"><g id="Layer_1-2" data-name="Layer 1"><rect class="cls-1" width="117.17" height="117.17"/><path class="cls-2" d="M55,84a1.23,1.23,0,0,0,1.17.82,1.31,1.31,0,0,0,.43-.08l49.69-18.4a1.26,1.26,0,0,0,.74-1.61L88.6,15A1.25,1.25,0,0,0,87,14.29l-24.84,9.2h0L37.3,32.69a1.27,1.27,0,0,0-.7.65,1.23,1.23,0,0,0,0,1Zm6.87-57.71,4.55,12.27a1.24,1.24,0,0,0,1.17.82,1.36,1.36,0,0,0,.44-.08,1.25,1.25,0,0,0,.73-1.6L64.19,25.4l22.5-8.33,17.53,47.34L56.88,81.94,39.34,34.6Z"/><path class="cls-2" d="M110.08,76.18a1.26,1.26,0,0,0-1.61-.73L59.56,93.56A11.36,11.36,0,0,0,46.5,87.43l-25.18-68a1.25,1.25,0,0,0-.71-.73L1.72,11.1a1.25,1.25,0,0,0-1.63.69,1.24,1.24,0,0,0,.69,1.62l18.39,7.42,25,67.47A11.43,11.43,0,1,0,60.7,98.51a11.06,11.06,0,0,0-.31-2.59l49-18.13A1.25,1.25,0,0,0,110.08,76.18ZM49.27,107.44a8.93,8.93,0,1,1,8.93-8.93A8.94,8.94,0,0,1,49.27,107.44Z"/></g></g></svg>