<svg xmlns="http://www.w3.org/2000/svg" viewBox="0 0 117.17 117.17"><defs><style>.cls-1{fill:none;}.cls-2{fill:#fff;}</style></defs><title>LM-Icon-22</title><g id="Layer_2" data-name="Layer 2"><g id="Layer_1-2" data-name="Layer 1"><rect class="cls-1" width="117.17" height="117.17"/><path class="cls-2" d="M78.09,25.5a1.28,1.28,0,0,0,0-.27A1.17,1.17,0,0,0,78,25a.67.67,0,0,0-.11-.18c-.06-.07-.1-.15-.17-.22l0,0c-.05,0-.11-.05-.16-.09a.86.86,0,0,0-.23-.13,1.31,1.31,0,0,0-.27-.06c-.06,0-.11,0-.17,0A78.22,78.22,0,0,1,39.7,14.72a1,1,0,0,0-.16-.06.89.89,0,0,0-.26-.09.87.87,0,0,0-.23,0,1,1,0,0,0-.24,0,.75.75,0,0,0-.25.09l-.17.06A77.91,77.91,0,0,1,1.25,24.29,1.25,1.25,0,0,0,0,25.54V42.83C0,89.2,38.28,102.2,38.66,102.32h0a1.76,1.76,0,0,0,.39.06,1.59,1.59,0,0,0,.38-.06h0c.38-.12,38.66-13.12,38.66-59.49V25.54S78.09,25.52,78.09,25.5Zm-39,74.31A57.13,57.13,0,0,1,20.92,88.25C12.52,80.37,2.5,66.09,2.5,42.83v-16a79.87,79.87,0,0,0,36.55-9.55,79.84,79.84,0,0,0,35.06,9.5l-35,39.45-13.37-16a1.25,1.25,0,0,0-1.92,1.61l14.3,17a1.26,1.26,0,0,0,.94.45h0a1.21,1.21,0,0,0,.93-.42L75.6,28.83v14C75.6,84.93,42.9,98.37,39.05,99.81Z"/></g></g></svg>