<svg xmlns="http://www.w3.org/2000/svg" viewBox="0 0 76.75 118.51"><title>Slider-Arrow-2</title><g id="Layer_2" data-name="Layer 2"><g id="Layer_1-2" data-name="Layer 1"><path d="M26.46,118.51,24.93,117a31.46,31.46,0,0,0-22-9.26L0,107.7,1.11,105a123,123,0,0,0,9.11-46.61A123,123,0,0,0,1.11,11.75L0,9,2.94,9A31.73,31.73,0,0,0,23.23,1.31L24.74,0l52,60.25ZM5.84,103.88a35.37,35.37,0,0,1,20.36,8.81L71.47,60.25,24.29,5.6A35.74,35.74,0,0,1,5.84,12.85a127,127,0,0,1,8.38,45.52A127,127,0,0,1,5.84,103.88Z"/></g></g></svg>