<svg xmlns="http://www.w3.org/2000/svg" viewBox="0 0 500.2 270.8"><title>MDQ-Logo</title><g id="Layer_2" data-name="Layer 2"><g id="Layer_1-2" data-name="Layer 1"><polygon points="394 199.6 388.2 199.6 384.5 205.3 389.1 205.3 394 199.6"/><polygon points="14.2 224.3 4.9 207.4 0 207.4 0 236.5 5 236.5 5 218.4 14.2 234.8 23.6 218.4 23.6 236.5 28.8 236.5 28.8 207.4 23.9 207.4 14.2 224.3"/><polygon points="43.1 224 52.6 224 52.6 218.9 43.1 218.9 43.1 212.6 62.1 212.6 62.1 207.4 38 207.4 38 236.5 62.8 236.5 62.8 231.3 43.1 231.3 43.1 224"/><path d="M90.6,225.3c0,4.8-2,6.6-7.4,6.6-3.3,0-5.5-.6-6.7-1.9s-1.4-2.8-1.4-4.6V207.5H70v17.9c0,2.4.1,4.6,1.7,6.9,3,4.4,8.7,4.8,11,4.8,2.9,0,8.2-.6,11-4.3,1.9-2.5,2.1-4.7,2.1-7.5V207.4H90.7v17.9Z"/><path d="M128.1,221.1a7,7,0,0,0,2.2-5.5c0-5-3.4-8.2-8.8-8.2H105v29.1h16.6c3.1,0,5.2-.1,7.6-2.4a7.52,7.52,0,0,0,2.6-5.8A9.83,9.83,0,0,0,128.1,221.1Zm-6.5-2.1H110.1v-6.4h11.5c2.5,0,3.6,1,3.6,3.1C125.2,218.6,122.9,219,121.6,219Zm-11.5,5.2h11.5c3.3,0,5,1.2,5,3.6a3.49,3.49,0,0,1-1,2.4,4.6,4.6,0,0,1-3.6,1.1H110.1Z"/><polygon points="144.4 207.4 139.3 207.4 139.3 236.5 161.5 236.5 161.5 231.3 144.4 231.3 144.4 207.4"/><polygon points="173 224 182.5 224 182.5 218.9 173 218.9 173 212.6 191.9 212.6 191.9 207.4 167.8 207.4 167.8 236.5 192.7 236.5 192.7 231.3 173 231.3 173 224"/><path d="M231.1,207.4h-14v29.1h14.2a11.61,11.61,0,0,0,9.3-3.9,16.19,16.19,0,0,0,4.3-10.8C244.8,213.8,238.8,207.4,231.1,207.4Zm8.5,14.8c0,5.2-3.6,9.2-8.4,9.2h-9.1V212.7h9C237,212.6,239.6,217.6,239.6,222.2Z"/><path d="M271.5,225.3c0,4.8-2,6.6-7.4,6.6-3.3,0-5.5-.6-6.7-1.9s-1.4-2.8-1.4-4.6V207.5h-5.1v17.9c0,2.4.1,4.6,1.7,6.9,3,4.4,8.7,4.8,11,4.8,2.9,0,8.2-.6,11-4.3,1.9-2.5,2.1-4.7,2.1-7.5V207.4h-5.1v17.9Z"/><path d="M330.1,222a15.3,15.3,0,0,0-15.5-15.4,15.58,15.58,0,0,0-15.7,15.3c0,8.5,7.8,15.2,16.5,15.2a13.38,13.38,0,0,0,4.6-.9l4.8,3.9,4.3-3-4.5-3.6A14.18,14.18,0,0,0,330.1,222Zm-15.4,10.1c-6,0-10.8-4.5-10.8-10.2s4.5-10,10.5-10,10.5,4.3,10.5,10a9.85,9.85,0,0,1-4,8l-1.8-1.8-4.5,2.7,1.3,1.3A4.82,4.82,0,0,0,314.7,232.1Z"/><path d="M359,225.3c0,4.8-2,6.6-7.4,6.6-3.3,0-5.5-.6-6.7-1.9s-1.4-2.8-1.4-4.6V207.5h-5.1v17.9c0,2.4.1,4.6,1.7,6.9,3,4.4,9.6,4.8,12,4.8,2.9,0,7.2-.6,10.1-4.3,1.9-2.5,2.1-4.7,2.1-7.5V207.4H359Z"/><polygon points="378.6 224 388.1 224 388.1 218.9 378.6 218.9 378.6 212.6 397.5 212.6 397.5 207.4 373.4 207.4 373.4 236.5 398.3 236.5 398.3 231.3 378.6 231.3 378.6 224"/><path d="M429.4,221.1a7,7,0,0,0,2.2-5.5c0-5-3.4-8.2-8.8-8.2H406.2v29.1h16.6c3.1,0,5.2-.1,7.6-2.4a7.52,7.52,0,0,0,2.6-5.8A9.38,9.38,0,0,0,429.4,221.1Zm-6.5-2.1H411.4v-6.4h11.5c2.5,0,3.6,1,3.6,3.1C426.5,218.6,424.2,219,422.9,219Zm-11.5,5.2h11.5c3.3,0,5,1.2,5,3.6a3.49,3.49,0,0,1-1,2.4,4.6,4.6,0,0,1-3.6,1.1H411.4Z"/><polygon points="445.6 231.3 445.6 224 455.1 224 455.1 218.9 445.6 218.9 445.6 212.6 464.5 212.6 464.5 207.4 440.4 207.4 440.4 236.5 465.2 236.5 465.2 231.3 445.6 231.3"/><path d="M496.9,227.2l-.4.4c-3.2,3.2-5.8,4.3-9.8,4.3-5.5,0-11.5-3.1-11.5-10,0-5.8,4.5-10,10.6-10,3.4,0,6.5,1.3,9.9,4.1l.3.3,3.8-3.3-.4-.4a19.65,19.65,0,0,0-13.9-5.9c-8.8,0-15.5,6.5-15.5,15.1,0,8.9,7.8,15.3,17.3,15.3a15.15,15.15,0,0,0,12.6-5.9l.3-.4Z"/><polygon points="300.5 270.8 292.4 270.8 292.4 262.2 200.8 262.1 200.8 270.8 192.7 270.8 192.7 254.3 192.7 254.3 192.7 254.1 300.5 254.1 300.5 270.8"/><path d="M246.1.7c-6.5,9.5-45.3,68.3-45.3,112,0,25.8,13.5,55.4,25.9,77.2h39.6c12.4-21.8,25.9-51.4,25.9-77.2,0-43.7-38.8-102.5-45.3-112l-.4-.7Z"/><path d="M200.8,152.1v37.8h-8.1V149.4c-.5-12.2-12.2-22.6-25.4-22.6a25.28,25.28,0,0,0-6.9,49.6l3.5,9.3a33.77,33.77,0,1,1,36.9-33.6"/><path d="M292.3,152.1v37.8h8.1V149.4c.5-12.2,12.2-22.6,25.4-22.6a25.28,25.28,0,0,1,6.9,49.6l-3.5,9.3a33.77,33.77,0,1,0-36.9-33.6"/></g></g></svg>