<svg xmlns="http://www.w3.org/2000/svg" viewBox="0 0 2045.76 2045.76"><defs><style>.cls-1{fill:none;}.cls-2{fill:var(--main-bg-color);;}</style></defs><title>Oh-Light-Framed</title><g id="Layer_2" data-name="Layer 2"><g id="Layer_1-2" data-name="Layer 1"><rect class="cls-1" width="2045.76" height="2045.76"/><path class="cls-2" d="M633.34,1552.07v-73.21l-31,73.21H587.76l-30.71-72.93v72.93H540.64v-99.44h22.44l32.26,75.87,31.83-75.87H650v99.44Z"/><path class="cls-2" d="M767.4,1450.53c26.09,0,50.63,19.21,50.63,51.75s-24.54,51.89-50.63,51.89-50.49-19.21-50.49-51.89S741.32,1450.53,767.4,1450.53Zm0,87.65c16.83,0,33.38-11.92,33.38-35.9s-16.55-35.91-33.38-35.91-33.24,11.93-33.24,35.91S750.71,1538.18,767.4,1538.18Z"/><path class="cls-2" d="M919.13,1452.63c19.08,0,30.3,11.22,30.3,26.79,0,10.52-6.17,18.37-14.73,21.45,10.52,2.81,17.81,11.93,17.81,23.71,0,16-12.34,27.49-30.85,27.49H884.91v-99.44Zm-2.24,42.07c9.82,0,15.71-5.61,15.71-13.88s-5.89-13.88-16.13-13.88H901.6v27.76Zm1.82,43.06c10.1,0,16.69-5.47,16.69-14.3,0-8.56-5.75-14.59-16.13-14.59H901.6v28.89Z"/><path class="cls-2" d="M1019.12,1552.07v-99.44h17.11v99.44Z"/><path class="cls-2" d="M1109.14,1552.07v-99.44H1126v83.45h45.59v16Z"/><path class="cls-2" d="M1236.06,1552.07v-99.44h17.11v99.44Z"/><path class="cls-2" d="M1326.08,1552.07v-99.44h61.43v15.71h-44.6v26.36h40.4V1510h-40.4v26.37h44.6v15.71Z"/><path class="cls-2" d="M1486.09,1512.8h-12.34v39.27h-17v-99.44h38.15c19.21,0,31.13,13.32,31.13,30.15,0,14.17-8.55,25-22.44,28.33l22.44,41H1507Zm5.75-14.87c10.38,0,17.11-6,17.11-15.15s-6.73-15.28-17.11-15.28h-18.09v30.43Z"/><path class="cls-2" d="M673.46,513.12c-202.44,0-366.55,164.11-366.55,366.55S471,1246.21,673.46,1246.21,1040,1082.11,1040,879.67,875.9,513.12,673.46,513.12Zm0,681C499.79,1194.13,359,1053.34,359,879.67S499.79,565.21,673.46,565.21,987.92,706,987.92,879.67,847.13,1194.13,673.46,1194.13Z"/><path class="cls-2" d="M1168.05,995.2V1231H1220V995.11h403.36V1231h51.91V995.2a52,52,0,0,0-52-52H1220.05A52,52,0,0,0,1168.05,995.2Z"/><path class="cls-2" d="M1623.32,528.31V764.23H1220V528.31h-51.91V764.14a52,52,0,0,0,52,52h403.18a52,52,0,0,0,52-52V528.31Z"/></g></g></svg>