<svg xmlns="http://www.w3.org/2000/svg" viewBox="0 0 2664.37 2027.11"><defs><style>.cls-1{fill:var(--main-bg-color);;}</style></defs><title>Oh-Light</title><g id="Layer_2" data-name="Layer 2"><g id="Layer_1-2" data-name="Layer 1"><path class="cls-1" d="M635.63,2023V1880.46L575.27,2023h-28.4l-59.8-142v142h-32V1829.39h43.7l62.81,147.74,62-147.74h44.51V2023Z"/><path class="cls-1" d="M896.66,1825.3c50.8,0,98.59,37.41,98.59,100.77,0,63.63-47.79,101-98.59,101s-98.31-37.41-98.31-101C798.35,1862.71,845.87,1825.3,896.66,1825.3Zm0,170.68c32.77,0,65-23.21,65-69.91s-32.23-69.91-65-69.91c-32.5,0-64.72,23.21-64.72,69.91S864.16,1996,896.66,1996Z"/><path class="cls-1" d="M1192.11,1829.39c37.14,0,59,21.85,59,52.16,0,20.49-12,35.78-28.67,41.79,20.48,5.46,34.68,23.21,34.68,46.15,0,31.13-24,53.52-60.08,53.52h-71.55V1829.39Zm-4.37,81.93c19.12,0,30.59-10.92,30.59-27,0-16.39-11.47-27-31.41-27h-29v54.07Zm3.55,83.84c19.66,0,32.5-10.65,32.5-27.85,0-16.66-11.2-28.41-31.41-28.41H1158v56.26Z"/><path class="cls-1" d="M1386.8,2023V1829.39h33.31V2023Z"/><path class="cls-1" d="M1562.1,2023V1829.39h32.77v162.49h88.75V2023Z"/><path class="cls-1" d="M1809.22,2023V1829.39h33.32V2023Z"/><path class="cls-1" d="M1984.52,2023V1829.39h119.62V1860h-86.85v51.34h78.65v29.77h-78.65v51.34h86.85V2023Z"/><path class="cls-1" d="M2296.09,1946.55h-24V2023h-33V1829.39h74.28c37.41,0,60.63,25.95,60.63,58.72,0,27.58-16.66,48.61-43.7,55.16l43.7,79.74h-37.14Zm11.19-29c20.21,0,33.32-11.74,33.32-29.49,0-18-13.11-29.77-33.32-29.77h-35.23v59.26Z"/><path class="cls-1" d="M713.74,0C319.55,0,0,319.55,0,713.73s319.55,713.74,713.74,713.74,713.73-319.55,713.73-713.74S1107.92,0,713.74,0Zm0,1326.05c-338.18,0-612.32-274.14-612.32-612.32S375.56,101.42,713.74,101.42s612.32,274.14,612.32,612.31S1051.91,1326.05,713.74,1326.05Z"/><path class="cls-1" d="M1676.8,938.69v459.2h101.08V938.51h785.41v459.38h101.08V938.69a101.25,101.25,0,0,0-101.25-101.25H1778.05A101.25,101.25,0,0,0,1676.8,938.69Z"/><path class="cls-1" d="M2563.29,29.58V489H1777.88V29.58H1676.8v459.2A101.25,101.25,0,0,0,1778.05,590h785.07a101.25,101.25,0,0,0,101.25-101.25V29.58Z"/></g></g></svg>