<svg xmlns="http://www.w3.org/2000/svg" viewBox="0 0 117.17 117.17"><defs><style>.cls-1{fill:none;}</style></defs><title>Cart-Icon-Black</title><g id="Layer_2" data-name="Layer 2"><g id="Layer_1-2" data-name="Layer 1"><rect class="cls-1" width="117.17" height="117.17"/><path d="M39.32,75.66a5,5,0,0,1-5-4.29L28.22,29.89H20.7a3.45,3.45,0,0,1-3.45-3.44V21.56a3.46,3.46,0,0,1,3.45-3.45H36.56a3.46,3.46,0,0,1,3.41,3L42.5,39l48.16-2.27a3.44,3.44,0,0,1,3.6,3.49L93.9,64.76a3.46,3.46,0,0,1-2.8,3.33l-51,7.52A6.13,6.13,0,0,1,39.32,75.66ZM37.13,71a2.23,2.23,0,0,0,2.52,1.88l51-7.51a.63.63,0,0,0,.46-.61l.36-24.51a.65.65,0,0,0-.19-.48.69.69,0,0,0-.48-.18L40.09,42,37.2,21.47a.65.65,0,0,0-.64-.56H20.7a.64.64,0,0,0-.64.65v4.89a.64.64,0,0,0,.64.64h9.93Z"/><path d="M43.93,100.06a8.94,8.94,0,1,1,8.94-8.94A8.95,8.95,0,0,1,43.93,100.06Zm0-15.08a6.14,6.14,0,1,0,6.13,6.14A6.15,6.15,0,0,0,43.93,85Z"/><path d="M88.48,100.06a8.94,8.94,0,1,1,8.94-8.94A8.95,8.95,0,0,1,88.48,100.06Zm0-15.08a6.14,6.14,0,1,0,6.14,6.14A6.15,6.15,0,0,0,88.48,85Z"/></g></g></svg>