<svg xmlns="http://www.w3.org/2000/svg" viewBox="0 0 117.17 117.17"><defs><style>.cls-1{fill:none;}.cls-2{fill:#fff;}</style></defs><title>LM-Icon-44</title><g id="Layer_2" data-name="Layer 2"><g id="Layer_1-2" data-name="Layer 1"><rect class="cls-1" width="117.17" height="117.17"/><path class="cls-2" d="M92.84,28.55h0a1,1,0,0,0-.13-.3s0-.06-.06-.09a.86.86,0,0,0-.14-.18l-.09-.09,0-.05-.16-.08-.06,0L56,10.89a1.17,1.17,0,0,0-.9-.06L.88,27.64h0a1.11,1.11,0,0,0-.29.14h0l-.09.07A1.29,1.29,0,0,0,.3,28a.61.61,0,0,0-.07.1,2,2,0,0,0-.11.2l0,.11c0,.08,0,.16,0,.23s0,.06,0,.08,0,0,0,0,0,0,0,.05V88.33a1.26,1.26,0,0,0,.72,1.14l36.15,16.82.1,0,.09,0a1.27,1.27,0,0,0,.34.05,1.12,1.12,0,0,0,.36-.05h0L92,89.53a1.25,1.25,0,0,0,.88-1.2V28.84A1.36,1.36,0,0,0,92.84,28.55ZM55.38,13.36,88.16,28.61,66.64,35.28,33.86,20ZM30.31,21.14,63.08,36.38,37.49,44.32,5.12,29.26l-.4-.19ZM2.5,30.8,36.15,46.46v56.73L2.5,87.54Zm36.15,72.66V46.58l26.77-8.3V51.57a1.25,1.25,0,1,0,2.5,0V37.5l22.45-7V87.41Z"/></g></g></svg>