<svg xmlns="http://www.w3.org/2000/svg" viewBox="0 0 382.24 147.17"><title>Panier-Bleu-Logo</title><g id="Layer_2" data-name="Layer 2"><g id="Layer_3" data-name="Layer 3"><path d="M195.64,14.4h8.72V43.9h17.16v8.42H195.64Z"/><path d="M226.34,14.4h27.08v8.43H235.06v6h16.86v8.43H235.06V43.9h19v8.42H226.34Z"/><path d="M210.38,60.55c7.83,0,13.55,5.72,13.55,12.94s-5.72,12.94-13.55,12.94h-6v12h-8.72V60.55Zm0,17.46a4.52,4.52,0,1,0,0-9h-6v9Z"/><path d="M233.56,91.25l-2.41,7.22h-9l13.54-37.92h9l13.55,37.92h-9l-2.41-7.22Zm10.83-7.52-4.21-12.64L236,83.73Z"/><path d="M293.75,60.55V98.47h-7.82L270.58,76.2V98.47h-8.73V60.55h7.82L285,82.82V60.55Z"/><path d="M310.3,98.47h-8.72V60.55h8.72Z"/><path d="M318.13,60.55h27.09V69H326.86v6h16.85v8.42H326.86v6.63h19v8.42H318.13Z"/><path d="M367.79,60.55c7.82,0,13.24,5.42,13.24,12A12.47,12.47,0,0,1,373.81,84l8.43,14.44h-9.63l-6.93-12.64h-4.51V98.47h-8.73V60.55Zm0,16.86c3,0,4.82-1.81,4.82-4.22S370.8,69,367.79,69h-6.62v8.43Z"/><path d="M225.13,133.49c0,6-5.12,11.13-12.34,11.13H195.64V106.7h16.25c6.92,0,11.73,4.82,11.73,10.53a8.3,8.3,0,0,1-4.51,7.23S225.13,126.87,225.13,133.49Zm-20.77-11.74H211a3.93,3.93,0,1,0,0-7.83h-6.63Zm7.53,15.65a4.52,4.52,0,1,0,0-9h-7.53v9Z"/><path d="M231.15,106.7h8.73v29.49H257v8.43H231.15Z"/><path d="M261.85,106.7h27.08v8.43H270.58v6h16.85v8.42H270.58v6.62h19v8.43H261.85Z"/><path d="M304.29,106.7v22.57c0,4.52,2.7,7.23,6.92,7.23s6.92-2.71,6.92-7.23V106.7h8.73v22.57c0,9.33-6.32,15.65-15.65,15.65s-15.65-6.32-15.65-15.65V106.7Z"/><path d="M150.06,93.23l19.47-69.55a7.26,7.26,0,0,0-7-9.28H40.07A21.64,21.64,0,0,0,19.74,0H7.32A7.24,7.24,0,0,0,.05,6.17a7.06,7.06,0,0,0,7,7.94H19.74a7.49,7.49,0,0,1,7.2,5.5L53.26,112a17.58,17.58,0,1,0,17.89,17.58,15.3,15.3,0,0,0-.69-4.48h56.38a14,14,0,0,0-.77,4.48A17.59,17.59,0,1,0,143.3,112H67L63,98.47h80.1A7.25,7.25,0,0,0,150.06,93.23ZM91.18,35.81A23.23,23.23,0,0,1,94,29.46c.32-.51,1.31-1.84,1.93-2.67,2.82-3.81,2-3.81,4.75,0,.6.84,1.58,2.15,1.9,2.66a25.89,25.89,0,0,1,2.87,6.35,10.29,10.29,0,0,1-.16,7.69c-1.22,2.92-4.47,11-4.79,19.65a2.22,2.22,0,0,1-4.43,0c-.31-8.66-3.56-16.73-4.77-19.65A12,12,0,0,1,91.18,35.81ZM87.37,78.6A3.77,3.77,0,0,1,83.2,78a3.84,3.84,0,0,1-1-3,5.08,5.08,0,0,1,.49-1.71,1,1,0,0,1,1.61-.2v0a2.66,2.66,0,0,0,2.92.63c1.94-1,2.93-3.71,2.66-7.24a12.16,12.16,0,0,0-4.39-7.67,6.74,6.74,0,0,0-3.23-1.18,4.51,4.51,0,0,0-4.4,2,4.45,4.45,0,0,0,.37,5.43c2.66,3-4.13,2.18-6.89-1.49a7.34,7.34,0,0,1-1.18-6.12,8.4,8.4,0,0,1,5.27-6.21,10.8,10.8,0,0,1,10.62,1.13,14.26,14.26,0,0,1,4.57,4.92A22.88,22.88,0,0,1,93.2,68.5a13.13,13.13,0,0,1-2.31,6.94A8.54,8.54,0,0,1,87.37,78.6Zm15.95,6.52c-1.48,1.86-3.36,4.64-4.88,4.64s-3.58-2.86-5-4.64c-1.62-2-1.62-2-.36-4.05a22,22,0,0,0,3.15-9.9,2.14,2.14,0,0,1,4.26,0,22,22,0,0,0,3.16,9.9C104.93,83.08,104.93,83.08,103.32,85.12Zm22.11-21.53c-2.76,3.67-9.55,4.49-6.89,1.49a4.44,4.44,0,0,0,.38-5.43,4.52,4.52,0,0,0-4.4-2,6.7,6.7,0,0,0-3.23,1.18,12.12,12.12,0,0,0-4.4,7.67c-.27,3.53.73,6.28,2.67,7.24a2.66,2.66,0,0,0,2.92-.63v0a1,1,0,0,1,1.61.2,5.32,5.32,0,0,1,.49,1.71,3.84,3.84,0,0,1-1,3,3.77,3.77,0,0,1-4.17.63,8.57,8.57,0,0,1-3.51-3.16,13.15,13.15,0,0,1-2.32-6.94,22.88,22.88,0,0,1,2.58-11.19,14.46,14.46,0,0,1,4.57-4.92,10.81,10.81,0,0,1,10.63-1.13,8.37,8.37,0,0,1,5.26,6.21A7.31,7.31,0,0,1,125.43,63.59Z"/></g></g></svg>