<svg xmlns="http://www.w3.org/2000/svg" viewBox="0 0 1751.9 201.5"><title>Loeven-Morcel-Logo-Nav</title><g id="Layer_2" data-name="Layer 2"><g id="Layer_1-2" data-name="Layer 1"><path d="M0,198.28V0H10.53V198.28Z"/><path d="M110.57,201.5q-33.93,0-53.81-21.06-19.3-20.17-19.3-53.52,0-33.92,20-54.39t53.67-20.47q33.61,0,53.52,20.47t19.88,54.39q0,33.64-20.18,54.11T110.57,201.5Zm.29-139.79q-29.23,0-46.06,17.84T48,126.92Q48,156.17,65,174t45.91,17.84q29,0,46.07-17.84T174,126.92q0-29.82-16.81-47.52T110.86,61.71Z"/><path d="M215.15,130.14q1.75,61.71,60.83,61.71,19.89,0,35.24-9.07t22.08-26.61h10.82q-7.61,24.27-26.9,35.39-17.55,9.94-41.82,9.94-35.1,0-53.52-20.47-17-19.31-17-53.81,0-33.34,19.44-54.25t52.5-20.91q32.75,0,52.35,18.71t19.59,50.89v8.19Zm61.71-68.43q-26.91,0-43.28,15.94t-18.43,42.84H336.52q-.58-26.89-16.67-42.84T276.86,61.71Z"/><path d="M429.81,198.28H419.28L352,55.57h12.57l60,130.72L480.11,55.57h11.41Z"/><path d="M509.41,130.14q1.75,61.71,60.83,61.71,19.89,0,35.24-9.07t22.08-26.61h10.82q-7.61,24.27-26.9,35.39-17.55,9.94-41.82,9.94-35.1,0-53.52-20.47-17-19.31-17-53.81,0-33.34,19.44-54.25t52.5-20.91q32.75,0,52.35,18.71t19.59,50.89v8.19Zm61.71-68.43q-26.91,0-43.28,15.94t-18.43,42.84H630.78q-.59-26.89-16.67-42.84T571.12,61.71Z"/><path d="M780.92,198.28V104.4q0-20.76-12.87-31.72t-34.51-11q-25.44,0-40.21,15.64t-14.77,40.8v80.13H668V55.57h10.52V81.3q14.63-29.23,54.69-29.24,25.44,0,41,12.28,17.25,13.16,17.25,37.14v96.8Z"/><path d="M1123.67,198.28V104.4q0-42.69-40.36-42.69-21.93,0-35.09,12.72t-13.16,34.07v89.78h-10.53V104.4q0-42.69-41.24-42.69-23.1,0-36.26,17.54-11.41,15.51-11.41,38.9v80.13H925.1V55.57h10.52V80.42q14-28.35,50.6-28.36,35.09,0,45.91,29,12.87-28.95,50.6-28.95,51.46,0,51.47,49.42v96.8Z"/><path d="M1228.66,201.5q-33.93,0-53.82-21.06-19.29-20.17-19.3-53.52,0-33.92,20-54.39t53.66-20.47q33.63,0,53.52,20.47t19.89,54.39q0,33.64-20.18,54.11T1228.66,201.5ZM1229,61.71q-29.25,0-46.06,17.84t-16.82,47.37q0,29.25,17,47.09T1229,191.85q29,0,46.06-17.84t17.11-47.09q0-29.82-16.82-47.52T1229,61.71Z"/><path d="M1339.9,86.57a53.65,53.65,0,0,1,14.63-19q18.71-15.51,47.67-15.5v9.65q-33.65,0-49.43,25.44-12.87,21.06-12.87,54.1v57h-10.52V55.57h10.52Z"/><path d="M1522.57,190.68q-17,10.81-41,10.82-33.63,0-53.08-19.59t-19.45-52.35q0-35.68,20.18-56.59t55.57-20.91q21.65,0,37.43,9.94,17.55,11.11,23.11,32.46l-9.65,5q-9.66-37.73-51.48-37.72-30.7,0-48.25,19.3-16.38,18.13-16.38,48.55,0,28.37,16.38,45.33t45.33,17q20.48,0,35.39-9.65,16.08-10.53,20.18-31.59l10.23,4.39Q1541.58,178.69,1522.57,190.68Z"/><path d="M1579.77,130.14q1.76,61.71,60.83,61.71,19.88,0,35.24-9.07t22.08-26.61h10.82q-7.6,24.27-26.91,35.39-17.55,9.94-41.82,9.94-35.09,0-53.52-20.47-17-19.31-17-53.81,0-33.34,19.45-54.25t52.49-20.91q32.76,0,52.35,18.71t19.6,50.89v8.19Zm61.7-68.43q-26.91,0-43.28,15.94t-18.42,42.84h121.36q-.59-26.89-16.66-42.84T1641.47,61.71Z"/><path d="M1741.37,198.28V0h10.53V198.28Z"/></g></g></svg>