<svg xmlns="http://www.w3.org/2000/svg" viewBox="0 0 1092.02 317.88"><defs><style>.cls-1{fill:#fff;}</style></defs><title>View</title><g id="Layer_2" data-name="Layer 2"><g id="Layer_1-2" data-name="Layer 1"><path class="cls-1" d="M152,317.88h-7l-.13-.31L23.58,28.76c-5.61-14-11-22-23.15-23.69L0,5V0H50.34V5l-.42.06c-5.43.8-8.89,2.66-10.59,5.67-2.13,3.8-1.5,9.57,1.92,17.63L153.93,296.11l101-267.72c3.25-8.65,3.74-14.41,1.54-18.13-1.62-2.76-4.81-4.46-9.74-5.19L246.26,5V0h38.12V5l-.41.08c-12.09,2.32-16.2,8.08-21.36,21Zm-6.35-1h5.66L261.68,25.67c5.14-12.85,9.53-19,21.7-21.51V1H247.26V4.15c5,.81,8.29,2.65,10,5.6,2.35,4,1.89,10-1.47,19L154,298.81,40.33,28.76c-3.55-8.36-4.16-14.42-1.87-18.51C40.27,7,43.83,5,49.34,4.15V1H1V4.14C13.31,6.07,19,14.51,24.5,28.38Z"/><path class="cls-1" d="M369.48,317.88H321.85v-5l.45,0c14.31-1.35,14.94-8.58,14.94-23.5V28.11c0-14.93-.63-22.14-14.92-23l-.47,0V0h47.63V5l-.47,0c-13.92.87-15.38,7.69-15.38,23v261.2c0,15.67,1.39,22.18,15.39,23.5l.46,0Zm-46.63-1h45.63v-3.12c-14.27-1.49-15.85-9-15.85-24.45V28.11c0-15.48,1.58-22.95,15.85-24V1H322.85V4.11c14.7,1.08,15.39,9,15.39,24v261.2c0,15-.69,22.91-15.39,24.45Z"/><path class="cls-1" d="M632.39,317.88H427.32v-5l.45,0c14.74-1.34,15.39-8.58,15.39-23.5V28.11c0-14.93-.65-22.14-15.37-23l-.47,0V0H623.79l.08.41,8.26,44.5h-5l-.11-.35C619.77,21,609,6.43,577.66,6.43H459.55V152.1h88.23c24.91,0,30.18-6.57,32.55-21.31l.07-.42h5v50.34h-5l-.07-.42c-2.35-15-7.39-21.3-32.55-21.3H459.55V311H586.26c31.64,0,42.5-14.41,49.77-37.67l.11-.35h5.05Zm-204.07-1H631.57L640,274h-3.1c-7.2,22.84-18.63,38-50.61,38H458.55V158h89.23c25.5,0,31,6.71,33.47,21.72h3.15V131.37h-3.15c-2.1,12.75-6,21.73-33.47,21.73H458.55V5.43H577.66c31.69,0,43,15.37,50.16,38.48h3.1L623,1H428.32V4.11c15.13,1.07,15.84,9,15.84,24v261.2c0,15-.71,22.92-15.84,24.45Z"/><path class="cls-1" d="M977.81,317.88h-6.16l-.11-.34L876.07,29.77,789.5,317.88h-6.61l-.12-.34L683.63,28.73c-5.45-15.38-12.07-22-23.59-23.66L659.61,5V0H710V5l-.42.07c-5.19.83-8.63,2.68-10.52,5.65-2.18,3.41-2.31,8.32-.4,15L790,294,878.39,0h4.8l.12.34,96.84,290.52,82.37-262.44c3-9.46,3.27-15,1-18.58-1.58-2.53-4.6-4.09-9.22-4.77L1053.9,5V0H1092V5l-.41.08c-11.92,2.13-17.53,8.09-22.24,23.64Zm-5.44-1h4.71l91.33-288.46c4.73-15.61,10.67-22,22.61-24.26V1H1054.9V4.15c4.69.76,7.8,2.45,9.5,5.16,2.41,3.83,2.13,9.64-.92,19.41L980.18,294.1l-.49-1.46L882.47,1h-3.34L790.06,297.29,697.67,26c-2-7-1.83-12.16.51-15.83,2-3.14,5.53-5.12,10.78-6V1H660.61V4.14c11.54,1.8,18.5,8.86,24,24.26l99,288.48h5.16L876,26.46Z"/></g></g></svg>