<svg width="230" height="26" viewBox="0 0 230 26" fill="none" xmlns="http://www.w3.org/2000/svg">
<path d="M73.4544 22.2557C76.5056 22.2557 78.6022 20.7642 79.1476 18.4886L76.2669 18.1648C75.8493 19.2727 74.8266 19.8523 73.497 19.8523C71.5027 19.8523 70.1817 18.5398 70.1561 16.2983H79.2755V15.3523C79.2755 10.7585 76.5141 8.73864 73.2925 8.73864C69.5425 8.73864 67.0965 11.4915 67.0965 15.5312C67.0965 19.6392 69.5084 22.2557 73.4544 22.2557ZM70.1647 14.2188C70.2584 12.5483 71.4942 11.142 73.3351 11.142C75.1078 11.142 76.301 12.4375 76.3181 14.2188H70.1647ZM90.7921 12.3693C90.366 10.1534 88.5933 8.73864 85.5251 8.73864C82.3717 8.73864 80.2239 10.2898 80.2325 12.7102C80.2239 14.6193 81.4001 15.8807 83.9143 16.4006L86.1472 16.8693C87.3489 17.1335 87.9114 17.6193 87.9114 18.3608C87.9114 19.2557 86.9399 19.929 85.4739 19.929C84.0592 19.929 83.1387 19.3153 82.8745 18.1392L79.866 18.429C80.2495 20.8324 82.2694 22.2557 85.4825 22.2557C88.7552 22.2557 91.0649 20.5597 91.0734 18.0795C91.0649 16.2131 89.8631 15.071 87.3916 14.5341L85.1586 14.0568C83.8291 13.7585 83.3006 13.2983 83.3092 12.5398C83.3006 11.6534 84.2808 11.0398 85.5677 11.0398C86.991 11.0398 87.741 11.8153 87.9796 12.6761L90.7921 12.3693ZM97.8876 22.2557C101.177 22.2557 103.274 20.304 103.496 17.5256H100.547C100.283 18.9318 99.2683 19.7415 97.9132 19.7415C95.9871 19.7415 94.7427 18.1307 94.7427 15.4545C94.7427 12.8125 96.0126 11.2273 97.9132 11.2273C99.3962 11.2273 100.308 12.1818 100.547 13.4432H103.496C103.283 10.6051 101.067 8.73864 97.8706 8.73864C94.0354 8.73864 91.6149 11.5085 91.6149 15.5057C91.6149 19.4688 93.9757 22.2557 97.8876 22.2557ZM110.299 22.2557C114.134 22.2557 116.572 19.554 116.572 15.5057C116.572 11.4489 114.134 8.73864 110.299 8.73864C106.464 8.73864 104.026 11.4489 104.026 15.5057C104.026 19.554 106.464 22.2557 110.299 22.2557ZM110.316 19.7841C108.194 19.7841 107.154 17.892 107.154 15.4972C107.154 13.1023 108.194 11.1847 110.316 11.1847C112.404 11.1847 113.444 13.1023 113.444 15.4972C113.444 17.892 112.404 19.7841 110.316 19.7841ZM117.751 22H120.836V14.304C120.836 12.642 122.089 11.4659 123.785 11.4659C124.305 11.4659 124.952 11.5597 125.216 11.6449V8.80682C124.935 8.75568 124.449 8.72159 124.108 8.72159C122.608 8.72159 121.356 9.57386 120.878 11.0909H120.742V8.90909H117.751V22ZM133.066 8.90909H130.484V5.77273H127.399V8.90909H125.541V11.2955H127.399V18.5739C127.382 21.0369 129.171 22.2472 131.49 22.179C132.367 22.1534 132.972 21.983 133.305 21.8722L132.785 19.4602C132.615 19.5028 132.265 19.5795 131.882 19.5795C131.106 19.5795 130.484 19.3068 130.484 18.0625V11.2955H133.066V8.90909ZM139.861 22.2557C142.912 22.2557 145.009 20.7642 145.554 18.4886L142.674 18.1648C142.256 19.2727 141.233 19.8523 139.904 19.8523C137.91 19.8523 136.589 18.5398 136.563 16.2983H145.682V15.3523C145.682 10.7585 142.921 8.73864 139.699 8.73864C135.949 8.73864 133.503 11.4915 133.503 15.5312C133.503 19.6392 135.915 22.2557 139.861 22.2557ZM136.572 14.2188C136.665 12.5483 137.901 11.142 139.742 11.142C141.515 11.142 142.708 12.4375 142.725 14.2188H136.572ZM151.71 22.2301C153.96 22.2301 154.975 20.892 155.46 19.9375H155.648V22H158.682V4.54545H155.588V11.0739H155.46C154.992 10.1278 154.029 8.73864 151.719 8.73864C148.693 8.73864 146.315 11.108 146.315 15.4716C146.315 19.7841 148.625 22.2301 151.71 22.2301ZM152.571 19.6989C150.534 19.6989 149.46 17.9091 149.46 15.4545C149.46 13.017 150.517 11.2699 152.571 11.2699C154.557 11.2699 155.648 12.9148 155.648 15.4545C155.648 17.9943 154.54 19.6989 152.571 19.6989ZM162.43 22.1875C163.436 22.1875 164.297 21.3523 164.305 20.3125C164.297 19.2898 163.436 18.4545 162.43 18.4545C161.39 18.4545 160.547 19.2898 160.555 20.3125C160.547 21.3523 161.39 22.1875 162.43 22.1875Z" fill="black"/>
</svg>
