<svg width="230" height="26" viewBox="0 0 230 26" fill="none" xmlns="http://www.w3.org/2000/svg">
<g clip-path="url(#clip0)">
<path d="M33.4361 6.90909V21.5938C33.4361 23.0511 32.4816 23.9205 31.2032 23.9205H30.9475L30.8964 24.8835C31.0327 24.9091 31.1265 24.9091 31.2202 24.9091C33.1293 24.9091 34.4674 23.6222 34.4674 21.5938V6.90909H33.4361ZM33.9475 4.59091C34.4077 4.59091 34.7827 4.22443 34.7827 3.77273C34.7827 3.32102 34.4077 2.95454 33.9475 2.95454C33.4873 2.95454 33.1038 3.32102 33.1038 3.77273C33.1038 4.22443 33.4873 4.59091 33.9475 4.59091ZM43.2076 20.2727C45.79 20.2727 47.3752 18.7642 47.9718 17.4432L47.0258 17.0597C46.54 18.0312 45.3383 19.3097 43.2076 19.3097C40.2332 19.3097 38.4519 16.9062 38.4093 13.6847H48.398V13.0369C48.398 9.15057 45.8923 6.71307 42.9605 6.71307C39.7133 6.71307 37.3781 9.60227 37.3781 13.5142C37.3781 17.4176 39.6536 20.2727 43.2076 20.2727ZM38.4264 12.7386C38.6309 9.88352 40.4803 7.68466 42.9605 7.68466C45.4491 7.68466 47.3582 9.90057 47.3582 12.7386H38.4264ZM59.5757 9.73011C58.945 7.80398 57.5643 6.71307 55.3484 6.71307C52.8427 6.71307 51.0444 8.16193 51.0444 10.2756C51.0444 11.9631 52.1098 13.1477 54.249 13.6676L56.337 14.179C57.8967 14.5625 58.6723 15.4062 58.6723 16.6165C58.6723 18.2017 57.2405 19.3182 55.1012 19.3182C53.1666 19.3182 51.9649 18.4148 51.5899 16.7017L50.5927 16.9574C51.0444 19.0881 52.6723 20.2727 55.1098 20.2727C57.837 20.2727 59.7291 18.7557 59.7291 16.5824C59.7291 14.8949 58.6723 13.7273 56.6098 13.2159L54.5984 12.7131C52.8939 12.2955 52.0757 11.4858 52.0757 10.2415C52.0757 8.70739 53.4223 7.65909 55.3484 7.65909C57.1382 7.65909 58.1353 8.55398 58.6126 9.9858L59.5757 9.73011ZM70.926 9.73011C70.2953 7.80398 68.9146 6.71307 66.6987 6.71307C64.193 6.71307 62.3947 8.16193 62.3947 10.2756C62.3947 11.9631 63.4601 13.1477 65.5993 13.6676L67.6874 14.179C69.247 14.5625 70.0226 15.4062 70.0226 16.6165C70.0226 18.2017 68.5908 19.3182 66.4516 19.3182C64.5169 19.3182 63.3152 18.4148 62.9402 16.7017L61.943 16.9574C62.3947 19.0881 64.0226 20.2727 66.4601 20.2727C69.1874 20.2727 71.0794 18.7557 71.0794 16.5824C71.0794 14.8949 70.0226 13.7273 67.9601 13.2159L65.9487 12.7131C64.2442 12.2955 63.426 11.4858 63.426 10.2415C63.426 8.70739 64.7726 7.65909 66.6987 7.65909C68.4885 7.65909 69.4857 8.55398 69.9629 9.9858L70.926 9.73011ZM74.0093 20H75.0405V6.90909H74.0093V20ZM74.5292 4.59091C74.9894 4.59091 75.3644 4.22443 75.3644 3.77273C75.3644 3.32102 74.9894 2.95454 74.5292 2.95454C74.0689 2.95454 73.6854 3.32102 73.6854 3.77273C73.6854 4.22443 74.0689 4.59091 74.5292 4.59091ZM83.5847 20.2727C86.1415 20.2727 88.0677 18.6023 88.4427 16.1818H87.3859C87.0449 18.0824 85.5023 19.3097 83.5847 19.3097C80.8489 19.3097 78.9824 16.8125 78.9824 13.4801C78.9824 10.1051 80.9256 7.68466 83.5847 7.68466C85.5535 7.68466 87.0279 8.99716 87.3603 10.7614H88.4171C88.0336 8.34943 86.0563 6.71307 83.5762 6.71307C80.2609 6.71307 77.9512 9.6108 77.9512 13.4972C77.9512 17.3835 80.2438 20.2727 83.5847 20.2727ZM94.7369 20.2812C96.8164 20.2812 98.2823 19.1051 98.9642 17.6392H99.0409V20H100.081V10.8551C100.081 7.99148 97.9499 6.71307 95.6232 6.71307C93.6034 6.71307 91.7113 7.625 90.9613 9.50852L91.9414 9.875C92.4528 8.57955 93.7823 7.66761 95.6488 7.66761C97.7624 7.66761 99.0409 8.88636 99.0409 10.7869V11.3324C99.0409 12.3381 97.5749 12.4403 95.5806 12.679C92.0863 13.1051 90.5863 14.2131 90.5863 16.3949C90.5863 18.8835 92.4784 20.2812 94.7369 20.2812ZM94.8392 19.3182C93.0068 19.3182 91.6261 18.2188 91.6261 16.429C91.6261 14.8097 92.8193 13.9403 95.6829 13.5994C96.9613 13.4545 98.4954 13.2159 99.0409 12.7642V14.6903C99.0409 17.3494 97.2937 19.3182 94.8392 19.3182ZM104.726 2.54545H103.72V4.08807C103.72 5.41761 103.004 6.84943 102.007 7.80398L102.578 8.375C103.942 7.28409 104.726 5.47727 104.726 4.07954V2.54545ZM113.568 9.73011C112.938 7.80398 111.557 6.71307 109.341 6.71307C106.835 6.71307 105.037 8.16193 105.037 10.2756C105.037 11.9631 106.102 13.1477 108.241 13.6676L110.33 14.179C111.889 14.5625 112.665 15.4062 112.665 16.6165C112.665 18.2017 111.233 19.3182 109.094 19.3182C107.159 19.3182 105.957 18.4148 105.582 16.7017L104.585 16.9574C105.037 19.0881 106.665 20.2727 109.102 20.2727C111.83 20.2727 113.722 18.7557 113.722 16.5824C113.722 14.8949 112.665 13.7273 110.602 13.2159L108.591 12.7131C106.886 12.2955 106.068 11.4858 106.068 10.2415C106.068 8.70739 107.415 7.65909 109.341 7.65909C111.131 7.65909 112.128 8.55398 112.605 9.9858L113.568 9.73011ZM127.735 20.2727C130.318 20.2727 131.903 18.7642 132.5 17.4432L131.554 17.0597C131.068 18.0312 129.866 19.3097 127.735 19.3097C124.761 19.3097 122.98 16.9062 122.937 13.6847H132.926V13.0369C132.926 9.15057 130.42 6.71307 127.488 6.71307C124.241 6.71307 121.906 9.60227 121.906 13.5142C121.906 17.4176 124.181 20.2727 127.735 20.2727ZM122.954 12.7386C123.159 9.88352 125.008 7.68466 127.488 7.68466C129.977 7.68466 131.886 9.90057 131.886 12.7386H122.954ZM144.103 9.73011C143.473 7.80398 142.092 6.71307 139.876 6.71307C137.371 6.71307 135.572 8.16193 135.572 10.2756C135.572 11.9631 136.638 13.1477 138.777 13.6676L140.865 14.179C142.425 14.5625 143.2 15.4062 143.2 16.6165C143.2 18.2017 141.768 19.3182 139.629 19.3182C137.694 19.3182 136.493 18.4148 136.118 16.7017L135.121 16.9574C135.572 19.0881 137.2 20.2727 139.638 20.2727C142.365 20.2727 144.257 18.7557 144.257 16.5824C144.257 14.8949 143.2 13.7273 141.138 13.2159L139.126 12.7131C137.422 12.2955 136.603 11.4858 136.603 10.2415C136.603 8.70739 137.95 7.65909 139.876 7.65909C141.666 7.65909 142.663 8.55398 143.14 9.9858L144.103 9.73011ZM152.045 20.2727C154.602 20.2727 156.528 18.6023 156.903 16.1818H155.846C155.505 18.0824 153.962 19.3097 152.045 19.3097C149.309 19.3097 147.442 16.8125 147.442 13.4801C147.442 10.1051 149.386 7.68466 152.045 7.68466C154.013 7.68466 155.488 8.99716 155.82 10.7614H156.877C156.494 8.34943 154.516 6.71307 152.036 6.71307C148.721 6.71307 146.411 9.6108 146.411 13.4972C146.411 17.3835 148.704 20.2727 152.045 20.2727ZM164.595 20.2727C167.833 20.2727 170.186 17.4261 170.186 13.4972C170.186 9.56818 167.825 6.71307 164.595 6.71307C161.356 6.71307 159.004 9.55966 159.004 13.4972C159.004 17.4261 161.356 20.2727 164.595 20.2727ZM164.595 19.3097C161.842 19.3097 160.035 16.7443 160.035 13.4972C160.035 10.267 161.859 7.68466 164.595 7.68466C167.339 7.68466 169.154 10.2585 169.154 13.4972C169.154 16.7443 167.347 19.3097 164.595 19.3097ZM173.047 20H174.087V11.375C174.087 9.26136 175.664 7.73579 177.845 7.73579C178.118 7.73579 178.297 7.76989 178.434 7.78693V6.73864C178.272 6.73011 178.093 6.73011 177.905 6.73011C176.175 6.73011 174.718 7.61648 174.155 8.95455H174.061V6.90909H173.047V20ZM185.955 6.90909H183.202V3.77273H182.171V6.90909H180.236V7.83807H182.171V17.0938C182.171 19.0795 183.714 20.2131 185.35 20.2131C185.878 20.2131 186.236 20.1193 186.56 20L186.304 19.054C186.049 19.1392 185.793 19.2074 185.418 19.2074C184.259 19.2074 183.202 18.4915 183.202 16.9062V7.83807H185.955V6.90909ZM197.175 9.73011C196.545 7.80398 195.164 6.71307 192.948 6.71307C190.442 6.71307 188.644 8.16193 188.644 10.2756C188.644 11.9631 189.709 13.1477 191.849 13.6676L193.937 14.179C195.496 14.5625 196.272 15.4062 196.272 16.6165C196.272 18.2017 194.84 19.3182 192.701 19.3182C190.766 19.3182 189.565 18.4148 189.19 16.7017L188.192 16.9574C188.644 19.0881 190.272 20.2727 192.709 20.2727C195.437 20.2727 197.329 18.7557 197.329 16.5824C197.329 14.8949 196.272 13.7273 194.209 13.2159L192.198 12.7131C190.494 12.2955 189.675 11.4858 189.675 10.2415C189.675 8.70739 191.022 7.65909 192.948 7.65909C194.738 7.65909 195.735 8.55398 196.212 9.9858L197.175 9.73011Z" fill="black"/>
<path d="M202.682 6.64773C203.938 6.64773 204.955 5.63068 204.955 4.375C204.955 3.11932 203.938 2.10227 202.682 2.10227C201.426 2.10227 200.409 3.11932 200.409 4.375C200.409 5.63068 201.426 6.64773 202.682 6.64773ZM202.682 6.22443C201.659 6.22443 200.832 5.39773 200.832 4.375C200.832 3.35227 201.659 2.52557 202.682 2.52557C203.705 2.52557 204.531 3.35227 204.531 4.375C204.531 5.39773 203.705 6.22443 202.682 6.22443ZM201.912 5.39773H202.278V4.64489H202.855L203.247 5.39773H203.656L203.21 4.56534C203.415 4.45739 203.571 4.24432 203.571 3.95739C203.571 3.53125 203.233 3.30114 202.918 3.30114H201.912V5.39773ZM202.278 4.35795V3.58807H202.807C202.989 3.58807 203.173 3.69318 203.173 3.95739C203.173 4.21591 202.991 4.35795 202.798 4.35795H202.278Z" fill="black"/>
</g>
<defs>
<clipPath id="clip0">
<rect width="230" height="26" fill="white"/>
</clipPath>
</defs>
</svg>
