<svg width="560" height="560" viewBox="0 0 560 560" fill="none" xmlns="http://www.w3.org/2000/svg">
<rect width="560" height="560" fill="black"/>
<g clip-path="url(#clip0)">
<rect width="450.5" height="450.49" transform="translate(55 55)" fill="black"/>
<line x1="70" y1="55" x2="70" y2="506" stroke="white" stroke-width="30"/>
<line x1="55" y1="491" x2="514" y2="491" stroke="white" stroke-width="30"/>
<path d="M153.221 407.293C161.9 407.293 171.594 404.246 177.734 397.967L184.428 406H197.539L184.474 390.073C188.029 385.503 191.999 377.839 191.999 364.636H181.474C181.474 371.099 179.996 376.824 177.55 381.579L157.006 356.511L163.931 351.341C171.687 345.616 176.488 339.338 176.488 330.29C176.488 319.764 167.809 310.531 153.59 310.531C139.741 310.531 130.692 319.21 130.692 331.952C130.692 340.354 135.263 346.817 141.772 354.665C130.739 362.328 123.121 369.438 123.121 380.886C123.121 396.213 134.57 407.293 153.221 407.293ZM171.225 390.073C166.008 394.967 159.407 397.69 152.851 397.69C141.587 397.69 134.201 389.75 134.201 380.886C134.201 378.301 136.601 371.653 145.096 365.375L148.604 362.79L171.225 390.073ZM150.312 348.386C145.696 342.754 141.772 337.399 141.772 332.136C141.772 326.227 146.758 319.949 153.959 319.949C160.792 319.949 165.408 325.489 165.408 330.29C165.408 336.753 161.9 340.261 156.545 343.77L150.312 348.386ZM272.502 406H330.3V395.844H283.951V363.713H326.607V353.557H283.951V321.611H329.561V311.455H272.502V406ZM350.175 311.455H338.172L372.888 406H384.706L419.422 311.455H407.419L379.351 391.043H378.243L350.175 311.455ZM426.002 406L435.511 379.224H473.736L483.246 406H495.249L460.533 311.455H448.715L413.999 406H426.002ZM439.112 369.068L454.254 326.412H454.993L470.135 369.068H439.112Z" fill="white"/>
<path d="M113.248 141.818L163.379 225.753V280H184.161V225.753L234.292 141.818H210.609L174.512 204.634H173.028L136.93 141.818H113.248ZM361.072 210.909C361.072 166.715 334.624 139.929 298.864 139.929C262.969 139.929 236.587 166.715 236.587 210.909C236.587 255.036 262.969 281.889 298.864 281.889C334.624 281.889 361.072 255.103 361.072 210.909ZM340.426 210.909C340.426 244.577 322.614 262.862 298.864 262.862C275.046 262.862 257.301 244.577 257.301 210.909C257.301 177.241 275.046 158.956 298.864 158.956C322.614 158.956 340.426 177.241 340.426 210.909ZM470.226 141.818V231.016C470.226 249.773 457.271 263.267 436.22 263.267C415.237 263.267 402.215 249.773 402.215 231.016V141.818H381.366V232.702C381.366 261.715 403.092 282.294 436.22 282.294C469.349 282.294 491.142 261.715 491.142 232.702V141.818H470.226Z" fill="white"/>
</g>
<defs>
<clipPath id="clip0">
<rect width="450.5" height="450.49" fill="white" transform="translate(55 55)"/>
</clipPath>
</defs>
</svg>
