<svg width="451" height="451" viewBox="0 0 451 451" fill="none" xmlns="http://www.w3.org/2000/svg">
<g clip-path="url(#clip0)">
<line x1="15" x2="15" y2="451" stroke="white" stroke-width="30"/>
<line y1="436" x2="459" y2="436" stroke="white" stroke-width="30"/>
<path d="M98.2208 352.293C106.9 352.293 116.594 349.246 122.734 342.967L129.428 351H142.539L129.474 335.073C133.029 330.503 136.999 322.839 136.999 309.636H126.474C126.474 316.099 124.996 321.824 122.55 326.579L102.006 301.511L108.931 296.341C116.687 290.616 121.488 284.338 121.488 275.29C121.488 264.764 112.809 255.531 98.5901 255.531C84.7407 255.531 75.6924 264.21 75.6924 276.952C75.6924 285.354 80.2627 291.817 86.7719 299.665C75.7385 307.328 68.1214 314.438 68.1214 325.886C68.1214 341.213 79.5702 352.293 98.2208 352.293ZM116.225 335.073C111.008 339.967 104.407 342.69 97.8515 342.69C86.5873 342.69 79.2009 334.75 79.2009 325.886C79.2009 323.301 81.6015 316.653 90.0958 310.375L93.6043 307.79L116.225 335.073ZM95.3124 293.386C90.6959 287.754 86.7719 282.399 86.7719 277.136C86.7719 271.227 91.7577 264.949 98.9594 264.949C105.792 264.949 110.408 270.489 110.408 275.29C110.408 281.753 106.9 285.261 101.545 288.77L95.3124 293.386ZM217.502 351H275.3V340.844H228.951V308.713H271.607V298.557H228.951V266.611H274.561V256.455H217.502V351ZM295.175 256.455H283.172L317.888 351H329.706L364.422 256.455H352.419L324.351 336.043H323.243L295.175 256.455ZM371.002 351L380.511 324.224H418.736L428.246 351H440.249L405.533 256.455H393.715L358.999 351H371.002ZM384.112 314.068L399.254 271.412H399.993L415.135 314.068H384.112Z" fill="white"/>
<path d="M58.2479 86.8182L108.379 170.753V225H129.161V170.753L179.292 86.8182H155.609L119.512 149.634H118.028L81.9305 86.8182H58.2479ZM306.072 155.909C306.072 111.715 279.624 84.929 243.864 84.929C207.969 84.929 181.587 111.715 181.587 155.909C181.587 200.036 207.969 226.889 243.864 226.889C279.624 226.889 306.072 200.103 306.072 155.909ZM285.426 155.909C285.426 189.577 267.614 207.862 243.864 207.862C220.046 207.862 202.301 189.577 202.301 155.909C202.301 122.241 220.046 103.956 243.864 103.956C267.614 103.956 285.426 122.241 285.426 155.909ZM415.226 86.8182V176.016C415.226 194.773 402.271 208.267 381.22 208.267C360.237 208.267 347.215 194.773 347.215 176.016V86.8182H326.366V177.702C326.366 206.715 348.092 227.294 381.22 227.294C414.349 227.294 436.142 206.715 436.142 177.702V86.8182H415.226Z" fill="white"/>
</g>
<defs>
<clipPath id="clip0">
<rect width="450.5" height="450.49" fill="white"/>
</clipPath>
</defs>
</svg>
