<svg width="97" height="27" viewBox="0 0 97 27" fill="none" xmlns="http://www.w3.org/2000/svg">
<path d="M4.72284 26.9091C7.12625 26.9091 8.51546 25.6733 9.25693 23.5852L14.5155 8.92614L11.2172 8.90909L8.19159 18.7955H8.05523L5.03818 8.90909H1.76546L6.51262 22.2727L6.24841 22.9801C5.67739 24.4716 4.77398 24.5739 3.42739 24.1818L2.71148 26.5852C3.12909 26.7557 3.87909 26.9091 4.72284 26.9091ZM20.4817 22.2557C24.3169 22.2557 26.7544 19.554 26.7544 15.5057C26.7544 11.4489 24.3169 8.73864 20.4817 8.73864C16.6465 8.73864 14.209 11.4489 14.209 15.5057C14.209 19.554 16.6465 22.2557 20.4817 22.2557ZM20.4988 19.7841C18.3766 19.7841 17.3368 17.892 17.3368 15.4972C17.3368 13.1023 18.3766 11.1847 20.4988 11.1847C22.5868 11.1847 23.6266 13.1023 23.6266 15.4972C23.6266 17.892 22.5868 19.7841 20.4988 19.7841ZM36.2768 16.4943C36.2768 18.4886 34.8535 19.4773 33.4899 19.4773C32.0069 19.4773 31.0183 18.429 31.0183 16.767V8.90909H27.933V17.2443C27.933 20.3892 29.7228 22.1705 32.2967 22.1705C34.2569 22.1705 35.6376 21.1392 36.2342 19.6733H36.3705V22H39.362V8.90909H36.2768V16.4943ZM48.4968 22.179C49.7497 22.179 51.1176 21.6932 51.9677 20.7599L52.9777 22H54.3584L52.6517 19.897C53.1311 19.2578 53.6808 18.2415 53.7255 16.6115L52.6197 16.5987C52.5686 17.5256 52.3257 18.3438 51.9486 19.0213L48.7717 15.103L49.7305 14.3871C50.8875 13.5114 51.5139 12.6612 51.5139 11.4723C51.5139 9.98935 50.3441 8.76207 48.5352 8.76207C46.7582 8.76207 45.4926 9.98935 45.4926 11.6641C45.4926 12.8146 46.1701 13.6839 47.1865 14.9048L47.065 14.9943C45.4351 16.1513 44.489 17.1101 44.489 18.593C44.489 20.6449 46.0807 22.179 48.4968 22.179ZM51.2838 19.9162C50.5295 20.7024 49.5324 21.1499 48.4585 21.1562C46.8093 21.1499 45.646 19.9737 45.646 18.593C45.646 18.005 46.0487 17.142 47.3527 16.1641L47.8896 15.7614L51.2838 19.9162ZM48.075 14.2401C47.2568 13.2429 46.6559 12.4759 46.6559 11.6768C46.6559 10.718 47.4805 9.77202 48.5736 9.77202C49.6218 9.77202 50.3505 10.5966 50.3505 11.4723C50.3505 12.38 49.8711 12.9361 48.9635 13.5817L48.075 14.2401ZM64.9547 22.2557C68.0059 22.2557 70.1025 20.7642 70.6479 18.4886L67.7672 18.1648C67.3496 19.2727 66.3269 19.8523 64.9974 19.8523C63.003 19.8523 61.682 18.5398 61.6564 16.2983H70.7758V15.3523C70.7758 10.7585 68.0144 8.73864 64.7928 8.73864C61.0428 8.73864 58.5968 11.4915 58.5968 15.5312C58.5968 19.6392 61.0087 22.2557 64.9547 22.2557ZM61.665 14.2188C61.7587 12.5483 62.9945 11.142 64.8354 11.142C66.6082 11.142 67.8013 12.4375 67.8184 14.2188H61.665ZM83.264 8.90909H79.9828L76.9657 18.6335H76.8294L73.8209 8.90909H70.5311L75.193 22H78.6021L83.264 8.90909ZM87.351 22.2642C89.405 22.2642 90.6323 21.3011 91.1948 20.2017H91.297V22H94.263V13.2386C94.263 9.77841 91.4419 8.73864 88.9448 8.73864C86.1919 8.73864 84.0783 9.96591 83.3965 12.3523L86.2772 12.7614C86.584 11.8665 87.4533 11.0994 88.9618 11.0994C90.3936 11.0994 91.1777 11.8324 91.1777 13.1193V13.1705C91.1777 14.0568 90.2487 14.0994 87.9391 14.3466C85.3993 14.6193 82.9703 15.3778 82.9703 18.3267C82.9703 20.9006 84.8539 22.2642 87.351 22.2642ZM88.1522 19.9972C86.8652 19.9972 85.9448 19.4091 85.9448 18.2756C85.9448 17.0909 86.976 16.5966 88.3567 16.4006C89.1664 16.2898 90.7857 16.0852 91.1862 15.7614V17.304C91.1862 18.7614 90.0101 19.9972 88.1522 19.9972Z" fill="black"/>
</svg>
