<svg width="357" height="357" viewBox="0 0 357 357" fill="none" xmlns="http://www.w3.org/2000/svg">
<path d="M178.38 355.75L178.25 355.7L145.78 342.25H110.5L85.55 317.3L53 303.8L52.95 303.67L39.45 271.2L14.45 246.25V211L1 178.38L1.05 178.25L14.5 145.78V110.5L39.45 85.55L53 53L53.13 52.95L85.55 39.45L110.55 14.45H145.83L178.38 1L178.5 1.05L211 14.5H246.28L271.2 39.45L303.8 53L303.85 53.13L317.3 85.55L342.25 110.55V145.83L355.75 178.43L355.7 178.55L342.25 211V246.28L317.3 271.2L303.8 303.8L303.67 303.85L271.2 317.3L246.25 342.25H211L178.38 355.75ZM110.77 341.6H145.97L178.38 355.03L210.91 341.58H246L270.91 316.7L303.3 303.3L316.79 270.79L341.6 246V210.8L355.03 178.4L341.6 145.84V110.77L316.72 85.86L303.3 53.45L270.79 40L246 15.15H210.8L178.38 1.7L145.84 15.15H110.77L85.86 40L53.45 53.45L40 86L15.15 110.77V145.97L1.7 178.38L15.15 210.91V246L40 270.89L53.45 303.3L86 316.79L110.77 341.6Z" fill="black" stroke="#FF0000"/>
</svg>
