<svg width="451" height="451" viewBox="0 0 451 451" fill="none" xmlns="http://www.w3.org/2000/svg">
<g clip-path="url(#clip0)">
<line x1="15" x2="15" y2="451" stroke="white" stroke-opacity="0.6" stroke-width="30"/>
<line y1="436" x2="459" y2="436" stroke="white" stroke-opacity="0.6" stroke-width="30"/>
<path d="M57.4122 424.641C68.4278 424.641 80.7325 420.773 88.5255 412.805L97.0216 423H113.662L97.0802 402.785C101.592 396.984 106.631 387.258 106.631 370.5H93.2716C93.2716 378.703 91.3966 385.969 88.2911 392.004L62.2169 360.187L71.006 353.625C80.8497 346.359 86.9435 338.391 86.9435 326.906C86.9435 313.547 75.9278 301.828 57.881 301.828C40.3028 301.828 28.8185 312.844 28.8185 329.016C28.8185 339.68 34.6192 347.883 42.881 357.844C28.877 367.57 19.2091 376.594 19.2091 391.125C19.2091 410.578 33.7403 424.641 57.4122 424.641ZM80.2638 402.785C73.6427 408.996 65.2638 412.453 56.9435 412.453C42.6466 412.453 33.2716 402.375 33.2716 391.125C33.2716 387.844 36.3185 379.406 47.0997 371.438L51.5528 368.156L80.2638 402.785ZM53.7208 349.875C47.8614 342.727 42.881 335.93 42.881 329.25C42.881 321.75 49.2091 313.781 58.3497 313.781C67.0216 313.781 72.881 320.812 72.881 326.906C72.881 335.109 68.4278 339.563 61.631 344.016L53.7208 349.875ZM167.351 423H240.71V410.109H181.882V369.328H236.023V356.437H181.882V315.891H239.773V303H167.351V423ZM265.936 303H250.702L294.764 423H309.764L353.827 303H338.592L302.967 404.016H301.561L265.936 303ZM362.178 423L374.248 389.016H422.764L434.834 423H450.068L406.006 303H391.006L346.943 423H362.178ZM378.818 376.125L398.037 321.984H398.975L418.193 376.125H378.818Z" fill="white" fill-opacity="0.6"/>
<path d="M15.8004 -0.727277L71.2087 92.0426V152H94.1775V92.0426L149.586 -0.727277H123.41L83.5134 68.701H81.8728L41.9758 -0.727277H15.8004ZM289.712 75.6364C289.712 26.7905 260.479 -2.81535 220.955 -2.81535C181.281 -2.81535 152.123 26.7905 152.123 75.6364C152.123 124.408 181.281 154.088 220.955 154.088C260.479 154.088 289.712 124.482 289.712 75.6364ZM266.892 75.6364C266.892 112.849 247.205 133.058 220.955 133.058C194.63 133.058 175.017 112.849 175.017 75.6364C175.017 38.424 194.63 18.2145 220.955 18.2145C247.205 18.2145 266.892 38.424 266.892 75.6364ZM410.355 -0.727277V97.8594C410.355 118.591 396.037 133.506 372.77 133.506C349.577 133.506 335.185 118.591 335.185 97.8594V-0.727277H312.141V99.7237C312.141 131.79 336.154 154.536 372.77 154.536C409.386 154.536 433.473 131.79 433.473 99.7237V-0.727277H410.355Z" fill="white" fill-opacity="0.6"/>
</g>
<defs>
<clipPath id="clip0">
<rect width="450.5" height="450.49" fill="white"/>
</clipPath>
</defs>
</svg>
