<svg width="451" height="451" viewBox="0 0 451 451" fill="none" xmlns="http://www.w3.org/2000/svg">
<g clip-path="url(#clip0)">
<line x1="15" x2="15" y2="451" stroke="white" stroke-width="30"/>
<line y1="436" x2="459" y2="436" stroke="white" stroke-width="30"/>
<path d="M72.0947 412.79C84.1118 412.79 97.5351 408.571 106.037 399.878L115.305 411H133.458L115.369 388.947C120.291 382.619 125.788 372.009 125.788 353.727H111.214C111.214 362.676 109.169 370.602 105.781 377.186L77.3362 342.477L86.9243 335.318C97.6629 327.392 104.311 318.699 104.311 306.17C104.311 291.597 92.2936 278.812 72.6061 278.812C53.43 278.812 40.9016 290.83 40.9016 308.472C40.9016 320.105 47.2297 329.054 56.2425 339.92C40.9655 350.531 30.4186 360.375 30.4186 376.227C30.4186 397.449 46.2709 412.79 72.0947 412.79ZM97.0237 388.947C89.8007 395.723 80.6601 399.494 71.5834 399.494C55.9868 399.494 45.7595 388.5 45.7595 376.227C45.7595 372.648 49.0834 363.443 60.8447 354.75L65.7027 351.17L97.0237 388.947ZM68.0678 331.227C61.6757 323.429 56.2425 316.014 56.2425 308.727C56.2425 300.545 63.1459 291.852 73.1175 291.852C82.5777 291.852 88.9697 299.523 88.9697 306.17C88.9697 315.119 84.1118 319.977 76.697 324.835L68.0678 331.227ZM231.147 413.045C251.091 413.045 265.664 403.074 270.267 388.244L255.693 384.153C251.858 394.381 242.973 399.494 231.147 399.494C213.441 399.494 201.233 388.053 200.529 367.023H271.801V360.631C271.801 324.068 250.068 311.54 229.613 311.54C203.022 311.54 185.38 332.506 185.38 362.676C185.38 392.847 202.767 413.045 231.147 413.045ZM200.529 353.983C201.552 338.706 212.355 325.091 229.613 325.091C245.977 325.091 256.46 337.364 256.46 353.983H200.529ZM366.644 312.818H350.28L323.178 391.057H322.155L295.053 312.818H278.689L314.996 411H330.337L366.644 312.818ZM407.059 413.301C424.19 413.301 433.139 404.097 436.207 397.705H436.974V411H452.059V346.312C452.059 315.119 428.281 311.54 415.752 311.54C400.923 311.54 384.048 316.653 376.377 334.551L390.695 339.665C394.019 332.506 401.881 324.835 416.264 324.835C430.134 324.835 436.974 332.186 436.974 344.778V345.29C436.974 352.577 429.559 351.938 411.661 354.239C393.444 356.604 373.565 360.631 373.565 383.131C373.565 402.307 388.394 413.301 407.059 413.301ZM409.36 399.75C397.343 399.75 388.65 394.381 388.65 383.898C388.65 372.392 399.133 368.812 410.894 367.278C417.286 366.511 434.417 364.722 436.974 361.653V375.46C436.974 387.733 427.258 399.75 409.36 399.75Z" fill="white"/>
<path d="M48.2761 210.273C69.455 210.273 84.3698 199.037 93.2192 175.273L158.248 0.670445L132.594 0.272723L90.4352 121.977H88.8442L46.6852 0.272723H21.2306L77.7079 153.795L73.3329 165.727C64.7817 188.994 54.242 191.182 37.1397 186.807L31.1738 207.489C33.5602 208.682 40.3215 210.273 48.2761 210.273ZM237.472 156.182C278.836 156.182 306.676 124.761 306.676 77.4318C306.676 29.7045 278.836 -1.71591 237.472 -1.71591C196.108 -1.71591 168.267 29.7045 168.267 77.4318C168.267 124.761 196.108 156.182 237.472 156.182ZM237.472 135.102C206.051 135.102 191.733 108.057 191.733 77.4318C191.733 46.8068 206.051 19.3636 237.472 19.3636C268.892 19.3636 283.211 46.8068 283.211 77.4318C283.211 108.057 268.892 135.102 237.472 135.102ZM430.347 90.5568C430.347 119.193 408.472 132.318 390.972 132.318C371.483 132.318 357.563 118 357.563 95.7273V0.272723H334.097V97.3182C334.097 136.295 354.779 154.989 383.415 154.989C406.483 154.989 421.597 142.659 428.756 127.148H430.347V153H453.813V0.272723H430.347V90.5568Z" fill="white"/>
</g>
<defs>
<clipPath id="clip0">
<rect width="450.5" height="450.49" fill="white"/>
</clipPath>
</defs>
</svg>
