<svg width="451" height="451" viewBox="0 0 451 451" fill="none" xmlns="http://www.w3.org/2000/svg">
<g clip-path="url(#clip0)">
<line x1="15" x2="15" y2="451" stroke="white" stroke-width="30"/>
<line y1="436" x2="459" y2="436" stroke="white" stroke-width="30"/>
<path d="M69.7179 422.591C80.3997 422.591 92.3315 418.841 99.8884 411.114L108.127 421H124.263L108.184 401.398C112.559 395.773 117.445 386.341 117.445 370.091H104.491C104.491 378.045 102.672 385.091 99.6611 390.943L74.377 360.091L82.8997 353.727C92.4452 346.682 98.3543 338.955 98.3543 327.818C98.3543 314.864 87.6725 303.5 70.1725 303.5C53.127 303.5 41.9906 314.182 41.9906 329.864C41.9906 340.205 47.6156 348.159 55.627 357.818C42.0474 367.25 32.6724 376 32.6724 390.091C32.6724 408.955 46.7634 422.591 69.7179 422.591ZM91.877 401.398C85.4565 407.42 77.3315 410.773 69.2634 410.773C55.3997 410.773 46.3088 401 46.3088 390.091C46.3088 386.909 49.2634 378.727 59.7179 371L64.0361 367.818L91.877 401.398ZM66.1384 350.091C60.4565 343.159 55.627 336.568 55.627 330.091C55.627 322.818 61.7634 315.091 70.627 315.091C79.0361 315.091 84.7179 321.909 84.7179 327.818C84.7179 335.773 80.3997 340.091 73.8088 344.409L66.1384 350.091ZM176.325 421H247.462V408.5H190.416V368.955H242.916V356.455H190.416V317.136H246.553V304.636H176.325V421ZM271.923 304.636H257.15L299.878 421H314.423L357.15 304.636H342.378L307.832 402.591H306.468L271.923 304.636ZM365.248 421L376.953 388.045H423.998L435.703 421H450.475L407.748 304.636H393.203L350.475 421H365.248ZM381.384 375.545L400.021 323.045H400.93L419.566 375.545H381.384Z" fill="white"/>
<path d="M24.8004 -0.727277L80.2087 92.0426V152H103.177V92.0426L158.586 -0.727277H132.41L92.5134 68.701H90.8728L50.9758 -0.727277H24.8004ZM298.712 75.6364C298.712 26.7905 269.479 -2.81535 229.955 -2.81535C190.281 -2.81535 161.123 26.7905 161.123 75.6364C161.123 124.408 190.281 154.088 229.955 154.088C269.479 154.088 298.712 124.482 298.712 75.6364ZM275.892 75.6364C275.892 112.849 256.205 133.058 229.955 133.058C203.63 133.058 184.017 112.849 184.017 75.6364C184.017 38.424 203.63 18.2145 229.955 18.2145C256.205 18.2145 275.892 38.424 275.892 75.6364ZM419.355 -0.727277V97.8594C419.355 118.591 405.037 133.506 381.77 133.506C358.577 133.506 344.185 118.591 344.185 97.8594V-0.727277H321.141V99.7237C321.141 131.79 345.154 154.536 381.77 154.536C418.386 154.536 442.473 131.79 442.473 99.7237V-0.727277H419.355Z" fill="white"/>
</g>
<defs>
<clipPath id="clip0">
<rect width="450.5" height="450.49" fill="white"/>
</clipPath>
</defs>
</svg>
