<?xml version="1.0" standalone="no"?>
<!DOCTYPE svg PUBLIC "-//W3C//DTD SVG 20010904//EN"
 "http://www.w3.org/TR/2001/REC-SVG-20010904/DTD/svg10.dtd">
<svg version="1.0" xmlns="http://www.w3.org/2000/svg"
 width="700.000000pt" height="700.000000pt" viewBox="0 0 700.000000 700.000000"
 preserveAspectRatio="xMidYMid meet">
<metadata>
Created by potrace 1.11, written by Peter Selinger 2001-2013
</metadata>
<g transform="translate(0.000000,700.000000) scale(0.100000,-0.100000)"
fill="#000000" stroke="none">
<path d="M3231 5943 c0 -582 -1 -1079 -1 -1105 l0 -46 -50 -12 c-57 -14 -64
-11 -88 38 -10 20 -101 179 -202 352 -100 173 -192 331 -203 350 -10 19 -52
91 -92 160 -39 69 -83 145 -97 170 -14 25 -64 113 -113 195 -83 143 -108 186
-153 265 -100 176 -215 370 -220 370 -4 0 -33 -16 -65 -35 -32 -19 -60 -35
-62 -35 -2 0 -45 -25 -95 -55 -50 -30 -93 -55 -96 -55 -3 0 -30 -16 -60 -35
-30 -19 -58 -35 -62 -35 -4 0 -17 -8 -29 -18 l-23 -17 101 -175 c56 -96 109
-188 119 -205 9 -16 120 -208 245 -425 125 -217 236 -408 245 -425 10 -16 102
-176 205 -354 l187 -323 -38 -39 c-23 -24 -44 -37 -53 -34 -8 3 -112 63 -230
132 -119 69 -236 137 -261 151 -25 14 -171 98 -325 187 -154 89 -311 179 -348
201 -38 21 -83 47 -100 58 -35 20 -401 232 -457 264 -19 11 -64 36 -100 57
-36 20 -70 41 -75 45 -10 9 -33 -23 -92 -130 -11 -19 -61 -106 -112 -193 -50
-87 -91 -162 -91 -166 0 -4 10 -13 23 -19 26 -13 75 -41 247 -142 69 -40 134
-78 145 -84 165 -94 243 -139 255 -147 16 -10 217 -126 343 -198 88 -50 705
-406 792 -457 l101 -59 -14 -50 c-8 -27 -16 -52 -18 -54 -3 -3 -501 -5 -1107
-5 l-1102 -1 -3 -287 -2 -287 1062 0 c585 0 1082 0 1104 -1 41 0 42 -1 53 -44
6 -25 11 -49 11 -54 0 -9 -28 -28 -120 -79 -19 -11 -190 -110 -380 -220 -190
-110 -511 -295 -715 -413 -203 -117 -410 -236 -460 -265 -49 -29 -123 -71
-162 -94 -40 -23 -73 -44 -73 -47 0 -13 283 -494 288 -490 4 2 97 55 207 118
110 64 216 125 235 135 19 11 177 103 350 203 173 101 340 196 370 213 30 16
67 38 82 49 14 10 28 18 31 18 3 0 41 21 84 46 43 26 183 107 312 181 l235
134 39 -39 40 -40 -175 -304 c-97 -166 -185 -319 -196 -338 -11 -19 -51 -90
-90 -157 -39 -67 -114 -196 -165 -285 -52 -90 -119 -206 -149 -258 -267 -462
-328 -572 -323 -579 5 -9 25 -21 145 -89 64 -36 302 -173 322 -186 9 -5 19 -8
21 -6 2 3 36 61 76 130 39 69 75 132 80 140 5 8 59 101 119 205 60 105 172
298 248 430 77 132 238 412 359 621 l219 381 55 -17 55 -16 0 -1107 0 -1107
287 0 288 0 0 1073 c0 589 0 1086 1 1104 0 29 3 32 51 43 28 7 54 9 59 4 7 -8
40 -65 140 -239 10 -16 192 -331 405 -700 213 -369 396 -686 407 -705 81 -144
151 -260 157 -260 3 0 15 6 26 14 11 7 41 25 68 40 26 14 68 38 95 53 26 14
63 37 82 50 19 12 40 23 47 23 7 0 13 4 13 8 0 4 12 13 28 20 59 26 127 72
124 84 -3 11 -169 302 -261 458 -11 19 -27 47 -36 62 -8 15 -149 258 -311 540
-163 282 -305 529 -316 548 -11 19 -54 93 -95 164 l-75 128 40 41 40 40 587
-339 c709 -410 660 -381 715 -412 25 -14 89 -52 143 -84 55 -32 101 -58 103
-58 3 0 78 -44 300 -175 l71 -42 39 66 c21 36 43 75 49 86 6 11 38 65 70 120
75 128 124 218 125 227 0 3 -12 13 -27 20 -35 18 -435 248 -448 258 -5 4 -35
21 -65 38 -30 16 -197 112 -370 212 -393 228 -374 217 -440 253 -30 16 -62 35
-70 41 -8 6 -24 16 -35 22 -57 31 -385 220 -416 240 l-37 23 16 48 c8 26 17
50 19 52 2 3 500 5 1106 5 l1102 1 3 288 2 288 -607 -1 c-335 -1 -831 -1
-1103 -1 l-496 1 -12 45 c-7 25 -12 50 -12 55 0 8 46 37 170 108 19 11 121 69
225 129 494 286 1034 598 1075 621 25 14 57 32 72 41 35 21 158 92 183 106 59
32 185 107 185 111 0 5 -23 45 -162 286 l-119 207 -47 -25 c-26 -14 -54 -29
-62 -34 -64 -39 -153 -90 -156 -90 -2 0 -32 -17 -66 -38 -35 -21 -88 -53 -118
-69 -31 -17 -195 -112 -365 -210 -171 -99 -330 -191 -355 -205 -25 -14 -155
-89 -289 -167 -134 -77 -248 -141 -253 -141 -4 0 -8 -4 -8 -9 0 -5 -8 -11 -17
-14 -10 -3 -40 -19 -68 -36 -113 -68 -104 -66 -147 -24 -21 21 -36 44 -33 51
5 14 140 248 415 722 75 129 139 242 143 250 4 8 17 31 28 50 30 49 196 335
227 390 14 25 50 88 81 140 30 52 59 105 65 117 6 13 14 23 19 23 4 0 7 4 7 9
0 5 25 53 55 105 31 53 53 101 50 105 -3 5 -24 20 -48 34 -23 13 -129 74 -235
135 -106 62 -196 112 -200 112 -4 0 -47 -71 -97 -156 -49 -86 -101 -176 -115
-200 -49 -85 -156 -270 -183 -319 -16 -27 -35 -60 -43 -72 -7 -12 -23 -39 -35
-60 -59 -106 -337 -586 -370 -641 -22 -35 -39 -65 -39 -67 0 -2 -51 -90 -112
-197 l-113 -193 -49 12 c-26 7 -51 15 -54 18 -3 3 -6 502 -6 1108 l-1 1102
-287 3 -286 2 -1 -1057z"/>
</g>
</svg>
