<?xml version="1.0" encoding="UTF-8" standalone="no"?>
<!DOCTYPE svg PUBLIC "-//W3C//DTD SVG 1.1//EN" "http://www.w3.org/Graphics/SVG/1.1/DTD/svg11.dtd">
<svg width="100%" height="100%" viewBox="0 0 36 49" version="1.1" xmlns="http://www.w3.org/2000/svg" xmlns:xlink="http://www.w3.org/1999/xlink" xml:space="preserve" xmlns:serif="http://www.serif.com/" style="fill-rule:evenodd;clip-rule:evenodd;stroke-linejoin:round;stroke-miterlimit:2;">
    <g transform="matrix(1,0,0,1,3.31361e-05,-0.161216)">
        <g id="Main-Page_Desktop-HD">
            <g id="Brands">
                <g id="Group-11">
                    <path id="Fill-1" d="M5.32,23.826L5.32,2.817L13.927,2.817C19.873,2.817 21.829,6.681 21.751,10.787C21.359,22.136 10.406,23.826 5.32,23.826M19.247,44.835L27.932,44.835C26.601,44.111 26.132,42.179 26.054,40.328C25.193,31.957 20.655,25.436 19.56,23.746C24.715,20.564 26.993,15.69 26.993,11.189C26.993,3.703 20.577,0.161 15.022,0.161L0.391,0.161C0.939,0.966 1.33,1.288 1.33,3.139L1.33,41.294C1.33,43.145 0.548,44.031 0,44.835L6.65,44.835C6.103,44.031 5.32,43.145 5.32,41.294L5.32,27.287C9.802,27.213 13.548,26.45 16.55,25.222C21.125,30.266 21.672,37.591 21.751,39.603C21.829,41.616 20.812,43.386 19.247,44.835" style="fill:white;"/>
                    <path id="Fill-4" d="M13.267,31.368C15.306,31.335 17.269,31.157 19,30.854C18.765,30.033 17.914,28.254 17.486,27.519C15.904,27.799 14.43,27.89 13.267,27.89L13.267,27C12.724,27.202 10.323,27.566 9.317,27.688L9.317,45.441C9.317,47.302 8.542,48.191 8,49L14.583,49C14.041,48.191 13.267,47.302 13.267,45.441L13.267,31.368Z" style="fill:white;"/>
                    <path id="Fill-6" d="M20,6.64L12.941,6.64L12.941,20.96C12.039,21.28 10.235,21.88 8.941,22L8.941,6.96C8.941,5.12 8.549,4.8 8,4L17.765,4C18.549,4.48 19.608,5.64 20,6.64" style="fill:white;"/>
                    <path id="Fill-8" d="M27.946,9.709C29.157,11.172 29.623,13.126 29.584,15.14C29.368,21.245 25.996,24.534 22.127,26.268C22.694,27.127 23.405,28.753 23.846,29.638C23.955,29.596 24.302,29.474 24.409,29.432C29.066,34.439 29.504,41.751 29.584,43.75C29.663,45.748 28.628,47.506 27.035,48.944L35.876,48.944C34.522,48.225 34.044,46.307 33.965,44.469C33.089,36.158 28.469,29.684 27.353,28.006C32.601,24.847 34.921,20.008 34.921,15.539C34.921,9.674 30.734,6.208 26.24,5.024C26.597,5.629 27.583,7.595 27.946,9.709" style="fill:white;"/>
                </g>
            </g>
        </g>
    </g>
</svg>
