<?xml version="1.0" encoding="UTF-8"?>
<svg width="106px" height="59px" viewBox="0 0 106 59" version="1.1" xmlns="http://www.w3.org/2000/svg" xmlns:xlink="http://www.w3.org/1999/xlink">
    <title>logo</title>
    <g id="Page-1" stroke="none" stroke-width="1" fill="none" fill-rule="evenodd">
        <g id="logo" transform="translate(0.000000, 1.000000)">
            <path d="M2.354225,34.5 L2.354225,19.74 L2.402225,19.74 L8.546225,34.5 L9.458225,34.5 L15.602225,19.74 L15.650225,19.74 L15.650225,34.5 L17.378225,34.5 L17.378225,17.508 L14.738225,17.508 L9.050225,31.572 L9.026225,31.572 L3.266225,17.508 L0.626225,17.508 L0.626225,34.5 L2.354225,34.5 Z M24.470225,34.5 L27.0076955,28.3850126 L34.4225406,28.3850126 L36.974225,34.5 L38.894225,34.5 L31.598225,17.508 L29.918225,17.508 L22.574225,34.5 L24.470225,34.5 Z M34.454225,28.398 L26.966225,28.398 L30.710225,19.428 L34.454225,28.398 Z M49.730225,34.5 C50.786225,34.5 51.846225,34.324 52.910225,33.972 C53.974225,33.62 54.934225,33.088 55.790225,32.376 C56.646225,31.664 57.338225,30.78 57.866225,29.724 C58.394225,28.668 58.658225,27.428 58.658225,26.004 C58.658225,24.596 58.394225,23.36 57.866225,22.296 C57.338225,21.232 56.646225,20.344 55.790225,19.632 C54.934225,18.92 53.974225,18.388 52.910225,18.036 C51.846225,17.684 50.786225,17.508 49.730225,17.508 L49.730225,17.508 L44.090225,17.508 L44.090225,34.5 L49.730225,34.5 Z M49.250225,32.964 L45.818225,32.964 L45.818225,19.044 L49.250225,19.044 C50.530225,19.044 51.646225,19.244 52.598225,19.644 C53.550225,20.044 54.338225,20.568 54.962225,21.216 C55.586225,21.864 56.054225,22.604 56.366225,23.436 C56.678225,24.268 56.834225,25.124 56.834225,26.004 C56.834225,26.884 56.678225,27.74 56.366225,28.572 C56.054225,29.404 55.586225,30.144 54.962225,30.792 C54.338225,31.44 53.550225,31.964 52.598225,32.364 C51.646225,32.764 50.530225,32.964 49.250225,32.964 L49.250225,32.964 Z M66.686225,34.5 L66.686225,26.556 L69.566225,26.556 L74.270225,34.5 L76.382225,34.5 L71.414225,26.412 C72.038225,26.348 72.614225,26.204 73.142225,25.98 C73.670225,25.756 74.126225,25.456 74.510225,25.08 C74.894225,24.704 75.198225,24.26 75.422225,23.748 C75.646225,23.236 75.758225,22.668 75.758225,22.044 C75.758225,21.212 75.614225,20.508 75.326225,19.932 C75.038225,19.356 74.634225,18.888 74.114225,18.528 C73.594225,18.168 72.978225,17.908 72.266225,17.748 C71.554225,17.588 70.782225,17.508 69.950225,17.508 L69.950225,17.508 L64.958225,17.508 L64.958225,34.5 L66.686225,34.5 Z M69.686225,25.068 L66.686225,25.068 L66.686225,18.996 L69.758225,18.996 C70.398225,18.996 70.982225,19.052 71.510225,19.164 C72.038225,19.276 72.486225,19.452 72.854225,19.692 C73.222225,19.932 73.510225,20.244 73.718225,20.628 C73.926225,21.012 74.030225,21.484 74.030225,22.044 C74.030225,23.052 73.654225,23.808 72.902225,24.312 C72.150225,24.816 71.078225,25.068 69.686225,25.068 L69.686225,25.068 Z M83.762225,34.5 L83.762225,17.508 L82.034225,17.508 L82.034225,34.5 L83.762225,34.5 Z M96.614225,34.5 C97.670225,34.5 98.730225,34.324 99.794225,33.972 C100.858225,33.62 101.818225,33.088 102.674225,32.376 C103.530225,31.664 104.222225,30.78 104.750225,29.724 C105.278225,28.668 105.542225,27.428 105.542225,26.004 C105.542225,24.596 105.278225,23.36 104.750225,22.296 C104.222225,21.232 103.530225,20.344 102.674225,19.632 C101.818225,18.92 100.858225,18.388 99.794225,18.036 C98.730225,17.684 97.670225,17.508 96.614225,17.508 L96.614225,17.508 L90.974225,17.508 L90.974225,34.5 L96.614225,34.5 Z M96.134225,32.964 L92.702225,32.964 L92.702225,19.044 L96.134225,19.044 C97.414225,19.044 98.530225,19.244 99.482225,19.644 C100.434225,20.044 101.222225,20.568 101.846225,21.216 C102.470225,21.864 102.938225,22.604 103.250225,23.436 C103.562225,24.268 103.718225,25.124 103.718225,26.004 C103.718225,26.884 103.562225,27.74 103.250225,28.572 C102.938225,29.404 102.470225,30.144 101.846225,30.792 C101.222225,31.44 100.434225,31.964 99.482225,32.364 C98.530225,32.764 97.414225,32.964 96.134225,32.964 L96.134225,32.964 Z" id="MADRID" fill="#000000" fill-rule="nonzero"></path>
            <path d="M58.370225,13.5 L82.370225,0 M104.870225,13.2477368 L81.7128917,0.26696761" id="Combined-Shape" stroke="#000000" stroke-width="0.75"></path>
            <path d="M6.938225,57.432 C7.914225,57.432 8.818225,57.276 9.650225,56.964 C10.482225,56.652 11.202225,56.208 11.810225,55.632 C12.418225,55.056 12.898225,54.356 13.250225,53.532 C13.602225,52.708 13.778225,51.784 13.778225,50.76 L13.778225,50.76 L13.778225,40.008 L10.754225,40.008 L10.754225,50.64 C10.754225,51.136 10.690225,51.628 10.562225,52.116 C10.434225,52.604 10.222225,53.04 9.926225,53.424 C9.630225,53.808 9.238225,54.12 8.750225,54.36 C8.262225,54.6 7.658225,54.72 6.938225,54.72 C6.218225,54.72 5.614225,54.6 5.126225,54.36 C4.638225,54.12 4.246225,53.808 3.950225,53.424 C3.654225,53.04 3.442225,52.604 3.314225,52.116 C3.186225,51.628 3.122225,51.136 3.122225,50.64 L3.122225,50.64 L3.122225,40.008 L0.098225,40.008 L0.098225,50.76 C0.098225,51.784 0.270225,52.708 0.614225,53.532 C0.958225,54.356 1.438225,55.056 2.054225,55.632 C2.670225,56.208 3.394225,56.652 4.226225,56.964 C5.058225,57.276 5.962225,57.432 6.938225,57.432 Z M26.552225,57 L26.552225,49.8 L28.760225,49.8 L32.696225,57 L36.344225,57 L31.808225,49.464 C33.008225,49.192 33.956225,48.668 34.652225,47.892 C35.348225,47.116 35.696225,46.112 35.696225,44.88 C35.696225,43.984 35.520225,43.224 35.168225,42.6 C34.816225,41.976 34.348225,41.472 33.764225,41.088 C33.180225,40.704 32.512225,40.428 31.760225,40.26 C31.008225,40.092 30.232225,40.008 29.432225,40.008 L29.432225,40.008 L23.528225,40.008 L23.528225,57 L26.552225,57 Z M29.024225,47.328 L26.552225,47.328 L26.552225,42.552 L29.288225,42.552 C29.672225,42.552 30.068225,42.584 30.476225,42.648 C30.884225,42.712 31.248225,42.832 31.568225,43.008 C31.888225,43.184 32.152225,43.42 32.360225,43.716 C32.568225,44.012 32.672225,44.392 32.672225,44.856 C32.672225,45.368 32.560225,45.788 32.336225,46.116 C32.112225,46.444 31.828225,46.696 31.484225,46.872 C31.140225,47.048 30.752225,47.168 30.320225,47.232 C29.888225,47.296 29.456225,47.328 29.024225,47.328 L29.024225,47.328 Z M50.894225,57 C51.694225,57 52.482225,56.916 53.258225,56.748 C54.034225,56.58 54.722225,56.304 55.322225,55.92 C55.922225,55.536 56.406225,55.028 56.774225,54.396 C57.142225,53.764 57.326225,52.984 57.326225,52.056 C57.326225,50.904 56.982225,49.984 56.294225,49.296 C55.606225,48.608 54.726225,48.192 53.654225,48.048 L53.654225,48.048 L53.654225,48 C54.534225,47.728 55.246225,47.28 55.790225,46.656 C56.334225,46.032 56.606225,45.24 56.606225,44.28 C56.606225,43.512 56.454225,42.856 56.150225,42.312 C55.846225,41.768 55.450225,41.324 54.962225,40.98 C54.474225,40.636 53.918225,40.388 53.294225,40.236 C52.670225,40.084 52.038225,40.008 51.398225,40.008 L51.398225,40.008 L44.774225,40.008 L44.774225,57 L50.894225,57 Z M50.486225,46.92 L47.798225,46.92 L47.798225,42.504 L50.222225,42.504 C51.374225,42.504 52.222225,42.664 52.766225,42.984 C53.310225,43.304 53.582225,43.848 53.582225,44.616 C53.582225,45.352 53.318225,45.92 52.790225,46.32 C52.262225,46.72 51.494225,46.92 50.486225,46.92 L50.486225,46.92 Z M50.510225,54.456 L47.798225,54.456 L47.798225,49.512 L50.630225,49.512 C51.862225,49.512 52.782225,49.688 53.390225,50.04 C53.998225,50.392 54.302225,51.016 54.302225,51.912 C54.302225,52.472 54.178225,52.92 53.930225,53.256 C53.682225,53.592 53.370225,53.848 52.994225,54.024 C52.618225,54.2 52.206225,54.316 51.758225,54.372 C51.310225,54.428 50.894225,54.456 50.510225,54.456 L50.510225,54.456 Z M67.772225,57 L69.308225,53.112 L76.676225,53.112 L78.260225,57 L81.716225,57 L74.396225,40.008 L71.780225,40.008 L64.388225,57 L67.772225,57 Z M75.620225,50.52 L70.340225,50.52 L73.004225,43.608 L75.620225,50.52 Z M92.570225,57 L92.570225,43.872 L92.618225,43.872 L100.682225,57 L104.522225,57 L104.522225,40.008 L101.498225,40.008 L101.498225,52.728 L101.450225,52.728 L93.554225,40.008 L89.546225,40.008 L89.546225,57 L92.570225,57 Z" id="URBAN" fill="#000000" fill-rule="nonzero"></path>
        </g>
    </g>
</svg>