<?xml version="1.0" encoding="UTF-8"?>
<svg width="250px" height="40px" viewBox="0 0 250 40" version="1.1" xmlns="http://www.w3.org/2000/svg" xmlns:xlink="http://www.w3.org/1999/xlink">
    <title>logoText</title>
    <g id="Page-1" stroke="none" stroke-width="1" fill="none" fill-rule="evenodd">
        <g id="logoText" transform="translate(0.000000, 1.000000)">
            <path d="M135.923872,38.6944444 C137.053501,38.6944444 138.099797,38.5138889 139.06276,38.1527778 C140.025723,37.7916667 140.859057,37.2777778 141.56276,36.6111111 C142.266464,35.9444444 142.82202,35.1342593 143.229427,34.1805556 C143.636834,33.2268519 143.840538,32.1574074 143.840538,30.9722222 L143.840538,30.9722222 L143.840538,18.5277778 L140.340538,18.5277778 L140.340538,30.8333333 C140.340538,31.4074074 140.266464,31.9768519 140.118316,32.5416667 C139.970168,33.1064815 139.724797,33.6111111 139.382205,34.0555556 C139.039612,34.5 138.585909,34.8611111 138.021094,35.1388889 C137.456279,35.4166667 136.757205,35.5555556 135.923872,35.5555556 C135.090538,35.5555556 134.391464,35.4166667 133.826649,35.1388889 C133.261834,34.8611111 132.808131,34.5 132.465538,34.0555556 C132.122946,33.6111111 131.877575,33.1064815 131.729427,32.5416667 C131.581279,31.9768519 131.507205,31.4074074 131.507205,30.8333333 L131.507205,30.8333333 L131.507205,18.5277778 L128.007205,18.5277778 L128.007205,30.9722222 C128.007205,32.1574074 128.206279,33.2268519 128.604427,34.1805556 C129.002575,35.1342593 129.558131,35.9444444 130.271094,36.6111111 C130.984057,37.2777778 131.82202,37.7916667 132.784983,38.1527778 C133.747946,38.5138889 134.794242,38.6944444 135.923872,38.6944444 Z M158.62526,38.1944444 L158.62526,29.8611111 L161.180816,29.8611111 L165.736372,38.1944444 L169.958594,38.1944444 L164.708594,29.4722222 C166.097483,29.1574074 167.194705,28.5509259 168.00026,27.6527778 C168.805816,26.7546296 169.208594,25.5925926 169.208594,24.1666667 C169.208594,23.1296296 169.00489,22.25 168.597483,21.5277778 C168.190075,20.8055556 167.648409,20.2222222 166.972483,19.7777778 C166.296557,19.3333333 165.523409,19.0138889 164.653038,18.8194444 C163.782668,18.625 162.88452,18.5277778 161.958594,18.5277778 L161.958594,18.5277778 L155.12526,18.5277778 L155.12526,38.1944444 L158.62526,38.1944444 Z M161.486372,27 L158.62526,27 L158.62526,21.4722222 L161.791927,21.4722222 C162.236372,21.4722222 162.694705,21.5092593 163.166927,21.5833333 C163.639149,21.6574074 164.060446,21.7962963 164.430816,22 C164.801186,22.2037037 165.106742,22.4768519 165.347483,22.8194444 C165.588223,23.162037 165.708594,23.6018519 165.708594,24.1388889 C165.708594,24.7314815 165.578964,25.2175926 165.319705,25.5972222 C165.060446,25.9768519 164.731742,26.2685185 164.333594,26.4722222 C163.935446,26.6759259 163.486372,26.8148148 162.986372,26.8888889 C162.486372,26.962963 161.986372,27 161.486372,27 L161.486372,27 Z M186.798872,38.1944444 C187.724797,38.1944444 188.636834,38.0972222 189.534983,37.9027778 C190.433131,37.7083333 191.229427,37.3888889 191.923872,36.9444444 C192.618316,36.5 193.178501,35.912037 193.604427,35.1805556 C194.030353,34.4490741 194.243316,33.5462963 194.243316,32.4722222 C194.243316,31.1388889 193.845168,30.0740741 193.048872,29.2777778 C192.252575,28.4814815 191.234057,28 189.993316,27.8333333 L189.993316,27.8333333 L189.993316,27.7777778 C191.011834,27.462963 191.835909,26.9444444 192.465538,26.2222222 C193.095168,25.5 193.409983,24.5833333 193.409983,23.4722222 C193.409983,22.5833333 193.234057,21.8240741 192.882205,21.1944444 C192.530353,20.5648148 192.07202,20.0509259 191.507205,19.6527778 C190.94239,19.2546296 190.298872,18.9675926 189.576649,18.7916667 C188.854427,18.6157407 188.122946,18.5277778 187.382205,18.5277778 L187.382205,18.5277778 L179.715538,18.5277778 L179.715538,38.1944444 L186.798872,38.1944444 Z M186.326649,26.5277778 L183.215538,26.5277778 L183.215538,21.4166667 L186.021094,21.4166667 C187.354427,21.4166667 188.335909,21.6018519 188.965538,21.9722222 C189.595168,22.3425926 189.909983,22.9722222 189.909983,23.8611111 C189.909983,24.712963 189.604427,25.3703704 188.993316,25.8333333 C188.382205,26.2962963 187.493316,26.5277778 186.326649,26.5277778 L186.326649,26.5277778 Z M186.354427,35.25 L183.215538,35.25 L183.215538,29.5277778 L186.493316,29.5277778 C187.919242,29.5277778 188.984057,29.7314815 189.68776,30.1388889 C190.391464,30.5462963 190.743316,31.2685185 190.743316,32.3055556 C190.743316,32.9537037 190.599797,33.4722222 190.31276,33.8611111 C190.025723,34.25 189.664612,34.5462963 189.229427,34.75 C188.794242,34.9537037 188.31739,35.087963 187.798872,35.1527778 C187.280353,35.2175926 186.798872,35.25 186.354427,35.25 L186.354427,35.25 Z M206.333594,38.1944444 L208.111372,33.6944444 L216.639149,33.6944444 L218.472483,38.1944444 L222.472483,38.1944444 L214.00026,18.5277778 L210.972483,18.5277778 L202.416927,38.1944444 L206.333594,38.1944444 Z M215.416927,30.6944444 L209.305816,30.6944444 L212.389149,22.6944444 L215.416927,30.6944444 Z M235.034983,38.1944444 L235.034983,23 L235.090538,23 L244.423872,38.1944444 L248.868316,38.1944444 L248.868316,18.5277778 L245.368316,18.5277778 L245.368316,33.25 L245.31276,33.25 L236.173872,18.5277778 L231.534983,18.5277778 L231.534983,38.1944444 L235.034983,38.1944444 Z" id="URBAN" fill="#000000" fill-rule="nonzero"></path>
            <path d="M195.451649,13.8888889 L223.229427,0 M249.271094,13.6293589 L222.468625,0.274658034" id="Combined-Shape" stroke="#000000" stroke-width="0.868055556"></path>
            <path d="M2.14609375,38.1944444 L2.14609375,21.1111111 L2.20164931,21.1111111 L9.31276042,38.1944444 L10.368316,38.1944444 L17.4794271,21.1111111 L17.5349826,21.1111111 L17.5349826,38.1944444 L19.5349826,38.1944444 L19.5349826,18.5277778 L16.4794271,18.5277778 L9.89609375,34.8055556 L9.86831597,34.8055556 L3.20164931,18.5277778 L0.14609375,18.5277778 L0.14609375,38.1944444 L2.14609375,38.1944444 Z M27.743316,38.1944444 L30.6802032,31.1169127 L39.2621997,31.1169127 L42.2155382,38.1944444 L44.4377604,38.1944444 L35.993316,18.5277778 L34.0488715,18.5277778 L25.5488715,38.1944444 L27.743316,38.1944444 Z M39.2988715,31.1319444 L30.6322049,31.1319444 L34.9655382,20.75 L39.2988715,31.1319444 Z M56.9794271,38.1944444 C58.2016493,38.1944444 59.4285012,37.9907407 60.6599826,37.5833333 C61.8914641,37.1759259 63.0025752,36.5601852 63.993316,35.7361111 C64.9840567,34.912037 65.7849826,33.8888889 66.3960938,32.6666667 C67.0072049,31.4444444 67.3127604,30.0092593 67.3127604,28.3611111 C67.3127604,26.7314815 67.0072049,25.3009259 66.3960938,24.0694444 C65.7849826,22.837963 64.9840567,21.8101852 63.993316,20.9861111 C63.0025752,20.162037 61.8914641,19.5462963 60.6599826,19.1388889 C59.4285012,18.7314815 58.2016493,18.5277778 56.9794271,18.5277778 L56.9794271,18.5277778 L50.4516493,18.5277778 L50.4516493,38.1944444 L56.9794271,38.1944444 Z M56.4238715,36.4166667 L52.4516493,36.4166667 L52.4516493,20.3055556 L56.4238715,20.3055556 C57.905353,20.3055556 59.1970197,20.537037 60.2988715,21 C61.4007234,21.462963 62.3127604,22.0694444 63.0349826,22.8194444 C63.7572049,23.5694444 64.2988715,24.4259259 64.6599826,25.3888889 C65.0210938,26.3518519 65.2016493,27.3425926 65.2016493,28.3611111 C65.2016493,29.3796296 65.0210938,30.3703704 64.6599826,31.3333333 C64.2988715,32.2962963 63.7572049,33.1527778 63.0349826,33.9027778 C62.3127604,34.6527778 61.4007234,35.2592593 60.2988715,35.7222222 C59.1970197,36.1851852 57.905353,36.4166667 56.4238715,36.4166667 L56.4238715,36.4166667 Z M76.6044271,38.1944444 L76.6044271,29 L79.9377604,29 L85.3822049,38.1944444 L87.8266493,38.1944444 L82.0766493,28.8333333 C82.7988715,28.7592593 83.4655382,28.5925926 84.0766493,28.3333333 C84.6877604,28.0740741 85.2155382,27.7268519 85.6599826,27.2916667 C86.1044271,26.8564815 86.4562789,26.3425926 86.7155382,25.75 C86.9747975,25.1574074 87.1044271,24.5 87.1044271,23.7777778 C87.1044271,22.8148148 86.9377604,22 86.6044271,21.3333333 C86.2710938,20.6666667 85.8035012,20.125 85.2016493,19.7083333 C84.5997975,19.2916667 83.8868345,18.9907407 83.0627604,18.8055556 C82.2386863,18.6203704 81.3451678,18.5277778 80.3822049,18.5277778 L80.3822049,18.5277778 L74.6044271,18.5277778 L74.6044271,38.1944444 L76.6044271,38.1944444 Z M80.0766493,27.2777778 L76.6044271,27.2777778 L76.6044271,20.25 L80.1599826,20.25 C80.9007234,20.25 81.5766493,20.3148148 82.1877604,20.4444444 C82.7988715,20.5740741 83.31739,20.7777778 83.743316,21.0555556 C84.1692419,21.3333333 84.5025752,21.6944444 84.743316,22.1388889 C84.9840567,22.5833333 85.1044271,23.1296296 85.1044271,23.7777778 C85.1044271,24.9444444 84.6692419,25.8194444 83.7988715,26.4027778 C82.9285012,26.9861111 81.6877604,27.2777778 80.0766493,27.2777778 L80.0766493,27.2777778 Z M96.368316,38.1944444 L96.368316,18.5277778 L94.368316,18.5277778 L94.368316,38.1944444 L96.368316,38.1944444 Z M111.243316,38.1944444 C112.465538,38.1944444 113.69239,37.9907407 114.923872,37.5833333 C116.155353,37.1759259 117.266464,36.5601852 118.257205,35.7361111 C119.247946,34.912037 120.048872,33.8888889 120.659983,32.6666667 C121.271094,31.4444444 121.576649,30.0092593 121.576649,28.3611111 C121.576649,26.7314815 121.271094,25.3009259 120.659983,24.0694444 C120.048872,22.837963 119.247946,21.8101852 118.257205,20.9861111 C117.266464,20.162037 116.155353,19.5462963 114.923872,19.1388889 C113.69239,18.7314815 112.465538,18.5277778 111.243316,18.5277778 L111.243316,18.5277778 L104.715538,18.5277778 L104.715538,38.1944444 L111.243316,38.1944444 Z M110.68776,36.4166667 L106.715538,36.4166667 L106.715538,20.3055556 L110.68776,20.3055556 C112.169242,20.3055556 113.460909,20.537037 114.56276,21 C115.664612,21.462963 116.576649,22.0694444 117.298872,22.8194444 C118.021094,23.5694444 118.56276,24.4259259 118.923872,25.3888889 C119.284983,26.3518519 119.465538,27.3425926 119.465538,28.3611111 C119.465538,29.3796296 119.284983,30.3703704 118.923872,31.3333333 C118.56276,32.2962963 118.021094,33.1527778 117.298872,33.9027778 C116.576649,34.6527778 115.664612,35.2592593 114.56276,35.7222222 C113.460909,36.1851852 112.169242,36.4166667 110.68776,36.4166667 L110.68776,36.4166667 Z" id="MADRID" fill="#000000" fill-rule="nonzero"></path>
        </g>
    </g>
</svg>