<?xml version="1.0" encoding="UTF-8"?> <svg xmlns="http://www.w3.org/2000/svg" width="73" height="52" viewBox="0 0 73 52" fill="none"><path fill-rule="evenodd" clip-rule="evenodd" d="M25.636 46.7114C25.4523 47.2263 25.1915 47.6696 24.8611 48.0289C24.5303 48.3887 24.1188 48.6781 23.6374 48.8886C23.1556 49.0983 22.6047 49.2047 21.9994 49.2047C21.3938 49.2047 20.8429 49.0983 20.3626 48.8886C19.8812 48.6785 19.4697 48.3895 19.1385 48.0289C18.8062 47.6684 18.5453 47.2251 18.3632 46.7118C18.1777 46.1911 18.0833 45.6154 18.0833 45.0008C18.0833 44.3862 18.1777 43.8097 18.3632 43.2882C18.5457 42.7745 18.8066 42.3312 19.1385 41.9711C19.4685 41.6117 19.8808 41.3231 20.3626 41.1126C20.8448 40.9021 21.3953 40.7957 21.9994 40.7957C22.6031 40.7957 23.154 40.9021 23.6374 41.1126C24.1195 41.3235 24.5315 41.6125 24.8611 41.9711C25.1911 42.33 25.452 42.7734 25.636 43.2882C25.8216 43.8077 25.9155 44.3838 25.9155 45.0008C25.9155 45.6177 25.8216 46.193 25.636 46.7114ZM26.9711 40.0523C26.3426 39.4177 25.5952 38.9119 24.7493 38.549C23.8994 38.1846 22.9743 38 21.9994 38C21.0238 38 20.099 38.1846 19.2504 38.549C18.4052 38.9111 17.6571 39.4173 17.0277 40.0523C16.4 40.6873 15.9003 41.4342 15.542 42.2711C15.1821 43.1119 15 44.03 15 45.0008C15 45.97 15.1821 46.8925 15.542 47.7419C15.9011 48.5905 16.4015 49.3378 17.0293 49.963C17.6563 50.5878 18.404 51.0885 19.2504 51.4514C20.099 51.8154 21.0238 52 21.9994 52C22.9743 52 23.8994 51.8154 24.7496 51.4514C25.5964 51.0877 26.3433 50.587 26.9703 49.963C27.5962 49.3386 28.0966 48.5913 28.458 47.7419C28.8175 46.8928 29 45.9704 29 45.0008C29 44.0296 28.8171 43.1119 28.4573 42.2711C28.0974 41.433 27.5973 40.6861 26.9711 40.0523Z" fill="black"></path><mask id="mask0" maskUnits="userSpaceOnUse" x="0" y="33" width="12" height="19"><path fill-rule="evenodd" clip-rule="evenodd" d="M0 33.0625H11.9998V51.6582H0V33.0625Z" fill="white"></path></mask><g mask="url(#mask0)"><path fill-rule="evenodd" clip-rule="evenodd" d="M8.78129 38.0417C6.83923 37.2017 4.63897 37.5477 3.09677 38.8458V33.0625H0V51.6582H3.09677V44.3481C3.09677 42.9562 3.43781 40.6225 6 40.6225C8.35239 40.6225 8.90323 42.6296 8.90323 44.3481V51.6582H12V43.3464C12 41.1476 10.8004 38.9149 8.78129 38.0417Z" fill="black"></path></g><path fill-rule="evenodd" clip-rule="evenodd" d="M48 49.7059V52H60V49.3235H52.1959L59.5862 41.4604V39H48.4138V41.6765H55.5931L48 49.5204" fill="black"></path><path fill-rule="evenodd" clip-rule="evenodd" d="M61 49.7059V52H73V49.3235H65.1959L72.5862 41.4604V39H61.4138V41.6765H68.5931L61 49.5204" fill="black"></path><path fill-rule="evenodd" clip-rule="evenodd" d="M40.9032 39V45.9286C40.9032 46.3035 40.851 46.6982 40.7492 47.1026C40.652 47.4898 40.4855 47.8539 40.2545 48.1863H40.2541C40.0326 48.5053 39.7346 48.7716 39.3672 48.9779C39.0099 49.1794 38.5505 49.2816 38.0004 49.2816C37.4492 49.2816 36.9893 49.1794 36.632 48.9776C36.2677 48.7739 35.9693 48.5075 35.7455 48.186C35.5152 47.8558 35.3488 47.4917 35.2508 47.103C35.1483 46.693 35.0964 46.298 35.0964 45.9286V39H32V46.2088C32 48.8929 33.2112 50.6992 35.6495 51.5967C36.3746 51.8642 37.1654 52 38.0008 52C38.835 52 39.6254 51.8642 40.3795 51.5863C43.3721 50.4787 44 48.0505 44 46.2088V39H40.9032Z" fill="black"></path><path fill-rule="evenodd" clip-rule="evenodd" d="M35.4 20.6667H42.6V31H53V13.1154L32.2 7.15385V0H25V31H35.4V20.6667Z" fill="black"></path></svg> 