<?xml version="1.0" encoding="UTF-8"?> <svg xmlns="http://www.w3.org/2000/svg" width="132" height="36" viewBox="0 0 132 36" fill="none"><path fill-rule="evenodd" clip-rule="evenodd" d="M45.6832 15.0233C46.6398 14.2869 47.4815 12.9885 47.4815 11.128C47.4815 8.02722 45.1284 6.01172 41.4745 6.01172H33.6311C33.4206 6.01172 33.2676 6.18614 33.2676 6.37994V9.24815C33.2676 9.46133 33.4398 9.61637 33.6311 9.61637H34.9128V22.9885C34.9128 24.4226 35.6015 25.1202 37.0171 25.1202H41.5511C45.645 25.1202 48.1893 22.9303 48.1893 19.4032C48.2084 17.4652 47.2328 15.7985 45.6832 15.0233ZM39.045 9.65513H41.4745C42.6606 9.65513 43.3493 10.3528 43.3493 11.5544C43.3493 12.7559 42.6415 13.5311 41.5319 13.5311H39.045V9.65513ZM39.2171 21.535H41.838C43.1963 21.535 44.0189 20.6823 43.9998 19.2482C43.9998 17.8528 43.158 16.9807 41.8189 16.9807H39.0258V21.3412C39.0258 21.4962 39.0641 21.535 39.2171 21.535Z" fill="black"></path><path d="M68.5442 6.03125H65.3303C65.1198 6.03125 64.9668 6.20567 64.9668 6.39947V9.26768C64.9668 9.48086 65.139 9.65528 65.3303 9.65528H68.5442C68.7546 9.65528 68.9077 9.48086 68.9077 9.26768V6.39947C68.9268 6.18629 68.7546 6.03125 68.5442 6.03125Z" fill="black"></path><path fill-rule="evenodd" clip-rule="evenodd" d="M90.9844 18.1814C90.9844 13.8984 93.8731 10.8945 97.9861 10.8945C101.659 10.8945 104.127 13.5689 104.127 17.5031C104.127 17.8141 104.082 18.3627 104.061 18.6215C104.055 18.7014 104.05 18.7536 104.05 18.7627C104.031 18.9565 103.878 19.1116 103.687 19.1116H95.1165C95.5374 21.1658 97.1444 21.9023 98.5983 21.9023C100.53 21.9023 101.984 20.5457 102.004 20.5263C102.08 20.4488 102.195 20.41 102.31 20.4294C102.424 20.4488 102.52 20.5069 102.577 20.6038L103.936 22.8907C104.031 23.0457 103.993 23.2395 103.878 23.3558C103.783 23.4527 101.736 25.4682 98.3687 25.4682C94.0835 25.4682 90.9844 22.4062 90.9844 18.1814ZM97.967 14.1891C96.647 14.1891 95.6905 14.8868 95.2696 16.1077H100.014C99.8226 14.9643 99.0192 14.1891 97.967 14.1891Z" fill="black"></path><path d="M66.8033 11.207H63.7424C63.5319 11.207 63.3789 11.3814 63.3789 11.5752V14.3659C63.3789 14.5791 63.5511 14.7342 63.7424 14.7342H64.7563C64.9285 14.7342 64.9476 14.7535 64.9476 14.928V24.7729C64.9476 24.9861 65.1198 25.1605 65.3111 25.1605H68.525C68.7354 25.1605 68.8885 24.9861 68.8885 24.7729V13.1644C68.9267 12.2923 68.525 11.207 66.8033 11.207Z" fill="black"></path><path d="M74.2059 6.03125H70.9729C70.7624 6.03125 70.6094 6.20567 70.6094 6.41885V24.8103C70.6094 25.0235 70.7815 25.1979 70.9729 25.1979H74.1868C74.3972 25.1979 74.5502 25.0235 74.5502 24.8103V6.39947C74.5694 6.18629 74.3972 6.03125 74.2059 6.03125Z" fill="black"></path><path d="M63.2257 21.6529H62.2118C62.0587 21.6529 62.0013 21.6142 62.0013 21.4591V11.5948C62.0013 11.3816 61.8292 11.2266 61.6187 11.2266H58.4048C58.1944 11.2266 58.0222 11.401 58.0222 11.5948V17.6607C58.0222 19.618 56.9892 21.7304 54.7318 21.7304C53.5266 21.7304 53.0866 21.1103 53.0866 19.4049V11.5948C53.0866 11.3816 52.9144 11.2266 52.7039 11.2266H49.49C49.2796 11.2266 49.1074 11.401 49.1074 11.5948V20.0832C49.1074 23.6684 50.7526 25.4901 53.9857 25.4901C55.8222 25.4901 57.2761 24.6374 58.1561 23.5909C58.2709 24.5987 59.017 25.1801 60.2222 25.1801H63.2066C63.417 25.1801 63.57 25.0056 63.57 24.7925V22.0211C63.5892 21.808 63.4361 21.6529 63.2257 21.6529Z" fill="black"></path><path fill-rule="evenodd" clip-rule="evenodd" d="M89.7207 21.6513H90.7155C90.9259 21.6513 91.079 21.8063 91.0981 22.0195V24.7714C91.0981 24.9846 90.9451 25.159 90.7346 25.159H87.7503C86.4112 25.159 85.952 24.4807 85.8181 23.9187C85.1677 24.6164 83.9816 25.4691 82.0112 25.4691C78.319 25.4691 75.832 22.5427 75.832 18.1823C75.832 13.8993 78.4338 10.8954 82.1451 10.8954C83.8668 10.8954 84.8999 11.4575 85.5886 11.9807V6.39932C85.5886 6.18614 85.7416 6.01172 85.952 6.01172H89.1659C89.3572 6.01172 89.5294 6.18614 89.5294 6.39932V21.4575C89.5294 21.6125 89.5677 21.6513 89.7207 21.6513ZM79.8494 18.2016C79.8494 20.4885 80.9781 21.9613 82.6999 21.9613C84.1155 21.9613 85.6077 20.9536 85.6077 18.1629C85.6077 16.3412 84.7277 14.4807 82.7572 14.4807C81.0164 14.4807 79.8494 15.973 79.8494 18.2016Z" fill="black"></path><path d="M114.303 11.0894C114.284 11.0894 113.959 11.0312 113.653 11.0312C112.161 11.0312 110.783 11.8452 109.884 13.163C109.884 12.2716 109.502 11.2057 107.78 11.2057H104.815C104.604 11.2057 104.451 11.3801 104.451 11.5739V14.3646C104.451 14.5778 104.623 14.7328 104.815 14.7328H105.829C106.001 14.7328 106.02 14.7522 106.02 14.9266V24.7716C106.02 24.9847 106.192 25.1592 106.383 25.1592H109.616C109.827 25.1592 109.98 24.9847 109.98 24.7716V19.4421C109.98 16.4188 111.529 15.0235 113.442 15.0235C113.863 15.0235 114.169 15.0623 114.169 15.0623C114.284 15.0816 114.38 15.0429 114.476 14.9847C114.552 14.9072 114.609 14.8103 114.609 14.694V11.4576C114.609 11.2638 114.495 11.1088 114.303 11.0894Z" fill="black"></path><path fill-rule="evenodd" clip-rule="evenodd" d="M33.0237 20.397C33.0337 20.4046 33.0392 20.4088 33.0196 20.4484C33.0157 20.4604 33.0101 20.4731 33.005 20.485C32.9967 20.5039 32.9895 20.5207 32.9911 20.5285C32.9629 20.5404 32.9358 20.5501 32.9119 20.5586C32.8857 20.568 32.8633 20.5761 32.8474 20.5841C32.8091 20.5841 32.79 20.5744 32.7757 20.5671C32.7613 20.5599 32.7518 20.555 32.7326 20.5647L32.6561 20.4872C32.5821 20.5247 32.5439 20.5169 32.509 20.5097C32.4718 20.5021 32.4383 20.4953 32.3691 20.5453L32.4074 20.5647C32.2603 20.5846 32.1937 20.6146 32.1276 20.6444C32.0647 20.6727 32.0023 20.7009 31.8718 20.7197C31.8451 20.7197 31.8169 20.7228 31.788 20.7259C31.7135 20.7338 31.6346 20.7423 31.5657 20.7004L31.2022 20.681L31.1831 20.7004C31.1257 20.7391 31.0491 20.7779 30.9535 20.7779C30.9344 20.7973 30.9344 20.8166 30.9344 20.8166C30.9152 21.1849 30.877 21.7856 30.7813 21.8825C30.7622 21.9988 30.7431 22.1732 30.7431 22.2701C30.7048 22.3283 30.7048 22.4446 30.7048 22.5221C30.7048 22.5802 30.6283 22.7934 30.6283 22.7934C30.6078 22.8817 30.5914 22.9602 30.5762 23.0331C30.5346 23.2323 30.5019 23.3893 30.4178 23.588C30.4178 23.588 30.5326 23.3554 30.437 23.7818C30.437 23.743 30.3413 23.9562 30.3031 24.0725L30.3222 24.1887C30.2457 24.305 30.1691 24.4213 30.0735 24.5376C30.0352 24.6248 29.997 24.7072 29.9587 24.7895C29.9205 24.8719 29.8822 24.9542 29.8439 25.0415C29.8248 25.0802 29.8439 25.0802 29.8631 25.0802C29.8819 25.0802 29.9007 25.0989 29.6473 25.6143C29.5635 25.7218 29.4907 25.8591 29.4026 26.0253C29.2643 26.2864 29.0881 26.6187 28.7726 27.0182C28.7312 27.0916 28.6954 27.1253 28.6561 27.1623C28.6227 27.1936 28.5869 27.2273 28.5431 27.2895C28.5546 27.2662 28.5661 27.2499 28.5651 27.249C28.5644 27.2485 28.5583 27.2547 28.5431 27.2701C28.4089 27.4146 28.3482 27.4957 28.2934 27.569C28.2232 27.6629 28.1625 27.744 27.9691 27.9291C27.9618 27.9365 27.9545 27.9467 27.9483 27.9554C27.9382 27.9696 27.9309 27.9798 27.9309 27.9678C27.8448 28.055 27.7922 28.0986 27.7396 28.1422C27.687 28.1858 27.6344 28.2294 27.5483 28.3166C27.5291 28.336 27.5148 28.3554 27.5005 28.3748C27.4861 28.3942 27.4718 28.4135 27.4526 28.4329C27.4526 28.4329 27.4526 28.4135 27.4718 28.3942C27.1465 28.7042 26.8022 28.9756 26.4578 29.2275C25.0231 30.2546 23.3205 30.8166 21.6561 30.7973H21.5605L21.5222 30.836H21.6944C21.8283 30.836 21.5796 30.8748 21.2161 30.8554C21.0248 30.836 20.6039 30.7585 20.3935 30.7004C20.2022 30.6616 20.0109 30.5841 19.8578 30.5066C19.507 30.3111 19.3813 30.1482 19.3039 30.0478C19.2969 30.0387 19.2903 30.0301 19.2839 30.0221C19.219 29.9398 19.2229 29.9134 19.2256 29.8955C19.2261 29.8923 19.2265 29.8893 19.2265 29.8864C19.2265 29.8864 19.2457 29.867 19.2265 29.8283C19.2222 29.8194 19.2158 29.8075 19.2074 29.7919C19.1792 29.7391 19.1281 29.6439 19.0544 29.4794C18.8631 29.1306 18.7865 28.7624 18.7291 28.3942L18.7674 28.3748V28.3166V28.2585C18.7483 28.2197 18.7483 28.181 18.7483 28.1422V28.1229C18.71 28.1229 18.6526 27.9678 18.6526 27.8903C18.6755 27.8209 18.6928 27.7669 18.7069 27.7235C18.7515 27.5848 18.762 27.5525 18.8057 27.4639C18.8172 27.4368 18.8286 27.4089 18.8401 27.381C18.886 27.2693 18.9319 27.1577 18.9778 27.0957C19.0352 27.0376 19.1309 26.7856 19.1883 26.6306L19.1691 26.4756H19.2457C19.2457 26.4464 19.2405 26.4243 19.2358 26.4044C19.225 26.3582 19.217 26.3243 19.2839 26.243C19.4348 26.0647 19.5527 25.8714 19.6696 25.6796C19.8196 25.4337 19.9681 25.1902 20.1831 24.9833C20.1735 24.9833 20.1687 24.9882 20.1639 24.993C20.1591 24.9978 20.1544 25.0027 20.1448 25.0027C20.3324 24.8601 20.405 24.7129 20.4754 24.5702C20.5486 24.4219 20.6194 24.2784 20.8144 24.15V24.1887C20.8716 24.1308 20.9218 24.0905 20.965 24.0559C21.023 24.0094 21.0684 23.9729 21.1013 23.9174C21.1195 23.8714 21.129 23.8735 21.1402 23.8759C21.1525 23.8785 21.1668 23.8816 21.197 23.8205C21.2544 23.7042 21.4265 23.5104 21.4648 23.4911C21.526 23.4329 21.5719 23.3887 21.6087 23.3534C21.7556 23.212 21.7556 23.212 22.0005 23.026C22.1257 22.9308 22.2254 22.8485 22.3125 22.7767C22.4382 22.673 22.5379 22.5908 22.6509 22.5221C22.7052 22.4891 22.7549 22.4623 22.8004 22.4378C22.9152 22.376 23.0033 22.3285 23.0718 22.2314C23.1573 22.11 23.3348 22.0041 23.4398 21.9415C23.4521 21.9342 23.4634 21.9274 23.4735 21.9213C23.522 21.8918 23.5754 21.8424 23.6313 21.7907C23.6856 21.7405 23.7421 21.6882 23.7987 21.65C23.8466 21.6176 23.8945 21.5684 23.941 21.5207C24.0059 21.4539 24.0682 21.39 24.1239 21.3787C24.1239 21.3787 24.1813 21.3593 24.2961 21.2818L24.2961 21.2817C24.4109 21.1849 24.4109 21.1849 24.4491 21.1655C24.4743 21.1485 24.4884 21.1315 24.5012 21.1161C24.5176 21.0965 24.5317 21.0795 24.5639 21.0686C24.6022 21.0492 24.6213 21.0686 24.6213 21.0686L24.8126 20.9717C24.8462 20.9547 24.8871 20.9377 24.9241 20.9223C24.9714 20.9027 25.0123 20.8857 25.0231 20.8748C25.0231 20.8554 25.1378 20.8748 25.1378 20.8748C25.1378 20.8748 25.1952 20.836 25.2144 20.7973C25.2239 20.7876 25.2335 20.7585 25.2431 20.7294C25.2526 20.7004 25.2622 20.6713 25.2718 20.6616C25.2718 20.6422 25.31 20.6616 25.31 20.6616L25.4439 20.6035C25.4439 20.6035 25.6352 20.4872 25.6735 20.4678C25.7022 20.4581 25.7357 20.4436 25.7691 20.4291C25.8026 20.4145 25.8361 20.4 25.8648 20.3903C25.8935 20.3806 25.8935 20.4 25.8935 20.4145C25.8935 20.4291 25.8935 20.4387 25.9222 20.4097C25.9455 20.386 25.9467 20.372 25.9476 20.361C25.949 20.3451 25.9498 20.3358 26.0178 20.3128C26.0693 20.2954 26.0823 20.2936 26.0948 20.2899C26.1101 20.2854 26.1247 20.278 26.2091 20.2353C26.3431 20.1577 26.3813 20.1384 26.5152 20.0802C26.5856 20.0497 26.619 20.0191 26.6432 19.997C26.665 19.977 26.6793 19.9639 26.7065 19.9639C26.7317 19.9554 26.7605 19.9432 26.7866 19.9322C26.82 19.918 26.8488 19.9058 26.8596 19.9058C26.8787 19.9058 26.9744 19.8864 26.9744 19.8864L27.1465 19.8477C27.1465 19.8477 27.1083 19.8089 27.1465 19.7895C27.1582 19.7777 27.1646 19.7676 27.1705 19.7583C27.1838 19.7371 27.1949 19.7195 27.2613 19.6926C27.357 19.6539 27.4909 19.5957 27.4909 19.5957C27.4909 19.5957 27.4718 19.6345 27.5483 19.5957C27.6057 19.557 27.6822 19.5182 27.6822 19.5182C27.848 19.4536 27.9968 19.4062 28.1456 19.3589C28.22 19.3352 28.2944 19.3115 28.3709 19.2856L28.5431 19.2469V19.1887V19.1694L28.5456 19.1163C28.5639 18.7254 28.583 18.3184 28.6196 17.9291C28.7033 17.0806 28.6698 16.4105 28.6601 16.2178C28.6587 16.1905 28.6578 16.1727 28.6578 16.1655C28.677 16.0492 28.6578 14.6345 28.6387 14.1306L28.677 14.0143C28.677 13.6267 28.6961 13.4329 28.7152 13.3554C28.6961 13.1616 28.677 12.8903 28.677 12.5802L28.6387 11.3787C28.6292 11.3787 28.6244 11.3787 28.622 11.3811C28.6196 11.3835 28.6196 11.3883 28.6196 11.398L28.4474 11.7081L28.4283 11.8244C28.4283 11.8632 28.4091 11.9407 28.39 11.9988L28.3326 12.212C28.3046 12.2914 28.2766 12.3741 28.2477 12.4597C28.1777 12.6664 28.1021 12.8898 28.0074 13.1228C27.7396 13.7818 27.4144 14.4601 27.1274 15.0221C27.0872 15.0628 27.0353 15.2722 26.9675 15.5455C26.8418 16.0527 26.6615 16.7799 26.4005 17.057C26.3622 17.1151 26.3239 17.1926 26.3622 17.1926C26.3123 17.2576 26.2545 17.3359 26.1927 17.4197C26.0885 17.561 25.9729 17.7177 25.8648 17.8515C25.7724 17.9763 25.702 18.1291 25.6478 18.2468C25.601 18.3484 25.5662 18.4239 25.5396 18.4329C25.3674 18.6267 25.2526 18.743 25.0422 18.9174C24.9861 18.9837 25.0031 19.0037 25.0173 19.0204C25.0321 19.0379 25.0439 19.0518 24.9657 19.1112L24.8509 19.1887C24.8318 19.2081 24.7935 19.2275 24.7552 19.2469C24.4109 19.4988 23.99 19.7895 23.4926 19.9833C23.2439 20.0802 22.9952 20.1384 22.7274 20.1577C22.6772 20.1614 22.6338 20.165 22.5949 20.1682C22.4262 20.1823 22.3436 20.1892 22.1726 20.1577C22.1121 20.1209 22.0899 20.0919 22.0623 20.0559C22.0463 20.035 22.0285 20.0118 22.0005 19.9833C21.9749 19.9704 21.9473 19.9575 21.9197 19.9446C21.8644 19.9187 21.8091 19.8929 21.7709 19.867C21.7501 19.8586 21.7285 19.8502 21.7063 19.8416C21.6263 19.8105 21.5397 19.7769 21.4648 19.7314C21.197 19.5763 20.9291 19.3244 20.7187 19.0143C20.5011 18.7291 20.412 18.5132 20.3539 18.3726C20.3252 18.303 20.304 18.2518 20.2787 18.2197C20.2898 18.175 20.2625 18.0592 20.2265 17.9059C20.2002 17.7937 20.1691 17.6613 20.1448 17.5221C20.0952 17.2371 20.0455 16.9087 20.0083 16.6622C20.0024 16.6237 19.9969 16.5871 19.9918 16.5531C19.9344 16.3205 19.9152 16.2236 19.8961 16.088C19.8961 16.0531 19.8922 16.0183 19.888 15.9799C19.8828 15.9329 19.877 15.8807 19.877 15.8166L19.8578 15.6229V15.4097L19.8387 15.119L19.7622 15.1771L19.7239 15.2353H19.7048V15.2546L19.6857 15.2934C19.6761 15.3128 19.6713 15.3273 19.6665 15.3418C19.6618 15.3564 19.657 15.3709 19.6474 15.3903H19.6283C19.6283 15.3754 19.617 15.3948 19.5858 15.4484C19.5764 15.4647 19.5651 15.4841 19.5518 15.5066C19.2285 16.2993 19.1927 16.4024 19.0273 16.8789C19.0067 16.9382 18.9841 17.0034 18.9587 17.0763L18.9205 17.0182C18.7483 17.3864 18.5378 17.8322 18.3083 18.2585C18.0978 18.6461 17.9065 18.9368 17.83 18.9949C17.9065 18.9756 17.677 19.3438 17.3518 19.7701C17.1605 20.0027 16.95 20.2546 16.7205 20.4484C16.51 20.6422 16.2996 20.7779 16.1083 20.8748C16.1931 20.8211 16.1604 20.8388 16.1176 20.862C16.0832 20.8806 16.0424 20.9028 16.0509 20.8942C15.966 20.9587 15.9576 20.9576 15.9278 20.9537C15.9039 20.9507 15.8662 20.9458 15.7639 20.9717C15.6491 21.0104 15.5344 21.0298 15.3431 21.0104C15.2474 20.9911 15.1709 20.9523 15.0944 20.9136L15.0944 20.9135C15.0434 20.8877 15.0093 20.8619 14.9753 20.836C14.9583 20.8231 14.9413 20.8102 14.9222 20.7973C14.5396 20.4872 14.2909 20.119 14.0805 19.7314C13.9848 19.5376 13.9083 19.3244 13.8509 19.1112C13.8413 19.0531 13.8318 18.9998 13.8222 18.9465C13.8126 18.8932 13.8031 18.8399 13.7935 18.7818V18.4717V17.3089L13.8891 17.0763C13.87 16.6694 13.8318 16.398 13.7744 16.1267C13.7361 15.9911 13.717 15.8554 13.6978 15.7004C13.6978 15.6638 13.7021 15.6315 13.7066 15.5974C13.7116 15.5593 13.717 15.519 13.717 15.4678V15.4291V15.2546V15.1965V15.0996V15.0027V14.9639L13.6978 14.9833L13.6022 15.119C13.5941 15.1313 13.5886 15.1392 13.5835 15.1474C13.5643 15.178 13.5507 15.2121 13.43 15.4872L13.3726 15.4484C13.2387 15.8554 13.0665 16.3787 12.9709 16.805C12.7795 17.1767 12.588 17.9123 12.3633 18.7757C12.3186 18.9477 12.2725 19.1247 12.2248 19.305C12.2158 19.3369 12.2068 19.3688 12.1978 19.4008C12.0535 19.9135 11.9052 20.4404 11.6891 20.9329C11.4405 21.4562 11.1535 21.9213 10.8283 22.2701L10.8474 22.4446C10.7326 22.5802 10.5987 22.7159 10.4457 22.8515C10.3691 22.9097 10.2735 22.9678 10.1778 23.026C10.0631 23.0841 9.89089 23.1422 9.73784 23.1229C9.69958 23.1035 9.65654 23.0841 9.61349 23.0647C9.57045 23.0453 9.52741 23.026 9.48915 23.0066C9.46651 22.9913 9.44387 22.979 9.42241 22.9674C9.38946 22.9495 9.35927 22.9331 9.3361 22.9097C9.27415 22.872 9.22023 22.8262 9.16913 22.7829C9.14133 22.7593 9.11437 22.7364 9.08741 22.7159C8.93436 22.5996 8.83871 22.4833 8.78132 22.3864C8.74848 22.3282 8.75088 22.3199 8.74919 22.3126C8.74694 22.3029 8.73747 22.2949 8.62828 22.1732C8.43697 21.9794 8.24567 21.6694 8.15002 21.4368C8.04064 21.2152 8.00075 21.1735 7.96658 21.1377C7.94696 21.1172 7.92923 21.0987 7.90132 21.0492C7.8248 20.7973 7.78654 20.526 7.74828 20.2353C7.73854 20.0972 7.73376 19.9591 7.72889 19.8185C7.72419 19.6828 7.71941 19.5447 7.71002 19.4019L7.71002 19.4019C7.69089 18.8399 7.67176 18.2779 7.67176 17.7159C7.67176 16.6112 7.67176 15.6035 7.71002 15.0027C7.69856 14.8344 7.68882 14.6696 7.67926 14.5078C7.65687 14.1291 7.63544 13.7666 7.59523 13.4135L7.5761 13.3166C7.55697 13.2779 7.55697 13.2391 7.55697 13.2391L7.53784 13.181C7.52828 13.1616 7.5235 13.1471 7.51871 13.1325C7.51393 13.118 7.50915 13.1035 7.49958 13.0841C7.49958 13.0545 7.47725 13.0362 7.45818 13.0206C7.45229 13.0157 7.44671 13.0111 7.44219 13.0066L7.40393 12.9678V12.9872V13.026L7.36567 13.1616C7.36567 13.181 7.36567 13.2197 7.34654 13.2585C7.32741 13.2973 7.32741 13.2973 7.28915 13.4135L7.28912 13.4136C7.17434 13.7818 7.05957 14.15 6.92567 14.557V14.5376C6.6961 15.1965 6.21784 16.4756 6.12219 16.4368C5.9638 16.9391 5.84011 17.3811 5.71811 17.8171C5.50121 18.5923 5.28964 19.3484 4.89784 20.3903C4.72567 20.7973 4.66828 20.9329 4.63002 21.1073C4.59176 21.243 4.5535 21.3011 4.5535 21.2818C4.43315 21.5527 4.40627 21.6532 4.36833 21.795C4.35199 21.8561 4.33359 21.9249 4.3048 22.0182L4.26654 22.0957C4.01784 22.7546 3.75002 23.6073 3.50132 24.5182C3.48482 24.5684 3.46854 24.6187 3.45222 24.6692C3.31717 25.0871 3.1793 25.5138 2.88915 25.8942C2.71697 26.1073 2.48741 26.3205 2.18132 26.398C2.02828 26.4562 1.87524 26.4562 1.72221 26.4562H1.72219C1.62654 26.4562 1.51176 26.4174 1.4161 26.3787C1.38008 26.3665 1.35159 26.3467 1.32591 26.3288C1.31068 26.3183 1.29643 26.3084 1.28219 26.3011C1.28219 26.3205 1.20567 26.2624 1.18654 26.243C1.18255 26.2349 1.17939 26.2277 1.17636 26.2207C1.16491 26.1945 1.15543 26.1727 1.11002 26.1267C0.910815 26.009 0.82685 25.8913 0.67063 25.6723C0.646819 25.6389 0.621328 25.6032 0.593495 25.5647C0.478713 25.4097 0.38306 25.2546 0.287408 25.0802C0.230017 25.0027 0.191756 24.9058 0.153495 24.7895C0.134365 24.7314 0.115234 24.6539 0.115234 24.5763V24.4213C0.128305 23.9314 0.159237 23.4505 0.183623 23.0714C0.194929 22.8956 0.204827 22.7417 0.210887 22.619L0.230017 22.5608C0.237199 22.3644 0.247078 22.381 0.25864 22.4004C0.277876 22.4328 0.301773 22.473 0.325669 21.5531V21.1849C0.38306 20.5841 0.38306 20.3128 0.3448 20.2159C0.407432 19.759 0.45366 19.701 0.494225 19.6502C0.515611 19.6233 0.535422 19.5985 0.555234 19.5182C0.631756 19.0337 0.689147 18.5686 0.746539 18.0841C0.746539 18.0726 0.748221 18.0492 0.751086 18.0093C0.757884 17.9146 0.771342 17.7272 0.7848 17.3864C0.690238 17.4463 0.69062 17.3434 0.691183 17.192C0.691531 17.0984 0.691948 16.9862 0.670017 16.8825C0.709193 16.1748 0.755055 15.5077 0.799236 14.865C0.884501 13.6247 0.963503 12.4756 0.976104 11.3011C1.04154 11.0028 1.09299 10.3076 1.14242 9.63985C1.15079 9.52677 1.1591 9.41447 1.16741 9.30502C1.20567 8.91742 1.24393 8.56859 1.30132 8.31665C1.35871 8.08409 1.43523 7.94843 1.45436 8.00657C1.45752 7.99698 1.46068 7.98726 1.46386 7.97744C1.49933 7.86818 1.53878 7.74664 1.62654 7.65773C1.64567 7.64804 1.66002 7.63835 1.67436 7.62866C1.68871 7.61897 1.70306 7.60928 1.72219 7.59959C1.74132 7.58021 1.76045 7.58021 1.77958 7.58021H1.83697C1.89436 7.58021 1.95176 7.58021 2.00915 7.56083C2.12393 7.54145 2.21958 7.5027 2.31523 7.46394C2.34894 7.45028 2.38027 7.43181 2.41257 7.41277C2.47194 7.37777 2.53459 7.34083 2.62132 7.32828C2.67871 7.3089 2.75523 7.3089 2.81263 7.32828C2.87002 7.32828 2.92741 7.34766 2.9848 7.36704C3.48219 7.46394 3.8648 7.89029 4.0561 8.43293C4.15176 8.68487 4.15176 8.97556 4.1135 9.16936L4.0561 9.67324L3.94132 9.88642C3.9228 10.2617 3.88634 10.419 3.85148 10.5693C3.81434 10.7295 3.77902 10.8819 3.76915 11.2818C3.70234 11.769 3.70086 12.02 3.69952 12.2458C3.69894 12.3434 3.6984 12.4362 3.69263 12.5415C3.68479 12.6764 3.68017 12.8145 3.67481 12.9745C3.66708 13.2053 3.65783 13.4816 3.63523 13.8593L3.59697 13.8011C3.59482 13.8273 3.59267 13.853 3.59054 13.8783C3.57378 14.0783 3.55871 14.258 3.55871 14.4988C3.54689 14.5108 3.54237 14.5376 3.53613 14.5746C3.53228 14.5975 3.52776 14.6242 3.52045 14.6539L3.50132 14.7895L3.48219 14.9058L3.52045 15.5453C3.52045 15.5534 3.52373 15.588 3.52758 15.6286C3.53302 15.6859 3.53958 15.7552 3.53958 15.7779L3.55871 15.7585L3.57784 15.7391L3.78828 15.1771C3.83531 15.0546 3.87055 14.9679 3.89564 14.9062C3.94199 14.7922 3.95373 14.7633 3.94132 14.7508C3.99759 14.6068 4.05706 14.4553 4.11818 14.2997C4.45191 13.45 4.83476 12.4752 5.01263 11.9019C5.03176 11.8632 5.03176 11.9213 5.03176 11.9213C5.2508 11.4141 5.43004 10.9184 5.58807 10.4814C5.71987 10.1169 5.83692 9.79316 5.95002 9.53758C5.97731 9.4915 5.9873 9.48486 5.99438 9.48016C6.00219 9.47496 6.00647 9.47212 6.02654 9.4213L6.14132 9.1306C6.15213 9.10431 6.16295 9.07777 6.17382 9.0511C6.25909 8.84182 6.34776 8.6242 6.46654 8.45231C6.60045 8.25851 6.7535 8.08409 6.90654 7.98719C7.05958 7.87091 7.1935 7.83215 7.25089 7.85153L7.30828 7.83215C7.42463 7.81072 7.617 7.78337 7.78193 7.75992C7.9153 7.74095 8.03073 7.72454 8.0735 7.71587C8.16915 7.69649 8.2648 7.69649 8.41784 7.69649C8.42864 7.69806 8.43981 7.69962 8.45134 7.70123C8.58285 7.71963 8.76157 7.74463 8.97263 7.85153C9.20219 7.94843 9.35524 8.08409 9.52741 8.29727C9.68045 8.49107 9.81436 8.74301 9.91002 8.97556C10.1013 9.46006 10.1778 9.96394 10.2352 10.4097C10.2352 10.6725 10.2396 10.999 10.2444 11.3606C10.2597 12.5189 10.2799 14.0381 10.1778 14.9833C10.2058 14.9408 10.2235 15.0743 10.2385 15.187C10.2441 15.2286 10.2492 15.2673 10.2544 15.2934C10.2544 15.2934 10.2352 15.274 10.2352 15.3128C10.2352 15.621 10.2627 15.7439 10.2859 15.848C10.2963 15.8945 10.3059 15.9373 10.3118 15.9911V16.3399L10.3309 16.5531C10.3309 16.5985 10.3375 16.624 10.3429 16.645C10.3467 16.66 10.35 16.6727 10.35 16.6887C10.364 16.8018 10.3881 16.884 10.4076 16.9502C10.4148 16.9748 10.4214 16.9972 10.4265 17.0182C10.4453 17.0562 10.4594 17.1685 10.4735 17.2801C10.4881 17.3963 10.5027 17.5118 10.5222 17.5415L10.5605 17.5802V17.5608L10.5987 17.4446C10.6561 17.1539 10.6944 16.9407 10.7135 16.7663L10.6752 16.5918C10.6752 16.5725 10.6752 16.5337 10.6944 16.4949L10.7326 16.3593C10.7593 16.2783 10.7859 16.1932 10.8144 16.102C10.8474 15.9966 10.8829 15.8831 10.9239 15.7585L11.1918 15.1384C11.1681 15.0424 11.3056 14.59 11.4048 14.2638C11.4659 14.063 11.5124 13.91 11.4978 13.9174C11.5276 13.8571 11.5574 13.7874 11.5854 13.7218C11.6475 13.5765 11.7011 13.451 11.7274 13.4911C11.7738 13.33 11.8362 13.1411 11.898 12.954C12.0147 12.6009 12.1291 12.2545 12.1291 12.1151C12.198 11.8942 12.2049 11.8546 12.2159 11.7914C12.2233 11.7492 12.2325 11.6965 12.2631 11.5725C12.2886 11.4756 12.312 11.3787 12.3353 11.2818C12.3821 11.088 12.4289 10.8942 12.4926 10.7004C12.5691 10.4291 12.6839 10.1577 12.8752 9.9058C13.0474 9.65386 13.3535 9.46006 13.6978 9.38254C13.9083 9.34378 14.3674 9.28564 14.5778 9.28564H14.597C14.6544 9.28564 14.7118 9.28564 14.75 9.30502C14.9796 9.34378 15.19 9.4213 15.3431 9.5182C15.5344 9.63448 15.6683 9.77014 15.7831 9.9058C15.9744 10.1771 16.1274 10.4678 16.2805 10.9911C16.3187 11.1849 16.2996 11.1849 16.2805 11.1849C16.2613 11.1849 16.2613 11.2042 16.2613 11.4174V11.4174C16.2805 11.65 16.2805 11.8825 16.2613 12.0763L16.2039 12.6577L16.1274 13.3748C16.1274 13.7575 16.1274 13.8317 16.1408 13.9034C16.1464 13.9334 16.1544 13.9629 16.1657 14.0143C16.1583 14.1713 16.1623 14.2792 16.1667 14.3982C16.1737 14.5877 16.1818 14.8052 16.1465 15.2934L16.1657 16.0104C16.1499 16.5218 16.1862 16.7169 16.2101 16.8457C16.2152 16.8731 16.2197 16.8975 16.2231 16.9213C16.2422 16.9988 16.2613 17.0763 16.2613 17.1926V17.4252V17.5802V17.619C16.2663 17.6127 16.2714 17.6062 16.2767 17.5996C16.3524 17.5043 16.4551 17.3751 16.4909 17.212C16.4976 17.2188 16.4972 17.2304 16.5006 17.2317C16.5068 17.2339 16.5256 17.2008 16.6248 17.0376L16.6057 16.9794C16.6676 16.8809 16.6804 16.8776 16.6877 16.8757C16.6961 16.8736 16.697 16.8734 16.7587 16.7275C16.8078 16.6395 16.8622 16.5462 16.9201 16.4467C17.1555 16.0423 17.4505 15.5358 17.6961 14.867C17.7057 14.8573 17.7105 14.8428 17.7152 14.8283C17.72 14.8137 17.7248 14.7992 17.7344 14.7895C17.946 14.194 17.9481 14.1914 17.976 14.1564C17.9935 14.1344 18.0211 14.0997 18.117 13.898C18.2297 13.581 18.2686 13.5295 18.2874 13.5046C18.2973 13.4915 18.3017 13.4858 18.3083 13.4523C18.3083 13.3942 18.3274 13.3166 18.3657 13.181L18.4805 12.5802C18.4805 12.5705 18.4852 12.5608 18.49 12.5511C18.4948 12.5415 18.4996 12.5318 18.4996 12.5221C18.7233 11.729 18.8561 11.2119 19.0044 10.5405C18.9889 10.6246 19.0241 10.5492 19.0735 10.2159C19.0735 10.3195 19.0847 10.2309 19.107 10.0538C19.1139 9.999 19.1218 9.93572 19.1309 9.86704C19.1485 9.77759 19.1662 9.6808 19.1839 9.58401C19.2236 9.36625 19.2633 9.14849 19.3031 9.01432V8.89804C19.3031 8.89804 19.3222 8.89804 19.3222 8.87866C19.3451 8.81665 19.3834 8.72363 19.4186 8.63805C19.4714 8.50968 19.5173 8.39804 19.4944 8.43293C19.59 8.16161 19.6857 7.96781 19.8005 7.81277C19.9152 7.65773 19.9918 7.56083 20.0874 7.46394C20.1639 7.36704 20.2596 7.27014 20.3935 7.15386C20.4062 7.1447 20.4192 7.13519 20.4326 7.12539C20.561 7.03149 20.7267 6.91031 20.9865 6.80502C21.0053 6.80027 21.0252 6.79434 21.0472 6.78783C21.1146 6.76779 21.201 6.74213 21.3309 6.7275C21.3481 6.7275 21.3682 6.72652 21.3903 6.72544C21.4666 6.72173 21.5671 6.71683 21.6561 6.74688C21.7709 6.78564 21.8857 6.86316 21.9622 6.96006C22.1152 7.13448 22.2683 7.34766 22.3257 7.56083C22.3257 7.56083 22.3448 7.58021 22.3448 7.59959V7.61897V7.63835C22.4022 7.98719 22.4213 8.33603 22.4213 8.66549C22.4213 8.99494 22.4596 9.36316 22.4978 9.73138C22.5116 9.86393 22.5266 9.99837 22.5419 10.1349C22.6113 10.757 22.6857 11.4228 22.67 12.1539C22.67 12.2785 22.6645 12.3864 22.6594 12.4866C22.655 12.5734 22.6509 12.6543 22.6509 12.7353C22.6891 13.181 22.7465 13.9174 22.67 13.6461C22.7465 14.1112 22.7848 14.3825 22.8231 14.6539C22.847 14.7672 22.8643 14.8772 22.8833 14.9979C22.9098 15.1661 22.9395 15.3552 22.9952 15.6035C23.0565 15.7524 23.055 15.7583 23.051 15.7738C23.0488 15.7825 23.0457 15.7942 23.0526 15.836C23.0909 15.9717 23.0718 16.0104 23.0718 16.0104C23.1291 16.1655 23.2057 16.3205 23.3205 16.5531C23.3205 16.5918 23.3396 16.7081 23.4352 16.8438C23.9709 16.1655 24.5831 15.3322 24.717 15.0996L24.7361 15.119C25.0805 14.5182 25.3865 13.8593 25.6926 13.181C25.9605 12.5802 26.2283 11.9601 26.4578 11.3593C26.477 11.1655 26.9361 10.0802 27.0891 9.77014C27.1065 9.74667 27.1221 9.72853 27.1392 9.70872C27.1785 9.66312 27.2253 9.60869 27.3187 9.46006C27.2996 9.44068 27.357 9.30502 27.4526 9.16936C27.4858 9.1105 27.5262 9.05163 27.5645 8.99593C27.6144 8.92327 27.6605 8.856 27.6822 8.80114C27.8055 8.63457 27.8228 8.62549 27.842 8.61546C27.8674 8.60214 27.896 8.58716 28.1796 8.20037C28.3326 8.00657 28.3518 7.87091 28.3135 7.89029L28.3135 7.89028C28.3709 7.83213 28.5048 7.69648 28.6961 7.56083C28.9065 7.42518 29.1935 7.34766 29.4422 7.34766L29.6335 7.4058L29.6909 7.38642L29.8439 7.4058L30.0352 7.46394L30.1309 7.5027C30.1253 7.49134 30.1197 7.48165 30.115 7.47363C30.1038 7.45425 30.0982 7.44456 30.1118 7.44456C30.4178 7.61897 30.5709 7.90967 30.6857 8.16161C30.7917 8.39427 30.8487 8.62694 30.902 8.84434C30.9065 8.86235 30.9108 8.88025 30.9152 8.89804C31.0109 9.38254 31.0491 9.8089 31.0683 10.2546L31.03 10.3903C31.0428 10.676 31.0385 10.7267 31.0457 10.7758C31.0493 10.7999 31.0557 10.8236 31.0683 10.8748L31.0491 11.5143C31.041 11.5309 31.0468 11.5581 31.0516 11.5808C31.0581 11.6111 31.0629 11.6334 31.03 11.6112C31.0683 12.3089 31.0683 12.7934 31.0683 12.7934C31.0683 12.7934 31.0491 13.2004 31.1065 13.3166C31.1161 13.3458 31.1209 13.3603 31.1224 13.3752C31.1268 13.4197 31.1017 13.4671 31.0874 13.9174C31.0811 14.1145 31.0687 14.372 31.0555 14.6455C31.0284 15.2059 30.998 15.8335 31.0109 16.1461C31.0235 16.2991 30.9864 17.0897 30.9486 17.8942C30.929 18.3124 30.9092 18.7344 30.8961 19.0725C30.9702 19.0725 31.0728 19.0845 31.1695 19.0958C31.3476 19.1167 31.5061 19.1352 31.4318 19.0725C31.6422 19.0531 31.8335 19.0725 32.0248 19.0918L32.0248 19.0918L32.1778 19.1112C32.2352 19.1112 32.3118 19.1112 32.3691 19.15C32.3883 19.1629 32.4095 19.1758 32.4308 19.1887C32.4733 19.2146 32.5158 19.2404 32.5413 19.2663L32.6752 19.3632C32.6901 19.4386 32.7629 19.5374 32.8396 19.6415C32.8614 19.6712 32.8836 19.7013 32.9048 19.7314C32.9813 19.867 33.0387 20.0221 32.9431 20.0221C32.9813 20.119 33.0196 20.2353 33.0005 20.3322C33.0005 20.3795 33.0141 20.3898 33.0237 20.397ZM19.0161 10.4872C19.0122 10.5051 19.0083 10.5228 19.0044 10.5405C19.0069 10.5268 19.0108 10.5089 19.0161 10.4872ZM29.6473 25.6143C29.6428 25.6234 29.6382 25.6328 29.6335 25.6422L29.6718 25.5841C29.6635 25.5939 29.6553 25.6039 29.6473 25.6143ZM33.0556 20.5023C33.0094 20.534 32.9932 20.5383 32.9911 20.5285C33.0068 20.5219 33.0227 20.5147 33.0387 20.5066C33.0445 20.5066 33.0503 20.5048 33.0556 20.5023ZM33.077 20.4872C33.0692 20.4928 33.0621 20.4978 33.0556 20.5023C33.0677 20.4966 33.077 20.4872 33.077 20.4872ZM28.0938 22.1276L28.1031 22.0763C28.1605 21.8244 28.2178 21.5725 28.237 21.2818C28.2115 21.2947 28.186 21.2904 28.1605 21.2861C28.1477 21.2839 28.1349 21.2818 28.1222 21.2818H28.0839L27.9118 21.3399C27.8459 21.3685 27.7616 21.3736 27.6838 21.3784C27.6033 21.3834 27.5298 21.3879 27.4909 21.4174C27.4357 21.451 27.4314 21.4587 27.423 21.4742C27.4169 21.4855 27.4084 21.5009 27.3761 21.5337C27.3244 21.5861 27.2201 21.5942 27.1462 21.6C27.1108 21.6027 27.0824 21.6049 27.07 21.6112C27.0413 21.6306 27.0605 21.6306 27.0772 21.6306C27.0939 21.6306 27.1083 21.6306 27.07 21.65C26.9935 21.6887 26.9744 21.6887 26.9744 21.6887C26.9744 21.6887 26.9552 21.7663 26.9361 21.7663C26.9262 21.7763 26.849 21.7864 26.7718 21.7965C26.7005 21.8058 26.6293 21.8151 26.6109 21.8244C26.595 21.8324 26.5496 21.8471 26.4965 21.8643C26.4213 21.8886 26.3305 21.918 26.2857 21.9407C26.19 21.9601 26.1135 21.9794 26.1135 21.9794C26.1135 21.9794 26.0944 22.0376 25.9987 22.0957C25.9434 22.1293 25.869 22.1565 25.8123 22.1771C25.7709 22.1922 25.739 22.2038 25.7309 22.212C25.7118 22.212 25.5587 22.3283 25.5396 22.3477C25.5205 22.367 25.3483 22.4252 25.3483 22.4252C25.3483 22.4252 25.3291 22.3864 25.2718 22.4252C25.2412 22.4458 25.2324 22.4609 25.225 22.4735C25.2185 22.4845 25.2132 22.4936 25.1952 22.5027C25.157 22.5221 24.9083 22.6577 24.8509 22.6965C24.8198 22.707 24.7719 22.7459 24.7194 22.7886C24.6748 22.8247 24.6269 22.8636 24.5831 22.8903C24.4874 22.9484 24.3726 23.026 24.2578 23.1422C24.1947 23.2062 24.1257 23.2409 24.0636 23.272C24.013 23.2975 23.967 23.3206 23.9326 23.3554C23.887 23.4132 23.8822 23.4158 23.8654 23.425C23.8541 23.4312 23.8373 23.4404 23.7987 23.4717C23.6839 23.5686 23.6457 23.5686 23.6457 23.5686C23.6581 23.5812 23.6058 23.6184 23.5413 23.6643C23.5067 23.6889 23.4686 23.7159 23.4352 23.743C23.4352 23.7236 23.3587 23.743 23.3205 23.7624C23.3022 23.7994 23.2709 23.8231 23.2348 23.8505C23.1953 23.8805 23.15 23.9148 23.11 23.9756C23.0684 24.0493 23.0155 24.1002 22.9605 24.153C22.9143 24.1974 22.8667 24.2431 22.8231 24.305C22.7615 24.3924 22.6682 24.5119 22.5942 24.6066C22.5533 24.659 22.5183 24.7038 22.4978 24.7314C22.4848 24.749 22.4698 24.7745 22.4518 24.8054C22.3902 24.9104 22.2927 25.0766 22.1152 25.1965C21.9813 25.3322 21.8665 25.5453 21.8091 25.6616L21.6944 25.8166L21.6178 25.9911H21.5987C21.5645 26.0344 21.5188 26.1126 21.4771 26.184C21.4254 26.2724 21.3797 26.3506 21.3691 26.3399C21.357 26.3893 21.3389 26.4387 21.3225 26.4837C21.2874 26.58 21.2596 26.6562 21.3118 26.6694V26.8244C21.3118 26.8325 21.2982 26.8612 21.2812 26.8975C21.2576 26.9475 21.2272 27.012 21.2161 27.057C21.2046 27.0918 21.1931 27.1058 21.1817 27.1198C21.174 27.1291 21.1664 27.1384 21.1587 27.1539C21.1508 27.1619 21.1626 27.1799 21.1763 27.201C21.1958 27.2308 21.2194 27.2668 21.197 27.2895C21.1874 27.3089 21.1874 27.338 21.1874 27.3791C21.1874 27.4203 21.1874 27.4736 21.1778 27.5415C21.1874 27.6189 21.197 27.7013 21.2065 27.7836C21.2161 27.866 21.2257 27.9484 21.2352 28.026C21.246 28.0914 21.2628 28.1507 21.2789 28.2073C21.2914 28.2513 21.3034 28.2937 21.3118 28.336C21.3297 28.3965 21.3401 28.4531 21.3501 28.5072C21.3721 28.6265 21.3918 28.7332 21.4839 28.8399C21.6178 28.9949 21.8091 29.1112 22.0387 29.1887C22.2683 29.2663 22.5361 29.305 22.8231 29.305C23.1483 29.305 23.4352 29.2663 23.7222 29.1887H23.9135C24.1431 29.0918 24.277 29.0337 24.43 28.9368C24.4687 28.9123 24.5099 28.8878 24.5547 28.8611C24.6872 28.7822 24.8518 28.6842 25.0805 28.5104C25.6161 28.1035 26.037 27.5996 26.3813 27.057C26.7257 26.5337 27.0891 25.9523 27.2996 25.3709C27.7143 24.2253 27.8875 23.2677 28.0938 22.1276Z" fill="black"></path><path d="M112.678 23.6836H111.76C111.607 23.6836 111.492 23.7999 111.492 23.9549V24.9045C111.492 25.0596 111.607 25.1758 111.76 25.1758H112.678C112.831 25.1758 112.946 25.0596 112.946 24.9045V23.9549C112.927 23.7999 112.812 23.6836 112.678 23.6836Z" fill="black"></path><path d="M117.749 23.4912C117.711 23.4137 117.634 23.3556 117.558 23.3556C117.481 23.3362 117.385 23.3749 117.328 23.4331C117.328 23.4331 116.831 23.9757 116.104 23.9757C115.319 23.9757 114.745 23.3943 114.745 22.5804C114.745 21.7858 115.3 21.185 116.084 21.185C116.735 21.185 117.156 21.6308 117.156 21.6308C117.213 21.6889 117.29 21.7277 117.366 21.7083C117.443 21.7083 117.519 21.6695 117.558 21.592L117.978 20.9718C118.055 20.8749 118.036 20.7393 117.959 20.6424C117.94 20.6036 117.29 19.8672 116.027 19.8672C114.478 19.8672 113.311 21.03 113.311 22.561C113.311 24.1308 114.458 25.2742 116.027 25.2742C117.328 25.2742 118.036 24.4796 118.055 24.4408C118.131 24.3633 118.131 24.2277 118.093 24.1308L117.749 23.4912Z" fill="black"></path><path fill-rule="evenodd" clip-rule="evenodd" d="M118.379 22.561C118.379 21.0494 119.584 19.8672 121.115 19.8672C122.645 19.8672 123.85 21.0494 123.85 22.561C123.85 24.092 122.645 25.2742 121.115 25.2742C119.584 25.2742 118.379 24.0726 118.379 22.561ZM119.795 22.5804C119.795 23.3749 120.368 23.9757 121.115 23.9757C121.861 23.9757 122.435 23.3749 122.435 22.5804C122.435 21.7858 121.861 21.185 121.115 21.185C120.368 21.185 119.795 21.7858 119.795 22.5804Z" fill="black"></path><path d="M130.125 19.8672C129.532 19.8672 128.939 20.1579 128.538 20.623C128.27 20.1191 127.772 19.8672 127.084 19.8672C126.567 19.8672 126.108 20.0997 125.764 20.3904V20.2354C125.764 20.0804 125.649 19.9641 125.496 19.9641H124.635C124.482 19.9641 124.367 20.0804 124.367 20.2354V24.8866C124.367 25.0416 124.482 25.1579 124.635 25.1579H125.515C125.668 25.1579 125.783 25.0416 125.783 24.8866V22.7548C125.783 22.5804 125.783 22.3866 125.821 22.2121C125.936 21.747 126.299 21.185 126.873 21.185C127.237 21.185 127.409 21.3207 127.409 22.0765V24.8672C127.409 25.0222 127.524 25.1385 127.677 25.1385H128.557C128.71 25.1385 128.825 25.0222 128.825 24.8672V22.7354C128.825 22.5028 128.844 22.309 128.882 22.154C129.016 21.6695 129.379 21.1656 129.915 21.1656C130.278 21.1656 130.47 21.3013 130.47 22.0571V24.8478C130.47 25.0028 130.585 25.1191 130.738 25.1191H131.618C131.771 25.1191 131.885 25.0028 131.885 24.8478V21.8633C131.905 20.2354 130.948 19.8672 130.125 19.8672Z" fill="black"></path></svg> 