<?xml version="1.0" standalone="no"?>
<!DOCTYPE svg PUBLIC "-//W3C//DTD SVG 1.1//EN" "http://www.w3.org/Graphics/SVG/1.1/DTD/svg11.dtd" >
<svg xmlns="http://www.w3.org/2000/svg" xmlns:xlink="http://www.w3.org/1999/xlink" version="1.1">
<metadata>
Created by FontForge 20170924 at Mon May  4 11:16:12 2015
 By www-data
This typeface is an exclusive design for Chanel. It must not be used for any other purposes than design works done, or commissioned, by Chanel.
</metadata>
<defs>
<font id="ABChanelPBSemiBoldM" horiz-adv-x="817" >
  <font-face 
    font-family="ABChanel PB SemiBold M"
    font-weight="600"
    font-stretch="normal"
    units-per-em="1000"
    panose-1="2 11 7 5 3 1 1 2 0 1"
    ascent="700"
    descent="-300"
    x-height="700"
    cap-height="700"
    bbox="-144 -300 1521 1103"
    underline-thickness="0"
    underline-position="0"
    unicode-range="U+0020-FB02"
  />
<missing-glyph horiz-adv-x="612" 
d="M121 0v700h370v-700h-370zM172 653v-606h268v606h-268z" />
    <glyph glyph-name=".notdef" horiz-adv-x="612" 
d="M121 0v700h370v-700h-370zM172 653v-606h268v606h-268z" />
    <glyph glyph-name=".null" horiz-adv-x="0" 
 />
    <glyph glyph-name=".null" horiz-adv-x="0" 
 />
    <glyph glyph-name="space" unicode=" " horiz-adv-x="364" 
 />
    <glyph glyph-name="A" unicode="A" horiz-adv-x="842" 
d="M684 0l-66 147h-398l-65 -147h-137l320 700h167l319 -700h-140zM419 597l-146 -329h292z" />
    <glyph glyph-name="B" unicode="B" horiz-adv-x="846" 
d="M664 374c62 -37 93 -92 93 -164c0 -114 -69 -187 -174 -204c-29 -6 -53 -6 -113 -6h-336v700h336c55 -1 77 -3 104 -8c88 -17 150 -89 150 -183c0 -59 -21 -106 -60 -135zM261 585v-173h233c55 0 104 22 104 85c0 71 -48 88 -109 88h-228zM261 298v-183h266
c59 0 104 27 104 94c0 65 -46 89 -105 89h-265z" />
    <glyph glyph-name="C" unicode="C" horiz-adv-x="879" 
d="M802 528l-111 -64c-48 81 -119 125 -228 125c-145 0 -247 -100 -247 -238c0 -135 95 -240 256 -240c101 0 180 43 226 139l114 -60c-66 -124 -178 -203 -340 -203c-224 0 -384 148 -384 364c0 211 163 362 375 362c140 0 275 -57 339 -185z" />
    <glyph glyph-name="D" unicode="D" horiz-adv-x="912" 
d="M134 700h295c64 0 130 -9 186 -31c123 -49 209 -153 209 -317c0 -166 -88 -278 -221 -325c-50 -18 -110 -27 -171 -27h-298v700zM263 576v-452h168c54 0 107 10 151 31c68 34 115 95 115 197c0 103 -48 164 -117 195c-44 20 -97 29 -151 29h-166z" />
    <glyph glyph-name="E" unicode="E" 
d="M134 700h574v-123h-448v-161h393v-122h-393v-171h462v-123h-588v700z" />
    <glyph glyph-name="F" unicode="F" horiz-adv-x="753" 
d="M134 700h553v-125h-425v-169h378v-124h-378v-282h-128v700z" />
    <glyph glyph-name="G" unicode="G" horiz-adv-x="919" 
d="M793 554l-108 -65c-48 66 -117 100 -215 100c-146 0 -254 -96 -254 -238c0 -152 110 -241 271 -241c71 0 139 10 189 51v93h-255v122h376v-275c-63 -53 -140 -114 -312 -114c-224 0 -397 134 -397 364c0 213 169 362 382 362c142 0 247 -45 323 -159z" />
    <glyph glyph-name="H" unicode="H" horiz-adv-x="927" 
d="M134 700h132v-276h396v276h131v-700h-131v299h-396v-299h-132v700z" />
    <glyph glyph-name="I" unicode="I" horiz-adv-x="403" 
d="M134 700h135v-700h-135v700z" />
    <glyph glyph-name="J" unicode="J" horiz-adv-x="785" 
d="M527 700h130v-439c0 -175 -134 -274 -302 -274c-161 0 -286 81 -316 253l124 39c15 -109 84 -167 194 -167c102 0 170 58 170 152v436z" />
    <glyph glyph-name="K" unicode="K" horiz-adv-x="827" 
d="M764 700l-333 -299l362 -401h-172l-280 320l-80 -72v-248h-127v700h127v-305l329 305h174z" />
    <glyph glyph-name="L" unicode="L" horiz-adv-x="722" 
d="M134 700h132v-574h413v-126h-545v700z" />
    <glyph glyph-name="M" unicode="M" horiz-adv-x="1135" 
d="M513 0l-251 589v-589h-128v700h214l222 -527l222 527h209v-700h-127v585l-250 -585h-111z" />
    <glyph glyph-name="N" unicode="N" horiz-adv-x="942" 
d="M134 0v700h179l368 -470v470h127v-700h-109l-437 557v-557h-128z" />
    <glyph glyph-name="O" unicode="O" horiz-adv-x="936" 
d="M467 713c222 0 381 -151 381 -362c0 -218 -165 -364 -381 -364c-213 0 -379 146 -379 364c0 216 169 362 379 362zM467 589c-154 0 -250 -103 -250 -238c0 -143 104 -240 250 -240c149 0 252 97 252 240c0 135 -97 238 -252 238z" />
    <glyph glyph-name="P" unicode="P" horiz-adv-x="837" 
d="M134 700h371c52 0 103 -7 144 -27c74 -35 126 -104 126 -207c0 -113 -61 -185 -148 -215c-37 -14 -78 -17 -122 -17h-244v-234h-127v700zM261 577v-220h237c27 0 55 1 78 7c43 12 73 42 73 102c0 53 -26 85 -67 100c-23 9 -54 11 -83 11h-238z" />
    <glyph glyph-name="Q" unicode="Q" horiz-adv-x="936" 
d="M467 713c222 0 381 -151 381 -362c0 -111 -47 -203 -119 -267l119 -121h-169l-54 56c-49 -20 -103 -32 -158 -32c-213 0 -379 146 -379 364c0 216 169 362 379 362zM467 589c-154 0 -251 -103 -251 -238c0 -143 105 -240 251 -240c22 0 43 2 63 6l-51 53l108 60l57 -59
c48 42 75 105 75 180c0 135 -97 238 -252 238z" />
    <glyph glyph-name="R" unicode="R" horiz-adv-x="876" 
d="M134 700h370c54 0 109 -7 153 -28c72 -33 124 -102 124 -206c0 -98 -38 -179 -148 -220l176 -246h-160l-162 227h-226v-227h-127v700zM261 348h239c33 0 62 2 85 11c43 14 70 47 70 106c0 53 -24 83 -63 99c-25 11 -57 13 -93 13h-238v-229z" />
    <glyph glyph-name="S" unicode="S" 
d="M709 597l-94 -82c-47 52 -116 78 -211 78c-126 0 -162 -46 -162 -83c0 -61 63 -80 162 -89l78 -7c144 -13 242 -75 242 -206c0 -117 -93 -221 -305 -221c-133 0 -249 35 -328 130l98 82c63 -69 134 -92 237 -92c121 0 170 46 170 97c0 56 -49 84 -145 93l-83 8
c-147 14 -254 62 -254 199c0 120 99 209 295 209c115 0 226 -33 300 -116z" />
    <glyph glyph-name="T" unicode="T" horiz-adv-x="745" 
d="M41 700h663v-124h-266v-576h-131v576h-266v124z" />
    <glyph glyph-name="U" unicode="U" horiz-adv-x="917" 
d="M128 700h131v-386c0 -44 7 -81 23 -112c30 -59 84 -90 177 -90s147 32 177 91c16 30 23 67 23 111v386h130v-390c0 -59 -7 -111 -28 -155c-49 -108 -152 -168 -302 -168c-145 0 -251 60 -303 169c-21 45 -28 95 -28 154v390z" />
    <glyph glyph-name="V" unicode="V" horiz-adv-x="859" 
d="M348 0l-319 700h150l253 -580l253 580h145l-317 -700h-165z" />
    <glyph glyph-name="W" unicode="W" horiz-adv-x="1255" 
d="M628 550l-182 -550h-163l-237 700h141l179 -564l187 564h152l185 -564l179 564h140l-236 -700h-165z" />
    <glyph glyph-name="X" unicode="X" horiz-adv-x="789" 
d="M216 700l183 -239l184 239h160l-264 -335l288 -365h-160l-214 275l-209 -275h-162l291 371l-259 329h162z" />
    <glyph glyph-name="Y" unicode="Y" horiz-adv-x="778" 
d="M6 700h171l213 -253l216 253h166l-320 -369v-331h-130v331z" />
    <glyph glyph-name="Z" unicode="Z" horiz-adv-x="839" 
d="M730 700v-125l-457 -450h462v-125h-636v123l462 454h-438v123h607z" />
    <glyph glyph-name="Agrave" unicode="&#xc0;" horiz-adv-x="842" 
d="M684 0l-66 147h-398l-65 -147h-137l320 700h167l319 -700h-140zM419 597l-146 -329h292zM439 888l102 -118h-167l-110 118h175z" />
    <glyph glyph-name="Aacute" unicode="&#xc1;" horiz-adv-x="842" 
d="M684 0l-66 147h-398l-65 -147h-137l320 700h167l319 -700h-140zM419 597l-146 -329h292zM306 770l102 118h175l-110 -118h-167z" />
    <glyph glyph-name="Acircumflex" unicode="&#xc2;" horiz-adv-x="842" 
d="M684 0l-66 147h-398l-65 -147h-137l320 700h167l319 -700h-140zM419 597l-146 -329h292zM484 770l-61 62l-61 -62h-155l120 118h192l120 -118h-155z" />
    <glyph glyph-name="Atilde" unicode="&#xc3;" horiz-adv-x="842" 
d="M684 0l-66 147h-398l-65 -147h-137l320 700h167l319 -700h-140zM419 597l-146 -329h292zM590 894v-26c0 -72 -31 -109 -88 -109c-17 0 -39 3 -62 14l-41 19c-13 6 -22 8 -30 8c-19 0 -29 -14 -29 -37h-88v25c0 73 31 110 88 110c22 0 41 -5 63 -15l41 -19
c13 -6 21 -7 28 -7c19 0 30 14 30 37h88z" />
    <glyph glyph-name="Adieresis" unicode="&#xc4;" horiz-adv-x="842" 
d="M684 0l-66 147h-398l-65 -147h-137l320 700h167l319 -700h-140zM419 597l-146 -329h292zM582 765h-129v129h129v-129zM393 765h-128v129h128v-129z" />
    <glyph glyph-name="Amacron" unicode="&#x100;" horiz-adv-x="842" 
d="M684 0l-66 147h-398l-65 -147h-137l320 700h167l319 -700h-140zM419 597l-146 -329h292zM570 778h-293v103h293v-103z" />
    <glyph glyph-name="Abreve" unicode="&#x102;" horiz-adv-x="842" 
d="M684 0l-66 147h-398l-65 -147h-137l320 700h167l319 -700h-140zM419 597l-146 -329h292zM486 907h106v-15c0 -85 -62 -144 -171 -144c-112 0 -172 59 -172 144v15h108v-12c0 -36 28 -56 64 -56c35 0 65 20 65 56v12z" />
    <glyph glyph-name="Aring" unicode="&#xc5;" horiz-adv-x="842" 
d="M684 0l-66 147h-398l-65 -147h-137l320 700h167l319 -700h-140zM419 597l-146 -329h292zM423 751c-58 0 -100 40 -100 95s43 96 99 96c58 0 101 -41 101 -96s-42 -95 -100 -95zM386 846c0 -21 14 -36 36 -36s37 15 37 36c0 20 -15 35 -37 35c-21 0 -36 -15 -36 -35z" />
    <glyph glyph-name="Aringacute" unicode="&#x1fa;" horiz-adv-x="842" 
d="M684 0l-66 147h-398l-65 -147h-137l320 700h167l319 -700h-140zM419 597l-146 -329h292zM424 751c-58 0 -100 40 -100 95s43 96 99 96c58 0 101 -41 101 -96s-42 -95 -100 -95zM320 985l102 118h175l-110 -118h-167zM387 846c0 -21 14 -36 36 -36s37 15 37 36
c0 20 -15 35 -37 35c-21 0 -36 -15 -36 -35z" />
    <glyph glyph-name="Aogonek" unicode="&#x104;" horiz-adv-x="842" 
d="M684 0l-66 147h-398l-65 -147h-137l320 700h167l319 -700h-3c-41 -16 -70 -47 -70 -87s26 -54 52 -54c18 0 31 5 42 15l45 -98c-36 -19 -67 -24 -106 -24c-94 0 -150 55 -150 132c0 56 32 95 72 116h-22zM419 597l-146 -329h292z" />
    <glyph glyph-name="AE" unicode="&#xc6;" horiz-adv-x="1173" 
d="M408 700h656v-123h-413v-161h352v-122h-352v-171h427v-123h-552v152h-297l-91 -152h-147zM526 644l-224 -371h224v371z" />
    <glyph glyph-name="AEacute" unicode="&#x1fc;" horiz-adv-x="1173" 
d="M408 700h656v-123h-413v-161h352v-122h-352v-171h427v-123h-552v152h-297l-91 -152h-147zM526 644l-224 -371h224v371zM575 770l102 118h175l-110 -118h-167z" />
    <glyph glyph-name="Cacute" unicode="&#x106;" horiz-adv-x="879" 
d="M802 528l-111 -64c-48 81 -119 125 -228 125c-145 0 -247 -100 -247 -238c0 -135 95 -240 256 -240c101 0 180 43 226 139l114 -60c-66 -124 -178 -203 -340 -203c-224 0 -384 148 -384 364c0 211 163 362 375 362c140 0 275 -57 339 -185zM360 770l102 118h175
l-110 -118h-167z" />
    <glyph glyph-name="Ccircumflex" unicode="&#x108;" horiz-adv-x="879" 
d="M802 528l-111 -64c-48 81 -119 125 -228 125c-145 0 -247 -100 -247 -238c0 -135 95 -240 256 -240c101 0 180 43 226 139l114 -60c-66 -124 -178 -203 -340 -203c-224 0 -384 148 -384 364c0 211 163 362 375 362c140 0 275 -57 339 -185zM524 770l-61 62l-61 -62h-155
l120 118h192l120 -118h-155z" />
    <glyph glyph-name="Ccaron" unicode="&#x10c;" horiz-adv-x="879" 
d="M802 528l-111 -64c-48 81 -119 125 -228 125c-145 0 -247 -100 -247 -238c0 -135 95 -240 256 -240c101 0 180 43 226 139l114 -60c-66 -124 -178 -203 -340 -203c-224 0 -384 148 -384 364c0 211 163 362 375 362c140 0 275 -57 339 -185zM397 888l61 -63l61 63h155
l-120 -118h-192l-120 118h155z" />
    <glyph glyph-name="Cdotaccent" unicode="&#x10a;" horiz-adv-x="879" 
d="M802 528l-111 -64c-48 81 -119 125 -228 125c-145 0 -247 -100 -247 -238c0 -135 95 -240 256 -240c101 0 180 43 226 139l114 -60c-66 -124 -178 -203 -340 -203c-224 0 -384 148 -384 364c0 211 163 362 375 362c140 0 275 -57 339 -185zM533 772h-139v136h139v-136z
" />
    <glyph glyph-name="Ccedilla" unicode="&#xc7;" horiz-adv-x="879" 
d="M802 528l-111 -64c-48 81 -119 125 -228 125c-145 0 -247 -100 -247 -238c0 -135 95 -240 256 -240c101 0 180 43 226 139l114 -60c-66 -124 -178 -203 -340 -203c-224 0 -384 148 -384 364c0 211 163 362 375 362c140 0 275 -57 339 -185zM350 -265l41 213h133l-54 -213
h-120z" />
    <glyph glyph-name="Dcaron" unicode="&#x10e;" horiz-adv-x="912" 
d="M134 700h295c64 0 130 -9 186 -31c123 -49 209 -153 209 -317c0 -166 -88 -278 -221 -325c-50 -18 -110 -27 -171 -27h-298v700zM263 576v-452h168c54 0 107 10 151 31c68 34 115 95 115 197c0 103 -48 164 -117 195c-44 20 -97 29 -151 29h-166zM404 888l61 -63l61 63
h155l-120 -118h-192l-120 118h155z" />
    <glyph glyph-name="Dcroat" unicode="&#x110;" horiz-adv-x="912" 
d="M134 700h295c64 0 130 -9 186 -31c123 -49 209 -153 209 -317c0 -166 -88 -278 -221 -325c-50 -18 -110 -27 -171 -27h-298v291h-44v123h44v286zM260 576v-162h185v-123h-185v-167h171c44 0 89 5 127 19c82 31 139 97 139 209c0 109 -52 173 -129 203
c-41 16 -91 21 -139 21h-169z" />
    <glyph glyph-name="Egrave" unicode="&#xc8;" 
d="M134 700h574v-123h-448v-161h393v-122h-393v-171h462v-123h-588v700zM445 888l102 -118h-167l-110 118h175z" />
    <glyph glyph-name="Eacute" unicode="&#xc9;" 
d="M134 700h574v-123h-448v-161h393v-122h-393v-171h462v-123h-588v700zM323 770l102 118h175l-110 -118h-167z" />
    <glyph glyph-name="Ecircumflex" unicode="&#xca;" 
d="M134 700h574v-123h-448v-161h393v-122h-393v-171h462v-123h-588v700zM491 770l-61 62l-61 -62h-155l120 118h192l120 -118h-155z" />
    <glyph glyph-name="Ecaron" unicode="&#x11a;" 
d="M134 700h574v-123h-448v-161h393v-122h-393v-171h462v-123h-588v700zM369 888l61 -63l61 63h155l-120 -118h-192l-120 118h155z" />
    <glyph glyph-name="Edieresis" unicode="&#xcb;" 
d="M134 700h574v-123h-448v-161h393v-122h-393v-171h462v-123h-588v700zM400 765h-128v129h128v-129zM589 765h-129v129h129v-129z" />
    <glyph glyph-name="Emacron" unicode="&#x112;" 
d="M134 700h574v-123h-448v-161h393v-122h-393v-171h462v-123h-588v700zM577 778h-293v103h293v-103z" />
    <glyph glyph-name="Ebreve" unicode="&#x114;" 
d="M134 700h574v-123h-448v-161h393v-122h-393v-171h462v-123h-588v700zM493 907h106v-15c0 -85 -62 -144 -171 -144c-112 0 -172 59 -172 144v15h108v-12c0 -36 28 -56 64 -56c35 0 65 20 65 56v12z" />
    <glyph glyph-name="Edotaccent" unicode="&#x116;" 
d="M134 700h574v-123h-448v-161h393v-122h-393v-171h462v-123h-588v700zM505 772h-139v136h139v-136z" />
    <glyph glyph-name="Eogonek" unicode="&#x118;" 
d="M686 -248c-94 0 -150 55 -150 132c0 56 32 95 72 116h-474v700h574v-123h-448v-161h393v-122h-393v-171h462v-123h1c-41 -16 -70 -47 -70 -87s26 -54 52 -54c18 0 31 5 42 15l45 -98c-36 -19 -67 -24 -106 -24z" />
    <glyph glyph-name="fi.cap" horiz-adv-x="1203" 
d="M134 700h553v-125h-425v-169h378v-124h-378v-282h-128v700zM934 700h135v-700h-135v700z" />
    <glyph glyph-name="fl.cap" horiz-adv-x="1522" 
d="M134 700h553v-125h-425v-169h378v-124h-378v-282h-128v700zM934 700h132v-574h413v-126h-545v700z" />
    <glyph glyph-name="Gcircumflex" unicode="&#x11c;" horiz-adv-x="919" 
d="M793 554l-108 -65c-48 66 -117 100 -215 100c-146 0 -254 -96 -254 -238c0 -152 110 -241 271 -241c71 0 139 10 189 51v93h-255v122h376v-275c-63 -53 -140 -114 -312 -114c-224 0 -397 134 -397 364c0 213 169 362 382 362c142 0 247 -45 323 -159zM540 770l-61 62
l-61 -62h-155l120 118h192l120 -118h-155z" />
    <glyph glyph-name="Gbreve" unicode="&#x11e;" horiz-adv-x="919" 
d="M793 554l-108 -65c-48 66 -117 100 -215 100c-146 0 -254 -96 -254 -238c0 -152 110 -241 271 -241c71 0 139 10 189 51v93h-255v122h376v-275c-63 -53 -140 -114 -312 -114c-224 0 -397 134 -397 364c0 213 169 362 382 362c142 0 247 -45 323 -159zM540 907h106v-15
c0 -85 -62 -144 -171 -144c-112 0 -172 59 -172 144v15h108v-12c0 -36 28 -56 64 -56c35 0 65 20 65 56v12z" />
    <glyph glyph-name="Gdotaccent" unicode="&#x120;" horiz-adv-x="919" 
d="M793 554l-108 -65c-48 66 -117 100 -215 100c-146 0 -254 -96 -254 -238c0 -152 110 -241 271 -241c71 0 139 10 189 51v93h-255v122h376v-275c-63 -53 -140 -114 -312 -114c-224 0 -397 134 -397 364c0 213 169 362 382 362c142 0 247 -45 323 -159zM544 772h-139v136
h139v-136z" />
    <glyph glyph-name="Gcommaaccent" unicode="&#x122;" horiz-adv-x="919" 
d="M793 554l-108 -65c-48 66 -117 100 -215 100c-146 0 -254 -96 -254 -238c0 -152 110 -241 271 -241c71 0 139 10 189 51v93h-255v122h376v-275c-63 -53 -140 -114 -312 -114c-224 0 -397 134 -397 364c0 213 169 362 382 362c142 0 247 -45 323 -159zM562 -67l-70 -233
h-104l25 233h149z" />
    <glyph glyph-name="Hcircumflex" unicode="&#x124;" horiz-adv-x="927" 
d="M134 700h132v-276h396v276h131v-700h-131v299h-396v-299h-132v700zM527 770l-61 62l-61 -62h-155l120 118h192l120 -118h-155z" />
    <glyph glyph-name="Hbar" unicode="&#x126;" horiz-adv-x="927" 
d="M134 700h129v-80h402v80h128v-80h75v-115h-75v-505h-128v299h-402v-299h-129v505h-74v115h74v80zM263 414h402v91h-402v-91z" />
    <glyph glyph-name="Igrave" unicode="&#xcc;" horiz-adv-x="403" 
d="M134 700h135v-700h-135v700zM215 888l102 -118h-167l-110 118h175z" />
    <glyph glyph-name="Iacute" unicode="&#xcd;" horiz-adv-x="403" 
d="M134 700h135v-700h-135v700zM89 770l102 118h175l-110 -118h-167z" />
    <glyph glyph-name="Icircumflex" unicode="&#xce;" horiz-adv-x="403" 
d="M134 700h135v-700h-135v700zM261 770l-61 62l-61 -62h-155l120 118h192l120 -118h-155z" />
    <glyph glyph-name="Itilde" unicode="&#x128;" horiz-adv-x="403" 
d="M134 700h135v-700h-135v700zM367 894v-26c0 -72 -31 -109 -88 -109c-17 0 -39 3 -62 14l-41 19c-13 6 -22 8 -30 8c-19 0 -29 -14 -29 -37h-88v25c0 73 31 110 88 110c22 0 41 -5 63 -15l41 -19c13 -6 21 -7 28 -7c19 0 30 14 30 37h88z" />
    <glyph glyph-name="Idieresis" unicode="&#xcf;" horiz-adv-x="403" 
d="M134 700h135v-700h-135v700zM170 765h-128v129h128v-129zM359 765h-129v129h129v-129z" />
    <glyph glyph-name="Imacron" unicode="&#x12a;" horiz-adv-x="403" 
d="M134 700h135v-700h-135v700zM347 778h-293v103h293v-103z" />
    <glyph glyph-name="Ibreve" unicode="&#x12c;" horiz-adv-x="403" 
d="M134 700h135v-700h-135v700zM263 907h106v-15c0 -85 -62 -144 -171 -144c-112 0 -172 59 -172 144v15h108v-12c0 -36 28 -56 64 -56c35 0 65 20 65 56v12z" />
    <glyph glyph-name="Idotaccent" unicode="&#x130;" horiz-adv-x="403" 
d="M134 700h135v-700h-135v700zM270 772h-139v136h139v-136z" />
    <glyph glyph-name="Iogonek" unicode="&#x12e;" horiz-adv-x="403" 
d="M229 -248c-94 0 -150 55 -150 132c0 56 32 95 72 116h-17v700h135v-700h-3c-41 -16 -70 -47 -70 -87s26 -54 52 -54c18 0 31 5 42 15l45 -98c-36 -19 -67 -24 -106 -24z" />
    <glyph glyph-name="I.nul" horiz-adv-x="403" 
d="M134 700h135v-700h-135v700z" />
    <glyph glyph-name="IJ" unicode="&#x132;" horiz-adv-x="1175" 
d="M134 700h135v-700h-135v700zM918 700h130v-439c0 -175 -134 -274 -302 -274c-161 0 -286 81 -316 253l124 39c15 -109 84 -167 194 -167c102 0 170 58 170 152v436z" />
    <glyph glyph-name="Jcircumflex" unicode="&#x134;" horiz-adv-x="785" 
d="M527 700h130v-439c0 -175 -134 -274 -302 -274c-161 0 -286 81 -316 253l124 39c15 -109 84 -167 194 -167c102 0 170 58 170 152v436zM654 770l-61 62l-61 -62h-155l120 118h192l120 -118h-155z" />
    <glyph glyph-name="J.nul" horiz-adv-x="784" 
d="M527 700h130v-439c0 -175 -134 -274 -302 -274c-161 0 -286 81 -316 253l124 39c15 -109 84 -167 194 -167c102 0 170 58 170 152v436z" />
    <glyph glyph-name="Kcommaaccent" unicode="&#x136;" horiz-adv-x="827" 
d="M764 700l-333 -299l362 -401h-172l-280 320l-80 -72v-248h-127v700h127v-305l329 305h174zM521 -67l-70 -233h-104l25 233h149z" />
    <glyph glyph-name="Lacute" unicode="&#x139;" horiz-adv-x="722" 
d="M134 700h132v-574h413v-126h-545v700zM308 770l102 118h175l-110 -118h-167z" />
    <glyph glyph-name="Lcaron" unicode="&#x13d;" horiz-adv-x="722" 
d="M134 700h132v-574h413v-126h-545v700zM359 888l61 -63l61 63h155l-120 -118h-192l-120 118h155z" />
    <glyph glyph-name="Lcommaaccent" unicode="&#x13b;" horiz-adv-x="722" 
d="M134 700h132v-574h413v-126h-545v700zM490 -67l-70 -233h-104l25 233h149z" />
    <glyph glyph-name="Lslash" unicode="&#x141;" horiz-adv-x="722" 
d="M134 700h132v-294l185 77v-127l-185 -77v-155h413v-124h-545v224l-52 -21v127l52 21v349z" />
    <glyph glyph-name="Ldot" unicode="&#x13f;" horiz-adv-x="722" 
d="M134 700h132v-574h413v-126h-545v700zM501 772h-139v136h139v-136z" />
    <glyph glyph-name="Nacute" unicode="&#x143;" horiz-adv-x="942" 
d="M134 0v700h179l368 -470v470h127v-700h-109l-437 557v-557h-128zM375 770l102 118h175l-110 -118h-167z" />
    <glyph glyph-name="Ncaron" unicode="&#x147;" horiz-adv-x="942" 
d="M134 0v700h179l368 -470v470h127v-700h-109l-437 557v-557h-128zM423 888l61 -63l61 63h155l-120 -118h-192l-120 118h155z" />
    <glyph glyph-name="Ntilde" unicode="&#xd1;" horiz-adv-x="942" 
d="M134 0v700h179l368 -470v470h127v-700h-109l-437 557v-557h-128zM648 894v-26c0 -72 -31 -109 -88 -109c-17 0 -39 3 -62 14l-41 19c-13 6 -22 8 -30 8c-19 0 -29 -14 -29 -37h-88v25c0 73 31 110 88 110c22 0 41 -5 63 -15l41 -19c13 -6 21 -7 28 -7c19 0 30 14 30 37
h88z" />
    <glyph glyph-name="Ncommaaccent" unicode="&#x145;" horiz-adv-x="942" 
d="M134 0v700h179l368 -470v470h127v-700h-109l-437 557v-557h-128zM579 -67l-70 -233h-104l25 233h149z" />
    <glyph glyph-name="Ograve" unicode="&#xd2;" horiz-adv-x="936" 
d="M467 713c222 0 381 -151 381 -362c0 -218 -165 -364 -381 -364c-213 0 -379 146 -379 364c0 216 169 362 379 362zM467 589c-154 0 -250 -103 -250 -238c0 -143 104 -240 250 -240c149 0 252 97 252 240c0 135 -97 238 -252 238zM494 888l102 -118h-167l-110 118h175z
" />
    <glyph glyph-name="Oacute" unicode="&#xd3;" horiz-adv-x="936" 
d="M467 713c222 0 381 -151 381 -362c0 -218 -165 -364 -381 -364c-213 0 -379 146 -379 364c0 216 169 362 379 362zM467 589c-154 0 -250 -103 -250 -238c0 -143 104 -240 250 -240c149 0 252 97 252 240c0 135 -97 238 -252 238zM329 770l102 118h175l-110 -118h-167z
" />
    <glyph glyph-name="Ocircumflex" unicode="&#xd4;" horiz-adv-x="936" 
d="M467 713c222 0 381 -151 381 -362c0 -218 -165 -364 -381 -364c-213 0 -379 146 -379 364c0 216 169 362 379 362zM467 589c-154 0 -250 -103 -250 -238c0 -143 104 -240 250 -240c149 0 252 97 252 240c0 135 -97 238 -252 238zM525 770l-61 62l-61 -62h-155l120 118
h192l120 -118h-155z" />
    <glyph glyph-name="Otilde" unicode="&#xd5;" horiz-adv-x="936" 
d="M467 713c222 0 381 -151 381 -362c0 -218 -165 -364 -381 -364c-213 0 -379 146 -379 364c0 216 169 362 379 362zM467 589c-154 0 -250 -103 -250 -238c0 -143 104 -240 250 -240c149 0 252 97 252 240c0 135 -97 238 -252 238zM631 894v-26c0 -72 -31 -109 -88 -109
c-17 0 -39 3 -62 14l-41 19c-13 6 -22 8 -30 8c-19 0 -29 -14 -29 -37h-88v25c0 73 31 110 88 110c22 0 41 -5 63 -15l41 -19c13 -6 21 -7 28 -7c19 0 30 14 30 37h88z" />
    <glyph glyph-name="Odieresis" unicode="&#xd6;" horiz-adv-x="936" 
d="M467 713c222 0 381 -151 381 -362c0 -218 -165 -364 -381 -364c-213 0 -379 146 -379 364c0 216 169 362 379 362zM467 589c-154 0 -250 -103 -250 -238c0 -143 104 -240 250 -240c149 0 252 97 252 240c0 135 -97 238 -252 238zM434 765h-128v129h128v-129zM623 765
h-129v129h129v-129z" />
    <glyph glyph-name="Omacron" unicode="&#x14c;" horiz-adv-x="936" 
d="M467 713c222 0 381 -151 381 -362c0 -218 -165 -364 -381 -364c-213 0 -379 146 -379 364c0 216 169 362 379 362zM467 589c-154 0 -250 -103 -250 -238c0 -143 104 -240 250 -240c149 0 252 97 252 240c0 135 -97 238 -252 238zM611 778h-293v103h293v-103z" />
    <glyph glyph-name="Obreve" unicode="&#x14e;" horiz-adv-x="936" 
d="M467 713c222 0 381 -151 381 -362c0 -218 -165 -364 -381 -364c-213 0 -379 146 -379 364c0 216 169 362 379 362zM467 589c-154 0 -250 -103 -250 -238c0 -143 104 -240 250 -240c149 0 252 97 252 240c0 135 -97 238 -252 238zM527 907h106v-15
c0 -85 -62 -144 -171 -144c-112 0 -172 59 -172 144v15h108v-12c0 -36 28 -56 64 -56c35 0 65 20 65 56v12z" />
    <glyph glyph-name="Ohungarumlaut" unicode="&#x150;" horiz-adv-x="936" 
d="M467 713c222 0 381 -151 381 -362c0 -218 -165 -364 -381 -364c-213 0 -379 146 -379 364c0 216 169 362 379 362zM467 589c-154 0 -250 -103 -250 -238c0 -143 104 -240 250 -240c149 0 252 97 252 240c0 135 -97 238 -252 238zM229 770l102 118h172l-112 -118h-162z
M483 770l103 118h173l-112 -118h-164z" />
    <glyph glyph-name="Oslash" unicode="&#xd8;" horiz-adv-x="936" 
d="M661 732h149l-79 -113c73 -64 117 -158 117 -268c0 -218 -165 -364 -381 -364c-56 0 -109 10 -157 29l-34 -49h-150l79 113c-72 64 -117 158 -117 271c0 216 169 362 379 362c58 0 112 -11 160 -30zM467 591c-156 0 -253 -103 -253 -240c0 -68 24 -125 64 -167l276 395
c-27 8 -56 12 -87 12zM722 351c0 65 -23 122 -63 165l-276 -396c26 -7 54 -11 84 -11c150 0 255 98 255 242z" />
    <glyph glyph-name="Oslashacute" unicode="&#x1fe;" horiz-adv-x="936" 
d="M661 732h149l-79 -113c73 -64 117 -158 117 -268c0 -218 -165 -364 -381 -364c-56 0 -109 10 -157 29l-34 -49h-150l79 113c-72 64 -117 158 -117 271c0 216 169 362 379 362c58 0 112 -11 160 -30zM467 591c-156 0 -253 -103 -253 -240c0 -68 24 -125 64 -167l276 395
c-27 8 -56 12 -87 12zM722 351c0 65 -23 122 -63 165l-276 -396c26 -7 54 -11 84 -11c150 0 255 98 255 242zM333 770l102 118h175l-110 -118h-167z" />
    <glyph glyph-name="OE" unicode="&#x152;" horiz-adv-x="1279" 
d="M620 700h549v-124h-423v-160h362v-123h-362v-169h438v-124h-564c-47 -9 -84 -13 -141 -13c-219 0 -391 138 -391 364c0 225 172 362 391 362c57 0 89 -3 141 -13zM620 131v438c-39 15 -90 20 -138 20c-153 0 -266 -81 -266 -238c0 -160 113 -240 266 -240
c66 0 100 7 138 20z" />
    <glyph glyph-name="Racute" unicode="&#x154;" horiz-adv-x="876" 
d="M134 700h370c54 0 109 -7 153 -28c72 -33 124 -102 124 -206c0 -98 -38 -179 -148 -220l176 -246h-160l-162 227h-226v-227h-127v700zM261 348h239c33 0 62 2 85 11c43 14 70 47 70 106c0 53 -24 83 -63 99c-25 11 -57 13 -93 13h-238v-229zM324 770l102 118h175
l-110 -118h-167z" />
    <glyph glyph-name="Rcaron" unicode="&#x158;" horiz-adv-x="876" 
d="M134 700h370c54 0 109 -7 153 -28c72 -33 124 -102 124 -206c0 -98 -38 -179 -148 -220l176 -246h-160l-162 227h-226v-227h-127v700zM261 348h239c33 0 62 2 85 11c43 14 70 47 70 106c0 53 -24 83 -63 99c-25 11 -57 13 -93 13h-238v-229zM380 888l61 -63l61 63h155
l-120 -118h-192l-120 118h155z" />
    <glyph glyph-name="Rcommaaccent" unicode="&#x156;" horiz-adv-x="876" 
d="M134 700h370c54 0 109 -7 153 -28c72 -33 124 -102 124 -206c0 -98 -38 -179 -148 -220l176 -246h-160l-162 227h-226v-227h-127v700zM261 348h239c33 0 62 2 85 11c43 14 70 47 70 106c0 53 -24 83 -63 99c-25 11 -57 13 -93 13h-238v-229zM516 -67l-70 -233h-104
l25 233h149z" />
    <glyph glyph-name="Sacute" unicode="&#x15a;" 
d="M615 515l94 82c-74 83 -185 116 -300 116c-196 0 -295 -89 -295 -209c0 -137 107 -185 254 -199l83 -8c96 -9 145 -37 145 -93c0 -51 -49 -97 -170 -97c-103 0 -174 23 -237 92l-98 -82c79 -95 195 -130 328 -130c212 0 305 104 305 221c0 131 -98 193 -242 206l-78 7
c-99 9 -162 28 -162 89c0 37 36 83 162 83c95 0 164 -26 211 -78zM321 770l102 118h175l-110 -118h-167z" />
    <glyph glyph-name="Scircumflex" unicode="&#x15c;" 
d="M615 515l94 82c-74 83 -185 116 -300 116c-196 0 -295 -89 -295 -209c0 -137 107 -185 254 -199l83 -8c96 -9 145 -37 145 -93c0 -51 -49 -97 -170 -97c-103 0 -174 23 -237 92l-98 -82c79 -95 195 -130 328 -130c212 0 305 104 305 221c0 131 -98 193 -242 206l-78 7
c-99 9 -162 28 -162 89c0 37 36 83 162 83c95 0 164 -26 211 -78zM485 770l-61 62l-61 -62h-155l120 118h192l120 -118h-155z" />
    <glyph glyph-name="Scaron" unicode="&#x160;" 
d="M615 515l94 82c-74 83 -185 116 -300 116c-196 0 -295 -89 -295 -209c0 -137 107 -185 254 -199l83 -8c96 -9 145 -37 145 -93c0 -51 -49 -97 -170 -97c-103 0 -174 23 -237 92l-98 -82c79 -95 195 -130 328 -130c212 0 305 104 305 221c0 131 -98 193 -242 206l-78 7
c-99 9 -162 28 -162 89c0 37 36 83 162 83c95 0 164 -26 211 -78zM363 888l61 -63l61 63h155l-120 -118h-192l-120 118h155z" />
    <glyph glyph-name="Scedilla" unicode="&#x15e;" 
d="M709 597l-94 -82c-47 52 -116 78 -211 78c-126 0 -162 -46 -162 -83c0 -61 63 -80 162 -89l78 -7c144 -13 242 -75 242 -206c0 -117 -93 -221 -305 -221c-133 0 -249 35 -328 130l98 82c63 -69 134 -92 237 -92c121 0 170 46 170 97c0 56 -49 84 -145 93l-83 8
c-147 14 -254 62 -254 199c0 120 99 209 295 209c115 0 226 -33 300 -116zM303 -265l41 213h133l-54 -213h-120z" />
    <glyph glyph-name="Scommaaccent" unicode="&#x218;" 
d="M709 597l-94 -82c-47 52 -116 78 -211 78c-126 0 -162 -46 -162 -83c0 -61 63 -80 162 -89l78 -7c144 -13 242 -75 242 -206c0 -117 -93 -221 -305 -221c-133 0 -249 35 -328 130l98 82c63 -69 134 -92 237 -92c121 0 170 46 170 97c0 56 -49 84 -145 93l-83 8
c-147 14 -254 62 -254 199c0 120 99 209 295 209c115 0 226 -33 300 -116zM494 -67l-70 -233h-104l25 233h149z" />
    <glyph glyph-name="germandbls.cap" horiz-adv-x="1614" 
d="M711 599l-94 -82c-43 52 -117 76 -212 76c-126 0 -159 -46 -159 -83c0 -60 64 -76 159 -88l78 -9c144 -17 238 -74 238 -205c0 -116 -91 -221 -301 -221c-133 0 -250 33 -329 128l98 82c61 -69 135 -90 238 -90c116 0 166 42 166 97c0 56 -45 80 -141 92l-83 10
c-147 18 -251 61 -251 198c0 120 110 209 292 209c115 0 227 -31 301 -114zM1511 599l-94 -82c-43 52 -117 76 -212 76c-126 0 -159 -46 -159 -83c0 -60 64 -76 159 -88l78 -9c144 -17 238 -74 238 -205c0 -116 -91 -221 -301 -221c-133 0 -250 33 -329 128l98 82
c61 -69 135 -90 238 -90c116 0 166 42 166 97c0 56 -45 80 -141 92l-83 10c-147 18 -251 61 -251 198c0 120 110 209 292 209c115 0 227 -31 301 -114z" />
    <glyph glyph-name="Tcaron" unicode="&#x164;" horiz-adv-x="745" 
d="M41 700h663v-124h-266v-576h-131v576h-266v124zM308 888l61 -63l61 63h155l-120 -118h-192l-120 118h155z" />
    <glyph glyph-name="Tcommaaccent" unicode="&#x162;" horiz-adv-x="745" 
d="M41 700h663v-124h-266v-576h-131v576h-266v124zM471 -67l-70 -233h-104l25 233h149z" />
    <glyph glyph-name="Tbar" unicode="&#x166;" horiz-adv-x="745" 
d="M41 700h663v-124h-266v-170h117v-124h-117v-282h-131v282h-115v124h115v170h-266v124z" />
    <glyph glyph-name="Ugrave" unicode="&#xd9;" horiz-adv-x="917" 
d="M128 700h131v-386c0 -44 7 -81 23 -112c30 -59 84 -90 177 -90s147 32 177 91c16 30 23 67 23 111v386h130v-390c0 -59 -7 -111 -28 -155c-49 -108 -152 -168 -302 -168c-145 0 -251 60 -303 169c-21 45 -28 95 -28 154v390zM467 888l102 -118h-167l-110 118h175z" />
    <glyph glyph-name="Uacute" unicode="&#xda;" horiz-adv-x="917" 
d="M128 700h131v-386c0 -44 7 -81 23 -112c30 -59 84 -90 177 -90s147 32 177 91c16 30 23 67 23 111v386h130v-390c0 -59 -7 -111 -28 -155c-49 -108 -152 -168 -302 -168c-145 0 -251 60 -303 169c-21 45 -28 95 -28 154v390zM355 770l102 118h175l-110 -118h-167z" />
    <glyph glyph-name="Ucircumflex" unicode="&#xdb;" horiz-adv-x="917" 
d="M128 700h131v-386c0 -44 7 -81 23 -112c30 -59 84 -90 177 -90s147 32 177 91c16 30 23 67 23 111v386h130v-390c0 -59 -7 -111 -28 -155c-49 -108 -152 -168 -302 -168c-145 0 -251 60 -303 169c-21 45 -28 95 -28 154v390zM520 770l-61 62l-61 -62h-155l120 118h192
l120 -118h-155z" />
    <glyph glyph-name="Utilde" unicode="&#x168;" horiz-adv-x="917" 
d="M128 700h131v-386c0 -44 7 -81 23 -112c30 -59 84 -90 177 -90s147 32 177 91c16 30 23 67 23 111v386h130v-390c0 -59 -7 -111 -28 -155c-49 -108 -152 -168 -302 -168c-145 0 -251 60 -303 169c-21 45 -28 95 -28 154v390zM626 894v-26c0 -72 -31 -109 -88 -109
c-17 0 -39 3 -62 14l-41 19c-13 6 -22 8 -30 8c-19 0 -29 -14 -29 -37h-88v25c0 73 31 110 88 110c22 0 41 -5 63 -15l41 -19c13 -6 21 -7 28 -7c19 0 30 14 30 37h88z" />
    <glyph glyph-name="Udieresis" unicode="&#xdc;" horiz-adv-x="917" 
d="M128 700h131v-386c0 -44 7 -81 23 -112c30 -59 84 -90 177 -90s147 32 177 91c16 30 23 67 23 111v386h130v-390c0 -59 -7 -111 -28 -155c-49 -108 -152 -168 -302 -168c-145 0 -251 60 -303 169c-21 45 -28 95 -28 154v390zM429 765h-128v129h128v-129zM618 765h-129
v129h129v-129z" />
    <glyph glyph-name="Umacron" unicode="&#x16a;" horiz-adv-x="917" 
d="M128 700h131v-386c0 -44 7 -81 23 -112c30 -59 84 -90 177 -90s147 32 177 91c16 30 23 67 23 111v386h130v-390c0 -59 -7 -111 -28 -155c-49 -108 -152 -168 -302 -168c-145 0 -251 60 -303 169c-21 45 -28 95 -28 154v390zM606 778h-293v103h293v-103z" />
    <glyph glyph-name="Ubreve" unicode="&#x16c;" horiz-adv-x="917" 
d="M128 700h131v-386c0 -44 7 -81 23 -112c30 -59 84 -90 177 -90s147 32 177 91c16 30 23 67 23 111v386h130v-390c0 -59 -7 -111 -28 -155c-49 -108 -152 -168 -302 -168c-145 0 -251 60 -303 169c-21 45 -28 95 -28 154v390zM522 907h106v-15c0 -85 -62 -144 -171 -144
c-112 0 -172 59 -172 144v15h108v-12c0 -36 28 -56 64 -56c35 0 65 20 65 56v12z" />
    <glyph glyph-name="Uring" unicode="&#x16e;" horiz-adv-x="917" 
d="M128 700h131v-386c0 -44 7 -81 23 -112c30 -59 84 -90 177 -90s147 32 177 91c16 30 23 67 23 111v386h130v-390c0 -59 -7 -111 -28 -155c-49 -108 -152 -168 -302 -168c-145 0 -251 60 -303 169c-21 45 -28 95 -28 154v390zM459 751c-58 0 -100 40 -100 95s43 96 99 96
c58 0 101 -41 101 -96s-42 -95 -100 -95zM422 846c0 -21 14 -36 36 -36s37 15 37 36c0 20 -15 35 -37 35c-21 0 -36 -15 -36 -35z" />
    <glyph glyph-name="Uhungarumlaut" unicode="&#x170;" horiz-adv-x="917" 
d="M128 700h131v-386c0 -44 7 -81 23 -112c30 -59 84 -90 177 -90s147 32 177 91c16 30 23 67 23 111v386h130v-390c0 -59 -7 -111 -28 -155c-49 -108 -152 -168 -302 -168c-145 0 -251 60 -303 169c-21 45 -28 95 -28 154v390zM233 770l102 118h172l-112 -118h-162z
M487 770l103 118h173l-112 -118h-164z" />
    <glyph glyph-name="Uogonek" unicode="&#x172;" horiz-adv-x="917" 
d="M506 -248c-94 0 -150 55 -150 132c0 48 23 83 54 106c-120 11 -208 69 -254 166c-21 45 -28 95 -28 154v390h131v-386c0 -44 7 -81 23 -112c30 -59 84 -90 177 -90s147 32 177 91c16 30 23 67 23 111v386h130v-390c0 -59 -7 -111 -28 -155c-42 -92 -122 -149 -238 -164
c-30 -17 -50 -44 -50 -78c0 -40 26 -54 52 -54c18 0 31 5 42 15l45 -98c-36 -19 -67 -24 -106 -24z" />
    <glyph glyph-name="Wgrave" unicode="&#x1e80;" horiz-adv-x="1255" 
d="M628 550l-182 -550h-163l-237 700h141l179 -564l187 564h152l185 -564l179 564h140l-236 -700h-165zM642 888l102 -118h-167l-110 118h175z" />
    <glyph glyph-name="Wacute" unicode="&#x1e82;" horiz-adv-x="1255" 
d="M628 550l-182 -550h-163l-237 700h141l179 -564l187 564h152l185 -564l179 564h140l-236 -700h-165zM521 770l102 118h175l-110 -118h-167z" />
    <glyph glyph-name="Wcircumflex" unicode="&#x174;" horiz-adv-x="1255" 
d="M628 550l-182 -550h-163l-237 700h141l179 -564l187 564h152l185 -564l179 564h140l-236 -700h-165zM690 770l-61 62l-61 -62h-155l120 118h192l120 -118h-155z" />
    <glyph glyph-name="Wdieresis" unicode="&#x1e84;" horiz-adv-x="1255" 
d="M628 550l-182 -550h-163l-237 700h141l179 -564l187 564h152l185 -564l179 564h140l-236 -700h-165zM599 765h-128v129h128v-129zM788 765h-129v129h129v-129z" />
    <glyph glyph-name="Ygrave" unicode="&#x1ef2;" horiz-adv-x="778" 
d="M6 700h171l213 -253l216 253h166l-320 -369v-331h-130v331zM385 888l102 -118h-167l-110 118h175z" />
    <glyph glyph-name="Yacute" unicode="&#xdd;" horiz-adv-x="778" 
d="M6 700h171l213 -253l216 253h166l-320 -369v-331h-130v331zM281 770l102 118h175l-110 -118h-167z" />
    <glyph glyph-name="Ycircumflex" unicode="&#x176;" horiz-adv-x="778" 
d="M6 700h171l213 -253l216 253h166l-320 -369v-331h-130v331zM454 770l-61 62l-61 -62h-155l120 118h192l120 -118h-155z" />
    <glyph glyph-name="Ydieresis" unicode="&#x178;" horiz-adv-x="778" 
d="M6 700h171l213 -253l216 253h166l-320 -369v-331h-130v331zM363 765h-128v129h128v-129zM552 765h-129v129h129v-129z" />
    <glyph glyph-name="Zacute" unicode="&#x179;" horiz-adv-x="839" 
d="M730 700v-125l-457 -450h462v-125h-636v123l462 454h-438v123h607zM317 770l102 118h175l-110 -118h-167z" />
    <glyph glyph-name="Zcaron" unicode="&#x17d;" horiz-adv-x="839" 
d="M730 700v-125l-457 -450h462v-125h-636v123l462 454h-438v123h607zM372 888l61 -63l61 63h155l-120 -118h-192l-120 118h155z" />
    <glyph glyph-name="Zdotaccent" unicode="&#x17b;" horiz-adv-x="839" 
d="M730 700v-125l-457 -450h462v-125h-636v123l462 454h-438v123h607zM497 772h-139v136h139v-136z" />
    <glyph glyph-name="Schwa" unicode="&#x18f;" horiz-adv-x="912" 
d="M227 490l-111 60c53 87 168 163 324 163c219 0 384 -135 384 -366c0 -220 -171 -360 -379 -360c-217 0 -362 152 -362 366v25h609c-4 110 -85 217 -250 217c-88 0 -164 -33 -215 -105zM689 282h-466c13 -116 103 -179 226 -179c110 0 215 48 240 179z" />
    <glyph glyph-name="Eng" unicode="&#x14a;" horiz-adv-x="942" 
d="M681 700h127v-705c0 -141 -97 -242 -240 -242c-91 0 -156 37 -202 108l105 75c23 -39 56 -57 98 -57c75 0 112 58 112 115v29l-419 534v-557h-128v700h179l368 -470v470z" />
    <glyph glyph-name="Eth" unicode="&#xd0;" horiz-adv-x="912" 
d="M134 700h295c64 0 130 -9 186 -31c123 -49 209 -153 209 -317c0 -166 -88 -278 -221 -325c-50 -18 -110 -27 -171 -27h-298v291h-44v123h44v286zM260 576v-162h185v-123h-185v-167h171c44 0 89 5 127 19c82 31 139 97 139 209c0 109 -52 173 -129 203
c-41 16 -91 21 -139 21h-169z" />
    <glyph glyph-name="Thorn" unicode="&#xde;" horiz-adv-x="831" 
d="M134 700h127v-74h244c52 0 103 -8 144 -27c74 -36 126 -106 126 -208c0 -113 -61 -184 -148 -215c-37 -14 -78 -18 -122 -18h-244v-158h-127v700zM261 503v-221h237c27 0 55 1 78 8c43 12 73 42 73 101c0 52 -26 85 -67 100c-23 9 -54 12 -83 12h-238z" />
    <glyph glyph-name="a" unicode="a" horiz-adv-x="842" 
d="M684 0l-66 147h-398l-65 -147h-137l320 700h167l319 -700h-140zM419 597l-146 -329h292z" />
    <glyph glyph-name="b" unicode="b" horiz-adv-x="846" 
d="M664 374c62 -37 93 -92 93 -164c0 -114 -69 -187 -174 -204c-29 -6 -53 -6 -113 -6h-336v700h336c55 -1 77 -3 104 -8c88 -17 150 -89 150 -183c0 -59 -21 -106 -60 -135zM261 585v-173h233c55 0 104 22 104 85c0 71 -48 88 -109 88h-228zM261 298v-183h266
c59 0 104 27 104 94c0 65 -46 89 -105 89h-265z" />
    <glyph glyph-name="c" unicode="c" horiz-adv-x="879" 
d="M802 528l-111 -64c-48 81 -119 125 -228 125c-145 0 -247 -100 -247 -238c0 -135 95 -240 256 -240c101 0 180 43 226 139l114 -60c-66 -124 -178 -203 -340 -203c-224 0 -384 148 -384 364c0 211 163 362 375 362c140 0 275 -57 339 -185z" />
    <glyph glyph-name="d" unicode="d" horiz-adv-x="912" 
d="M134 700h295c64 0 130 -9 186 -31c123 -49 209 -153 209 -317c0 -166 -88 -278 -221 -325c-50 -18 -110 -27 -171 -27h-298v700zM263 576v-452h168c54 0 107 10 151 31c68 34 115 95 115 197c0 103 -48 164 -117 195c-44 20 -97 29 -151 29h-166z" />
    <glyph glyph-name="e" unicode="e" 
d="M134 700h574v-123h-448v-161h393v-122h-393v-171h462v-123h-588v700z" />
    <glyph glyph-name="f" unicode="f" horiz-adv-x="753" 
d="M134 700h553v-125h-425v-169h378v-124h-378v-282h-128v700z" />
    <glyph glyph-name="g" unicode="g" horiz-adv-x="919" 
d="M793 554l-108 -65c-48 66 -117 100 -215 100c-146 0 -254 -96 -254 -238c0 -152 110 -241 271 -241c71 0 139 10 189 51v93h-255v122h376v-275c-63 -53 -140 -114 -312 -114c-224 0 -397 134 -397 364c0 213 169 362 382 362c142 0 247 -45 323 -159z" />
    <glyph glyph-name="h" unicode="h" horiz-adv-x="927" 
d="M134 700h132v-276h396v276h131v-700h-131v299h-396v-299h-132v700z" />
    <glyph glyph-name="i" unicode="i" horiz-adv-x="403" 
d="M134 700h135v-700h-135v700z" />
    <glyph glyph-name="j" unicode="j" horiz-adv-x="785" 
d="M527 700h130v-439c0 -175 -134 -274 -302 -274c-161 0 -286 81 -316 253l124 39c15 -109 84 -167 194 -167c102 0 170 58 170 152v436z" />
    <glyph glyph-name="k" unicode="k" horiz-adv-x="827" 
d="M764 700l-333 -299l362 -401h-172l-280 320l-80 -72v-248h-127v700h127v-305l329 305h174z" />
    <glyph glyph-name="l" unicode="l" horiz-adv-x="722" 
d="M134 700h132v-574h413v-126h-545v700z" />
    <glyph glyph-name="m" unicode="m" horiz-adv-x="1135" 
d="M513 0l-251 589v-589h-128v700h214l222 -527l222 527h209v-700h-127v585l-250 -585h-111z" />
    <glyph glyph-name="n" unicode="n" horiz-adv-x="942" 
d="M134 0v700h179l368 -470v470h127v-700h-109l-437 557v-557h-128z" />
    <glyph glyph-name="o" unicode="o" horiz-adv-x="936" 
d="M467 713c222 0 381 -151 381 -362c0 -218 -165 -364 -381 -364c-213 0 -379 146 -379 364c0 216 169 362 379 362zM467 589c-154 0 -250 -103 -250 -238c0 -143 104 -240 250 -240c149 0 252 97 252 240c0 135 -97 238 -252 238z" />
    <glyph glyph-name="p" unicode="p" horiz-adv-x="837" 
d="M134 700h371c52 0 103 -7 144 -27c74 -35 126 -104 126 -207c0 -113 -61 -185 -148 -215c-37 -14 -78 -17 -122 -17h-244v-234h-127v700zM261 577v-220h237c27 0 55 1 78 7c43 12 73 42 73 102c0 53 -26 85 -67 100c-23 9 -54 11 -83 11h-238z" />
    <glyph glyph-name="q" unicode="q" horiz-adv-x="936" 
d="M467 713c222 0 381 -151 381 -362c0 -111 -47 -203 -119 -267l119 -121h-169l-54 56c-49 -20 -103 -32 -158 -32c-213 0 -379 146 -379 364c0 216 169 362 379 362zM467 589c-154 0 -251 -103 -251 -238c0 -143 105 -240 251 -240c22 0 43 2 63 6l-51 53l108 60l57 -59
c48 42 75 105 75 180c0 135 -97 238 -252 238z" />
    <glyph glyph-name="r" unicode="r" horiz-adv-x="876" 
d="M134 700h370c54 0 109 -7 153 -28c72 -33 124 -102 124 -206c0 -98 -38 -179 -148 -220l176 -246h-160l-162 227h-226v-227h-127v700zM261 348h239c33 0 62 2 85 11c43 14 70 47 70 106c0 53 -24 83 -63 99c-25 11 -57 13 -93 13h-238v-229z" />
    <glyph glyph-name="s" unicode="s" horiz-adv-x="814" 
d="M711 599l-94 -82c-43 52 -117 76 -212 76c-126 0 -159 -46 -159 -83c0 -60 64 -76 159 -88l78 -9c144 -17 238 -74 238 -205c0 -116 -91 -221 -301 -221c-133 0 -250 33 -329 128l98 82c61 -69 135 -90 238 -90c116 0 166 42 166 97c0 56 -45 80 -141 92l-83 10
c-147 18 -251 61 -251 198c0 120 110 209 292 209c115 0 227 -31 301 -114z" />
    <glyph glyph-name="t" unicode="t" horiz-adv-x="745" 
d="M41 700h663v-124h-266v-576h-131v576h-266v124z" />
    <glyph glyph-name="u" unicode="u" horiz-adv-x="917" 
d="M128 700h131v-386c0 -44 7 -81 23 -112c30 -59 84 -90 177 -90s147 32 177 91c16 30 23 67 23 111v386h130v-390c0 -59 -7 -111 -28 -155c-49 -108 -152 -168 -302 -168c-145 0 -251 60 -303 169c-21 45 -28 95 -28 154v390z" />
    <glyph glyph-name="v" unicode="v" horiz-adv-x="859" 
d="M348 0l-319 700h150l253 -580l253 580h145l-317 -700h-165z" />
    <glyph glyph-name="w" unicode="w" horiz-adv-x="1255" 
d="M628 550l-182 -550h-163l-237 700h141l179 -564l187 564h152l185 -564l179 564h140l-236 -700h-165z" />
    <glyph glyph-name="x" unicode="x" horiz-adv-x="789" 
d="M216 700l183 -239l184 239h160l-264 -335l288 -365h-160l-214 275l-209 -275h-162l291 371l-259 329h162z" />
    <glyph glyph-name="y" unicode="y" horiz-adv-x="778" 
d="M6 700h171l213 -253l216 253h166l-320 -369v-331h-130v331z" />
    <glyph glyph-name="z" unicode="z" horiz-adv-x="839" 
d="M730 700v-125l-457 -450h462v-125h-636v123l462 454h-438v123h607z" />
    <glyph glyph-name="agrave" unicode="&#xe0;" horiz-adv-x="842" 
d="M684 0l-66 147h-398l-65 -147h-137l320 700h167l319 -700h-140zM419 597l-146 -329h292zM439 888l102 -118h-167l-110 118h175z" />
    <glyph glyph-name="aacute" unicode="&#xe1;" horiz-adv-x="842" 
d="M684 0l-66 147h-398l-65 -147h-137l320 700h167l319 -700h-140zM419 597l-146 -329h292zM306 770l102 118h175l-110 -118h-167z" />
    <glyph glyph-name="acircumflex" unicode="&#xe2;" horiz-adv-x="842" 
d="M684 0l-66 147h-398l-65 -147h-137l320 700h167l319 -700h-140zM419 597l-146 -329h292zM484 770l-61 62l-61 -62h-155l120 118h192l120 -118h-155z" />
    <glyph glyph-name="atilde" unicode="&#xe3;" horiz-adv-x="842" 
d="M684 0l-66 147h-398l-65 -147h-137l320 700h167l319 -700h-140zM419 597l-146 -329h292zM590 894v-26c0 -72 -31 -109 -88 -109c-17 0 -39 3 -62 14l-41 19c-13 6 -22 8 -30 8c-19 0 -29 -14 -29 -37h-88v25c0 73 31 110 88 110c22 0 41 -5 63 -15l41 -19
c13 -6 21 -7 28 -7c19 0 30 14 30 37h88z" />
    <glyph glyph-name="adieresis" unicode="&#xe4;" horiz-adv-x="842" 
d="M684 0l-66 147h-398l-65 -147h-137l320 700h167l319 -700h-140zM419 597l-146 -329h292zM582 765h-129v129h129v-129zM393 765h-128v129h128v-129z" />
    <glyph glyph-name="amacron" unicode="&#x101;" horiz-adv-x="842" 
d="M684 0l-66 147h-398l-65 -147h-137l320 700h167l319 -700h-140zM419 597l-146 -329h292zM570 778h-293v103h293v-103z" />
    <glyph glyph-name="abreve" unicode="&#x103;" horiz-adv-x="842" 
d="M684 0l-66 147h-398l-65 -147h-137l320 700h167l319 -700h-140zM419 597l-146 -329h292zM486 907h106v-15c0 -85 -62 -144 -171 -144c-112 0 -172 59 -172 144v15h108v-12c0 -36 28 -56 64 -56c35 0 65 20 65 56v12z" />
    <glyph glyph-name="aring" unicode="&#xe5;" horiz-adv-x="842" 
d="M684 0l-66 147h-398l-65 -147h-137l320 700h167l319 -700h-140zM419 597l-146 -329h292zM423 751c-58 0 -100 40 -100 95s43 96 99 96c58 0 101 -41 101 -96s-42 -95 -100 -95zM386 846c0 -21 14 -36 36 -36s37 15 37 36c0 20 -15 35 -37 35c-21 0 -36 -15 -36 -35z" />
    <glyph glyph-name="aringacute" unicode="&#x1fb;" horiz-adv-x="842" 
d="M684 0l-66 147h-398l-65 -147h-137l320 700h167l319 -700h-140zM419 597l-146 -329h292zM424 751c-58 0 -100 40 -100 95s43 96 99 96c58 0 101 -41 101 -96s-42 -95 -100 -95zM320 985l102 118h175l-110 -118h-167zM387 846c0 -21 14 -36 36 -36s37 15 37 36
c0 20 -15 35 -37 35c-21 0 -36 -15 -36 -35z" />
    <glyph glyph-name="aogonek" unicode="&#x105;" horiz-adv-x="842" 
d="M684 0l-66 147h-398l-65 -147h-137l320 700h167l319 -700h-3c-41 -16 -70 -47 -70 -87s26 -54 52 -54c18 0 31 5 42 15l45 -98c-36 -19 -67 -24 -106 -24c-94 0 -150 55 -150 132c0 56 32 95 72 116h-22zM419 597l-146 -329h292z" />
    <glyph glyph-name="ae" unicode="&#xe6;" horiz-adv-x="1173" 
d="M408 700h656v-123h-413v-161h352v-122h-352v-171h427v-123h-552v152h-297l-91 -152h-147zM526 644l-224 -371h224v371z" />
    <glyph glyph-name="aeacute" unicode="&#x1fd;" horiz-adv-x="1173" 
d="M408 700h656v-123h-413v-161h352v-122h-352v-171h427v-123h-552v152h-297l-91 -152h-147zM526 644l-224 -371h224v371zM575 770l102 118h175l-110 -118h-167z" />
    <glyph glyph-name="cacute" unicode="&#x107;" horiz-adv-x="879" 
d="M802 528l-111 -64c-48 81 -119 125 -228 125c-145 0 -247 -100 -247 -238c0 -135 95 -240 256 -240c101 0 180 43 226 139l114 -60c-66 -124 -178 -203 -340 -203c-224 0 -384 148 -384 364c0 211 163 362 375 362c140 0 275 -57 339 -185zM360 770l102 118h175
l-110 -118h-167z" />
    <glyph glyph-name="ccircumflex" unicode="&#x109;" horiz-adv-x="879" 
d="M802 528l-111 -64c-48 81 -119 125 -228 125c-145 0 -247 -100 -247 -238c0 -135 95 -240 256 -240c101 0 180 43 226 139l114 -60c-66 -124 -178 -203 -340 -203c-224 0 -384 148 -384 364c0 211 163 362 375 362c140 0 275 -57 339 -185zM524 770l-61 62l-61 -62h-155
l120 118h192l120 -118h-155z" />
    <glyph glyph-name="ccaron" unicode="&#x10d;" horiz-adv-x="879" 
d="M802 528l-111 -64c-48 81 -119 125 -228 125c-145 0 -247 -100 -247 -238c0 -135 95 -240 256 -240c101 0 180 43 226 139l114 -60c-66 -124 -178 -203 -340 -203c-224 0 -384 148 -384 364c0 211 163 362 375 362c140 0 275 -57 339 -185zM397 888l61 -63l61 63h155
l-120 -118h-192l-120 118h155z" />
    <glyph glyph-name="cdotaccent" unicode="&#x10b;" horiz-adv-x="879" 
d="M802 528l-111 -64c-48 81 -119 125 -228 125c-145 0 -247 -100 -247 -238c0 -135 95 -240 256 -240c101 0 180 43 226 139l114 -60c-66 -124 -178 -203 -340 -203c-224 0 -384 148 -384 364c0 211 163 362 375 362c140 0 275 -57 339 -185zM533 772h-139v136h139v-136z
" />
    <glyph glyph-name="ccedilla" unicode="&#xe7;" horiz-adv-x="879" 
d="M802 528l-111 -64c-48 81 -119 125 -228 125c-145 0 -247 -100 -247 -238c0 -135 95 -240 256 -240c101 0 180 43 226 139l114 -60c-66 -124 -178 -203 -340 -203c-224 0 -384 148 -384 364c0 211 163 362 375 362c140 0 275 -57 339 -185zM350 -265l41 213h133l-54 -213
h-120z" />
    <glyph glyph-name="dcaron" unicode="&#x10f;" horiz-adv-x="912" 
d="M134 700h295c64 0 130 -9 186 -31c123 -49 209 -153 209 -317c0 -166 -88 -278 -221 -325c-50 -18 -110 -27 -171 -27h-298v700zM263 576v-452h168c54 0 107 10 151 31c68 34 115 95 115 197c0 103 -48 164 -117 195c-44 20 -97 29 -151 29h-166zM404 888l61 -63l61 63
h155l-120 -118h-192l-120 118h155z" />
    <glyph glyph-name="dcroat" unicode="&#x111;" horiz-adv-x="912" 
d="M134 700h295c64 0 130 -9 186 -31c123 -49 209 -153 209 -317c0 -166 -88 -278 -221 -325c-50 -18 -110 -27 -171 -27h-298v291h-44v123h44v286zM260 576v-162h185v-123h-185v-167h171c44 0 89 5 127 19c82 31 139 97 139 209c0 109 -52 173 -129 203
c-41 16 -91 21 -139 21h-169z" />
    <glyph glyph-name="egrave" unicode="&#xe8;" 
d="M134 700h574v-123h-448v-161h393v-122h-393v-171h462v-123h-588v700zM445 888l102 -118h-167l-110 118h175z" />
    <glyph glyph-name="eacute" unicode="&#xe9;" 
d="M134 700h574v-123h-448v-161h393v-122h-393v-171h462v-123h-588v700zM323 770l102 118h175l-110 -118h-167z" />
    <glyph glyph-name="ecircumflex" unicode="&#xea;" 
d="M134 700h574v-123h-448v-161h393v-122h-393v-171h462v-123h-588v700zM491 770l-61 62l-61 -62h-155l120 118h192l120 -118h-155z" />
    <glyph glyph-name="ecaron" unicode="&#x11b;" 
d="M134 700h574v-123h-448v-161h393v-122h-393v-171h462v-123h-588v700zM369 888l61 -63l61 63h155l-120 -118h-192l-120 118h155z" />
    <glyph glyph-name="edieresis" unicode="&#xeb;" 
d="M134 700h574v-123h-448v-161h393v-122h-393v-171h462v-123h-588v700zM400 765h-128v129h128v-129zM589 765h-129v129h129v-129z" />
    <glyph glyph-name="emacron" unicode="&#x113;" 
d="M134 700h574v-123h-448v-161h393v-122h-393v-171h462v-123h-588v700zM577 778h-293v103h293v-103z" />
    <glyph glyph-name="ebreve" unicode="&#x115;" 
d="M134 700h574v-123h-448v-161h393v-122h-393v-171h462v-123h-588v700zM493 907h106v-15c0 -85 -62 -144 -171 -144c-112 0 -172 59 -172 144v15h108v-12c0 -36 28 -56 64 -56c35 0 65 20 65 56v12z" />
    <glyph glyph-name="edotaccent" unicode="&#x117;" 
d="M134 700h574v-123h-448v-161h393v-122h-393v-171h462v-123h-588v700zM505 772h-139v136h139v-136z" />
    <glyph glyph-name="eogonek" unicode="&#x119;" 
d="M686 -248c-94 0 -150 55 -150 132c0 56 32 95 72 116h-474v700h574v-123h-448v-161h393v-122h-393v-171h462v-123h1c-41 -16 -70 -47 -70 -87s26 -54 52 -54c18 0 31 5 42 15l45 -98c-36 -19 -67 -24 -106 -24z" />
    <glyph glyph-name="fi" unicode="&#xfb01;" horiz-adv-x="1203" 
d="M134 700h553v-125h-425v-169h378v-124h-378v-282h-128v700zM934 700h135v-700h-135v700z" />
    <glyph glyph-name="fl" unicode="&#xfb02;" horiz-adv-x="1522" 
d="M134 700h553v-125h-425v-169h378v-124h-378v-282h-128v700zM934 700h132v-574h413v-126h-545v700z" />
    <glyph glyph-name="gcircumflex" unicode="&#x11d;" horiz-adv-x="919" 
d="M793 554l-108 -65c-48 66 -117 100 -215 100c-146 0 -254 -96 -254 -238c0 -152 110 -241 271 -241c71 0 139 10 189 51v93h-255v122h376v-275c-63 -53 -140 -114 -312 -114c-224 0 -397 134 -397 364c0 213 169 362 382 362c142 0 247 -45 323 -159zM540 770l-61 62
l-61 -62h-155l120 118h192l120 -118h-155z" />
    <glyph glyph-name="gbreve" unicode="&#x11f;" horiz-adv-x="919" 
d="M793 554l-108 -65c-48 66 -117 100 -215 100c-146 0 -254 -96 -254 -238c0 -152 110 -241 271 -241c71 0 139 10 189 51v93h-255v122h376v-275c-63 -53 -140 -114 -312 -114c-224 0 -397 134 -397 364c0 213 169 362 382 362c142 0 247 -45 323 -159zM540 907h106v-15
c0 -85 -62 -144 -171 -144c-112 0 -172 59 -172 144v15h108v-12c0 -36 28 -56 64 -56c35 0 65 20 65 56v12z" />
    <glyph glyph-name="gdotaccent" unicode="&#x121;" horiz-adv-x="919" 
d="M793 554l-108 -65c-48 66 -117 100 -215 100c-146 0 -254 -96 -254 -238c0 -152 110 -241 271 -241c71 0 139 10 189 51v93h-255v122h376v-275c-63 -53 -140 -114 -312 -114c-224 0 -397 134 -397 364c0 213 169 362 382 362c142 0 247 -45 323 -159zM544 772h-139v136
h139v-136z" />
    <glyph glyph-name="gcommaaccent" unicode="&#x123;" horiz-adv-x="919" 
d="M793 554l-108 -65c-48 66 -117 100 -215 100c-146 0 -254 -96 -254 -238c0 -152 110 -241 271 -241c71 0 139 10 189 51v93h-255v122h376v-275c-63 -53 -140 -114 -312 -114c-224 0 -397 134 -397 364c0 213 169 362 382 362c142 0 247 -45 323 -159zM562 -67l-70 -233
h-104l25 233h149z" />
    <glyph glyph-name="hcircumflex" unicode="&#x125;" horiz-adv-x="927" 
d="M134 700h132v-276h396v276h131v-700h-131v299h-396v-299h-132v700zM527 770l-61 62l-61 -62h-155l120 118h192l120 -118h-155z" />
    <glyph glyph-name="hbar" unicode="&#x127;" horiz-adv-x="927" 
d="M134 700h129v-80h402v80h128v-80h75v-115h-75v-505h-128v299h-402v-299h-129v505h-74v115h74v80zM263 414h402v91h-402v-91z" />
    <glyph glyph-name="igrave" unicode="&#xec;" horiz-adv-x="403" 
d="M134 700h135v-700h-135v700zM215 888l102 -118h-167l-110 118h175z" />
    <glyph glyph-name="iacute" unicode="&#xed;" horiz-adv-x="403" 
d="M134 700h135v-700h-135v700zM89 770l102 118h175l-110 -118h-167z" />
    <glyph glyph-name="icircumflex" unicode="&#xee;" horiz-adv-x="403" 
d="M134 700h135v-700h-135v700zM261 770l-61 62l-61 -62h-155l120 118h192l120 -118h-155z" />
    <glyph glyph-name="itilde" unicode="&#x129;" horiz-adv-x="403" 
d="M134 700h135v-700h-135v700zM367 894v-26c0 -72 -31 -109 -88 -109c-17 0 -39 3 -62 14l-41 19c-13 6 -22 8 -30 8c-19 0 -29 -14 -29 -37h-88v25c0 73 31 110 88 110c22 0 41 -5 63 -15l41 -19c13 -6 21 -7 28 -7c19 0 30 14 30 37h88z" />
    <glyph glyph-name="idieresis" unicode="&#xef;" horiz-adv-x="403" 
d="M134 700h135v-700h-135v700zM170 765h-128v129h128v-129zM359 765h-129v129h129v-129z" />
    <glyph glyph-name="imacron" unicode="&#x12b;" horiz-adv-x="403" 
d="M134 700h135v-700h-135v700zM347 778h-293v103h293v-103z" />
    <glyph glyph-name="ibreve" unicode="&#x12d;" horiz-adv-x="403" 
d="M134 700h135v-700h-135v700zM263 907h106v-15c0 -85 -62 -144 -171 -144c-112 0 -172 59 -172 144v15h108v-12c0 -36 28 -56 64 -56c35 0 65 20 65 56v12z" />
    <glyph glyph-name="i.nul" horiz-adv-x="403" 
d="M134 700h135v-700h-135v700zM270 772h-139v136h139v-136z" />
    <glyph glyph-name="iogonek" unicode="&#x12f;" horiz-adv-x="403" 
d="M229 -248c-94 0 -150 55 -150 132c0 56 32 95 72 116h-17v700h135v-700h-3c-41 -16 -70 -47 -70 -87s26 -54 52 -54c18 0 31 5 42 15l45 -98c-36 -19 -67 -24 -106 -24z" />
    <glyph glyph-name="dotlessi" unicode="&#x131;" horiz-adv-x="403" 
d="M134 700h135v-700h-135v700z" />
    <glyph glyph-name="ij" unicode="&#x133;" horiz-adv-x="1175" 
d="M134 700h135v-700h-135v700zM918 700h130v-439c0 -175 -134 -274 -302 -274c-161 0 -286 81 -316 253l124 39c15 -109 84 -167 194 -167c102 0 170 58 170 152v436z" />
    <glyph glyph-name="jcircumflex" unicode="&#x135;" horiz-adv-x="785" 
d="M527 700h130v-439c0 -175 -134 -274 -302 -274c-161 0 -286 81 -316 253l124 39c15 -109 84 -167 194 -167c102 0 170 58 170 152v436zM654 770l-61 62l-61 -62h-155l120 118h192l120 -118h-155z" />
    <glyph glyph-name="dotlessj" unicode="&#x237;" horiz-adv-x="784" 
d="M527 700h130v-439c0 -175 -134 -274 -302 -274c-161 0 -286 81 -316 253l124 39c15 -109 84 -167 194 -167c102 0 170 58 170 152v436z" />
    <glyph glyph-name="kcommaaccent" unicode="&#x137;" horiz-adv-x="827" 
d="M764 700l-333 -299l362 -401h-172l-280 320l-80 -72v-248h-127v700h127v-305l329 305h174zM521 -67l-70 -233h-104l25 233h149z" />
    <glyph glyph-name="lacute" unicode="&#x13a;" horiz-adv-x="722" 
d="M134 700h132v-574h413v-126h-545v700zM308 770l102 118h175l-110 -118h-167z" />
    <glyph glyph-name="lcaron" unicode="&#x13e;" horiz-adv-x="722" 
d="M134 700h132v-574h413v-126h-545v700zM359 888l61 -63l61 63h155l-120 -118h-192l-120 118h155z" />
    <glyph glyph-name="lcommaaccent" unicode="&#x13c;" horiz-adv-x="722" 
d="M134 700h132v-574h413v-126h-545v700zM490 -67l-70 -233h-104l25 233h149z" />
    <glyph glyph-name="lslash" unicode="&#x142;" horiz-adv-x="722" 
d="M134 700h132v-294l185 77v-127l-185 -77v-155h413v-124h-545v224l-52 -21v127l52 21v349z" />
    <glyph glyph-name="ldot" unicode="&#x140;" horiz-adv-x="722" 
d="M134 700h132v-574h413v-126h-545v700zM501 772h-139v136h139v-136z" />
    <glyph glyph-name="nacute" unicode="&#x144;" horiz-adv-x="942" 
d="M134 0v700h179l368 -470v470h127v-700h-109l-437 557v-557h-128zM375 770l102 118h175l-110 -118h-167z" />
    <glyph glyph-name="ncaron" unicode="&#x148;" horiz-adv-x="942" 
d="M134 0v700h179l368 -470v470h127v-700h-109l-437 557v-557h-128zM423 888l61 -63l61 63h155l-120 -118h-192l-120 118h155z" />
    <glyph glyph-name="ntilde" unicode="&#xf1;" horiz-adv-x="942" 
d="M134 0v700h179l368 -470v470h127v-700h-109l-437 557v-557h-128zM648 894v-26c0 -72 -31 -109 -88 -109c-17 0 -39 3 -62 14l-41 19c-13 6 -22 8 -30 8c-19 0 -29 -14 -29 -37h-88v25c0 73 31 110 88 110c22 0 41 -5 63 -15l41 -19c13 -6 21 -7 28 -7c19 0 30 14 30 37
h88z" />
    <glyph glyph-name="ncommaaccent" unicode="&#x146;" horiz-adv-x="942" 
d="M134 0v700h179l368 -470v470h127v-700h-109l-437 557v-557h-128zM579 -67l-70 -233h-104l25 233h149z" />
    <glyph glyph-name="ograve" unicode="&#xf2;" horiz-adv-x="936" 
d="M467 713c222 0 381 -151 381 -362c0 -218 -165 -364 -381 -364c-213 0 -379 146 -379 364c0 216 169 362 379 362zM467 589c-154 0 -250 -103 -250 -238c0 -143 104 -240 250 -240c149 0 252 97 252 240c0 135 -97 238 -252 238zM494 888l102 -118h-167l-110 118h175z
" />
    <glyph glyph-name="oacute" unicode="&#xf3;" horiz-adv-x="936" 
d="M467 713c222 0 381 -151 381 -362c0 -218 -165 -364 -381 -364c-213 0 -379 146 -379 364c0 216 169 362 379 362zM467 589c-154 0 -250 -103 -250 -238c0 -143 104 -240 250 -240c149 0 252 97 252 240c0 135 -97 238 -252 238zM329 770l102 118h175l-110 -118h-167z
" />
    <glyph glyph-name="ocircumflex" unicode="&#xf4;" horiz-adv-x="936" 
d="M467 713c222 0 381 -151 381 -362c0 -218 -165 -364 -381 -364c-213 0 -379 146 -379 364c0 216 169 362 379 362zM467 589c-154 0 -250 -103 -250 -238c0 -143 104 -240 250 -240c149 0 252 97 252 240c0 135 -97 238 -252 238zM525 770l-61 62l-61 -62h-155l120 118
h192l120 -118h-155z" />
    <glyph glyph-name="otilde" unicode="&#xf5;" horiz-adv-x="936" 
d="M467 713c222 0 381 -151 381 -362c0 -218 -165 -364 -381 -364c-213 0 -379 146 -379 364c0 216 169 362 379 362zM467 589c-154 0 -250 -103 -250 -238c0 -143 104 -240 250 -240c149 0 252 97 252 240c0 135 -97 238 -252 238zM631 894v-26c0 -72 -31 -109 -88 -109
c-17 0 -39 3 -62 14l-41 19c-13 6 -22 8 -30 8c-19 0 -29 -14 -29 -37h-88v25c0 73 31 110 88 110c22 0 41 -5 63 -15l41 -19c13 -6 21 -7 28 -7c19 0 30 14 30 37h88z" />
    <glyph glyph-name="odieresis" unicode="&#xf6;" horiz-adv-x="936" 
d="M467 713c222 0 381 -151 381 -362c0 -218 -165 -364 -381 -364c-213 0 -379 146 -379 364c0 216 169 362 379 362zM467 589c-154 0 -250 -103 -250 -238c0 -143 104 -240 250 -240c149 0 252 97 252 240c0 135 -97 238 -252 238zM434 765h-128v129h128v-129zM623 765
h-129v129h129v-129z" />
    <glyph glyph-name="omacron" unicode="&#x14d;" horiz-adv-x="936" 
d="M467 713c222 0 381 -151 381 -362c0 -218 -165 -364 -381 -364c-213 0 -379 146 -379 364c0 216 169 362 379 362zM467 589c-154 0 -250 -103 -250 -238c0 -143 104 -240 250 -240c149 0 252 97 252 240c0 135 -97 238 -252 238zM611 778h-293v103h293v-103z" />
    <glyph glyph-name="obreve" unicode="&#x14f;" horiz-adv-x="936" 
d="M467 713c222 0 381 -151 381 -362c0 -218 -165 -364 -381 -364c-213 0 -379 146 -379 364c0 216 169 362 379 362zM467 589c-154 0 -250 -103 -250 -238c0 -143 104 -240 250 -240c149 0 252 97 252 240c0 135 -97 238 -252 238zM527 907h106v-15
c0 -85 -62 -144 -171 -144c-112 0 -172 59 -172 144v15h108v-12c0 -36 28 -56 64 -56c35 0 65 20 65 56v12z" />
    <glyph glyph-name="ohungarumlaut" unicode="&#x151;" horiz-adv-x="936" 
d="M467 713c222 0 381 -151 381 -362c0 -218 -165 -364 -381 -364c-213 0 -379 146 -379 364c0 216 169 362 379 362zM467 589c-154 0 -250 -103 -250 -238c0 -143 104 -240 250 -240c149 0 252 97 252 240c0 135 -97 238 -252 238zM229 770l102 118h172l-112 -118h-162z
M483 770l103 118h173l-112 -118h-164z" />
    <glyph glyph-name="oslash" unicode="&#xf8;" horiz-adv-x="936" 
d="M661 732h149l-79 -113c73 -64 117 -158 117 -268c0 -218 -165 -364 -381 -364c-56 0 -109 10 -157 29l-34 -49h-150l79 113c-72 64 -117 158 -117 271c0 216 169 362 379 362c58 0 112 -11 160 -30zM467 591c-156 0 -253 -103 -253 -240c0 -68 24 -125 64 -167l276 395
c-27 8 -56 12 -87 12zM722 351c0 65 -23 122 -63 165l-276 -396c26 -7 54 -11 84 -11c150 0 255 98 255 242z" />
    <glyph glyph-name="oslashacute" unicode="&#x1ff;" horiz-adv-x="936" 
d="M661 732h149l-79 -113c73 -64 117 -158 117 -268c0 -218 -165 -364 -381 -364c-56 0 -109 10 -157 29l-34 -49h-150l79 113c-72 64 -117 158 -117 271c0 216 169 362 379 362c58 0 112 -11 160 -30zM467 591c-156 0 -253 -103 -253 -240c0 -68 24 -125 64 -167l276 395
c-27 8 -56 12 -87 12zM722 351c0 65 -23 122 -63 165l-276 -396c26 -7 54 -11 84 -11c150 0 255 98 255 242zM333 770l102 118h175l-110 -118h-167z" />
    <glyph glyph-name="oe" unicode="&#x153;" horiz-adv-x="1279" 
d="M620 700h549v-124h-423v-160h362v-123h-362v-169h438v-124h-564c-47 -9 -84 -13 -141 -13c-219 0 -391 138 -391 364c0 225 172 362 391 362c57 0 89 -3 141 -13zM620 131v438c-39 15 -90 20 -138 20c-153 0 -266 -81 -266 -238c0 -160 113 -240 266 -240
c66 0 100 7 138 20z" />
    <glyph glyph-name="racute" unicode="&#x155;" horiz-adv-x="876" 
d="M134 700h370c54 0 109 -7 153 -28c72 -33 124 -102 124 -206c0 -98 -38 -179 -148 -220l176 -246h-160l-162 227h-226v-227h-127v700zM261 348h239c33 0 62 2 85 11c43 14 70 47 70 106c0 53 -24 83 -63 99c-25 11 -57 13 -93 13h-238v-229zM324 770l102 118h175
l-110 -118h-167z" />
    <glyph glyph-name="rcaron" unicode="&#x159;" horiz-adv-x="876" 
d="M134 700h370c54 0 109 -7 153 -28c72 -33 124 -102 124 -206c0 -98 -38 -179 -148 -220l176 -246h-160l-162 227h-226v-227h-127v700zM261 348h239c33 0 62 2 85 11c43 14 70 47 70 106c0 53 -24 83 -63 99c-25 11 -57 13 -93 13h-238v-229zM380 888l61 -63l61 63h155
l-120 -118h-192l-120 118h155z" />
    <glyph glyph-name="rcommaaccent" unicode="&#x157;" horiz-adv-x="876" 
d="M134 700h370c54 0 109 -7 153 -28c72 -33 124 -102 124 -206c0 -98 -38 -179 -148 -220l176 -246h-160l-162 227h-226v-227h-127v700zM261 348h239c33 0 62 2 85 11c43 14 70 47 70 106c0 53 -24 83 -63 99c-25 11 -57 13 -93 13h-238v-229zM516 -67l-70 -233h-104
l25 233h149z" />
    <glyph glyph-name="sacute" unicode="&#x15b;" horiz-adv-x="814" 
d="M617 517l94 82c-74 83 -186 114 -301 114c-182 0 -292 -89 -292 -209c0 -137 104 -180 251 -198l83 -10c96 -12 141 -36 141 -92c0 -55 -50 -97 -166 -97c-103 0 -177 21 -238 90l-98 -82c79 -95 196 -128 329 -128c210 0 301 105 301 221c0 131 -94 188 -238 205l-78 9
c-95 12 -159 28 -159 88c0 37 33 83 159 83c95 0 169 -24 212 -76zM322 770l102 118h175l-110 -118h-167z" />
    <glyph glyph-name="scircumflex" unicode="&#x15d;" horiz-adv-x="814" 
d="M617 517l94 82c-74 83 -186 114 -301 114c-182 0 -292 -89 -292 -209c0 -137 104 -180 251 -198l83 -10c96 -12 141 -36 141 -92c0 -55 -50 -97 -166 -97c-103 0 -177 21 -238 90l-98 -82c79 -95 196 -128 329 -128c210 0 301 105 301 221c0 131 -94 188 -238 205l-78 9
c-95 12 -159 28 -159 88c0 37 33 83 159 83c95 0 169 -24 212 -76zM486 770l-61 62l-61 -62h-155l120 118h192l120 -118h-155z" />
    <glyph glyph-name="scaron" unicode="&#x161;" horiz-adv-x="814" 
d="M617 517l94 82c-74 83 -186 114 -301 114c-182 0 -292 -89 -292 -209c0 -137 104 -180 251 -198l83 -10c96 -12 141 -36 141 -92c0 -55 -50 -97 -166 -97c-103 0 -177 21 -238 90l-98 -82c79 -95 196 -128 329 -128c210 0 301 105 301 221c0 131 -94 188 -238 205l-78 9
c-95 12 -159 28 -159 88c0 37 33 83 159 83c95 0 169 -24 212 -76zM364 888l61 -63l61 63h155l-120 -118h-192l-120 118h155z" />
    <glyph glyph-name="scedilla" unicode="&#x15f;" horiz-adv-x="814" 
d="M711 599l-94 -82c-43 52 -117 76 -212 76c-126 0 -159 -46 -159 -83c0 -60 64 -76 159 -88l78 -9c144 -17 238 -74 238 -205c0 -116 -91 -221 -301 -221c-133 0 -250 33 -329 128l98 82c61 -69 135 -90 238 -90c116 0 166 42 166 97c0 56 -45 80 -141 92l-83 10
c-147 18 -251 61 -251 198c0 120 110 209 292 209c115 0 227 -31 301 -114zM304 -265l41 213h133l-54 -213h-120z" />
    <glyph glyph-name="scommaaccent" unicode="&#x219;" horiz-adv-x="814" 
d="M711 599l-94 -82c-43 52 -117 76 -212 76c-126 0 -159 -46 -159 -83c0 -60 64 -76 159 -88l78 -9c144 -17 238 -74 238 -205c0 -116 -91 -221 -301 -221c-133 0 -250 33 -329 128l98 82c61 -69 135 -90 238 -90c116 0 166 42 166 97c0 56 -45 80 -141 92l-83 10
c-147 18 -251 61 -251 198c0 120 110 209 292 209c115 0 227 -31 301 -114zM495 -67l-70 -233h-104l25 233h149z" />
    <glyph glyph-name="germandbls" unicode="&#xdf;" horiz-adv-x="1614" 
d="M711 599l-94 -82c-43 52 -117 76 -212 76c-126 0 -159 -46 -159 -83c0 -60 64 -76 159 -88l78 -9c144 -17 238 -74 238 -205c0 -116 -91 -221 -301 -221c-133 0 -250 33 -329 128l98 82c61 -69 135 -90 238 -90c116 0 166 42 166 97c0 56 -45 80 -141 92l-83 10
c-147 18 -251 61 -251 198c0 120 110 209 292 209c115 0 227 -31 301 -114zM1511 599l-94 -82c-43 52 -117 76 -212 76c-126 0 -159 -46 -159 -83c0 -60 64 -76 159 -88l78 -9c144 -17 238 -74 238 -205c0 -116 -91 -221 -301 -221c-133 0 -250 33 -329 128l98 82
c61 -69 135 -90 238 -90c116 0 166 42 166 97c0 56 -45 80 -141 92l-83 10c-147 18 -251 61 -251 198c0 120 110 209 292 209c115 0 227 -31 301 -114z" />
    <glyph glyph-name="tcaron" unicode="&#x165;" horiz-adv-x="745" 
d="M41 700h663v-124h-266v-576h-131v576h-266v124zM308 888l61 -63l61 63h155l-120 -118h-192l-120 118h155z" />
    <glyph glyph-name="tcommaaccent" unicode="&#x163;" horiz-adv-x="745" 
d="M41 700h663v-124h-266v-576h-131v576h-266v124zM471 -67l-70 -233h-104l25 233h149z" />
    <glyph glyph-name="tbar" unicode="&#x167;" horiz-adv-x="745" 
d="M41 700h663v-124h-266v-170h117v-124h-117v-282h-131v282h-115v124h115v170h-266v124z" />
    <glyph glyph-name="ugrave" unicode="&#xf9;" horiz-adv-x="917" 
d="M128 700h131v-386c0 -44 7 -81 23 -112c30 -59 84 -90 177 -90s147 32 177 91c16 30 23 67 23 111v386h130v-390c0 -59 -7 -111 -28 -155c-49 -108 -152 -168 -302 -168c-145 0 -251 60 -303 169c-21 45 -28 95 -28 154v390zM467 888l102 -118h-167l-110 118h175z" />
    <glyph glyph-name="uacute" unicode="&#xfa;" horiz-adv-x="917" 
d="M128 700h131v-386c0 -44 7 -81 23 -112c30 -59 84 -90 177 -90s147 32 177 91c16 30 23 67 23 111v386h130v-390c0 -59 -7 -111 -28 -155c-49 -108 -152 -168 -302 -168c-145 0 -251 60 -303 169c-21 45 -28 95 -28 154v390zM355 770l102 118h175l-110 -118h-167z" />
    <glyph glyph-name="ucircumflex" unicode="&#xfb;" horiz-adv-x="917" 
d="M128 700h131v-386c0 -44 7 -81 23 -112c30 -59 84 -90 177 -90s147 32 177 91c16 30 23 67 23 111v386h130v-390c0 -59 -7 -111 -28 -155c-49 -108 -152 -168 -302 -168c-145 0 -251 60 -303 169c-21 45 -28 95 -28 154v390zM520 770l-61 62l-61 -62h-155l120 118h192
l120 -118h-155z" />
    <glyph glyph-name="utilde" unicode="&#x169;" horiz-adv-x="917" 
d="M128 700h131v-386c0 -44 7 -81 23 -112c30 -59 84 -90 177 -90s147 32 177 91c16 30 23 67 23 111v386h130v-390c0 -59 -7 -111 -28 -155c-49 -108 -152 -168 -302 -168c-145 0 -251 60 -303 169c-21 45 -28 95 -28 154v390zM626 894v-26c0 -72 -31 -109 -88 -109
c-17 0 -39 3 -62 14l-41 19c-13 6 -22 8 -30 8c-19 0 -29 -14 -29 -37h-88v25c0 73 31 110 88 110c22 0 41 -5 63 -15l41 -19c13 -6 21 -7 28 -7c19 0 30 14 30 37h88z" />
    <glyph glyph-name="udieresis" unicode="&#xfc;" horiz-adv-x="917" 
d="M128 700h131v-386c0 -44 7 -81 23 -112c30 -59 84 -90 177 -90s147 32 177 91c16 30 23 67 23 111v386h130v-390c0 -59 -7 -111 -28 -155c-49 -108 -152 -168 -302 -168c-145 0 -251 60 -303 169c-21 45 -28 95 -28 154v390zM429 765h-128v129h128v-129zM618 765h-129
v129h129v-129z" />
    <glyph glyph-name="umacron" unicode="&#x16b;" horiz-adv-x="917" 
d="M128 700h131v-386c0 -44 7 -81 23 -112c30 -59 84 -90 177 -90s147 32 177 91c16 30 23 67 23 111v386h130v-390c0 -59 -7 -111 -28 -155c-49 -108 -152 -168 -302 -168c-145 0 -251 60 -303 169c-21 45 -28 95 -28 154v390zM606 778h-293v103h293v-103z" />
    <glyph glyph-name="ubreve" unicode="&#x16d;" horiz-adv-x="917" 
d="M128 700h131v-386c0 -44 7 -81 23 -112c30 -59 84 -90 177 -90s147 32 177 91c16 30 23 67 23 111v386h130v-390c0 -59 -7 -111 -28 -155c-49 -108 -152 -168 -302 -168c-145 0 -251 60 -303 169c-21 45 -28 95 -28 154v390zM522 907h106v-15c0 -85 -62 -144 -171 -144
c-112 0 -172 59 -172 144v15h108v-12c0 -36 28 -56 64 -56c35 0 65 20 65 56v12z" />
    <glyph glyph-name="uring" unicode="&#x16f;" horiz-adv-x="917" 
d="M128 700h131v-386c0 -44 7 -81 23 -112c30 -59 84 -90 177 -90s147 32 177 91c16 30 23 67 23 111v386h130v-390c0 -59 -7 -111 -28 -155c-49 -108 -152 -168 -302 -168c-145 0 -251 60 -303 169c-21 45 -28 95 -28 154v390zM459 751c-58 0 -100 40 -100 95s43 96 99 96
c58 0 101 -41 101 -96s-42 -95 -100 -95zM422 846c0 -21 14 -36 36 -36s37 15 37 36c0 20 -15 35 -37 35c-21 0 -36 -15 -36 -35z" />
    <glyph glyph-name="uhungarumlaut" unicode="&#x171;" horiz-adv-x="917" 
d="M128 700h131v-386c0 -44 7 -81 23 -112c30 -59 84 -90 177 -90s147 32 177 91c16 30 23 67 23 111v386h130v-390c0 -59 -7 -111 -28 -155c-49 -108 -152 -168 -302 -168c-145 0 -251 60 -303 169c-21 45 -28 95 -28 154v390zM233 770l102 118h172l-112 -118h-162z
M487 770l103 118h173l-112 -118h-164z" />
    <glyph glyph-name="uogonek" unicode="&#x173;" horiz-adv-x="917" 
d="M506 -248c-94 0 -150 55 -150 132c0 48 23 83 54 106c-120 11 -208 69 -254 166c-21 45 -28 95 -28 154v390h131v-386c0 -44 7 -81 23 -112c30 -59 84 -90 177 -90s147 32 177 91c16 30 23 67 23 111v386h130v-390c0 -59 -7 -111 -28 -155c-42 -92 -122 -149 -238 -164
c-30 -17 -50 -44 -50 -78c0 -40 26 -54 52 -54c18 0 31 5 42 15l45 -98c-36 -19 -67 -24 -106 -24z" />
    <glyph glyph-name="wgrave" unicode="&#x1e81;" horiz-adv-x="1255" 
d="M628 550l-182 -550h-163l-237 700h141l179 -564l187 564h152l185 -564l179 564h140l-236 -700h-165zM642 888l102 -118h-167l-110 118h175z" />
    <glyph glyph-name="wacute" unicode="&#x1e83;" horiz-adv-x="1255" 
d="M628 550l-182 -550h-163l-237 700h141l179 -564l187 564h152l185 -564l179 564h140l-236 -700h-165zM521 770l102 118h175l-110 -118h-167z" />
    <glyph glyph-name="wcircumflex" unicode="&#x175;" horiz-adv-x="1255" 
d="M628 550l-182 -550h-163l-237 700h141l179 -564l187 564h152l185 -564l179 564h140l-236 -700h-165zM690 770l-61 62l-61 -62h-155l120 118h192l120 -118h-155z" />
    <glyph glyph-name="wdieresis" unicode="&#x1e85;" horiz-adv-x="1255" 
d="M628 550l-182 -550h-163l-237 700h141l179 -564l187 564h152l185 -564l179 564h140l-236 -700h-165zM599 765h-128v129h128v-129zM788 765h-129v129h129v-129z" />
    <glyph glyph-name="ygrave" unicode="&#x1ef3;" horiz-adv-x="778" 
d="M6 700h171l213 -253l216 253h166l-320 -369v-331h-130v331zM385 888l102 -118h-167l-110 118h175z" />
    <glyph glyph-name="yacute" unicode="&#xfd;" horiz-adv-x="778" 
d="M6 700h171l213 -253l216 253h166l-320 -369v-331h-130v331zM281 770l102 118h175l-110 -118h-167z" />
    <glyph glyph-name="ycircumflex" unicode="&#x177;" horiz-adv-x="778" 
d="M6 700h171l213 -253l216 253h166l-320 -369v-331h-130v331zM454 770l-61 62l-61 -62h-155l120 118h192l120 -118h-155z" />
    <glyph glyph-name="ydieresis" unicode="&#xff;" horiz-adv-x="778" 
d="M6 700h171l213 -253l216 253h166l-320 -369v-331h-130v331zM363 765h-128v129h128v-129zM552 765h-129v129h129v-129z" />
    <glyph glyph-name="zacute" unicode="&#x17a;" horiz-adv-x="839" 
d="M730 700v-125l-457 -450h462v-125h-636v123l462 454h-438v123h607zM317 770l102 118h175l-110 -118h-167z" />
    <glyph glyph-name="zcaron" unicode="&#x17e;" horiz-adv-x="839" 
d="M730 700v-125l-457 -450h462v-125h-636v123l462 454h-438v123h607zM372 888l61 -63l61 63h155l-120 -118h-192l-120 118h155z" />
    <glyph glyph-name="zdotaccent" unicode="&#x17c;" horiz-adv-x="839" 
d="M730 700v-125l-457 -450h462v-125h-636v123l462 454h-438v123h607zM497 772h-139v136h139v-136z" />
    <glyph glyph-name="schwa" unicode="&#x259;" horiz-adv-x="912" 
d="M227 490l-111 60c53 87 168 163 324 163c219 0 384 -135 384 -366c0 -220 -171 -360 -379 -360c-217 0 -362 152 -362 366v25h609c-4 110 -85 217 -250 217c-88 0 -164 -33 -215 -105zM689 282h-466c13 -116 103 -179 226 -179c110 0 215 48 240 179z" />
    <glyph glyph-name="eng" unicode="&#x14b;" horiz-adv-x="942" 
d="M681 700h127v-705c0 -141 -97 -242 -240 -242c-91 0 -156 37 -202 108l105 75c23 -39 56 -57 98 -57c75 0 112 58 112 115v29l-419 534v-557h-128v700h179l368 -470v470z" />
    <glyph glyph-name="eth" unicode="&#xf0;" horiz-adv-x="912" 
d="M134 700h295c64 0 130 -9 186 -31c123 -49 209 -153 209 -317c0 -166 -88 -278 -221 -325c-50 -18 -110 -27 -171 -27h-298v291h-44v123h44v286zM260 576v-162h185v-123h-185v-167h171c44 0 89 5 127 19c82 31 139 97 139 209c0 109 -52 173 -129 203
c-41 16 -91 21 -139 21h-169z" />
    <glyph glyph-name="thorn" unicode="&#xfe;" horiz-adv-x="831" 
d="M134 700h127v-74h244c52 0 103 -8 144 -27c74 -36 126 -106 126 -208c0 -113 -61 -184 -148 -215c-37 -14 -78 -18 -122 -18h-244v-158h-127v700zM261 503v-221h237c27 0 55 1 78 8c43 12 73 42 73 101c0 52 -26 85 -67 100c-23 9 -54 12 -83 12h-238z" />
    <glyph glyph-name="grave" unicode="`" horiz-adv-x="246" 
d="M163 888l102 -118h-167l-110 118h175z" />
    <glyph glyph-name="acute" unicode="&#xb4;" horiz-adv-x="246" 
d="M-12 770l102 118h175l-110 -118h-167z" />
    <glyph glyph-name="circumflex" unicode="&#x2c6;" horiz-adv-x="246" 
d="M184 770l-61 62l-61 -62h-155l120 118h192l120 -118h-155z" />
    <glyph glyph-name="caron" unicode="&#x2c7;" horiz-adv-x="246" 
d="M62 888l61 -63l61 63h155l-120 -118h-192l-120 118h155z" />
    <glyph glyph-name="caronSlovak" horiz-adv-x="246" 
d="M35 443l45 257h131l-63 -257h-113z" />
    <glyph glyph-name="tilde" unicode="&#x2dc;" horiz-adv-x="246" 
d="M290 894v-26c0 -72 -31 -109 -88 -109c-17 0 -39 3 -62 14l-41 19c-13 6 -22 8 -30 8c-19 0 -29 -14 -29 -37h-88v25c0 73 31 110 88 110c22 0 41 -5 63 -15l41 -19c13 -6 21 -7 28 -7c19 0 30 14 30 37h88z" />
    <glyph glyph-name="dieresis" unicode="&#xa8;" horiz-adv-x="246" 
d="M93 765h-128v129h128v-129zM282 765h-129v129h129v-129z" />
    <glyph glyph-name="macron" unicode="&#xaf;" horiz-adv-x="246" 
d="M270 778h-293v103h293v-103z" />
    <glyph glyph-name="breve" unicode="&#x2d8;" horiz-adv-x="246" 
d="M186 907h106v-15c0 -85 -62 -144 -171 -144c-112 0 -172 59 -172 144v15h108v-12c0 -36 28 -56 64 -56c35 0 65 20 65 56v12z" />
    <glyph glyph-name="ring" unicode="&#x2da;" horiz-adv-x="246" 
d="M123 751c-58 0 -100 40 -100 95s43 96 99 96c58 0 101 -41 101 -96s-42 -95 -100 -95zM86 846c0 -21 14 -36 36 -36s37 15 37 36c0 20 -15 35 -37 35c-21 0 -36 -15 -36 -35z" />
    <glyph glyph-name="hungarumlaut" unicode="&#x2dd;" horiz-adv-x="246" 
d="M-144 770l102 118h172l-112 -118h-162zM110 770l103 118h173l-112 -118h-164z" />
    <glyph glyph-name="dotaccent" unicode="&#x2d9;" horiz-adv-x="246" 
d="M192 772h-139v136h139v-136z" />
    <glyph glyph-name="cedilla" unicode="&#xb8;" horiz-adv-x="246" 
d="M44 -265l41 213h133l-54 -213h-120z" />
    <glyph glyph-name="ogonek" unicode="&#x2db;" horiz-adv-x="246" 
d="M145 -248c-94 0 -150 55 -150 132c0 56 32 95 72 116h115c-41 -16 -70 -47 -70 -87s26 -54 52 -54c18 0 31 5 42 15l45 -98c-36 -19 -67 -24 -106 -24z" />
    <glyph glyph-name="commaaccent" unicode="&#xf6c3;" horiz-adv-x="246" 
d="M227 -67l-70 -233h-104l25 233h149z" />
    <glyph glyph-name="commaaccent.alt" horiz-adv-x="246" 
d="M213 1011l-49 -241h-126l56 241h119z" />
    <glyph glyph-name="comma" unicode="," horiz-adv-x="315" 
d="M131 -190h-111l74 341h159z" />
    <glyph glyph-name="semicolon" unicode=";" horiz-adv-x="315" 
d="M249 357h-155v152h155v-152zM131 -190h-111l74 341h159z" />
    <glyph glyph-name="colon" unicode=":" horiz-adv-x="315" 
d="M235 357h-155v152h155v-152zM235 0h-155v152h155v-152z" />
    <glyph glyph-name="period" unicode="." horiz-adv-x="315" 
d="M235 0h-155v152h155v-152z" />
    <glyph glyph-name="ellipsis" unicode="&#x2026;" horiz-adv-x="800" 
d="M235 0h-155v152h155v-152zM478 0h-155v152h155v-152zM720 0h-155v152h155v-152z" />
    <glyph glyph-name="hyphen" unicode="-" horiz-adv-x="549" 
d="M469 290h-389v129h389v-129z" />
    <glyph glyph-name="exclam" unicode="!" horiz-adv-x="387" 
d="M256 223h-124l-9 477h142zM271 0h-155v151h155v-151z" />
    <glyph glyph-name="exclamdown" unicode="&#xa1;" horiz-adv-x="387" 
d="M131 477h124l9 -477h-142zM116 700h155v-151h-155v151z" />
    <glyph glyph-name="question" unicode="?" horiz-adv-x="671" 
d="M161 480l-124 32c26 113 130 201 307 201c124 0 276 -48 276 -196c0 -88 -59 -137 -153 -183c-49 -24 -88 -47 -90 -111h-126c0 102 34 147 123 191c69 34 112 54 112 103c0 42 -41 78 -145 78c-84 0 -154 -27 -180 -115zM390 0h-155v152h155v-152z" />
    <glyph glyph-name="questiondown" unicode="&#xbf;" horiz-adv-x="661" 
d="M505 233l124 -32c-26 -113 -130 -201 -307 -201c-124 0 -276 48 -276 196c0 88 59 137 153 183c49 24 88 47 90 111h126c0 -102 -34 -147 -123 -191c-69 -34 -112 -54 -112 -103c0 -42 41 -78 145 -78c84 0 154 27 180 115zM429 561h-155v152h155v-152z" />
    <glyph glyph-name="quoteleft" unicode="&#x2018;" horiz-adv-x="355" 
d="M296 444h-127l-118 256h148z" />
    <glyph glyph-name="quoteright" unicode="&#x2019;" horiz-adv-x="355" 
d="M186 444h-127l97 256h148z" />
    <glyph glyph-name="quotedblleft" unicode="&#x201c;" horiz-adv-x="584" 
d="M296 444h-127l-118 256h148zM525 444h-127l-118 256h148z" />
    <glyph glyph-name="quotedblright" unicode="&#x201d;" horiz-adv-x="584" 
d="M186 444h-127l97 256h148zM415 444h-127l97 256h148z" />
    <glyph glyph-name="quotesinglbase" unicode="&#x201a;" horiz-adv-x="355" 
d="M174 -105h-127l97 256h148z" />
    <glyph glyph-name="quotedblbase" unicode="&#x201e;" horiz-adv-x="584" 
d="M174 -105h-127l97 256h148zM403 -105h-127l97 256h148z" />
    <glyph glyph-name="quotesingle" unicode="'" horiz-adv-x="339" 
d="M104 700h131l-5 -230h-122z" />
    <glyph glyph-name="quotedbl" unicode="&#x22;" horiz-adv-x="549" 
d="M104 700h131l-5 -230h-122zM314 700h131l-5 -230h-122z" />
    <glyph glyph-name="guilsinglleft" unicode="&#x2039;" horiz-adv-x="237" 
d="M189 280v-156l-160 138v152l160 141v-157l-85 -59z" />
    <glyph glyph-name="guilsinglright" unicode="&#x203a;" horiz-adv-x="236" 
d="M48 399v156l159 -138v-153l-159 -140v157l84 59z" />
    <glyph glyph-name="guillemotleft" unicode="&#xab;" horiz-adv-x="441" 
d="M189 280v-156l-160 138v152l160 141v-157l-85 -59zM393 280v-156l-160 138v152l160 141v-157l-85 -59z" />
    <glyph glyph-name="guillemotright" unicode="&#xbb;" horiz-adv-x="440" 
d="M48 399v156l159 -138v-153l-159 -140v157l84 59zM252 399v156l159 -138v-153l-159 -140v157l84 59z" />
    <glyph glyph-name="slash" unicode="/" horiz-adv-x="716" 
d="M564 748h146l-558 -798h-146z" />
    <glyph glyph-name="backslash" unicode="\" horiz-adv-x="716" 
d="M6 748h146l558 -798h-146z" />
    <glyph glyph-name="bar" unicode="|" horiz-adv-x="400" 
d="M134 748h132v-798h-132v798z" />
    <glyph glyph-name="brokenbar" unicode="&#xa6;" horiz-adv-x="400" 
d="M134 748h132v-322h-132v322zM134 271h132v-321h-132v321z" />
    <glyph glyph-name="endash" unicode="&#x2013;" horiz-adv-x="643" 
d="M563 290h-483v129h483v-129z" />
    <glyph glyph-name="underscore" unicode="_" horiz-adv-x="569" 
d="M563 -233h-557v129h557v-129z" />
    <glyph glyph-name="emdash" unicode="&#x2014;" horiz-adv-x="717" 
d="M637 290h-557v129h557v-129z" />
    <glyph glyph-name="bullet" unicode="&#x2022;" horiz-adv-x="296" 
d="M271 354c0 -70 -52 -123 -123 -123s-123 53 -123 123c0 69 52 122 123 122s123 -53 123 -122z" />
    <glyph glyph-name="periodcentered" unicode="&#xb7;" horiz-adv-x="315" 
d="M235 284h-155v152h155v-152z" />
    <glyph glyph-name="parenleft" unicode="(" horiz-adv-x="360" 
d="M300 -79h-108c-71 123 -107 278 -107 426c0 159 36 300 109 436h107c-59 -155 -78 -287 -78 -436c0 -139 16 -273 77 -426z" />
    <glyph glyph-name="parenright" unicode=")" horiz-adv-x="360" 
d="M168 -79h-108c61 153 77 287 77 426c0 149 -18 281 -78 436h107c73 -136 109 -277 109 -436c0 -148 -36 -303 -107 -426z" />
    <glyph glyph-name="bracketleft" unicode="[" horiz-adv-x="533" 
d="M414 -79h-280v862h280v-125h-148v-613h148v-124z" />
    <glyph glyph-name="bracketright" unicode="]" horiz-adv-x="532" 
d="M398 -79h-279v124h149v613h-149v125h279v-862z" />
    <glyph glyph-name="braceleft" unicode="{" horiz-adv-x="533" 
d="M414 -79h-280v862h280v-125h-148v-613h148v-124z" />
    <glyph glyph-name="braceright" unicode="}" horiz-adv-x="532" 
d="M398 -79h-279v124h149v613h-149v125h279v-862z" />
    <glyph glyph-name="asterisk" unicode="*" horiz-adv-x="466" 
d="M281 700l-4 -113l106 38l31 -88l-111 -32l70 -92l-76 -58l-65 100l-68 -101l-75 59l75 92l-111 32l29 88l108 -38l-1 113h92z" />
    <glyph glyph-name="dagger" unicode="&#x2020;" horiz-adv-x="710" 
d="M99 573l196 -5l-5 194h130l-4 -194l195 5v-127l-195 5l4 -525h-130l5 525l-196 -5v127z" />
    <glyph glyph-name="daggerdbl" unicode="&#x2021;" horiz-adv-x="710" 
d="M611 119l-195 5l4 -198h-130l5 198l-196 -5v126l196 -5l-5 109l5 103l-196 -5v126l196 -5l-5 194h130l-4 -194l195 5v-126l-195 5l4 -103l-4 -109l195 5v-126z" />
    <glyph glyph-name="section" unicode="&#xa7;" horiz-adv-x="692" 
d="M588 636l-84 -79c-33 43 -87 63 -151 63c-83 0 -109 -31 -109 -52c0 -35 43 -47 107 -56l57 -8c106 -17 185 -61 185 -167c0 -40 -16 -71 -42 -95c24 -26 38 -60 38 -104c0 -119 -113 -179 -238 -179c-94 0 -187 29 -252 111l89 76c47 -57 102 -72 167 -72
c79 0 116 26 116 61c0 36 -39 50 -93 58l-61 8c-113 16 -195 51 -195 163c0 37 16 70 44 96c-24 24 -38 58 -38 103c0 97 81 171 230 171c91 0 177 -35 230 -98zM476 335c0 36 -25 47 -94 56l-60 8c-20 2 -38 6 -55 10c-20 -11 -26 -27 -26 -41c0 -36 34 -45 106 -55l57 -8
c18 -3 35 -6 51 -11c14 13 21 27 21 41z" />
    <glyph glyph-name="paragraph" unicode="&#xb6;" horiz-adv-x="723" 
d="M638 761v-91h-56v-744h-96v744h-81v-744h-94v366c-120 1 -221 86 -221 230c0 143 97 239 236 239h312z" />
    <glyph glyph-name="at" unicode="@" horiz-adv-x="905" 
d="M366 331c0 -42 24 -72 71 -72c63 0 104 68 104 127c0 38 -26 67 -71 67c-62 0 -104 -67 -104 -122zM746 397c0 149 -119 221 -272 221c-171 0 -281 -110 -281 -270c0 -164 116 -266 286 -266c93 0 150 19 204 70l75 -53c-72 -74 -167 -112 -274 -112
c-236 0 -396 157 -396 363c0 201 156 363 388 363c207 0 357 -116 357 -297c0 -191 -153 -248 -204 -248c-62 0 -86 36 -93 60c-26 -30 -69 -61 -124 -61c-81 0 -147 58 -147 154c0 118 71 225 203 225c39 0 88 -18 106 -61l13 47h93l-61 -232c-1 -3 -1 -6 -1 -8
c0 -15 11 -23 31 -23c41 0 97 37 97 128z" />
    <glyph glyph-name="copyright" unicode="&#xa9;" horiz-adv-x="936" 
d="M648 421l-84 -44c-24 40 -55 62 -98 62c-54 0 -93 -38 -93 -89c0 -49 36 -88 98 -88c42 0 74 23 93 63l84 -47c-43 -73 -100 -109 -177 -109c-113 0 -192 73 -192 181c0 106 80 183 187 183c75 0 142 -35 182 -112zM467 713c222 0 381 -151 381 -362
c0 -218 -165 -364 -381 -364c-213 0 -379 146 -379 364c0 216 169 362 379 362zM467 614c-170 0 -276 -114 -276 -263c0 -157 115 -263 276 -263c164 0 277 106 277 263c0 149 -108 263 -277 263z" />
    <glyph glyph-name="registered" unicode="&#xae;" horiz-adv-x="635" 
d="M222 580h124c41 0 81 -26 81 -75c0 -27 -11 -49 -32 -62l44 -71h-76l-37 61h-39v-61h-65v208zM289 485h43c6 0 15 1 19 3c6 3 10 6 10 19c0 7 -3 11 -9 14s-14 3 -20 3h-43v-39zM317 713c146 0 252 -99 252 -239c0 -144 -110 -240 -252 -240c-141 0 -251 96 -251 240
c0 143 112 239 251 239zM317 636c-105 0 -170 -68 -170 -162c0 -98 71 -162 170 -162c101 0 170 64 170 162c0 94 -66 162 -170 162z" />
    <glyph glyph-name="published" horiz-adv-x="936" 
d="M338 523h182c24 0 48 -4 71 -14c38 -19 65 -56 65 -107c0 -58 -31 -95 -76 -111c-19 -6 -39 -8 -60 -8h-96v-105h-86v345zM424 437v-69h93c10 0 24 1 31 3c12 3 22 14 22 31c0 16 -8 26 -20 31c-9 3 -21 4 -32 4h-94zM467 713c222 0 381 -151 381 -362
c0 -218 -165 -364 -381 -364c-213 0 -379 146 -379 364c0 216 169 362 379 362zM467 614c-170 0 -276 -114 -276 -263c0 -157 115 -263 276 -263c164 0 277 106 277 263c0 149 -108 263 -277 263z" />
    <glyph glyph-name="trademark" unicode="&#x2122;" horiz-adv-x="888" 
d="M67 700h294v-80h-106v-230h-83v230h-105v80zM563 390l-76 174v-174h-80v310h111l79 -187l79 187h108v-310h-81v174l-74 -174h-66z" />
    <glyph glyph-name="servicemark" unicode="&#x2120;" horiz-adv-x="893" 
d="M360 643l-59 -51c-21 24 -49 36 -81 36c-40 0 -52 -11 -52 -19c0 -12 21 -16 51 -20h-1l32 -4c64 -9 109 -34 109 -97c0 -69 -65 -103 -138 -103c-55 0 -108 17 -150 68l61 52c28 -34 57 -42 92 -42c36 0 54 10 54 23s-17 19 -43 22h1l-34 4c-68 9 -115 29 -115 95
c0 56 52 99 135 99c48 0 103 -22 138 -63zM568 390l-76 174v-174h-80v310h111l79 -187l78 187h108v-310h-81v174l-73 -174h-66z" />
    <glyph glyph-name="ordfeminine" unicode="&#xaa;" horiz-adv-x="478" 
d="M331 390l-21 51h-144l-21 -51h-89l140 310h87l139 -310h-91zM238 616l-40 -96h79z" />
    <glyph glyph-name="ordmasculine" unicode="&#xba;" horiz-adv-x="475" 
d="M238 707c97 0 166 -67 166 -160c0 -97 -71 -161 -166 -161c-94 0 -167 64 -167 161c0 96 75 160 167 160zM238 617c-45 0 -74 -30 -74 -70c0 -42 30 -72 74 -72s74 30 74 72c0 40 -30 70 -74 70z" />
    <glyph glyph-name="numero" unicode="&#x2116;" horiz-adv-x="1240" 
d="M134 0v700h179l368 -470v470h127v-700h-109l-437 557v-557h-128zM1084 713c81 0 139 -56 139 -134c0 -81 -60 -135 -139 -135c-78 0 -137 54 -137 135c0 80 60 134 137 134zM1084 632c-33 0 -55 -23 -55 -53c0 -31 23 -52 55 -52c33 0 57 21 57 52c0 30 -23 53 -57 53z
" />
    <glyph glyph-name="numbersign" unicode="#" horiz-adv-x="768" 
d="M654 183h-118l-41 -183h-111l41 183h-156l-41 -183h-112l41 183h-85v108h110l29 130h-85v108h109l39 171h112l-39 -171h156l39 171h112l-39 -171h93v-108h-118l-29 -130h93v-108zM323 421l-29 -130h156l29 130h-156z" />
    <glyph glyph-name="Euro" unicode="&#x20ac;" horiz-adv-x="876" 
d="M499 245h-244c34 -82 109 -136 221 -136c105 0 173 47 210 126l109 -60c-70 -128 -173 -188 -319 -188c-178 0 -312 101 -354 258h-67v79h55c-1 9 -1 18 -1 27c0 8 0 16 1 25h-55v79h67c42 155 177 258 345 258c139 0 262 -58 327 -188l-110 -60
c-47 82 -112 127 -217 127c-102 0 -179 -54 -213 -137h245v-79h-263c-1 -8 -1 -17 -1 -25c0 -9 0 -18 1 -27h263v-79z" />
    <glyph glyph-name="dollar" unicode="$" horiz-adv-x="814" 
d="M709 588l-92 -79c-35 39 -90 62 -156 69v-168l21 -2c140 -18 238 -68 238 -193c0 -126 -117 -196 -259 -208v-72h-89v71c-111 6 -212 40 -282 121l98 78c51 -55 110 -78 184 -84v185l-4 1c-147 17 -251 59 -251 188c0 105 97 185 255 198v68h89v-68
c99 -8 194 -44 248 -105zM592 211c0 54 -48 73 -131 84v-174c90 8 131 44 131 90zM246 501c0 -50 49 -68 126 -80v158c-97 -8 -126 -46 -126 -78z" />
    <glyph glyph-name="cent" unicode="&#xa2;" horiz-adv-x="767" 
d="M673 416l-109 -58c-31 50 -72 83 -125 94v-323c58 10 101 44 126 95l108 -59c-58 -98 -132 -149 -234 -159v-71h-86v73c-151 20 -254 129 -254 284c0 150 106 265 254 283v68h86v-68c97 -11 183 -62 234 -159zM223 292c0 -79 47 -142 130 -160v319
c-78 -16 -130 -78 -130 -159z" />
    <glyph glyph-name="sterling" unicode="&#xa3;" horiz-adv-x="728" 
d="M277 496c0 -44 16 -80 32 -115h175v-89h-143c2 -12 4 -24 4 -37c0 -61 -20 -102 -67 -141c29 15 63 17 74 17c77 0 100 -30 170 -30c40 0 74 5 105 32l50 -101c-48 -40 -106 -53 -162 -53c-110 0 -133 37 -225 37c-40 0 -86 -8 -130 -37l-54 106c59 36 113 76 113 148
c0 21 -3 41 -9 59h-119v89h79c-19 37 -36 75 -36 125c0 134 112 207 261 207c155 0 241 -65 268 -189l-130 -37c-12 52 -43 106 -139 106c-66 0 -117 -29 -117 -97z" />
    <glyph glyph-name="yen" unicode="&#xa5;" horiz-adv-x="790" 
d="M615 107h-157v-107h-131v107h-157v80h157v52h-157v79h157v16l-297 366h164l201 -260l205 260h159l-301 -365v-17h157v-79h-157v-52h157v-80z" />
    <glyph glyph-name="uni20BD" unicode="&#x20bd;" horiz-adv-x="807" 
d="M561 155h-284v-155h-127v155h-64v95h64v43h-64v94h64v313h331c48 0 98 -4 141 -20c74 -28 129 -87 129 -184c0 -102 -63 -163 -146 -189c-38 -12 -82 -14 -124 -14h-204v-43h284v-95zM277 387h202c59 0 146 6 146 97c0 87 -76 99 -145 99h-203v-196z" />
    <glyph glyph-name="uni20B4" unicode="&#x20b4;" horiz-adv-x="765" 
d="M694 245h-428c-4 -11 -6 -22 -6 -33c0 -63 57 -99 142 -99c55 0 108 10 147 43l82 -91c-52 -50 -140 -78 -234 -78c-146 0 -268 67 -268 208c0 18 2 35 7 50h-65v79h121c33 24 75 39 118 52h-239v79h419c13 15 20 32 20 51c0 37 -29 81 -122 81c-58 0 -93 -12 -130 -36
l-81 99c45 33 113 63 206 63c58 0 104 -8 144 -25c75 -33 111 -96 111 -166c0 -26 -5 -48 -13 -67h69v-79h-143c-40 -24 -90 -39 -141 -52h284v-79z" />
    <glyph glyph-name="zero.slash" horiz-adv-x="830" 
d="M415 713c193 0 306 -135 306 -363c0 -229 -116 -363 -306 -363c-192 0 -307 134 -307 363c0 228 117 363 307 363zM231 350c0 -53 8 -98 23 -135l250 358c-25 15 -55 23 -89 23c-119 0 -184 -92 -184 -246zM415 104c121 0 184 93 184 246c0 50 -7 94 -21 130l-248 -356
c24 -13 53 -20 85 -20z" />
    <glyph glyph-name="zero" unicode="0" horiz-adv-x="830" 
d="M415 713c193 0 306 -137 306 -363s-116 -363 -306 -363c-192 0 -307 134 -307 363c0 227 117 363 307 363zM415 109c117 0 180 92 180 241c0 151 -67 241 -180 241c-117 0 -181 -91 -181 -241s66 -241 181 -241z" />
    <glyph glyph-name="one" unicode="1" horiz-adv-x="465" 
d="M72 484v115c92 14 126 49 140 101h119v-700h-130v518c-31 -22 -80 -32 -129 -34z" />
    <glyph glyph-name="two" unicode="2" horiz-adv-x="724" 
d="M618 118v-118h-522v112c44 69 127 136 219 196c108 70 168 107 168 187c0 56 -38 100 -116 100c-83 0 -122 -48 -133 -113l-114 27c23 133 112 204 249 204c149 0 239 -88 239 -209c0 -211 -223 -252 -355 -386h365z" />
    <glyph glyph-name="three" unicode="3" horiz-adv-x="749" 
d="M277 299v113h83c68 0 142 12 142 94c0 42 -36 89 -124 89s-125 -37 -139 -111l-118 29c17 98 82 200 258 200c148 0 246 -77 246 -197c0 -57 -21 -113 -69 -148c64 -32 97 -91 97 -161c0 -135 -99 -221 -278 -221c-128 0 -231 44 -275 172l115 49
c26 -77 80 -104 167 -104c90 0 145 40 145 106c0 27 -9 45 -23 58c-28 27 -83 32 -162 32h-65z" />
    <glyph glyph-name="four" unicode="4" horiz-adv-x="745" 
d="M666 243v-115h-82v-128h-124v128h-393v106l384 466h133v-457h82zM460 550l-249 -307h249v307z" />
    <glyph glyph-name="five" unicode="5" horiz-adv-x="760" 
d="M242 299l-113 35l32 366h448v-115h-341l-13 -148c47 30 96 37 138 37c161 0 263 -90 263 -239c0 -151 -106 -248 -278 -248c-126 0 -231 53 -278 159l115 51c31 -68 92 -96 166 -96c92 0 154 49 154 130c0 75 -56 129 -150 129c-56 0 -104 -19 -143 -61z" />
    <glyph glyph-name="six" unicode="6" horiz-adv-x="760" 
d="M108 342c0 238 107 371 301 371c140 0 217 -70 253 -147l-106 -51c-30 58 -83 85 -148 85c-103 0 -166 -57 -177 -193c49 48 108 64 173 64c159 0 261 -92 261 -232c0 -151 -109 -252 -272 -252c-205 0 -285 152 -285 355zM392 101c94 0 157 50 157 133
c0 79 -61 124 -157 124c-94 0 -154 -49 -154 -124c0 -77 62 -133 154 -133z" />
    <glyph glyph-name="seven" unicode="7" horiz-adv-x="653" 
d="M94 581v119h525v-107c-192 -180 -281 -382 -322 -593h-147c60 232 144 392 309 581h-365z" />
    <glyph glyph-name="eight" unicode="8" horiz-adv-x="763" 
d="M552 377c73 -29 112 -95 112 -175c0 -132 -109 -216 -282 -216s-283 82 -283 216c0 77 39 143 114 175c-50 26 -83 73 -83 143c0 115 102 193 252 193c151 0 252 -78 252 -193c0 -59 -28 -115 -82 -143zM382 89c94 0 159 40 159 114c0 72 -62 116 -159 116
c-98 0 -158 -44 -158 -116c0 -74 65 -114 158 -114zM382 611c-80 0 -131 -38 -131 -96c0 -62 46 -95 131 -95c86 0 132 33 132 95c0 58 -54 96 -132 96z" />
    <glyph glyph-name="nine" unicode="9" horiz-adv-x="764" 
d="M534 302c-48 -46 -107 -64 -173 -64c-158 0 -262 93 -262 229c0 149 110 246 272 246c231 0 285 -184 285 -353c0 -238 -105 -373 -301 -373c-139 0 -217 70 -253 147l107 52c31 -61 82 -86 147 -86c122 0 171 85 178 202zM372 599c-94 0 -156 -48 -156 -127
c0 -75 60 -121 156 -121c94 0 155 49 155 121c0 74 -63 127 -155 127z" />
    <glyph glyph-name="fraction" unicode="&#x2044;" horiz-adv-x="711" 
d="M638 748h160l-725 -798h-160z" />
    <glyph glyph-name="onequarter" unicode="&#xbc;" horiz-adv-x="847" 
d="M741 124v-73h-33v-51h-80v51h-158v62l160 193h78v-182h33zM628 196l-58 -72h58v72zM117 568v91c36 6 58 22 64 41h97v-306h-104v187c-16 -7 -37 -13 -57 -13zM218 -5h-147l559 710h146z" />
    <glyph glyph-name="onehalf" unicode="&#xbd;" horiz-adv-x="847" 
d="M753 86v-86h-238v68c20 33 57 58 96 84c41 28 51 38 51 55c0 18 -11 28 -28 28c-20 0 -30 -17 -32 -41l-79 14c13 70 51 107 121 107c67 0 108 -44 108 -99c0 -54 -37 -83 -86 -116l-20 -14h107zM117 568v91c36 6 58 22 64 41h97v-306h-104v187c-16 -7 -37 -13 -57 -13z
M218 -5h-147l559 710h146z" />
    <glyph glyph-name="threequarters" unicode="&#xbe;" horiz-adv-x="847" 
d="M218 -5h-147l559 710h146zM170 515v70h23c24 0 34 9 34 23c0 10 -8 22 -34 22c-28 0 -41 -14 -43 -46l-78 15c9 72 54 109 119 109c70 0 114 -37 114 -94c0 -20 -5 -41 -18 -57c20 -16 30 -40 30 -67c0 -63 -47 -104 -127 -104c-60 0 -106 24 -129 95l75 29
c9 -35 27 -46 58 -46c26 0 43 10 43 27c0 20 -19 24 -38 24h-29zM741 124v-73h-33v-51h-80v51h-158v62l160 193h78v-182h33zM628 196l-58 -72h58v72z" />
    <glyph glyph-name="percent" unicode="%" horiz-adv-x="847" 
d="M225 396c-94 0 -163 70 -163 159c0 88 70 157 162 157c90 0 160 -69 160 -157s-70 -159 -159 -159zM218 -5h-147l559 710h146zM157 555c0 -36 30 -66 67 -66c36 0 66 30 66 66s-30 65 -66 65c-37 0 -67 -29 -67 -65zM626 -13c-93 0 -163 70 -163 158c0 89 71 158 162 158
s160 -69 160 -158c0 -87 -69 -158 -159 -158zM560 145c0 -35 29 -65 65 -65c37 0 66 30 66 65c0 37 -30 66 -66 66s-65 -29 -65 -66z" />
    <glyph glyph-name="perthousand" unicode="&#x2030;" horiz-adv-x="1101" 
d="M204 -5h-147l559 710h146zM213 713c86 0 138 -59 138 -160c0 -102 -54 -162 -138 -162c-88 0 -140 60 -140 162c0 101 52 160 140 160zM213 482c30 0 45 28 45 71s-16 70 -45 70c-31 0 -47 -28 -47 -70c0 -43 17 -71 47 -71zM605 309c86 0 138 -59 138 -161
c0 -101 -54 -161 -138 -161c-87 0 -140 60 -140 161c0 102 53 161 140 161zM605 78c30 0 45 27 45 70c0 44 -15 71 -45 71c-31 0 -46 -28 -46 -71s17 -70 46 -70zM933 309c86 0 138 -59 138 -161c0 -101 -54 -161 -138 -161c-88 0 -140 60 -140 161c0 102 52 161 140 161z
M933 78c29 0 45 27 45 70c0 44 -17 71 -45 71c-31 0 -46 -28 -46 -71s16 -70 46 -70z" />
    <glyph glyph-name="plus" unicode="+" horiz-adv-x="714" 
d="M419 480v-179h215v-117h-215v-184h-124v184h-215v117h215v179h124z" />
    <glyph glyph-name="minus" unicode="&#x2212;" horiz-adv-x="714" 
d="M80 183v120h554v-120h-554z" />
    <glyph glyph-name="plusminus" unicode="&#xb1;" horiz-adv-x="714" 
d="M80 0v120h554v-120h-554zM419 480v-85h215v-118h-215v-90h-124v90h-215v118h215v85h124z" />
    <glyph glyph-name="multiply" unicode="&#xd7;" horiz-adv-x="714" 
d="M226 455l131 -131l131 131l83 -82l-132 -131l132 -132l-83 -82l-131 131l-131 -131l-83 82l132 132l-132 131z" />
    <glyph glyph-name="divide" unicode="&#xf7;" horiz-adv-x="714" 
d="M274 436c0 44 36 80 83 80s82 -36 82 -80s-35 -78 -81 -78c-48 0 -84 35 -84 78zM274 47c0 44 36 80 83 80s82 -36 82 -80c0 -43 -35 -78 -81 -78c-48 0 -84 36 -84 78zM80 183v120h554v-120h-554z" />
    <glyph glyph-name="equal" unicode="=" horiz-adv-x="714" 
d="M101 290v116h511v-116h-511zM101 70v117h511v-117h-511z" />
    <glyph glyph-name="notequal" unicode="&#x2260;" horiz-adv-x="714" 
d="M101 292v114h277l65 124h117l-65 -124h117v-114h-177l-56 -108h233v-114h-293l-62 -120h-117l62 120h-101v114h161l56 108h-217z" />
    <glyph glyph-name="asciitilde" unicode="~" horiz-adv-x="714" 
d="M490 155c-121 0 -173 62 -278 62c-51 0 -86 -15 -132 -42v118c49 28 104 42 144 42c121 0 173 -60 278 -60c51 0 86 16 132 42v-119c-48 -28 -103 -43 -144 -43z" />
    <glyph glyph-name="approxequal" unicode="&#x2248;" horiz-adv-x="714" 
d="M481 39h-9c-8 0 -16 0 -23 1c-8 1 -15 2 -22 4c-12 2 -23 5 -33 8c-5 1 -9 2 -13 4l-18 6l-35 14c-14 5 -27 10 -41 14c-8 3 -17 5 -25 6c-13 3 -27 4 -41 4h-7c-3 0 -7 0 -10 -1c-37 -3 -67 -18 -103 -41v119c15 10 32 18 48 24c5 2 9 4 14 5c13 5 27 8 39 10
c2 1 5 1 7 1c8 1 16 2 23 2h8c66 -2 110 -25 156 -43l18 -6l12 -4c20 -6 41 -9 66 -9c7 0 13 0 20 1c5 0 10 1 15 2l21 6l8 4c14 5 26 12 40 20l10 6c2 1 4 2 6 4v-119c-2 -2 -5 -3 -7 -4l-10 -6c-8 -5 -16 -8 -24 -12l-21 -8c-1 0 -2 0 -3 -1l-13 -4c-1 0 -3 0 -4 -1
l-19 -4l-16 -2h-6h-8zM481 259c-11 0 -22 0 -32 1c-3 1 -5 1 -8 1c-2 1 -4 1 -7 1c-33 6 -62 16 -89 27l-11 4c-14 5 -27 11 -41 15l-13 3l-6 2l-12 2c-5 1 -9 2 -13 2c-7 1 -14 2 -21 2h-7c-10 0 -20 -1 -29 -2l-12 -3c-17 -4 -33 -10 -49 -18c-4 -2 -8 -4 -12 -7l-12 -7
c-2 -2 -4 -3 -6 -4v118l10 6c29 17 61 28 88 33c7 1 13 2 19 2c2 0 3 1 5 1h9c11 0 22 -1 32 -2c2 0 5 0 7 -1c10 -1 19 -3 28 -5l7 -2l13 -3c10 -3 21 -7 31 -11l12 -4l23 -10l17 -6l24 -8c12 -3 24 -6 38 -8c6 -1 14 -1 21 -1h7h7c4 0 9 0 13 1c6 0 12 1 18 3c2 0 4 1 6 1
l9 3c1 0 2 0 3 1c1 0 1 0 2 1c2 0 4 1 6 2l14 6l18 9l8 5l10 6c2 1 4 2 6 4v-118c-2 -2 -5 -3 -7 -4l-10 -6c-8 -5 -16 -8 -24 -12l-7 -3l-17 -6l-13 -4c-7 -2 -14 -3 -20 -4l-10 -2c-3 0 -6 0 -9 -1h-14z" />
    <glyph glyph-name="asciicircum" unicode="^" horiz-adv-x="714" 
d="M124 341l161 359h144l161 -359h-133l-100 243l-100 -243h-133z" />
    <glyph glyph-name="less" unicode="&#x3c;" horiz-adv-x="714" 
d="M588 489v-133l-329 -118l329 -118v-133l-475 184v134z" />
    <glyph glyph-name="greater" unicode="&#x3e;" horiz-adv-x="714" 
d="M126 356v133l475 -184v-134l-475 -184v133l329 118z" />
    <glyph glyph-name="lessequal" unicode="&#x2264;" horiz-adv-x="714" 
d="M588 564v-122l-389 -79l389 -77v-117l-475 106v180zM113 93v111l475 -107v-110z" />
    <glyph glyph-name="greaterequal" unicode="&#x2265;" horiz-adv-x="714" 
d="M126 442v122l475 -109v-180l-475 -106v117l390 77zM601 204v-111l-475 -106v110z" />
    <glyph glyph-name="logicalnot" unicode="&#xac;" horiz-adv-x="714" 
d="M80 302h554v-250h-125v131h-429v119z" />
    <glyph glyph-name="currency" unicode="&#xa4;" horiz-adv-x="714" 
d="M113 139l53 54c-27 34 -44 82 -44 133s17 101 45 134l-54 55l54 53l55 -52c31 26 84 43 137 43c50 0 100 -17 128 -42l56 53l58 -57l-53 -52c25 -36 42 -82 42 -133s-18 -101 -43 -136l52 -53l-52 -51l-53 53c-35 -30 -84 -46 -136 -46c-55 0 -105 16 -139 45l-53 -53z
M359 444c-79 0 -119 -57 -119 -118s41 -116 118 -116s115 58 115 118c0 57 -38 116 -114 116z" />
    <glyph glyph-name="infinity" unicode="&#x221e;" horiz-adv-x="714" 
d="M220 105c-74 0 -134 60 -134 135c0 74 60 134 134 134c57 0 99 -37 136 -78c37 41 79 78 137 78c75 0 134 -60 134 -134c0 -75 -59 -135 -134 -135c-58 0 -100 37 -137 78c-37 -41 -79 -78 -136 -78zM232 196c25 0 45 19 66 43c-21 25 -41 45 -66 45
c-24 0 -44 -19 -44 -44s20 -44 44 -44zM481 196c24 0 46 19 46 44s-22 44 -46 44s-45 -20 -67 -45c22 -25 44 -43 67 -43z" />
    <glyph glyph-name="lozenge" unicode="&#x25ca;" horiz-adv-x="714" 
d="M357 159l102 137l-102 137l-102 -137zM357 -13l-244 310l244 310l244 -310z" />
    <glyph glyph-name="Delta" unicode="&#x2206;" horiz-adv-x="714" 
d="M73 108l202 592h163l197 -592v-108h-562v108zM214 125h281l-139 449z" />
    <glyph glyph-name="Omega" unicode="&#x2126;" horiz-adv-x="714" 
d="M28 120h133c-65 55 -127 137 -127 272c0 177 123 321 323 321c209 0 323 -152 323 -320c0 -138 -62 -218 -128 -273h134v-120h-264v135c69 39 128 105 128 238c0 135 -75 219 -193 219c-112 0 -193 -77 -193 -219c0 -133 59 -199 128 -238v-135h-264v120z" />
    <glyph glyph-name="partialdiff" unicode="&#x2202;" horiz-adv-x="714" 
d="M221 547l-98 55c36 59 107 111 207 111c143 0 269 -85 269 -374c0 -222 -80 -352 -265 -352c-155 0 -227 119 -227 232c0 159 97 238 226 238c58 0 104 -17 133 -39c-4 107 -34 185 -138 185c-39 0 -79 -17 -107 -56zM350 99c65 0 104 55 104 129s-41 121 -104 121
s-105 -44 -105 -121c0 -82 43 -129 105 -129z" />
    <glyph glyph-name="integral" unicode="&#x222b;" horiz-adv-x="714" 
d="M219 -88c-49 0 -89 10 -119 25l39 113c21 -14 46 -19 73 -19c50 0 76 34 76 87v447c0 130 86 198 189 198c49 0 88 -10 119 -25l-39 -113c-21 14 -45 19 -73 19c-50 0 -76 -34 -76 -87v-447c0 -130 -87 -198 -189 -198z" />
    <glyph glyph-name="radical" unicode="&#x221a;" horiz-adv-x="714" 
d="M280 -23l-167 474h-76l-1 119h174l131 -415l196 598h128l-264 -776h-121z" />
    <glyph glyph-name="summation" unicode="&#x2211;" horiz-adv-x="714" 
d="M141 -108v126l134 286l-134 271v125h449v-121h-313l131 -275l-131 -291h322v-121h-458z" />
    <glyph glyph-name="product" unicode="&#x220f;" horiz-adv-x="714" 
d="M134 -108v683h-66v125h578v-125h-65v-683h-129v683h-190v-683h-128z" />
    <glyph glyph-name="mu" unicode="&#xb5;" horiz-adv-x="714" 
d="M474 0v38c-23 -32 -74 -47 -117 -47c-38 0 -77 10 -103 29v-254h-121v700h121v-231c0 -84 34 -124 103 -124c73 0 103 39 103 128v227h121v-466h-107z" />
    <glyph glyph-name="degree" unicode="&#xb0;" horiz-adv-x="310" 
d="M154 713c81 0 139 -56 139 -134c0 -81 -60 -135 -139 -135c-78 0 -137 54 -137 135c0 80 60 134 137 134zM154 632c-33 0 -55 -23 -55 -53c0 -31 23 -52 55 -52c33 0 57 21 57 52c0 30 -23 53 -57 53z" />
    <glyph glyph-name="litre" unicode="&#x2113;" horiz-adv-x="714" 
d="M493 161l87 -52c-43 -85 -116 -122 -186 -122c-89 0 -176 42 -188 165l-41 -28l-52 79l92 64v239c1 161 94 207 174 207c100 0 169 -62 169 -165c0 -122 -93 -211 -237 -328v-37c0 -71 45 -90 87 -90c48 0 74 35 95 68zM311 527v-182c83 67 124 131 124 195
c0 47 -22 74 -58 74c-29 0 -66 -19 -66 -87z" />
    <glyph glyph-name="estimated" unicode="&#x212e;" horiz-adv-x="906" 
d="M688 210l103 -68c-55 -84 -167 -155 -319 -155c-218 0 -384 135 -384 366c0 220 172 360 379 360c218 0 362 -152 362 -366v-25h-608c4 -110 85 -217 249 -217c89 0 165 33 218 105zM224 418h466c-13 116 -103 179 -227 179c-109 0 -214 -48 -239 -179z" />
    <glyph glyph-name="ampersand" unicode="&#x26;" horiz-adv-x="831" 
d="M592 556c0 -85 -64 -137 -156 -182l149 -148c25 35 43 74 54 116h124c-13 -72 -47 -140 -96 -198l146 -144h-164l-67 65c-68 -48 -150 -78 -238 -78c-212 0 -275 109 -275 200c0 93 61 155 179 209c-43 45 -78 96 -78 154c0 109 98 163 210 163c136 0 212 -68 212 -157z
M349 96c58 0 110 18 154 48l-180 178c-73 -35 -121 -64 -121 -124c0 -49 37 -102 147 -102zM291 556c0 -38 35 -74 69 -106l3 -4c66 29 107 57 107 104c0 42 -45 69 -89 69c-53 0 -90 -26 -90 -63z" />
    <glyph glyph-name="Alpha" unicode="&#x391;" horiz-adv-x="842" 
d="M684 0l-66 147h-398l-65 -147h-137l320 700h167l319 -700h-140zM419 597l-146 -329h292z" />
    <glyph glyph-name="Beta" unicode="&#x392;" horiz-adv-x="846" 
d="M664 374c62 -37 93 -92 93 -164c0 -114 -69 -187 -174 -204c-29 -6 -53 -6 -113 -6h-336v700h336c55 -1 77 -3 104 -8c88 -17 150 -89 150 -183c0 -59 -21 -106 -60 -135zM261 585v-173h233c55 0 104 22 104 85c0 71 -48 88 -109 88h-228zM261 298v-183h266
c59 0 104 27 104 94c0 65 -46 89 -105 89h-265z" />
    <glyph glyph-name="Gamma" unicode="&#x393;" horiz-adv-x="722" 
d="M266 0h-132v700h535v-125h-403v-575z" />
    <glyph glyph-name="uni0394" unicode="&#x394;" horiz-adv-x="854" 
d="M66 119l279 581h164l279 -581v-119h-722v119zM208 124h437l-220 468z" />
    <glyph glyph-name="Epsilon" unicode="&#x395;" 
d="M134 700h574v-123h-448v-161h393v-122h-393v-171h462v-123h-588v700z" />
    <glyph glyph-name="Zeta" unicode="&#x396;" horiz-adv-x="839" 
d="M730 700v-125l-457 -450h462v-125h-636v123l462 454h-438v123h607z" />
    <glyph glyph-name="Eta" unicode="&#x397;" horiz-adv-x="927" 
d="M134 700h132v-276h396v276h131v-700h-131v299h-396v-299h-132v700z" />
    <glyph glyph-name="Theta" unicode="&#x398;" horiz-adv-x="944" 
d="M471 713c225 0 385 -148 385 -362c0 -221 -166 -364 -385 -364c-216 0 -383 143 -383 364c0 219 170 362 383 362zM471 589c-157 0 -258 -103 -258 -238c0 -143 109 -240 258 -240c152 0 259 97 259 240c0 135 -101 238 -259 238zM624 290h-304v123h304v-123z" />
    <glyph glyph-name="Iota" unicode="&#x399;" horiz-adv-x="403" 
d="M134 700h135v-700h-135v700z" />
    <glyph glyph-name="Kappa" unicode="&#x39a;" horiz-adv-x="827" 
d="M764 700l-333 -299l362 -401h-172l-280 320l-80 -72v-248h-127v700h127v-305l329 305h174z" />
    <glyph glyph-name="Lambda" unicode="&#x39b;" horiz-adv-x="836" 
d="M663 0l-246 580l-250 -580h-149l316 700h168l316 -700h-155z" />
    <glyph glyph-name="Mu" unicode="&#x39c;" horiz-adv-x="1135" 
d="M513 0l-251 589v-589h-128v700h214l222 -527l222 527h209v-700h-127v585l-250 -585h-111z" />
    <glyph glyph-name="Nu" unicode="&#x39d;" horiz-adv-x="942" 
d="M134 0v700h179l368 -470v470h127v-700h-109l-437 557v-557h-128z" />
    <glyph glyph-name="Xi" unicode="&#x39e;" horiz-adv-x="788" 
d="M109 574v126h570v-126h-570zM95 126h598v-126h-598v126zM170 292v125h448v-125h-448z" />
    <glyph glyph-name="Omicron" unicode="&#x39f;" horiz-adv-x="936" 
d="M467 713c222 0 381 -151 381 -362c0 -218 -165 -364 -381 -364c-213 0 -379 146 -379 364c0 216 169 362 379 362zM467 589c-154 0 -250 -103 -250 -238c0 -143 104 -240 250 -240c149 0 252 97 252 240c0 135 -97 238 -252 238z" />
    <glyph glyph-name="Pi" unicode="&#x3a0;" horiz-adv-x="917" 
d="M134 0v700h649v-700h-130v575h-388v-575h-131z" />
    <glyph glyph-name="Rho" unicode="&#x3a1;" horiz-adv-x="837" 
d="M134 700h371c52 0 103 -7 144 -27c74 -35 126 -104 126 -207c0 -113 -61 -185 -148 -215c-37 -14 -78 -17 -122 -17h-244v-234h-127v700zM261 577v-220h237c27 0 55 1 78 7c43 12 73 42 73 102c0 53 -26 85 -67 100c-23 9 -54 11 -83 11h-238z" />
    <glyph glyph-name="Sigma" unicode="&#x3a3;" horiz-adv-x="764" 
d="M91 0v101l279 248l-277 252v99h590v-119h-383l191 -169v-107l-209 -181h411v-124h-602z" />
    <glyph glyph-name="Tau" unicode="&#x3a4;" horiz-adv-x="745" 
d="M41 700h663v-124h-266v-576h-131v576h-266v124z" />
    <glyph glyph-name="Upsilon" unicode="&#x3a5;" horiz-adv-x="795" 
d="M702 713l61 -116c-191 -78 -300 -219 -300 -440v-157h-131v157c0 213 -98 358 -300 440l61 116c141 -55 257 -156 306 -298c48 141 165 244 303 298z" />
    <glyph glyph-name="Phi" unicode="&#x3a6;" horiz-adv-x="968" 
d="M420 748h128v-71c240 -23 336 -178 336 -328c0 -154 -102 -307 -336 -330v-77h-128v77c-235 23 -336 176 -336 330c0 146 93 305 336 329v70zM215 349c0 -88 48 -191 205 -213v425c-162 -22 -205 -131 -205 -212zM753 349c0 81 -44 189 -205 212v-425
c157 22 205 125 205 213z" />
    <glyph glyph-name="Chi" unicode="&#x3a7;" horiz-adv-x="789" 
d="M216 700l183 -239l184 239h160l-264 -335l288 -365h-160l-214 275l-209 -275h-162l291 371l-259 329h162z" />
    <glyph glyph-name="Psi" unicode="&#x3a8;" horiz-adv-x="985" 
d="M96 700h127v-199c0 -143 83 -196 206 -208v407h127v-408c122 12 206 66 206 209v199h127v-197c0 -212 -133 -314 -333 -331v-172h-127v172c-198 17 -333 116 -333 331v197z" />
    <glyph glyph-name="uni03A9" unicode="&#x3a9;" horiz-adv-x="894" 
d="M92 129h146c-97 61 -149 151 -149 266c0 154 117 318 358 318c238 0 358 -160 358 -318c0 -114 -52 -206 -148 -266h145v-129h-305v129c110 42 174 128 174 240c0 151 -110 221 -224 221c-121 0 -223 -76 -223 -221c0 -112 64 -198 173 -240v-129h-305v129z" />
    <glyph glyph-name="Alphatonos" unicode="&#x386;" horiz-adv-x="873" 
d="M715 0l-66 147h-398l-65 -147h-137l320 700h167l319 -700h-140zM450 597l-146 -329h292zM7 459l49 241h126l-56 -241h-119z" />
    <glyph glyph-name="Epsilontonos" unicode="&#x388;" horiz-adv-x="929" 
d="M-24 459l49 241h126l-56 -241h-119zM246 700h574v-123h-448v-161h393v-122h-393v-171h462v-123h-588v700z" />
    <glyph glyph-name="Etatonos" unicode="&#x389;" horiz-adv-x="1039" 
d="M-24 459l49 241h126l-56 -241h-119zM246 700h132v-276h396v276h131v-700h-131v299h-396v-299h-132v700z" />
    <glyph glyph-name="Iotatonos" unicode="&#x38a;" horiz-adv-x="515" 
d="M-24 459l49 241h126l-56 -241h-119zM246 700h135v-700h-135v700z" />
    <glyph glyph-name="Iotadieresis" unicode="&#x3aa;" horiz-adv-x="403" 
d="M170 765h-128v129h128v-129zM359 765h-129v129h129v-129zM134 700h135v-700h-135v700z" />
    <glyph glyph-name="Iotadieresistonos" horiz-adv-x="403" 
d="M78 765h-128v129h128v-129zM462 765h-129v129h129v-129zM133 765l49 241h126l-56 -241h-119zM134 700h135v-700h-135v700z" />
    <glyph glyph-name="Omicrontonos" unicode="&#x38c;" horiz-adv-x="1049" 
d="M-4 459l49 241h126l-56 -241h-119zM580 713c222 0 381 -151 381 -362c0 -218 -165 -364 -381 -364c-213 0 -379 146 -379 364c0 216 169 362 379 362zM580 589c-154 0 -250 -103 -250 -238c0 -143 104 -240 250 -240c149 0 252 97 252 240c0 135 -97 238 -252 238z" />
    <glyph glyph-name="Upsilontonos" unicode="&#x38e;" horiz-adv-x="954" 
d="M861 713l61 -116c-191 -78 -300 -219 -300 -440v-157h-131v157c0 213 -98 358 -300 440l61 116c141 -55 257 -156 306 -298c48 141 165 244 303 298zM-24 459l49 241h126l-56 -241h-119z" />
    <glyph glyph-name="Upsilondieresis" unicode="&#x3ab;" horiz-adv-x="795" 
d="M702 713l61 -116c-191 -78 -300 -219 -300 -440v-157h-131v157c0 213 -98 358 -300 440l61 116c141 -55 257 -156 306 -298c48 141 165 244 303 298zM369 765h-128v129h128v-129zM558 765h-129v129h129v-129z" />
    <glyph glyph-name="Upsilondieresistonos" horiz-adv-x="795" 
d="M702 713l61 -116c-191 -78 -300 -219 -300 -440v-157h-131v157c0 213 -98 358 -300 440l61 116c141 -55 257 -156 306 -298c48 141 165 244 303 298zM277 765h-128v129h128v-129zM661 765h-129v129h129v-129zM332 765l49 241h126l-56 -241h-119z" />
    <glyph glyph-name="Omegatonos" unicode="&#x38f;" horiz-adv-x="1002" 
d="M200 129h146c-97 61 -149 151 -149 266c0 154 117 318 358 318c238 0 358 -160 358 -318c0 -114 -52 -206 -148 -266h145v-129h-305v129c110 42 174 128 174 240c0 151 -110 221 -224 221c-121 0 -223 -76 -223 -221c0 -112 64 -198 173 -240v-129h-305v129zM-4 459
l49 241h126l-56 -241h-119z" />
    <glyph glyph-name="alpha" unicode="&#x3b1;" horiz-adv-x="842" 
d="M684 0l-66 147h-398l-65 -147h-137l320 700h167l319 -700h-140zM419 597l-146 -329h292z" />
    <glyph glyph-name="beta" unicode="&#x3b2;" horiz-adv-x="846" 
d="M664 374c62 -37 93 -92 93 -164c0 -114 -69 -187 -174 -204c-29 -6 -53 -6 -113 -6h-336v700h336c55 -1 77 -3 104 -8c88 -17 150 -89 150 -183c0 -59 -21 -106 -60 -135zM261 585v-173h233c55 0 104 22 104 85c0 71 -48 88 -109 88h-228zM261 298v-183h266
c59 0 104 27 104 94c0 65 -46 89 -105 89h-265z" />
    <glyph glyph-name="gamma" unicode="&#x3b3;" horiz-adv-x="722" 
d="M266 0h-132v700h535v-125h-403v-575z" />
    <glyph glyph-name="delta" unicode="&#x3b4;" horiz-adv-x="854" 
d="M66 119l279 581h164l279 -581v-119h-722v119zM208 124h437l-220 468z" />
    <glyph glyph-name="epsilon" unicode="&#x3b5;" 
d="M134 700h574v-123h-448v-161h393v-122h-393v-171h462v-123h-588v700z" />
    <glyph glyph-name="zeta" unicode="&#x3b6;" horiz-adv-x="839" 
d="M730 700v-125l-457 -450h462v-125h-636v123l462 454h-438v123h607z" />
    <glyph glyph-name="eta" unicode="&#x3b7;" horiz-adv-x="927" 
d="M134 700h132v-276h396v276h131v-700h-131v299h-396v-299h-132v700z" />
    <glyph glyph-name="theta" unicode="&#x3b8;" horiz-adv-x="944" 
d="M471 713c225 0 385 -148 385 -362c0 -221 -166 -364 -385 -364c-216 0 -383 143 -383 364c0 219 170 362 383 362zM471 589c-157 0 -258 -103 -258 -238c0 -143 109 -240 258 -240c152 0 259 97 259 240c0 135 -101 238 -259 238zM624 290h-304v123h304v-123z" />
    <glyph glyph-name="iota" unicode="&#x3b9;" horiz-adv-x="403" 
d="M134 700h135v-700h-135v700z" />
    <glyph glyph-name="kappa" unicode="&#x3ba;" horiz-adv-x="827" 
d="M764 700l-333 -299l362 -401h-172l-280 320l-80 -72v-248h-127v700h127v-305l329 305h174z" />
    <glyph glyph-name="lambda" unicode="&#x3bb;" horiz-adv-x="836" 
d="M663 0l-246 580l-250 -580h-149l316 700h168l316 -700h-155z" />
    <glyph glyph-name="uni03BC" unicode="&#x3bc;" horiz-adv-x="1135" 
d="M513 0l-251 589v-589h-128v700h214l222 -527l222 527h209v-700h-127v585l-250 -585h-111z" />
    <glyph glyph-name="nu" unicode="&#x3bd;" horiz-adv-x="942" 
d="M134 0v700h179l368 -470v470h127v-700h-109l-437 557v-557h-128z" />
    <glyph glyph-name="xi" unicode="&#x3be;" horiz-adv-x="788" 
d="M109 574v126h570v-126h-570zM95 126h598v-126h-598v126zM170 292v125h448v-125h-448z" />
    <glyph glyph-name="omicron" unicode="&#x3bf;" horiz-adv-x="936" 
d="M467 713c222 0 381 -151 381 -362c0 -218 -165 -364 -381 -364c-213 0 -379 146 -379 364c0 216 169 362 379 362zM467 589c-154 0 -250 -103 -250 -238c0 -143 104 -240 250 -240c149 0 252 97 252 240c0 135 -97 238 -252 238z" />
    <glyph glyph-name="pi" unicode="&#x3c0;" horiz-adv-x="917" 
d="M134 0v700h649v-700h-130v575h-388v-575h-131z" />
    <glyph glyph-name="rho" unicode="&#x3c1;" horiz-adv-x="837" 
d="M134 700h371c52 0 103 -7 144 -27c74 -35 126 -104 126 -207c0 -113 -61 -185 -148 -215c-37 -14 -78 -17 -122 -17h-244v-234h-127v700zM261 577v-220h237c27 0 55 1 78 7c43 12 73 42 73 102c0 53 -26 85 -67 100c-23 9 -54 11 -83 11h-238z" />
    <glyph glyph-name="sigma" unicode="&#x3c3;" horiz-adv-x="764" 
d="M91 0v101l279 248l-277 252v99h590v-119h-383l191 -169v-107l-209 -181h411v-124h-602z" />
    <glyph glyph-name="tau" unicode="&#x3c4;" horiz-adv-x="745" 
d="M41 700h663v-124h-266v-576h-131v576h-266v124z" />
    <glyph glyph-name="upsilon" unicode="&#x3c5;" horiz-adv-x="795" 
d="M702 713l61 -116c-191 -78 -300 -219 -300 -440v-157h-131v157c0 213 -98 358 -300 440l61 116c141 -55 257 -156 306 -298c48 141 165 244 303 298z" />
    <glyph glyph-name="phi" unicode="&#x3c6;" horiz-adv-x="968" 
d="M420 748h128v-71c240 -23 336 -178 336 -328c0 -154 -102 -307 -336 -330v-77h-128v77c-235 23 -336 176 -336 330c0 146 93 305 336 329v70zM215 349c0 -88 48 -191 205 -213v425c-162 -22 -205 -131 -205 -212zM753 349c0 81 -44 189 -205 212v-425
c157 22 205 125 205 213z" />
    <glyph glyph-name="chi" unicode="&#x3c7;" horiz-adv-x="789" 
d="M216 700l183 -239l184 239h160l-264 -335l288 -365h-160l-214 275l-209 -275h-162l291 371l-259 329h162z" />
    <glyph glyph-name="psi" unicode="&#x3c8;" horiz-adv-x="985" 
d="M96 700h127v-199c0 -143 83 -196 206 -208v407h127v-408c122 12 206 66 206 209v199h127v-197c0 -212 -133 -314 -333 -331v-172h-127v172c-198 17 -333 116 -333 331v197z" />
    <glyph glyph-name="omega" unicode="&#x3c9;" horiz-adv-x="894" 
d="M92 129h146c-97 61 -149 151 -149 266c0 154 117 318 358 318c238 0 358 -160 358 -318c0 -114 -52 -206 -148 -266h145v-129h-305v129c110 42 174 128 174 240c0 151 -110 221 -224 221c-121 0 -223 -76 -223 -221c0 -112 64 -198 173 -240v-129h-305v129z" />
    <glyph glyph-name="alphatonos" unicode="&#x3ac;" horiz-adv-x="873" 
d="M715 0l-66 147h-398l-65 -147h-137l320 700h167l319 -700h-140zM450 597l-146 -329h292zM7 459l49 241h126l-56 -241h-119z" />
    <glyph glyph-name="epsilontonos" unicode="&#x3ad;" horiz-adv-x="929" 
d="M-24 459l49 241h126l-56 -241h-119zM246 700h574v-123h-448v-161h393v-122h-393v-171h462v-123h-588v700z" />
    <glyph glyph-name="etatonos" unicode="&#x3ae;" horiz-adv-x="1039" 
d="M-24 459l49 241h126l-56 -241h-119zM246 700h132v-276h396v276h131v-700h-131v299h-396v-299h-132v700z" />
    <glyph glyph-name="iotatonos" unicode="&#x3af;" horiz-adv-x="515" 
d="M-24 459l49 241h126l-56 -241h-119zM246 700h135v-700h-135v700z" />
    <glyph glyph-name="iotadieresis" unicode="&#x3ca;" horiz-adv-x="403" 
d="M170 765h-128v129h128v-129zM359 765h-129v129h129v-129zM134 700h135v-700h-135v700z" />
    <glyph glyph-name="iotadieresistonos" unicode="&#x390;" horiz-adv-x="403" 
d="M78 765h-128v129h128v-129zM462 765h-129v129h129v-129zM133 765l49 241h126l-56 -241h-119zM134 700h135v-700h-135v700z" />
    <glyph glyph-name="omicrontonos" unicode="&#x3cc;" horiz-adv-x="1049" 
d="M-4 459l49 241h126l-56 -241h-119zM580 713c222 0 381 -151 381 -362c0 -218 -165 -364 -381 -364c-213 0 -379 146 -379 364c0 216 169 362 379 362zM580 589c-154 0 -250 -103 -250 -238c0 -143 104 -240 250 -240c149 0 252 97 252 240c0 135 -97 238 -252 238z" />
    <glyph glyph-name="upsilontonos" unicode="&#x3cd;" horiz-adv-x="954" 
d="M861 713l61 -116c-191 -78 -300 -219 -300 -440v-157h-131v157c0 213 -98 358 -300 440l61 116c141 -55 257 -156 306 -298c48 141 165 244 303 298zM-24 459l49 241h126l-56 -241h-119z" />
    <glyph glyph-name="upsilondieresis" unicode="&#x3cb;" horiz-adv-x="795" 
d="M702 713l61 -116c-191 -78 -300 -219 -300 -440v-157h-131v157c0 213 -98 358 -300 440l61 116c141 -55 257 -156 306 -298c48 141 165 244 303 298zM369 765h-128v129h128v-129zM558 765h-129v129h129v-129z" />
    <glyph glyph-name="upsilondieresistonos" unicode="&#x3b0;" horiz-adv-x="795" 
d="M702 713l61 -116c-191 -78 -300 -219 -300 -440v-157h-131v157c0 213 -98 358 -300 440l61 116c141 -55 257 -156 306 -298c48 141 165 244 303 298zM277 765h-128v129h128v-129zM661 765h-129v129h129v-129zM332 765l49 241h126l-56 -241h-119z" />
    <glyph glyph-name="omegatonos" unicode="&#x3ce;" horiz-adv-x="1002" 
d="M200 129h146c-97 61 -149 151 -149 266c0 154 117 318 358 318c238 0 358 -160 358 -318c0 -114 -52 -206 -148 -266h145v-129h-305v129c110 42 174 128 174 240c0 151 -110 221 -224 221c-121 0 -223 -76 -223 -221c0 -112 64 -198 173 -240v-129h-305v129zM-4 459
l49 241h126l-56 -241h-119z" />
    <glyph glyph-name="tonos" unicode="&#x384;" horiz-adv-x="246" 
d="M38 459l49 241h126l-56 -241h-119z" />
    <glyph glyph-name="dieresistonos" unicode="&#x385;" horiz-adv-x="315" 
d="M1 765h-128v129h128v-129zM385 765h-129v129h129v-129zM56 765l49 241h126l-56 -241h-119z" />
    <glyph glyph-name="anoteleia" unicode="&#x387;" horiz-adv-x="315" 
d="M235 284h-155v152h155v-152z" />
    <glyph glyph-name="uni037E" unicode="&#x37e;" horiz-adv-x="263" 
d="M235 357h-155v152h155v-152zM117 -190h-111l74 341h159z" />
    <glyph glyph-name="uni0410" unicode="&#x410;" horiz-adv-x="842" 
d="M684 0l-66 147h-398l-65 -147h-137l320 700h167l319 -700h-140zM419 597l-146 -329h292z" />
    <glyph glyph-name="uni0411" unicode="&#x411;" horiz-adv-x="828" 
d="M134 0v700h567v-125h-440v-146h233c40 0 89 -3 125 -14c83 -27 138 -87 138 -197c0 -118 -69 -194 -174 -212c-29 -6 -53 -6 -113 -6h-336zM261 115h266c59 0 104 29 104 102c0 71 -46 97 -105 97h-265v-199z" />
    <glyph glyph-name="uni0412" unicode="&#x412;" horiz-adv-x="846" 
d="M664 374c62 -37 93 -92 93 -164c0 -114 -69 -187 -174 -204c-29 -6 -53 -6 -113 -6h-336v700h336c55 -1 77 -3 104 -8c88 -17 150 -89 150 -183c0 -59 -21 -106 -60 -135zM261 585v-173h233c55 0 104 22 104 85c0 71 -48 88 -109 88h-228zM261 298v-183h266
c59 0 104 27 104 94c0 65 -46 89 -105 89h-265z" />
    <glyph glyph-name="uni0413" unicode="&#x413;" horiz-adv-x="719" 
d="M266 0h-132v700h535v-125h-403v-575z" />
    <glyph glyph-name="uni0414" unicode="&#x414;" horiz-adv-x="864" 
d="M842 125v-255h-128v135h-564v-135h-128v255h82l243 575h169l242 -575h84zM615 125l-184 461l-187 -461h371z" />
    <glyph glyph-name="uni0415" unicode="&#x415;" 
d="M134 700h574v-123h-448v-161h393v-122h-393v-171h462v-123h-588v700z" />
    <glyph glyph-name="uni0401" unicode="&#x401;" 
d="M134 700h574v-123h-448v-161h393v-122h-393v-171h462v-123h-588v700zM400 765h-128v129h128v-129zM589 765h-129v129h129v-129z" />
    <glyph glyph-name="uni0416" unicode="&#x416;" horiz-adv-x="1141" 
d="M36 0l245 384l-223 316h155l185 -273h109v273h127v-273h109l186 273h154l-222 -316l244 -384h-158l-188 305h-125v-305h-127v305h-125l-187 -305h-159z" />
    <glyph glyph-name="uni0417" unicode="&#x417;" horiz-adv-x="766" 
d="M197 293v121h128c114 0 195 8 195 87c0 53 -57 90 -171 90c-67 0 -135 -12 -183 -52l-85 84c74 69 178 90 268 90c56 0 125 -8 184 -35c64 -30 113 -84 113 -164c0 -64 -30 -112 -82 -144c77 -31 113 -92 113 -159c0 -179 -178 -224 -330 -224c-96 0 -228 13 -301 89
l99 92c41 -47 125 -59 203 -59c133 0 203 37 203 102c0 33 -17 52 -46 65c-38 17 -87 17 -149 17h-159z" />
    <glyph glyph-name="uni0418" unicode="&#x418;" horiz-adv-x="942" 
d="M808 700v-700h-128v548l-376 -548h-170v700h129v-548l376 548h169z" />
    <glyph glyph-name="uni0419" unicode="&#x419;" horiz-adv-x="942" 
d="M565 907h109v-15c0 -85 -72 -144 -197 -144c-129 0 -198 59 -198 144v15h112v-7c0 -36 30 -61 86 -61s88 25 88 61v7zM808 700v-700h-128v548l-376 -548h-170v700h129v-548l376 548h169z" />
    <glyph glyph-name="uni041A" unicode="&#x41a;" horiz-adv-x="818" 
d="M538 384l244 -384h-158l-188 305h-175v-305h-127v700h127v-273h159l186 273h154z" />
    <glyph glyph-name="uni041B" unicode="&#x41b;" horiz-adv-x="836" 
d="M663 0l-246 580l-250 -580h-149l316 700h168l316 -700h-155z" />
    <glyph glyph-name="uni041C" unicode="&#x41c;" horiz-adv-x="1135" 
d="M513 0l-251 589v-589h-128v700h214l222 -527l222 527h209v-700h-127v585l-250 -585h-111z" />
    <glyph glyph-name="uni041D" unicode="&#x41d;" horiz-adv-x="927" 
d="M134 700h132v-276h396v276h131v-700h-131v299h-396v-299h-132v700z" />
    <glyph glyph-name="uni041E" unicode="&#x41e;" horiz-adv-x="936" 
d="M467 713c222 0 381 -151 381 -362c0 -218 -165 -364 -381 -364c-213 0 -379 146 -379 364c0 216 169 362 379 362zM467 589c-154 0 -250 -103 -250 -238c0 -143 104 -240 250 -240c149 0 252 97 252 240c0 135 -97 238 -252 238z" />
    <glyph glyph-name="uni041F" unicode="&#x41f;" horiz-adv-x="917" 
d="M134 0v700h649v-700h-130v575h-388v-575h-131z" />
    <glyph glyph-name="uni0420" unicode="&#x420;" horiz-adv-x="837" 
d="M134 700h371c52 0 103 -7 144 -27c74 -35 126 -104 126 -207c0 -113 -61 -185 -148 -215c-37 -14 -78 -17 -122 -17h-244v-234h-127v700zM261 577v-220h237c27 0 55 1 78 7c43 12 73 42 73 102c0 53 -26 85 -67 100c-23 9 -54 11 -83 11h-238z" />
    <glyph glyph-name="uni0421" unicode="&#x421;" horiz-adv-x="879" 
d="M802 528l-111 -64c-48 81 -119 125 -228 125c-145 0 -247 -100 -247 -238c0 -135 95 -240 256 -240c101 0 180 43 226 139l114 -60c-66 -124 -178 -203 -340 -203c-224 0 -384 148 -384 364c0 211 163 362 375 362c140 0 275 -57 339 -185z" />
    <glyph glyph-name="uni0422" unicode="&#x422;" horiz-adv-x="745" 
d="M41 700h663v-124h-266v-576h-131v576h-266v124z" />
    <glyph glyph-name="uni0423" unicode="&#x423;" horiz-adv-x="763" 
d="M332 0h-154l149 231l-288 469h159l204 -345l202 345h153z" />
    <glyph glyph-name="uni0424" unicode="&#x424;" horiz-adv-x="974" 
d="M423 748h128v-75c240 -23 339 -174 339 -324c0 -154 -104 -303 -339 -326v-81h-128v81c-236 22 -339 172 -339 326c0 146 95 301 339 324v75zM215 349c0 -88 51 -188 208 -209v416c-163 -22 -208 -126 -208 -207zM759 349c0 81 -46 185 -208 207v-416
c158 21 208 121 208 209z" />
    <glyph glyph-name="uni0425" unicode="&#x425;" horiz-adv-x="789" 
d="M216 700l183 -239l184 239h160l-264 -335l288 -365h-160l-214 275l-209 -275h-162l291 371l-259 329h162z" />
    <glyph glyph-name="uni0426" unicode="&#x426;" horiz-adv-x="923" 
d="M134 0v700h131v-575h373v575h130v-575h93v-255h-130v130h-597z" />
    <glyph glyph-name="uni0427" unicode="&#x427;" horiz-adv-x="853" 
d="M227 698v-163c0 -96 5 -163 147 -163h214v326h131v-698h-131v247h-239c-192 0 -253 121 -253 245v206h131z" />
    <glyph glyph-name="uni0428" unicode="&#x428;" horiz-adv-x="1336" 
d="M1202 700v-700h-1068v700h131v-575h338v575h130v-575h338v575h131z" />
    <glyph glyph-name="uni0429" unicode="&#x429;" horiz-adv-x="1356" 
d="M1202 700v-575h92v-255h-130v130h-1030v700h131v-575h338v575h130v-575h338v575h131z" />
    <glyph glyph-name="uni042A" unicode="&#x42a;" horiz-adv-x="877" 
d="M557 0h-361v576h-155v124h281v-234h235c43 0 84 -4 121 -17c87 -31 148 -102 148 -215c0 -103 -52 -172 -126 -207c-41 -20 -92 -27 -143 -27zM322 343v-220h229c28 0 59 2 82 11c41 15 67 48 67 100c0 60 -30 90 -73 102c-23 6 -51 7 -77 7h-228z" />
    <glyph glyph-name="uni042B" unicode="&#x42b;" horiz-adv-x="1124" 
d="M859 700h131v-700h-131v700zM495 0h-361v700h127v-234h234c44 0 85 -4 122 -17c87 -31 148 -102 148 -215c0 -103 -52 -172 -126 -207c-41 -20 -92 -27 -144 -27zM261 343v-220h228c29 0 60 2 83 11c41 15 67 48 67 100c0 60 -30 90 -73 102c-23 6 -51 7 -78 7h-227z" />
    <glyph glyph-name="uni042C" unicode="&#x42c;" horiz-adv-x="816" 
d="M495 0h-361v700h127v-234h234c44 0 85 -4 122 -17c87 -31 148 -102 148 -215c0 -103 -52 -172 -126 -207c-41 -20 -92 -27 -144 -27zM261 343v-220h228c29 0 60 2 83 11c41 15 67 48 67 100c0 60 -30 90 -73 102c-23 6 -51 7 -78 7h-227z" />
    <glyph glyph-name="uni042D" unicode="&#x42d;" horiz-adv-x="825" 
d="M66 105l103 81c47 -50 109 -75 193 -75c125 0 218 72 243 179h-399v123h398c-25 103 -112 176 -242 176c-78 0 -142 -25 -187 -65l-100 80c64 62 165 109 291 109c219 0 371 -150 371 -364c0 -211 -160 -362 -375 -362c-117 0 -223 37 -296 118z" />
    <glyph glyph-name="uni042E" unicode="&#x42e;" horiz-adv-x="1192" 
d="M134 700h130v-284h121c28 183 175 297 357 297c210 0 362 -146 362 -362c0 -218 -148 -364 -362 -364c-191 0 -333 120 -357 306h-121v-293h-130v700zM742 589c-144 0 -233 -103 -233 -238c0 -143 95 -240 233 -240c141 0 235 97 235 240c0 135 -88 238 -235 238z" />
    <glyph glyph-name="uni042F" unicode="&#x42f;" horiz-adv-x="877" 
d="M68 0l162 253c-98 47 -129 120 -129 213c0 99 45 162 116 198c59 30 120 36 180 36h346v-700h-126v227h-247l-141 -227h-161zM378 348h239v229h-229c-31 0 -66 -3 -93 -14c-38 -15 -67 -43 -67 -98c0 -52 22 -82 55 -99c26 -13 58 -18 95 -18z" />
    <glyph glyph-name="uni0403" unicode="&#x403;" horiz-adv-x="719" 
d="M310 770l102 118h175l-110 -118h-167zM266 0h-132v700h535v-125h-403v-575z" />
    <glyph glyph-name="uni0490" unicode="&#x490;" horiz-adv-x="733" 
d="M266 0h-132v700h414v110h131v-235h-413v-575z" />
    <glyph glyph-name="uni0402" unicode="&#x402;" horiz-adv-x="987" 
d="M46 700h649v-123h-289v-131h250c43 0 84 -4 121 -16c88 -31 149 -101 149 -212c0 -101 -52 -170 -127 -204c-41 -19 -92 -26 -143 -26h-90v123h84c28 0 59 2 82 11c41 15 67 46 67 96c0 58 -30 86 -73 98c-23 6 -51 7 -77 7h-243v-323h-128v577h-232v123z" />
    <glyph glyph-name="uni0404" unicode="&#x404;" horiz-adv-x="820" 
d="M656 186l103 -80c-74 -81 -177 -119 -296 -119c-214 0 -375 151 -375 362c0 214 164 364 377 364c123 0 221 -47 285 -109l-99 -80c-49 43 -104 65 -183 65c-127 0 -219 -74 -246 -176h398v-123h-399c25 -107 119 -179 242 -179c85 0 147 25 193 75z" />
    <glyph glyph-name="uni0405" unicode="&#x405;" 
d="M709 597l-94 -82c-47 52 -116 78 -211 78c-126 0 -162 -46 -162 -83c0 -61 63 -80 162 -89l78 -7c144 -13 242 -75 242 -206c0 -117 -93 -221 -305 -221c-133 0 -249 35 -328 130l98 82c63 -69 134 -92 237 -92c121 0 170 46 170 97c0 56 -49 84 -145 93l-83 8
c-147 14 -254 62 -254 199c0 120 99 209 295 209c115 0 226 -33 300 -116z" />
    <glyph glyph-name="uni0400" unicode="&#x400;" 
d="M134 700h574v-123h-448v-161h393v-122h-393v-171h462v-123h-588v700zM445 888l102 -118h-167l-110 118h175z" />
    <glyph glyph-name="uni0406" unicode="&#x406;" horiz-adv-x="403" 
d="M134 700h135v-700h-135v700z" />
    <glyph glyph-name="uni0407" unicode="&#x407;" horiz-adv-x="403" 
d="M134 700h135v-700h-135v700zM170 765h-128v129h128v-129zM359 765h-129v129h129v-129z" />
    <glyph glyph-name="uni0408" unicode="&#x408;" horiz-adv-x="784" 
d="M527 700h130v-439c0 -175 -134 -274 -302 -274c-161 0 -286 81 -316 253l124 39c15 -109 84 -167 194 -167c102 0 170 58 170 152v436z" />
    <glyph glyph-name="uni040D" unicode="&#x40d;" horiz-adv-x="942" 
d="M808 700v-700h-128v548l-376 -548h-170v700h129v-548l376 548h169zM489 888l102 -118h-167l-110 118h175z" />
    <glyph glyph-name="uni040C" unicode="&#x40c;" horiz-adv-x="818" 
d="M538 384l244 -384h-158l-188 305h-175v-305h-127v700h127v-273h159l186 273h154zM338 770l102 118h175l-110 -118h-167z" />
    <glyph glyph-name="uni0409" unicode="&#x409;" horiz-adv-x="1241" 
d="M614 0l-219 581l-221 -581h-148l286 700h170l94 -234h342c43 0 84 -4 121 -17c87 -31 151 -102 151 -215c0 -103 -55 -172 -129 -207c-41 -20 -92 -27 -143 -27h-304zM911 343h-285l88 -220h198c28 0 59 2 82 11c41 15 67 48 67 100c0 60 -30 90 -73 102
c-23 6 -51 7 -77 7z" />
    <glyph glyph-name="uni040A" unicode="&#x40a;" horiz-adv-x="1304" 
d="M983 0h-356v319h-366v-319h-127v700h127v-258h366v258h126v-258h230c43 0 84 -3 121 -16c88 -29 149 -97 149 -204c0 -98 -52 -163 -127 -197c-41 -19 -92 -25 -143 -25zM753 123h224c28 0 59 2 82 11c41 13 67 42 67 88c0 53 -30 79 -73 90c-23 6 -51 7 -77 7h-223v-196
z" />
    <glyph glyph-name="uni040B" unicode="&#x40b;" horiz-adv-x="979" 
d="M768 0v158v21c0 4 -1 9 -1 13c0 11 -1 22 -2 32l-3 17c-7 28 -20 50 -47 64c-3 2 -7 4 -11 5c-15 6 -32 10 -54 12c-9 1 -19 1 -29 1h-215v-323h-128v577h-232v123h649v-123h-289v-131h240h14c4 0 9 -1 14 -1l25 -3c13 -1 25 -4 36 -7l21 -6c14 -5 26 -11 38 -18
c3 -1 5 -3 8 -5c8 -5 16 -11 23 -17c14 -12 25 -26 35 -41c6 -10 12 -20 16 -31c5 -11 9 -23 12 -34c4 -18 7 -36 9 -54c0 -9 1 -19 1 -28v-201h-130z" />
    <glyph glyph-name="uni040E" unicode="&#x40e;" horiz-adv-x="763" 
d="M332 0h-154l149 231l-288 469h159l204 -345l202 345h153zM495 907h109v-15c0 -85 -72 -144 -197 -144c-129 0 -198 59 -198 144v15h112v-7c0 -36 30 -61 86 -61s88 25 88 61v7z" />
    <glyph glyph-name="uni040F" unicode="&#x40f;" horiz-adv-x="902" 
d="M134 0v700h131v-575h373v575h130v-700h-252v-130h-130v130h-252z" />
    <glyph glyph-name="uni0430" unicode="&#x430;" horiz-adv-x="842" 
d="M684 0l-66 147h-398l-65 -147h-137l320 700h167l319 -700h-140zM419 597l-146 -329h292z" />
    <glyph glyph-name="uni0431" unicode="&#x431;" horiz-adv-x="828" 
d="M134 0v700h567v-125h-440v-146h233c40 0 89 -3 125 -14c83 -27 138 -87 138 -197c0 -118 -69 -194 -174 -212c-29 -6 -53 -6 -113 -6h-336zM261 115h266c59 0 104 29 104 102c0 71 -46 97 -105 97h-265v-199z" />
    <glyph glyph-name="uni0432" unicode="&#x432;" horiz-adv-x="846" 
d="M664 374c62 -37 93 -92 93 -164c0 -114 -69 -187 -174 -204c-29 -6 -53 -6 -113 -6h-336v700h336c55 -1 77 -3 104 -8c88 -17 150 -89 150 -183c0 -59 -21 -106 -60 -135zM261 585v-173h233c55 0 104 22 104 85c0 71 -48 88 -109 88h-228zM261 298v-183h266
c59 0 104 27 104 94c0 65 -46 89 -105 89h-265z" />
    <glyph glyph-name="uni0433" unicode="&#x433;" horiz-adv-x="719" 
d="M266 0h-132v700h535v-125h-403v-575z" />
    <glyph glyph-name="uni0434" unicode="&#x434;" horiz-adv-x="863" 
d="M841 125v-255h-128v135h-564v-135h-128v255h82l243 575h169l242 -575h84zM614 125l-184 461l-187 -461h371z" />
    <glyph glyph-name="uni0435" unicode="&#x435;" 
d="M134 700h574v-123h-448v-161h393v-122h-393v-171h462v-123h-588v700z" />
    <glyph glyph-name="uni0451" unicode="&#x451;" 
d="M134 700h574v-123h-448v-161h393v-122h-393v-171h462v-123h-588v700zM400 765h-128v129h128v-129zM589 765h-129v129h129v-129z" />
    <glyph glyph-name="uni0436" unicode="&#x436;" horiz-adv-x="1141" 
d="M36 0l245 384l-223 316h155l185 -273h109v273h127v-273h109l186 273h154l-222 -316l244 -384h-158l-188 305h-125v-305h-127v305h-125l-187 -305h-159z" />
    <glyph glyph-name="uni0437" unicode="&#x437;" horiz-adv-x="766" 
d="M197 293v121h128c114 0 195 8 195 87c0 53 -57 90 -171 90c-67 0 -135 -12 -183 -52l-85 84c74 69 178 90 268 90c56 0 125 -8 184 -35c64 -30 113 -84 113 -164c0 -64 -30 -112 -82 -144c77 -31 113 -92 113 -159c0 -179 -178 -224 -330 -224c-96 0 -228 13 -301 89
l99 92c41 -47 125 -59 203 -59c133 0 203 37 203 102c0 33 -17 52 -46 65c-38 17 -87 17 -149 17h-159z" />
    <glyph glyph-name="uni0438" unicode="&#x438;" horiz-adv-x="942" 
d="M808 700v-700h-128v548l-376 -548h-170v700h129v-548l376 548h169z" />
    <glyph glyph-name="uni0439" unicode="&#x439;" horiz-adv-x="942" 
d="M565 907h109v-15c0 -85 -72 -144 -197 -144c-129 0 -198 59 -198 144v15h112v-7c0 -36 30 -61 86 -61s88 25 88 61v7zM808 700v-700h-128v548l-376 -548h-170v700h129v-548l376 548h169z" />
    <glyph glyph-name="uni043A" unicode="&#x43a;" horiz-adv-x="818" 
d="M538 384l244 -384h-158l-188 305h-175v-305h-127v700h127v-273h159l186 273h154z" />
    <glyph glyph-name="uni043B" unicode="&#x43b;" horiz-adv-x="836" 
d="M663 0l-246 580l-250 -580h-149l316 700h168l316 -700h-155z" />
    <glyph glyph-name="uni043C" unicode="&#x43c;" horiz-adv-x="1135" 
d="M513 0l-251 589v-589h-128v700h214l222 -527l222 527h209v-700h-127v585l-250 -585h-111z" />
    <glyph glyph-name="uni043D" unicode="&#x43d;" horiz-adv-x="927" 
d="M134 700h132v-276h396v276h131v-700h-131v299h-396v-299h-132v700z" />
    <glyph glyph-name="uni043E" unicode="&#x43e;" horiz-adv-x="936" 
d="M467 713c222 0 381 -151 381 -362c0 -218 -165 -364 -381 -364c-213 0 -379 146 -379 364c0 216 169 362 379 362zM467 589c-154 0 -250 -103 -250 -238c0 -143 104 -240 250 -240c149 0 252 97 252 240c0 135 -97 238 -252 238z" />
    <glyph glyph-name="uni043F" unicode="&#x43f;" horiz-adv-x="917" 
d="M134 0v700h649v-700h-130v575h-388v-575h-131z" />
    <glyph glyph-name="uni0440" unicode="&#x440;" horiz-adv-x="837" 
d="M134 700h371c52 0 103 -7 144 -27c74 -35 126 -104 126 -207c0 -113 -61 -185 -148 -215c-37 -14 -78 -17 -122 -17h-244v-234h-127v700zM261 577v-220h237c27 0 55 1 78 7c43 12 73 42 73 102c0 53 -26 85 -67 100c-23 9 -54 11 -83 11h-238z" />
    <glyph glyph-name="uni0441" unicode="&#x441;" horiz-adv-x="879" 
d="M802 528l-111 -64c-48 81 -119 125 -228 125c-145 0 -247 -100 -247 -238c0 -135 95 -240 256 -240c101 0 180 43 226 139l114 -60c-66 -124 -178 -203 -340 -203c-224 0 -384 148 -384 364c0 211 163 362 375 362c140 0 275 -57 339 -185z" />
    <glyph glyph-name="uni0442" unicode="&#x442;" horiz-adv-x="745" 
d="M41 700h663v-124h-266v-576h-131v576h-266v124z" />
    <glyph glyph-name="uni0443" unicode="&#x443;" horiz-adv-x="763" 
d="M332 0h-154l149 231l-288 469h159l204 -345l202 345h153z" />
    <glyph glyph-name="uni0444" unicode="&#x444;" horiz-adv-x="974" 
d="M423 748h128v-75c240 -23 339 -174 339 -324c0 -154 -104 -303 -339 -326v-81h-128v81c-236 22 -339 172 -339 326c0 146 95 301 339 324v75zM215 349c0 -88 51 -188 208 -209v416c-163 -22 -208 -126 -208 -207zM759 349c0 81 -46 185 -208 207v-416
c158 21 208 121 208 209z" />
    <glyph glyph-name="uni0445" unicode="&#x445;" horiz-adv-x="789" 
d="M216 700l183 -239l184 239h160l-264 -335l288 -365h-160l-214 275l-209 -275h-162l291 371l-259 329h162z" />
    <glyph glyph-name="uni0446" unicode="&#x446;" horiz-adv-x="923" 
d="M134 0v700h131v-575h373v575h130v-575h93v-255h-130v130h-597z" />
    <glyph glyph-name="uni0447" unicode="&#x447;" horiz-adv-x="853" 
d="M227 698v-163c0 -96 5 -163 147 -163h214v326h131v-698h-131v247h-239c-192 0 -253 121 -253 245v206h131z" />
    <glyph glyph-name="uni0448" unicode="&#x448;" horiz-adv-x="1336" 
d="M1202 700v-700h-1068v700h131v-575h338v575h130v-575h338v575h131z" />
    <glyph glyph-name="uni0449" unicode="&#x449;" horiz-adv-x="1356" 
d="M1202 700v-575h92v-255h-130v130h-1030v700h131v-575h338v575h130v-575h338v575h131z" />
    <glyph glyph-name="uni044A" unicode="&#x44a;" horiz-adv-x="877" 
d="M557 0h-361v576h-155v124h281v-234h235c43 0 84 -4 121 -17c87 -31 148 -102 148 -215c0 -103 -52 -172 -126 -207c-41 -20 -92 -27 -143 -27zM322 343v-220h229c28 0 59 2 82 11c41 15 67 48 67 100c0 60 -30 90 -73 102c-23 6 -51 7 -77 7h-228z" />
    <glyph glyph-name="uni044B" unicode="&#x44b;" horiz-adv-x="1124" 
d="M859 700h131v-700h-131v700zM495 0h-361v700h127v-234h234c44 0 85 -4 122 -17c87 -31 148 -102 148 -215c0 -103 -52 -172 -126 -207c-41 -20 -92 -27 -144 -27zM261 343v-220h228c29 0 60 2 83 11c41 15 67 48 67 100c0 60 -30 90 -73 102c-23 6 -51 7 -78 7h-227z" />
    <glyph glyph-name="uni044C" unicode="&#x44c;" horiz-adv-x="816" 
d="M495 0h-361v700h127v-234h234c44 0 85 -4 122 -17c87 -31 148 -102 148 -215c0 -103 -52 -172 -126 -207c-41 -20 -92 -27 -144 -27zM261 343v-220h228c29 0 60 2 83 11c41 15 67 48 67 100c0 60 -30 90 -73 102c-23 6 -51 7 -78 7h-227z" />
    <glyph glyph-name="uni044D" unicode="&#x44d;" horiz-adv-x="825" 
d="M66 105l103 81c47 -50 109 -75 193 -75c125 0 218 72 243 179h-399v123h398c-25 103 -112 176 -242 176c-78 0 -142 -25 -187 -65l-100 80c64 62 165 109 291 109c219 0 371 -150 371 -364c0 -211 -160 -362 -375 -362c-117 0 -223 37 -296 118z" />
    <glyph glyph-name="uni044E" unicode="&#x44e;" horiz-adv-x="1192" 
d="M134 700h130v-284h121c28 183 175 297 357 297c210 0 362 -146 362 -362c0 -218 -148 -364 -362 -364c-191 0 -333 120 -357 306h-121v-293h-130v700zM742 589c-144 0 -233 -103 -233 -238c0 -143 95 -240 233 -240c141 0 235 97 235 240c0 135 -88 238 -235 238z" />
    <glyph glyph-name="uni044F" unicode="&#x44f;" horiz-adv-x="877" 
d="M68 0l162 253c-98 47 -129 120 -129 213c0 99 45 162 116 198c59 30 120 36 180 36h346v-700h-126v227h-247l-141 -227h-161zM378 348h239v229h-229c-31 0 -66 -3 -93 -14c-38 -15 -67 -43 -67 -98c0 -52 22 -82 55 -99c26 -13 58 -18 95 -18z" />
    <glyph glyph-name="uni0453" unicode="&#x453;" horiz-adv-x="719" 
d="M310 770l102 118h175l-110 -118h-167zM266 0h-132v700h535v-125h-403v-575z" />
    <glyph glyph-name="uni0491" unicode="&#x491;" horiz-adv-x="733" 
d="M266 0h-132v700h414v110h131v-235h-413v-575z" />
    <glyph glyph-name="uni0452" unicode="&#x452;" horiz-adv-x="987" 
d="M46 700h649v-123h-289v-131h250c43 0 84 -4 121 -16c88 -31 149 -101 149 -212c0 -101 -52 -170 -127 -204c-41 -19 -92 -26 -143 -26h-90v123h84c28 0 59 2 82 11c41 15 67 46 67 96c0 58 -30 86 -73 98c-23 6 -51 7 -77 7h-243v-323h-128v577h-232v123z" />
    <glyph glyph-name="uni0454" unicode="&#x454;" horiz-adv-x="820" 
d="M656 186l103 -80c-74 -81 -177 -119 -296 -119c-214 0 -375 151 -375 362c0 214 164 364 377 364c123 0 221 -47 285 -109l-99 -80c-49 43 -104 65 -183 65c-127 0 -219 -74 -246 -176h398v-123h-399c25 -107 119 -179 242 -179c85 0 147 25 193 75z" />
    <glyph glyph-name="uni0455" unicode="&#x455;" 
d="M709 597l-94 -82c-47 52 -116 78 -211 78c-126 0 -162 -46 -162 -83c0 -61 63 -80 162 -89l78 -7c144 -13 242 -75 242 -206c0 -117 -93 -221 -305 -221c-133 0 -249 35 -328 130l98 82c63 -69 134 -92 237 -92c121 0 170 46 170 97c0 56 -49 84 -145 93l-83 8
c-147 14 -254 62 -254 199c0 120 99 209 295 209c115 0 226 -33 300 -116z" />
    <glyph glyph-name="uni0450" unicode="&#x450;" 
d="M134 700h574v-123h-448v-161h393v-122h-393v-171h462v-123h-588v700zM445 888l102 -118h-167l-110 118h175z" />
    <glyph glyph-name="uni0456" unicode="&#x456;" horiz-adv-x="403" 
d="M134 700h135v-700h-135v700z" />
    <glyph glyph-name="uni0457" unicode="&#x457;" horiz-adv-x="403" 
d="M134 700h135v-700h-135v700zM170 765h-128v129h128v-129zM359 765h-129v129h129v-129z" />
    <glyph glyph-name="uni0458" unicode="&#x458;" horiz-adv-x="784" 
d="M527 700h130v-439c0 -175 -134 -274 -302 -274c-161 0 -286 81 -316 253l124 39c15 -109 84 -167 194 -167c102 0 170 58 170 152v436z" />
    <glyph glyph-name="uni045D" unicode="&#x45d;" horiz-adv-x="942" 
d="M489 888l102 -118h-167l-110 118h175zM808 700v-700h-128v548l-376 -548h-170v700h129v-548l376 548h169z" />
    <glyph glyph-name="uni045C" unicode="&#x45c;" horiz-adv-x="818" 
d="M538 384l244 -384h-158l-188 305h-175v-305h-127v700h127v-273h159l186 273h154zM338 770l102 118h175l-110 -118h-167z" />
    <glyph glyph-name="uni0459" unicode="&#x459;" horiz-adv-x="1241" 
d="M614 0l-219 581l-221 -581h-148l286 700h170l94 -234h342c43 0 84 -4 121 -17c87 -31 151 -102 151 -215c0 -103 -55 -172 -129 -207c-41 -20 -92 -27 -143 -27h-304zM911 343h-285l88 -220h198c28 0 59 2 82 11c41 15 67 48 67 100c0 60 -30 90 -73 102
c-23 6 -51 7 -77 7z" />
    <glyph glyph-name="uni045A" unicode="&#x45a;" horiz-adv-x="1304" 
d="M983 0h-356v319h-366v-319h-127v700h127v-258h366v258h126v-258h230c43 0 84 -3 121 -16c88 -29 149 -97 149 -204c0 -98 -52 -163 -127 -197c-41 -19 -92 -25 -143 -25zM753 123h224c28 0 59 2 82 11c41 13 67 42 67 88c0 53 -30 79 -73 90c-23 6 -51 7 -77 7h-223v-196
z" />
    <glyph glyph-name="uni045B" unicode="&#x45b;" horiz-adv-x="979" 
d="M768 0v158v21c0 4 -1 9 -1 13c0 11 -1 22 -2 32l-3 17c-7 28 -20 50 -47 64c-3 2 -7 4 -11 5c-15 6 -32 10 -54 12c-9 1 -19 1 -29 1h-215v-323h-128v577h-232v123h649v-123h-289v-131h240h14c4 0 9 -1 14 -1l25 -3c13 -1 25 -4 36 -7l21 -6c14 -5 26 -11 38 -18
c3 -1 5 -3 8 -5c8 -5 16 -11 23 -17c14 -12 25 -26 35 -41c6 -10 12 -20 16 -31c5 -11 9 -23 12 -34c4 -18 7 -36 9 -54c0 -9 1 -19 1 -28v-201h-130z" />
    <glyph glyph-name="uni045E" unicode="&#x45e;" horiz-adv-x="763" 
d="M332 0h-154l149 231l-288 469h159l204 -345l202 345h153zM495 907h109v-15c0 -85 -72 -144 -197 -144c-129 0 -198 59 -198 144v15h112v-7c0 -36 30 -61 86 -61s88 25 88 61v7z" />
    <glyph glyph-name="uni045F" unicode="&#x45f;" horiz-adv-x="902" 
d="M134 0v700h131v-575h373v575h130v-700h-252v-130h-130v130h-252z" />
    <glyph glyph-name="breve.locl" horiz-adv-x="246" 
d="M212 907h109v-15c0 -85 -72 -144 -197 -144c-129 0 -198 59 -198 144v15h112v-7c0 -36 30 -61 86 -61s88 25 88 61v7z" />
    </font>
</defs>
</svg>
