<?xml version="1.0" encoding="utf-8"?>
<!-- Generator: Adobe Illustrator 24.1.3, SVG Export Plug-In . SVG Version: 6.00 Build 0)  -->
<svg version="1.1" id="Layer_1" xmlns="http://www.w3.org/2000/svg" xmlns:xlink="http://www.w3.org/1999/xlink" x="0px" y="0px"
	 viewBox="0 0 500 500" style="enable-background:new 0 0 500 500;" xml:space="preserve">
<style type="text/css">
	.st0{fill:#FFFFFF;}
</style>
<g>
	<path class="st0" d="M97.7,269.8c-7.1-8.2-18.1-12.3-32.9-12.3c-15.2,0-27,4.8-35.5,14.3c-8.4,9.3-12.6,22.2-12.6,38.6
		c0,18.2,5.1,31.8,15.2,40.7c7.6,6.8,17.5,10.2,29.7,10.2c13.2,0,23.1-4.1,29.8-12.4l2.2,10h13.7v-52.4H70.6V322h15.9v4.6
		c0,5.1-2.2,9.3-6.5,12.5c-4.1,3-9.3,4.5-15.7,4.5c-8.3,0-14.6-2.8-19-8.4c-4.6-5.7-6.8-13.9-6.8-24.6c0-11.1,2.2-19.6,6.5-25.7
		c4.5-6.3,10.8-9.5,19.1-9.5c11.5,0,19.1,6,22.9,18l20.1-4.9C105,280.7,101.8,274.5,97.7,269.8 M139.2,358.9v-38.6h21.3l18,38.6h24
		l-21.2-42.1c11.6-5.4,17.5-14.3,17.5-26.6c0-8.7-2.2-15.5-6.6-20.5c-5.7-6.6-14.6-9.8-26.7-9.8H118v99H139.2z M139.2,276.7h20.6
		c5.7,0,9.9,1,12.7,3s4.3,5.5,4.3,10.2c0,9.2-5.7,13.8-16.9,13.8h-20.6v-27H139.2z M216.5,271.4c-8.4,9.1-12.7,21.9-12.7,38.2
		c0,17.8,5.1,31.2,15.2,40.3c8.4,7.6,19.4,11.4,33,11.4c15.2,0,27-4.6,35.5-13.9c8.5-9.2,12.8-21.8,12.8-37.9
		c0-16.2-4.3-28.9-12.8-38.2c-8.5-9.3-20.2-13.9-35.2-13.9C237.1,257.5,225.1,262.1,216.5,271.4 M271.6,284.7
		c4.6,6,6.9,14.3,6.9,24.8c0,11.4-2.8,20.2-8.4,26.4c-4.6,5.2-10.7,7.7-18.1,7.7c-8.4,0-14.9-3.1-19.6-9.3c-4.6-6-6.8-14.3-6.8-24.7
		s2.2-18.7,6.8-24.8c4.8-6.3,11.2-9.4,19.3-9.4C260.2,275.2,266.9,278.4,271.6,284.7 M308.2,320.3c0,12.5,3.3,22.3,9.9,29.4
		c7.1,7.7,17.7,11.6,31.7,11.6c13.7,0,24-3.6,31.1-10.7c7.2-7.2,10.8-17.3,10.8-30.3v-60.4h-21.4v61.8c0,14.6-6.7,21.8-20.2,21.8
		c-13.6,0-20.4-7.2-20.4-21.8v-61.8h-21.4v60.4H308.2z M423.4,358.9v-35.7h22.7c10.8,0,19.5-2.8,26.1-8.4
		c6.9-5.8,10.2-13.7,10.2-23.5c0-9.7-3-17.4-8.9-23c-6-5.5-14.2-8.4-24.8-8.4h-46.5v99H423.4L423.4,358.9z M423.4,276.7h20.8
		c5.1,0,9,1.3,11.9,3.8s4.3,6.1,4.3,10.8s-1.6,8.4-4.7,11.2c-3.1,2.6-6.9,4-11.8,4h-20.5L423.4,276.7L423.4,276.7z"/>
	<path class="st0" d="M63.2,238.5c27.3,0,40.8-9.9,40.8-29.7c0-11.1-5.3-18.7-15.9-22.9c8.5-4.1,12.8-11.2,12.8-21.2
		c0-8.8-3.5-15.4-10.5-19.8c-5.5-3.6-13.1-5.3-22.6-5.3H20.3v99L63.2,238.5L63.2,238.5z M41.3,195.1h22.3c5.9,0,10.3,0.7,13.2,2.2
		c3.8,1.9,5.7,5.6,5.7,11c0,4.5-1.2,7.7-3.6,9.7c-2.9,2.5-8,3.7-15.3,3.7H41.3V195.1z M41.3,156.3h22.5c4.4,0,7.8,0.5,10.1,1.6
		c3.8,1.6,5.7,4.9,5.7,9.5c0,3.8-1.3,6.6-3.7,8.4c-2.4,1.8-6.4,2.7-12,2.7H41.3V156.3z M134.7,238.5v-70.6l23.4,70.6h17.5l23.4-70.6
		v70.6h20.2v-99h-28L167.4,213l-24.2-73.5h-28.7v99L134.7,238.5L134.7,238.5z M275.9,238.4l18.4-69.9l17.5,69.9H335l24-99h-21.8
		l-14.9,71.5l-16.9-71.5h-21.1l-17.5,71.5l-14.6-71.5h-22.3l22.7,99H275.9L275.9,238.4z"/>
</g>
</svg>
