<?xml version="1.0" encoding="utf-8"?>
<!-- Generator: Adobe Illustrator 22.1.0, SVG Export Plug-In . SVG Version: 6.00 Build 0)  -->
<svg version="1.1" id="logotype" xmlns="http://www.w3.org/2000/svg" xmlns:xlink="http://www.w3.org/1999/xlink" x="0px" y="0px"
	 viewBox="0 0 615.5 151.2" style="enable-background:new 0 0 615.5 151.2;" xml:space="preserve">
<style type="text/css">
	.Arched_x0020_Green{fill:url(#SVGID_1_);stroke:#FFFFFF;stroke-width:0.25;stroke-miterlimit:1;}
	.st0{fill:#231F20;}
</style>
<linearGradient id="SVGID_1_" gradientUnits="userSpaceOnUse" x1="-109" y1="374.002" x2="-108.2929" y2="373.2949">
	<stop  offset="0" style="stop-color:#1EAB4B"/>
	<stop  offset="0.9831" style="stop-color:#19361A"/>
</linearGradient>
<g>
	<path class="st0" d="M34.5,108.8h-5.1v23.5c0,12.2-8.4,13.1-11,13.1c-2.6,0-11-0.9-11-13.1v-23.5H2.3v23.3
		c0,13.4,8.2,18.1,16.1,18.1c7.9,0,16.1-4.8,16.1-18.1V108.8z"/>
	<polygon class="st0" points="86.4,108.8 81.3,108.8 81.3,141.1 58.4,108.8 50.3,108.8 53.2,112.7 53.2,149.3 58.3,149.3 
		58.3,117.4 81,149.3 86.4,149.3 	"/>
	<rect x="108" y="108.8" class="st0" width="5.1" height="40.6"/>
	<path class="st0" d="M135.8,131.2c2.7,7.7,6.2,18.6,6.2,18.6h6.3c0,0,4.8-14.9,6.1-18.4c1.3-3.5,8.3-22.7,8.3-22.7h-5.8l-11.7,35
		l-11.7-35h-5.8L135.8,131.2z"/>
	<polygon class="st0" points="193.1,130 194.7,125.5 181.7,125.5 181.7,113.3 198.3,113.3 199.9,108.8 176.6,108.8 176.6,149.3 
		198.9,149.3 200.6,144.8 181.7,144.8 181.7,130 	"/>
	<path class="st0" d="M225.8,108.8h-11.4v40.6h5.1v-18.2h6.2l12.7,18.2h6.1L231,130l0.5-0.2c4.5-1.8,7.1-5.4,7.1-10
		C238.5,116,235.9,108.8,225.8,108.8 M219.5,113.3h5.5c5,0,8,2.4,8,6.3c0,4.2-3,6.8-8,6.8h-5.6V113.3z"/>
	<path class="st0" d="M266.5,107.9c-6.9,0-11.9,4.6-11.9,11.1c0,6.5,5.5,9,10.9,11.3c4.6,2,8.9,3.9,8.9,8.3c0,3.8-3.4,6.9-7.5,6.9
		c-4.8,0-8.3-2.6-10.2-7.8l-0.1-0.3l-4.6,2.9l0.1,0.2c3.3,6.8,7.7,9.6,15.1,9.6c6.2,0,12.7-4.6,12.7-12.2c0-7.4-6.3-10.1-11.9-12.6
		c-4.1-1.8-8-3.5-8-6.9c0-2.1,1.4-5.6,6.5-5.6c3.3,0,6.3,1.7,8.2,4.7l0.2,0.2l4-3.2l-0.1-0.2C275.8,110.1,271.6,107.9,266.5,107.9"
		/>
	<rect x="297" y="108.8" class="st0" width="5.1" height="40.6"/>
	<polygon class="st0" points="346.4,108.8 315.7,108.8 315.7,113.3 328.9,113.3 328.9,149.3 334,149.3 334,113.3 344.8,113.3 	"/>
	<polygon class="st0" points="383.6,108.5 377.6,108.5 367.2,127.2 356.2,108.5 350.2,108.5 364.6,132.1 364.6,149.1 369.7,149.1 
		369.7,132.1 	"/>
</g>
<polygon class="st0" points="19.7,17.8 19.7,34.7 48.8,34.7 42.9,50.9 19.7,50.9 19.7,82.7 2.4,82.7 2.4,1.7 60.7,1.7 54.9,17.8 "/>
<polygon class="st0" points="94.2,66.6 76.9,66.6 71.1,82.7 52.2,82.7 79.9,11.9 77.2,1.7 100.4,1.7 131.9,82.7 113.2,82.7 92,24.8 
	82.3,51.7 99.7,51.7 "/>
<polygon class="st0" points="143.2,82.7 143.2,1.7 160.5,1.7 160.5,66.5 191.8,66.5 185.9,82.7 "/>
<polygon class="st0" points="264.8,82.7 264.8,32 241.1,62.6 217.3,32 217.3,82.7 200,82.7 200,11.7 192.3,1.7 216.4,1.7 
	241.1,33.6 265.8,1.7 282.2,1.7 282.2,82.7 "/>
<path class="st0" d="M339.5,84.4c-25.9,0-43.8-21.3-43.8-42.2S313.5,0,339.5,0c25.9,0,43.8,21.3,43.8,42.2S365.4,84.4,339.5,84.4
	 M339.5,16.3c-14.5,0-25.3,11.2-25.3,25.9c0,14.7,10.8,25.9,25.3,25.9c14.5,0,25.3-11.2,25.3-25.9C364.8,27.5,353.9,16.3,339.5,16.3
	"/>
<path class="st0" d="M447.7,1.7v43.7c0,19.9-12,22.1-17.4,22.1c-5.4,0-17.4-2.1-17.4-22.1V1.7h-17.4v43.3
	c0,28.9,17.8,39.2,34.8,39.2c17,0,34.8-10.3,34.8-39.2V1.7H447.7z"/>
<polygon class="st0" points="472.6,1.7 472.6,17.8 495,17.8 495,82.7 512.4,82.7 512.4,17.8 531.9,17.8 537.8,1.7 "/>
<path class="st0" d="M596.4,1.7h17.4v81h-17.4V1.7z M587.9,49.2h-26.2v33.5h-17.4v-81h17.4V33h32.2L587.9,49.2z"/>
</svg>
