<svg width="1500" height="396" viewBox="0 0 1500 396" fill="none" xmlns="http://www.w3.org/2000/svg">
<g clip-path="url(#clip0)">
<g filter="url(#filter0_ddd)">
<path d="M336.475 67H389.8V400H348.4V133.825L259.3 353.2H221.725L132.625 137.2V400H91.2248V67H144.775L241.3 304.825L336.475 67ZM665.766 400L635.841 297.625H519.966L490.041 400H446.391L546.066 67H610.191L710.091 400H665.766ZM530.991 259.15H624.591L577.791 99.175L530.991 259.15ZM876.559 229L980.959 400H932.134L850.909 265.675L769.234 400H720.184L825.259 229.225L725.584 67H774.634L850.909 192.325L927.184 67H975.559L876.559 229ZM1034.09 400V67H1078.19V400H1034.09ZM1407.33 67H1460.66V400H1419.26V133.825L1330.16 353.2H1292.58L1203.48 137.2V400H1162.08V67H1215.63L1312.16 304.825L1407.33 67Z" fill="black"/>
</g>
</g>
<defs>
<filter id="filter0_ddd" x="87.2249" y="67" width="1377.43" height="341" filterUnits="userSpaceOnUse" color-interpolation-filters="sRGB">
<feFlood flood-opacity="0" result="BackgroundImageFix"/>
<feColorMatrix in="SourceAlpha" type="matrix" values="0 0 0 0 0 0 0 0 0 0 0 0 0 0 0 0 0 0 127 0"/>
<feOffset dy="4"/>
<feGaussianBlur stdDeviation="2"/>
<feColorMatrix type="matrix" values="0 0 0 0 0 0 0 0 0 0 0 0 0 0 0 0 0 0 0.25 0"/>
<feBlend mode="normal" in2="BackgroundImageFix" result="effect1_dropShadow"/>
<feColorMatrix in="SourceAlpha" type="matrix" values="0 0 0 0 0 0 0 0 0 0 0 0 0 0 0 0 0 0 127 0"/>
<feOffset dy="4"/>
<feGaussianBlur stdDeviation="2"/>
<feColorMatrix type="matrix" values="0 0 0 0 0 0 0 0 0 0 0 0 0 0 0 0 0 0 0.25 0"/>
<feBlend mode="normal" in2="effect1_dropShadow" result="effect2_dropShadow"/>
<feColorMatrix in="SourceAlpha" type="matrix" values="0 0 0 0 0 0 0 0 0 0 0 0 0 0 0 0 0 0 127 0"/>
<feOffset dy="4"/>
<feGaussianBlur stdDeviation="2"/>
<feColorMatrix type="matrix" values="0 0 0 0 0 0 0 0 0 0 0 0 0 0 0 0 0 0 0.25 0"/>
<feBlend mode="normal" in2="effect2_dropShadow" result="effect3_dropShadow"/>
<feBlend mode="normal" in="SourceGraphic" in2="effect3_dropShadow" result="shape"/>
</filter>
<clipPath id="clip0">
<rect width="1500" height="396" fill="white"/>
</clipPath>
</defs>
</svg>
