<svg width="141" height="39" viewBox="0 0 141 39" fill="none" xmlns="http://www.w3.org/2000/svg">
<path d="M6.08967 30.5462C5.96538 29.7685 5.35636 29.3139 4.58754 29.3139C3.64648 29.3139 2.95224 30.0188 2.95224 31.1818C2.95224 32.3448 3.64293 33.0497 4.58754 33.0497C5.38654 33.0497 5.9707 32.549 6.08967 31.8299L5.53569 31.8281C5.44158 32.2933 5.05096 32.549 4.59109 32.549C3.96786 32.549 3.49734 32.0714 3.49734 31.1818C3.49734 30.2994 3.96609 29.8146 4.59286 29.8146C5.05629 29.8146 5.44513 30.0756 5.53569 30.5462H6.08967ZM6.77894 33L7.11275 32.0376H8.5332L8.86523 33H9.44762L8.13903 29.3636H7.50515L6.19656 33H6.77894ZM7.27255 31.576L7.80877 30.0241H7.83718L8.3734 31.576H7.27255ZM9.72275 33H11.1166C11.9617 33 12.3435 32.5792 12.3435 32.0217C12.3435 31.4588 11.9493 31.141 11.5889 31.1214V31.0859C11.9227 31.0007 12.2014 30.7734 12.2014 30.3189C12.2014 29.7809 11.8286 29.3636 11.0544 29.3636H9.72275L9.72275 33ZM10.2714 32.5295L10.2714 31.3647H11.0828C11.5232 31.3647 11.7984 31.6488 11.7984 31.995C11.7984 32.3004 11.5906 32.5295 11.0633 32.5295H10.2714ZM10.2714 30.9368V29.8306H11.0207C11.4557 29.8306 11.6634 30.0597 11.6634 30.3615C11.6634 30.7131 11.3758 30.9368 11.0065 30.9368H10.2714ZM13.0514 33L13.3852 32.0376H14.8057L15.1377 33H15.7201L14.4115 29.3636H13.7776L12.469 33H13.0514ZM13.545 31.576L14.0812 30.0241H14.1096L14.6459 31.576L13.545 31.576ZM15.9952 33H16.5439V31.6239H17.2896C17.302 31.6239 17.3127 31.6239 17.3251 31.6239L18.0637 33H18.6887L17.8826 31.5281C18.3283 31.3629 18.5502 30.9918 18.5502 30.5036C18.5502 29.8342 18.1348 29.3636 17.2914 29.3636H15.9952L15.9952 33ZM16.5439 31.1516V29.8342H17.2328C17.7743 29.8342 17.998 30.0916 17.998 30.5036C17.998 30.9137 17.7743 31.1516 17.2399 31.1516H16.5439ZM18.9679 33H21.269V32.5277H19.5165V31.4144H21.1287V30.9439H19.5165V29.8359H21.2477V29.3636H18.9679V33ZM21.5512 29.8359H22.684V33H23.2309V29.8359H24.3655V29.3636H21.5512V29.8359ZM24.8737 33.0337C25.0672 33.0337 25.2288 32.8757 25.2288 32.6786C25.2288 32.4851 25.0672 32.3253 24.8737 32.3253C24.6784 32.3253 24.5186 32.4851 24.5186 32.6786C24.5186 32.8757 24.6784 33.0337 24.8737 33.0337ZM26.7472 33H28.141C28.9862 33 29.3679 32.5792 29.3679 32.0217C29.3679 31.4588 28.9737 31.141 28.6133 31.1214V31.0859C28.9471 31.0007 29.2259 30.7734 29.2259 30.3189C29.2259 29.7809 28.853 29.3636 28.0788 29.3636H26.7472V33ZM27.2958 32.5295V31.3647H28.1072C28.5476 31.3647 28.8228 31.6488 28.8228 31.995C28.8228 32.3004 28.6151 32.5295 28.0877 32.5295H27.2958ZM27.2958 30.9368V29.8306H28.0451C28.4801 29.8306 28.6879 30.0597 28.6879 30.3615C28.6879 30.7131 28.4002 30.9368 28.0309 30.9368H27.2958ZM30.0758 33L30.4096 32.0376H31.8301L32.1621 33H32.7445L31.4359 29.3636H30.802L29.4934 33H30.0758ZM30.5694 31.576L31.1056 30.0241H31.1341L31.6703 31.576H30.5694ZM33.0196 33H33.5683V31.6239H34.314C34.3264 31.6239 34.3371 31.6239 34.3495 31.6239L35.0882 33H35.7132L34.907 31.5281C35.3527 31.3629 35.5747 30.9918 35.5747 30.5036C35.5747 29.8342 35.1592 29.3636 34.3158 29.3636H33.0196V33ZM33.5683 31.1516V29.8342H34.2572C34.7987 29.8342 35.0225 30.0916 35.0225 30.5036C35.0225 30.9137 34.7987 31.1516 34.2643 31.1516H33.5683ZM36.2994 33.0337C36.493 33.0337 36.6546 32.8757 36.6546 32.6786C36.6546 32.4851 36.493 32.3253 36.2994 32.3253C36.1041 32.3253 35.9443 32.4851 35.9443 32.6786C35.9443 32.8757 36.1041 33.0337 36.2994 33.0337ZM40.1562 30.3189H40.6854C40.6694 29.7365 40.1545 29.3139 39.4158 29.3139C38.6861 29.3139 38.1268 29.7312 38.1268 30.358C38.1268 30.864 38.489 31.1605 39.0732 31.3185L39.5028 31.4357C39.8917 31.5387 40.1918 31.6665 40.1918 31.9897C40.1918 32.3448 39.8526 32.5792 39.3857 32.5792C38.9631 32.5792 38.6115 32.391 38.5795 31.995H38.0291C38.0646 32.6538 38.5742 33.0604 39.3892 33.0604C40.2433 33.0604 40.7351 32.6112 40.7351 31.995C40.7351 31.3398 40.1509 31.0859 39.6893 30.9723L39.3342 30.88C39.0501 30.8072 38.6719 30.674 38.6737 30.326C38.6737 30.017 38.956 29.788 39.4034 29.788C39.8207 29.788 40.1172 29.9833 40.1562 30.3189ZM41.1407 33H43.4419V32.5277H41.6894V31.4144H43.3016V30.9439H41.6894V29.8359H43.4205V29.3636H41.1407V33ZM44.2852 29.3636H43.6495L44.8018 31.1818L43.6424 33H44.2816L45.1552 31.5973H45.1836L46.0572 33H46.6964L45.5565 31.1818L46.6893 29.3636H46.0536L45.1836 30.7859H45.1552L44.2852 29.3636ZM47.2907 33.0337C47.4842 33.0337 47.6458 32.8757 47.6458 32.6786C47.6458 32.4851 47.4842 32.3253 47.2907 32.3253C47.0953 32.3253 46.9355 32.4851 46.9355 32.6786C46.9355 32.8757 47.0953 33.0337 47.2907 33.0337Z" fill="black"/>
<path d="M50.3877 11.1818V33H54.8621V18.7457H55.0433L60.6896 32.8935H63.7364L69.3827 18.799H69.5638V33H74.0383V11.1818H68.3494L62.3408 25.8409H62.0852L56.0766 11.1818H50.3877ZM80.0199 33.3089C82.4382 33.3089 84.0042 32.2543 84.8032 30.7308H84.9311V33H89.235V21.9631C89.235 18.0639 85.9325 16.4233 82.289 16.4233C78.3686 16.4233 75.7904 18.2983 75.1619 21.2812L79.3593 21.6222C79.6683 20.5355 80.6377 19.7365 82.2677 19.7365C83.8125 19.7365 84.6967 20.5142 84.6967 21.8565V21.9205C84.6967 22.9751 83.5781 23.1136 80.7336 23.3906C77.495 23.6889 74.5866 24.7756 74.5866 28.4297C74.5866 31.6683 76.8984 33.3089 80.0199 33.3089ZM81.3196 30.1768C79.924 30.1768 78.9225 29.527 78.9225 28.2805C78.9225 27.0021 79.9772 26.3736 81.5752 26.1499C82.566 26.0114 84.1853 25.777 84.7287 25.4148V27.1513C84.7287 28.8665 83.3118 30.1768 81.3196 30.1768ZM94.1486 16.6364H89.4611L94.1486 24.8182L89.2907 33H93.9782L97.1529 27.343L100.381 33H105.015L100.146 24.8182L104.887 16.6364H100.232L97.1529 22.3572L94.1486 16.6364ZM105.183 33H109.721V16.6364H105.183V33ZM107.462 14.527C108.815 14.527 109.923 13.4936 109.923 12.2259C109.923 10.9688 108.815 9.93537 107.462 9.93537C106.12 9.93537 105.012 10.9688 105.012 12.2259C105.012 13.4936 106.12 14.527 107.462 14.527ZM110.956 33H115.495V23.1776C115.495 21.3665 116.645 20.1626 118.158 20.1626C119.65 20.1626 120.651 21.1854 120.651 22.794V33H125.051V23.0071C125.051 21.3132 126.02 20.1626 127.672 20.1626C129.12 20.1626 130.207 21.0682 130.207 22.8899V33H134.735V21.995C134.735 18.4474 132.625 16.4233 129.579 16.4233C127.182 16.4233 125.317 17.6484 124.646 19.5234H124.476C123.954 17.6271 122.281 16.4233 120.033 16.4233C117.828 16.4233 116.155 17.5952 115.473 19.5234H115.282V16.6364H110.956V33Z" fill="black"/>
<path d="M136.996 16.3097C138.57 16.3097 139.837 15.0384 139.837 13.4688C139.837 11.8991 138.566 10.6278 136.996 10.6278C135.427 10.6278 134.156 11.8991 134.156 13.4688C134.156 15.0384 135.427 16.3097 136.996 16.3097ZM136.996 15.5604C135.842 15.5604 134.908 14.6229 134.908 13.4688C134.908 12.3146 135.842 11.3771 136.996 11.3771C138.154 11.3771 139.088 12.3146 139.088 13.4688C139.088 14.6264 138.154 15.5604 136.996 15.5604ZM135.97 14.7472H136.652V13.8665H137.089L137.494 14.7472H138.239L137.742 13.7386C137.994 13.5966 138.161 13.3445 138.161 12.9929C138.161 12.4425 137.749 12.1264 137.252 12.1264H135.97V14.7472ZM136.652 13.3729V12.6307H137.082C137.273 12.6307 137.444 12.7337 137.444 12.9929C137.444 13.245 137.277 13.3729 137.078 13.3729H136.652Z" fill="black"/>
</svg>
