<?xml version="1.0" encoding="UTF-8"?>
<svg width="50px" height="43px" viewBox="1 2 50 43" xmlns="http://www.w3.org/2000/svg" xmlns:xlink="http://www.w3.org/1999/xlink" version="1.1">
 <!-- Generated by Pixelmator Pro 1.7.1 -->
 <g id="r-logo">
  <path id="Ellipse-1" d="M22.5 44.5 C10.902 44.5 1.5 35.098 1.5 23.5 1.5 11.902 10.902 2.5 22.5 2.5 34.098 2.5 43.5 11.902 43.5 23.5 43.5 35.098 34.098 44.5 22.5 44.5 Z M22.5 42.5 C32.993 42.5 41.5 33.993 41.5 23.5 41.5 13.007 32.993 4.5 22.5 4.5 12.007 4.5 3.5 13.007 3.5 23.5 3.5 33.993 12.007 42.5 22.5 42.5 Z" fill="#000000" fill-opacity="1" stroke="none"/>
  <path id="GF" d="M14.661 23.24 L20.397 23.24 20.397 30.824 C19.853 31.32 19.141 31.696 18.261 31.952 17.397 32.208 16.509 32.336 15.597 32.336 14.525 32.336 13.517 32.152 12.573 31.784 11.645 31.416 10.837 30.864 10.149 30.128 9.461 29.376 8.917 28.456 8.517 27.368 8.117 26.264 7.917 24.976 7.917 23.504 7.917 21.952 8.157 20.632 8.637 19.544 9.117 18.456 9.733 17.568 10.485 16.88 11.253 16.176 12.109 15.664 13.053 15.344 13.997 15.024 14.933 14.864 15.861 14.864 16.821 14.864 17.621 14.944 18.261 15.104 18.901 15.248 19.485 15.44 20.013 15.68 L20.013 20.648 17.373 20.648 17.373 17.984 C17.245 17.952 17.117 17.92 16.989 17.888 16.669 17.824 16.317 17.792 15.933 17.792 15.277 17.792 14.669 17.904 14.109 18.128 13.549 18.352 13.061 18.704 12.645 19.184 12.245 19.648 11.933 20.248 11.709 20.984 11.485 21.72 11.373 22.6 11.373 23.624 11.373 24.536 11.485 25.352 11.709 26.072 11.933 26.792 12.245 27.4 12.645 27.896 13.045 28.392 13.517 28.768 14.061 29.024 14.621 29.28 15.221 29.408 15.861 29.408 16.277 29.408 16.653 29.36 16.989 29.264 17.341 29.168 17.581 29.072 17.709 28.976 L17.709 25.64 14.661 25.64 Z M25.716 15.2 L36.372 15.2 36.372 18.128 29.004 18.128 29.004 22.28 35.844 22.28 35.844 25.208 29.004 25.208 29.004 32 25.716 32 Z" fill="#000000" fill-opacity="1" stroke="none"/>
  <path id="™" d="M44.386 9.478 L44.386 9.912 47.589 11.331 44.386 11.331 44.386 12.149 49.091 12.149 49.091 11.152 45.639 9.695 49.091 8.237 49.091 7.24 44.386 7.24 44.386 8.059 47.589 8.059 Z M44.386 4.172 L44.386 4.99 48.375 4.99 48.375 6.422 49.091 6.422 49.091 2.74 48.375 2.74 48.375 4.172 Z" fill="#000000" fill-opacity="1" stroke="none"/>
 </g>
</svg>
