<svg width="89" height="39" viewBox="0 0 89 39" fill="none" xmlns="http://www.w3.org/2000/svg">
<path d="M4.26376 24.3636L4.26376 28H4.78578L4.78578 25.3668H4.81951L5.89196 27.9947H6.3252L7.39764 25.3686H7.43137L7.43137 28H7.95339L7.95339 24.3636H7.28755L6.12988 27.1903H6.08727L4.9296 24.3636H4.26376ZM8.80824 28L9.14205 27.0376H10.5625L10.8945 28H11.4769L10.1683 24.3636H9.53445L8.22585 28H8.80824ZM9.30185 26.576L9.83807 25.0241H9.86648L10.4027 26.576H9.30185ZM12.9292 28C14.0372 28 14.6782 27.3129 14.6782 26.1765C14.6782 25.0455 14.0372 24.3636 12.9665 24.3636H11.752V28L12.9292 28ZM12.3007 27.5206V24.843H12.9328C13.7282 24.843 14.1384 25.3189 14.1384 26.1765C14.1384 27.0376 13.7282 27.5206 12.8991 27.5206L12.3007 27.5206ZM15.1104 28H17.4116V27.5277H15.6591V26.4144H17.2713V25.9439H15.6591V24.8359H17.3903V24.3636H15.1104V28ZM19.6584 28H20.2124L20.9776 25.2763H21.006L21.7713 28H22.3235L23.3338 24.3636H22.755L22.0483 27.1815H22.0146L21.2777 24.3636H20.706L19.9691 27.1797H19.9354L19.2269 24.3636H18.6499L19.6584 28ZM24.1327 24.3636H23.5841V28H24.1327V24.3636ZM24.5024 24.8359H25.6352V28H26.1821V24.8359H27.3167V24.3636H24.5024V24.8359ZM27.6886 28H28.2372V26.4144H30.0501V28H30.6005V24.3636H30.0501V25.9439H28.2372V24.3636H27.6886V28ZM21.4269 33.0568L23.2522 31.2315C23.689 30.7947 23.6855 30.0739 23.2522 29.6477C22.8083 29.2109 22.1141 29.2145 21.6684 29.6477L21.4269 29.8821L21.1855 29.6477C20.7398 29.2145 20.0455 29.2109 19.6017 29.6477C19.1684 30.0739 19.1649 30.7947 19.6017 31.2315L21.4269 33.0568ZM24.9552 33H26.349C27.1942 33 27.5759 32.5792 27.5759 32.0217C27.5759 31.4588 27.1817 31.141 26.8213 31.1214V31.0859C27.1551 31.0007 27.4339 30.7734 27.4339 30.3189C27.4339 29.7809 27.061 29.3636 26.2868 29.3636H24.9552V33ZM25.5038 32.5295V31.3647H26.3153C26.7556 31.3647 27.0308 31.6488 27.0308 31.995C27.0308 32.3004 26.8231 32.5295 26.2957 32.5295H25.5038ZM25.5038 30.9368V29.8306H26.2531C26.6881 29.8306 26.8959 30.0597 26.8959 30.3615C26.8959 30.7131 26.6082 30.9368 26.2389 30.9368H25.5038ZM27.6961 29.3636L29.0154 31.5724V33H29.5622V31.5724L30.8815 29.3636L30.2583 29.3636L29.3083 31.0167H29.2693L28.3193 29.3636H27.6961Z" fill="black"/>
<path d="M35.6937 33H36.3755V25.8835L39.6567 22.2614L48.7334 33H49.6283L40.1255 21.75L49.7562 11.1818H48.8187L36.4607 24.7756H36.3755V11.1818H35.6937V33ZM55.3595 33.3409C57.8311 33.3409 59.834 31.892 60.8567 29.6761H60.9419V33H61.6237V21.2386C61.6237 18.4688 59.6209 16.3807 56.297 16.3807C53.7402 16.3807 51.6095 17.6591 50.8425 19.7045L51.4817 19.9602C52.1635 18.1278 53.9959 17.0625 56.297 17.0625C59.1095 17.0625 60.9419 18.7244 60.9419 21.2386V22.2188C60.9419 23.4972 58.8112 23.7528 56.5527 24.0085C51.5243 24.6051 50.3737 26.3523 50.3737 28.5682C50.3737 31.6364 52.6749 33.3409 55.3595 33.3409ZM55.3595 32.6591C52.9306 32.6591 51.0556 31.0398 51.0556 28.5682C51.0556 26.4801 52.4192 25.1591 56.8084 24.6477C58.6834 24.4347 60.1323 24.1364 60.9419 23.5398V26.0114C60.9419 29.9744 58.4703 32.6591 55.3595 32.6591ZM64.5025 33H75.5821V32.3182H65.3548V32.233L75.1559 17.3182V16.6364H65.1417V17.3182H74.3036V17.4034L64.5025 32.3182V33ZM78.048 33H78.7298V16.6364H78.048V33ZM78.3889 13.6534C78.7618 13.6534 79.0707 13.3445 79.0707 12.9716C79.0707 12.5987 78.7618 12.2898 78.3889 12.2898C78.016 12.2898 77.7071 12.5987 77.7071 12.9716C77.7071 13.3445 78.016 13.6534 78.3889 13.6534Z" fill="black"/>
<path d="M84.9978 33.3097C86.5674 33.3097 87.8387 32.0384 87.8387 30.4688C87.8387 28.8991 86.5674 27.6278 84.9978 27.6278C83.4282 27.6278 82.1569 28.8991 82.1569 30.4688C82.1569 32.0384 83.4282 33.3097 84.9978 33.3097ZM84.9978 33.0824C83.5525 33.0824 82.3841 31.9141 82.3841 30.4688C82.3841 29.0234 83.5525 27.8551 84.9978 27.8551C86.4431 27.8551 87.6114 29.0234 87.6114 30.4688C87.6114 31.9141 86.4431 33.0824 84.9978 33.0824ZM84.0958 31.7472H84.3231V30.7031H85.218C85.2606 30.7031 85.2996 30.6996 85.3351 30.696L85.8998 31.7472H86.1626L85.5589 30.6499C85.882 30.5362 86.056 30.2557 86.056 29.9077C86.056 29.4531 85.7577 29.1264 85.218 29.1264H84.0958V31.7472ZM84.3231 30.4759V29.3537H85.2108C85.6228 29.3537 85.8287 29.5597 85.8287 29.9077C85.8287 30.2557 85.6228 30.4759 85.2108 30.4759H84.3231Z" fill="black"/>
</svg>
