<svg width="39" height="36" viewBox="0 0 39 36" fill="none" xmlns="http://www.w3.org/2000/svg">
<path d="M1.45015 1.54545V0.545454H0.450151V1.54545H1.45015ZM1.45015 35H0.450151V36H1.45015V35ZM8.31095 35V36H9.31095V35H8.31095ZM8.31095 13.1435V12.1435H7.31095V13.1435H8.31095ZM8.58865 13.1435L9.51741 12.7728L9.26625 12.1435H8.58865V13.1435ZM17.2463 34.8366L16.3176 35.2073L16.5687 35.8366H17.2463V34.8366ZM21.9182 34.8366V35.8366H22.5948L22.8465 35.2085L21.9182 34.8366ZM30.5759 13.2251V12.2251H29.8992L29.6476 12.8533L30.5759 13.2251ZM30.8536 13.2251H31.8536V12.2251H30.8536V13.2251ZM30.8536 35H29.8536V36H30.8536V35ZM37.7144 35V36H38.7144V35H37.7144ZM37.7144 1.54545H38.7144V0.545454H37.7144V1.54545ZM28.9913 1.54545V0.545454H28.3205L28.0661 1.16619L28.9913 1.54545ZM19.7783 24.0227V25.0227H20.4491L20.7036 24.402L19.7783 24.0227ZM19.3862 24.0227L18.4609 24.402L18.7154 25.0227H19.3862V24.0227ZM10.1732 1.54545L11.0985 1.16619L10.844 0.545454H10.1732V1.54545ZM0.450151 1.54545V35H2.45015V1.54545H0.450151ZM1.45015 36H8.31095V34H1.45015V36ZM9.31095 35V13.1435H7.31095V35H9.31095ZM8.31095 14.1435H8.58865V12.1435H8.31095V14.1435ZM7.65988 13.5141L16.3176 35.2073L18.1751 34.466L9.51741 12.7728L7.65988 13.5141ZM17.2463 35.8366H21.9182V33.8366H17.2463V35.8366ZM22.8465 35.2085L31.5041 13.597L29.6476 12.8533L20.9899 34.4648L22.8465 35.2085ZM30.5759 14.2251H30.8536V12.2251H30.5759V14.2251ZM29.8536 13.2251V35H31.8536V13.2251H29.8536ZM30.8536 36H37.7144V34H30.8536V36ZM38.7144 35V1.54545H36.7144V35H38.7144ZM37.7144 0.545454H28.9913V2.54545H37.7144V0.545454ZM28.0661 1.16619L18.853 23.6435L20.7036 24.402L29.9166 1.92471L28.0661 1.16619ZM19.7783 23.0227H19.3862V25.0227H19.7783V23.0227ZM20.3115 23.6435L11.0985 1.16619L9.24787 1.92471L18.4609 24.402L20.3115 23.6435ZM10.1732 0.545454H1.45015V2.54545H10.1732V0.545454Z" fill="black"/>
</svg>
