<?xml version="1.0" encoding="utf-8"?>
<!-- Generator: Adobe Illustrator 24.1.3, SVG Export Plug-In . SVG Version: 6.00 Build 0)  -->
<svg version="1.1" id="Layer_1" xmlns="http://www.w3.org/2000/svg" xmlns:xlink="http://www.w3.org/1999/xlink" x="0px" y="0px"
	 viewBox="0 0 300 200" style="enable-background:new 0 0 300 200;" xml:space="preserve">
<style type="text/css">
	.st0{fill:#FFFFFF;}
</style>
<path class="st0" d="M188.2,175.3l70-111.7l-64.1-39.4l-44.3,31l-44.3-31L41.4,63.7l70,111.7l38.4-29.9L188.2,175.3z M194.4,34.1
	l52.5,32.3l-60.8,97l-29.6-23.1l31.3-24.4V81.7l-30.8-21.5L194.4,34.1z M149.8,135.1l-29.7-23.2V86l29.7-20.8L179.5,86v25.9
	L149.8,135.1z M113.5,163.3l-60.8-97l52.5-32.3l37.4,26.2l-30.8,21.5v34.2l31.3,24.4L113.5,163.3z"/>
</svg>
